<?xml version="1.0" standalone="no"?>
<!DOCTYPE svg PUBLIC "-//W3C//DTD SVG 1.1//EN" "http://www.w3.org/Graphics/SVG/1.1/DTD/svg11.dtd" >
<svg xmlns="http://www.w3.org/2000/svg" xmlns:xlink="http://www.w3.org/1999/xlink" version="1.1">
<metadata>
Created by FontForge 20161013 at Fri Mar 18 16:20:21 2016
 By ,,,
Copyright (c) 2016 Premier League. All rights reserved.
</metadata>
<defs>
<font id="PremierLeague-Bold" horiz-adv-x="0" >
  <font-face 
    font-family="Premier League"
    font-weight="700"
    font-stretch="normal"
    units-per-em="1000"
    panose-1="2 11 8 4 2 2 3 2 2 4"
    ascent="775"
    descent="-225"
    x-height="530"
    cap-height="690"
    bbox="-476 -236 1224 898"
    underline-thickness="50"
    underline-position="-175"
    unicode-range="U+000D-FEFF"
  />
<missing-glyph horiz-adv-x="514" 
d="M514 760v-760h-514v760h514zM424 88v584h-334v-584h334z" />
    <glyph glyph-name="ff" unicode="ff" horiz-adv-x="740" 
d="M289 646q-31 0 -45.5 -15.5t-14.5 -46.5v-54h121v-115h-121v-415h-130v415h-79v115h79v68q0 79 47 123.5t130 44.5q54 0 101 -22l-46 -108q-20 10 -42 10zM659 646q-31 0 -45.5 -15.5t-14.5 -46.5v-54h121v-115h-121v-415h-130v415h-79v115h79v68q0 79 47 123.5t130 44.5
q54 0 101 -22l-46 -108q-20 10 -42 10z" />
    <glyph glyph-name="fi" unicode="fi" horiz-adv-x="652" 
d="M289 646q-31 0 -45.5 -15.5t-14.5 -46.5v-54h121v-115h-121v-415h-130v415h-79v115h79v68q0 79 47 123.5t130 44.5q54 0 101 -22l-46 -108q-20 10 -42 10zM576 530v-530h-130v530h130zM449.5 629q-23.5 24 -23.5 61q0 38 23.5 61.5t61.5 23.5q37 0 61 -23.5t24 -61.5
q0 -37 -24 -61t-61 -24q-38 0 -61.5 24z" />
    <glyph glyph-name="fl" unicode="fl" horiz-adv-x="652" 
d="M289 646q-31 0 -45.5 -15.5t-14.5 -46.5v-54h121v-115h-121v-415h-130v415h-79v115h79v68q0 79 47 123.5t130 44.5q54 0 101 -22l-46 -108q-20 10 -42 10zM446 0v760h130v-760h-130z" />
    <glyph glyph-name="ffi" unicode="ffi" horiz-adv-x="1022" 
d="M289 646q-31 0 -45.5 -15.5t-14.5 -46.5v-54h121v-115h-121v-415h-130v415h-79v115h79v68q0 79 47 123.5t130 44.5q54 0 101 -22l-46 -108q-20 10 -42 10zM659 646q-31 0 -45.5 -15.5t-14.5 -46.5v-54h121v-115h-121v-415h-130v415h-79v115h79v68q0 79 47 123.5t130 44.5
q54 0 101 -22l-46 -108q-20 10 -42 10zM946 530v-530h-130v530h130zM819.5 629q-23.5 24 -23.5 61q0 38 23.5 61.5t61.5 23.5q37 0 61 -23.5t24 -61.5q0 -37 -24 -61t-61 -24q-38 0 -61.5 24z" />
    <glyph glyph-name="ffl" unicode="ffl" horiz-adv-x="1022" 
d="M289 646q-31 0 -45.5 -15.5t-14.5 -46.5v-54h121v-115h-121v-415h-130v415h-79v115h79v68q0 79 47 123.5t130 44.5q54 0 101 -22l-46 -108q-20 10 -42 10zM659 646q-31 0 -45.5 -15.5t-14.5 -46.5v-54h121v-115h-121v-415h-130v415h-79v115h79v68q0 79 47 123.5t130 44.5
q54 0 101 -22l-46 -108q-20 10 -42 10zM816 0v760h130v-760h-130z" />
    <glyph glyph-name=".notdef" horiz-adv-x="514" 
d="M514 760v-760h-514v760h514zM424 88v584h-334v-584h334z" />
    <glyph glyph-name=".null" 
 />
    <glyph glyph-name="nonmarkingreturn" horiz-adv-x="333" 
 />
    <glyph glyph-name="NULL" 
 />
    <glyph glyph-name="NULL" 
 />
    <glyph glyph-name="CR" unicode="&#xd;" horiz-adv-x="240" 
 />
    <glyph glyph-name="space" unicode=" " horiz-adv-x="240" 
 />
    <glyph glyph-name="exclam" unicode="!" horiz-adv-x="290" 
d="M228 690l-30 -452h-106l-30 452h166zM76.5 16.5q-26.5 26.5 -26.5 68.5t26.5 68.5t68.5 26.5t68.5 -26.5t26.5 -68.5t-26.5 -68.5t-68.5 -26.5t-68.5 26.5z" />
    <glyph glyph-name="quotedbl" unicode="&#x22;" horiz-adv-x="422" 
d="M192 690l-23 -250h-96l-23 250h142zM372 690l-23 -250h-96l-23 250h142z" />
    <glyph glyph-name="numbersign" unicode="#" horiz-adv-x="760" 
d="M587 423l-32 -156h124l-24 -116h-124l-31 -151h-123l31 151h-136l-31 -151h-123l31 151h-124l24 116h124l33 156h-125l24 116h125l31 151h122l-31 -151h137l31 151h122l-31 -151h124l-24 -116h-124zM465 423h-137l-32 -156h136z" />
    <glyph glyph-name="dollar" unicode="$" horiz-adv-x="540" 
d="M456.5 84q-44.5 -49 -122.5 -66v-88h-130v83q-98 13 -168 61l70 111q31 -23 71 -36t83 -13q50 0 77 16t27 46q0 32 -28.5 50.5t-89.5 41.5q-60 23 -99 44t-67 59t-28 97q0 70 40 117.5t112 63.5v89h130v-87q90 -14 159 -66l-74 -104q-67 50 -145 50q-41 0 -63 -15
t-22 -42q0 -29 26.5 -45.5t85.5 -37.5q63 -23 102.5 -44.5t68.5 -62t29 -103.5q0 -70 -44.5 -119z" />
    <glyph glyph-name="percent" unicode="%" horiz-adv-x="894" 
d="M182 0l450 740l80 -50l-449 -740zM124 382.5q-39 22.5 -61.5 61.5t-22.5 86q0 46 22.5 85t61.5 62t86 23q45 0 84.5 -23t62.5 -62t23 -85q0 -47 -23 -86t-62.5 -61.5t-84.5 -22.5q-47 0 -86 22.5zM259.5 476.5q20.5 22.5 20.5 53.5t-21 53.5t-49 22.5q-29 0 -49.5 -22.5
t-20.5 -53.5q0 -32 20.5 -54t49.5 -22t49.5 22.5zM599.5 13q-39.5 23 -62.5 62t-23 85q0 47 23 86t62.5 61.5t84.5 22.5q47 0 86 -22.5t61.5 -61.5t22.5 -86q0 -46 -22.5 -85t-61.5 -62t-86 -23q-45 0 -84.5 23zM733.5 106.5q20.5 22.5 20.5 53.5q0 32 -20.5 54t-49.5 22
t-49.5 -22.5t-20.5 -53.5t21 -53.5t49 -22.5q29 0 49.5 22.5z" />
    <glyph glyph-name="ampersand" unicode="&#x26;" horiz-adv-x="694" 
d="M602 -13l-87 76q-47 -37 -106.5 -57t-126.5 -20q-120 0 -187 52.5t-67 146.5q0 62 29.5 105.5t105.5 81.5q-40 42 -55 77t-15 74q0 46 25.5 87.5t73.5 67.5t110 26q66 0 114 -24t72.5 -64t24.5 -87q0 -55 -33.5 -98.5t-108.5 -81.5l130 -107q30 62 30 132h129
q0 -118 -58 -214l82 -68zM246 566.5q-24 -18.5 -24 -50.5q0 -22 13.5 -43.5t47.5 -50.5q56 24 75.5 46.5t19.5 51.5q0 30 -20.5 47.5t-56.5 17.5q-31 0 -55 -18.5zM418 146l-172 149q-48 -23 -68.5 -47.5t-20.5 -58.5q0 -41 33.5 -62.5t91.5 -21.5q76 0 136 41z" />
    <glyph glyph-name="quotesingle" unicode="'" horiz-adv-x="242" 
d="M192 690l-23 -250h-96l-23 250h142z" />
    <glyph glyph-name="parenleft" unicode="(" horiz-adv-x="436" 
d="M248.5 11q-48.5 123 -48.5 264t48.5 264t147.5 221h-130q-186 -195 -186 -485t186 -485h130q-99 98 -147.5 221z" />
    <glyph glyph-name="parenright" unicode=")" horiz-adv-x="436" 
d="M170 -210q186 195 186 485t-186 485h-130q99 -98 147.5 -221t48.5 -264t-48.5 -264t-147.5 -221h130z" />
    <glyph glyph-name="asterisk" unicode="*" horiz-adv-x="424" 
d="M398 519l-138 -24l98 -102l-81 -57l-65 124l-65 -124l-80 57l98 102l-139 24l31 94l125 -62l-19 139h99l-20 -139l126 62z" />
    <glyph glyph-name="plus" unicode="+" horiz-adv-x="540" 
d="M485 257h-162v-165h-105v165h-162v102h162v164h105v-164h162v-102z" />
    <glyph glyph-name="comma" unicode="," horiz-adv-x="262" 
d="M226 150l-130 -300h-100l74 300h156z" />
    <glyph glyph-name="hyphen" unicode="-" horiz-adv-x="412" 
d="M42 228v128h328v-128h-328z" />
    <glyph glyph-name="period" unicode="." horiz-adv-x="280" 
d="M68 18q-28 28 -28 72t28 72t72 28t72 -28t28 -72t-28 -72t-72 -28t-72 28z" />
    <glyph glyph-name="slash" unicode="/" horiz-adv-x="510" 
d="M382 760h139l-393 -970h-139z" />
    <glyph glyph-name="zero" unicode="0" horiz-adv-x="540" 
d="M447 65.5q-61 -75.5 -177 -75.5t-177 75.5t-61 218.5v122q0 143 61 218.5t177 75.5t177 -75.5t61 -218.5v-122q0 -143 -61 -218.5zM351.5 534.5q-26.5 43.5 -81.5 43.5t-81.5 -43.5t-26.5 -132.5v-114q0 -89 26.5 -132.5t81.5 -43.5t81.5 43.5t26.5 132.5v114
q0 89 -26.5 132.5z" />
    <glyph glyph-name="one" unicode="1" horiz-adv-x="540" 
d="M487 122v-122h-434v122h152v402l-152 -57v128l282 105v-578h152z" />
    <glyph glyph-name="two" unicode="2" horiz-adv-x="540" 
d="M499 120v-120h-471v30q0 65 26 115t64 84t97 77q48 35 76 59.5t46.5 55.5t18.5 68q0 45 -27 69t-75 24q-46 0 -73 -24t-40 -79l-128 30q24 93 86.5 144t154.5 51q68 0 121.5 -27t83 -76t29.5 -112q0 -66 -26.5 -115.5t-64 -82t-97.5 -74.5q-46 -33 -70.5 -53t-40.5 -44
h310z" />
    <glyph glyph-name="three" unicode="3" horiz-adv-x="540" 
d="M447.5 354.5q41.5 -57.5 41.5 -138.5q0 -67 -30.5 -118.5t-85.5 -80t-127 -28.5q-81 0 -140.5 38.5t-81.5 105.5l116 49q11 -33 39 -51.5t67 -18.5q51 0 81 27.5t30 76.5q0 55 -36 84t-104 29q-26 0 -46 -4v93l117 150h-235v122h405v-94l-125 -160q73 -24 114.5 -81.5z
" />
    <glyph glyph-name="four" unicode="4" horiz-adv-x="540" 
d="M530 163h-84v-163h-130v163h-306v139l297 388h139v-405h84v-122zM316 285v247l-189 -247h189z" />
    <glyph glyph-name="five" unicode="5" horiz-adv-x="540" 
d="M371 433q57 -30 89.5 -82.5t32.5 -117.5t-31.5 -121t-88.5 -89t-129 -33q-67 0 -124.5 31.5t-88.5 85.5l111 66q31 -61 102 -61q53 0 85 32t32 85q0 52 -32 82.5t-86 30.5q-56 0 -105 -35l-75 33l31 350h369v-120h-249l-10 -111q17 4 39 4q71 0 128 -30z" />
    <glyph glyph-name="six" unicode="6" horiz-adv-x="540" 
d="M393.5 429.5q56.5 -31.5 89.5 -85t33 -117.5q0 -65 -33 -119.5t-89.5 -86t-124.5 -31.5q-66 0 -121.5 32.5t-87.5 88t-32 121.5q0 73 29 138t110 170l115 150h144l-175 -230q6 1 18 1q68 0 124.5 -31.5zM348.5 144q32.5 34 32.5 82t-32 81t-79 33q-44 0 -75.5 -32
t-31.5 -78q0 -50 31.5 -85t75.5 -35q46 0 78.5 34z" />
    <glyph glyph-name="seven" unicode="7" horiz-adv-x="540" 
d="M492 690v-115l-303 -575h-145l296 568h-302v122h454z" />
    <glyph glyph-name="eight" unicode="8" horiz-adv-x="540" 
d="M483 294q24 -43 24 -99q0 -61 -29 -107.5t-83 -72t-125 -25.5t-125 25.5t-83 72t-29 107.5q0 56 24 99t69 70q-33 25 -50.5 62t-17.5 84q0 86 57.5 138t154.5 52t154.5 -52t57.5 -138q0 -47 -17.5 -84t-50.5 -62q45 -27 69 -70zM211.5 558q-21.5 -22 -21.5 -58
q0 -37 21.5 -59t58.5 -22t58.5 22t21.5 59q0 36 -21.5 58t-58.5 22t-58.5 -22zM344.5 136.5q27.5 26.5 27.5 70.5q0 42 -28 68t-74 26t-74 -26t-28 -68q0 -44 27.5 -70.5t74.5 -26.5t74.5 26.5z" />
    <glyph glyph-name="nine" unicode="9" horiz-adv-x="540" 
d="M392.5 667.5q55.5 -32.5 87.5 -88t32 -121.5q0 -73 -29 -138t-110 -170l-115 -150h-144l175 230q-6 -1 -18 -1q-68 0 -124.5 31.5t-89.5 85t-33 117.5q0 65 33 119.5t89.5 86t124.5 31.5q66 0 121.5 -32.5zM345.5 382q31.5 32 31.5 78q0 50 -31.5 85t-75.5 35
q-46 0 -78.5 -34t-32.5 -82t32 -81t79 -33q44 0 75.5 32z" />
    <glyph glyph-name="colon" unicode=":" horiz-adv-x="280" 
d="M68 18q-28 28 -28 72t28 72t72 28t72 -28t28 -72t-28 -72t-72 -28t-72 28zM68 338q-28 28 -28 72t28 72t72 28t72 -28t28 -72t-28 -72t-72 -28t-72 28z" />
    <glyph glyph-name="semicolon" unicode=";" horiz-adv-x="280" 
d="M226 150l-130 -300h-100l74 300h156zM68 338q-28 28 -28 72t28 72t72 28t72 -28t28 -72t-28 -72t-72 -28t-72 28z" />
    <glyph glyph-name="less" unicode="&#x3c;" horiz-adv-x="540" 
d="M176 307l309 -126v-108l-429 172v125l429 172v-108l-309 -126v-1z" />
    <glyph glyph-name="equal" unicode="=" horiz-adv-x="540" 
d="M56 445h429v-96h-429v96zM56 265h429v-96h-429v96z" />
    <glyph glyph-name="greater" unicode="&#x3e;" horiz-adv-x="540" 
d="M56 73v108l309 126v1l-309 126v108l429 -172v-125z" />
    <glyph glyph-name="question" unicode="?" horiz-adv-x="522" 
d="M382.5 676q54.5 -28 84 -77.5t29.5 -113.5q0 -39 -18.5 -81t-59 -74.5t-103.5 -41.5l-4 -50h-106l-7 125q88 8 127 40.5t39 81.5q0 47 -27 72t-81 25q-49 0 -77 -24t-41 -79l-128 30q24 93 88 144t158 51q72 0 126.5 -28zM327 153.5q26 -26.5 26 -68.5t-26.5 -68.5
t-68.5 -26.5t-68.5 26.5t-26.5 68.5t26.5 68.5t68.5 26.5q43 0 69 -26.5z" />
    <glyph glyph-name="at" unicode="@" horiz-adv-x="882" 
d="M620 227q-1 -6 -1 -16q0 -28 14 -41.5t37 -13.5q39 0 63 36.5t24 119.5q0 90 -38.5 159t-107.5 106.5t-158 37.5q-103 0 -177.5 -47t-113.5 -126t-39 -174q0 -100 38.5 -170.5t107.5 -106.5t159 -36q57 0 103 13t90 40l37 -74q-53 -31 -108.5 -47t-121.5 -16
q-115 0 -202 46.5t-135.5 135.5t-48.5 215q0 116 49.5 214.5t143 157.5t218.5 59q113 0 201 -49.5t137 -137.5t49 -200q0 -84 -27 -139.5t-70 -81.5t-92 -26q-43 0 -70.5 19.5t-38.5 51.5q-27 -35 -64 -53.5t-78 -18.5q-80 0 -126 56.5t-46 150.5q0 68 25.5 122t69.5 84.5
t97 30.5q70 0 116 -51l5 43h108zM489 204q29 35 29 91q0 48 -25 78t-66 30t-67 -35.5t-26 -91.5q0 -48 22.5 -77.5t58.5 -29.5q45 0 74 35z" />
    <glyph glyph-name="A" unicode="A" horiz-adv-x="726" 
d="M505 173h-284l-65 -173h-146l268 690h169l269 -690h-146zM459 297l-96 254l-96 -254h192z" />
    <glyph glyph-name="B" unicode="B" horiz-adv-x="690" 
d="M606.5 297q31.5 -43 31.5 -106q0 -88 -58 -139.5t-156 -51.5h-340v690h295q97 0 153.5 -50.5t56.5 -136.5q0 -48 -18.5 -84.5t-52.5 -59.5q57 -19 88.5 -62zM219 410h129q51 0 78.5 20t27.5 58t-27.5 58t-78.5 20h-129v-156zM474.5 145.5q28.5 20.5 28.5 60.5t-29 61.5
t-83 21.5h-172v-164h172q55 0 83.5 20.5z" />
    <glyph glyph-name="C" unicode="C" horiz-adv-x="686" 
d="M220.5 34.5q-81.5 45.5 -127.5 126.5t-46 184t46 184t127.5 126.5t185.5 45.5q156 0 255 -107l-94 -93q-63 70 -162 70q-64 0 -115 -28t-79.5 -79.5t-28.5 -118.5t28.5 -118.5t79.5 -79.5t115 -28q100 0 163 69l93 -92q-99 -107 -255 -107q-104 0 -185.5 45.5z" />
    <glyph glyph-name="D" unicode="D" horiz-adv-x="737" 
d="M522.5 646q82.5 -44 125 -122t42.5 -179t-42.5 -179t-125 -122t-196.5 -44h-242v690h242q114 0 196.5 -44zM496 187.5q59 59.5 59 157.5t-59 157.5t-170 59.5h-107v-434h107q111 0 170 59.5z" />
    <glyph glyph-name="E" unicode="E" horiz-adv-x="609" 
d="M219 566v-151h315v-123h-315v-168h352v-124h-487v690h487v-124h-352z" />
    <glyph glyph-name="F" unicode="F" horiz-adv-x="573" 
d="M219 564v-160h305v-126h-305v-278h-135v690h477v-126h-342z" />
    <glyph glyph-name="G" unicode="G" horiz-adv-x="796" 
d="M754 342q0 -106 -46.5 -186.5t-126 -123.5t-175.5 -43q-104 0 -185.5 45.5t-127.5 126.5t-46 184t46 184t127.5 126.5t185.5 45.5q156 0 255 -107l-91 -91q-64 73 -165 73q-64 0 -115 -29t-79.5 -81.5t-28.5 -120.5t28.5 -120.5t79.5 -81.5t115 -29q78 0 132.5 42.5
t70.5 121.5h-206v125h348q4 -27 4 -61z" />
    <glyph glyph-name="H" unicode="H" horiz-adv-x="766" 
d="M682 690v-690h-135v285h-328v-285h-135v690h135v-277h328v277h135z" />
    <glyph glyph-name="I" unicode="I" horiz-adv-x="303" 
d="M84 0v690h135v-690h-135z" />
    <glyph glyph-name="J" unicode="J" horiz-adv-x="503" 
d="M159 120q65 0 95 37.5t30 114.5v418h135v-424q0 -127 -67 -200.5t-185 -73.5q-107 0 -177 60l72 103q40 -35 97 -35z" />
    <glyph glyph-name="K" unicode="K" horiz-adv-x="686" 
d="M284 287h-65v-287h-135v690h135v-275h64l223 275h174l-278 -337l294 -353h-179z" />
    <glyph glyph-name="L" unicode="L" horiz-adv-x="561" 
d="M84 690h135v-562h332v-128h-467v690z" />
    <glyph glyph-name="M" unicode="M" horiz-adv-x="908" 
d="M824 690v-690h-134v496l-233 -287h-6l-233 287v-496h-134v690h148l222 -273l222 273h148z" />
    <glyph glyph-name="N" unicode="N" horiz-adv-x="796" 
d="M712 690v-690h-161l-333 500v-500h-134v690h160l334 -501v501h134z" />
    <glyph glyph-name="O" unicode="O" horiz-adv-x="803" 
d="M218.5 35.5q-80.5 45.5 -126 126.5t-45.5 183t45.5 182.5t126 126t182.5 45.5t183 -45.5t126.5 -126t45.5 -182.5t-45.5 -183t-126.5 -126.5t-183 -45.5t-182.5 45.5zM514 147q50 29 78.5 80.5t28.5 117.5t-28.5 117t-78.5 80t-113 29t-113 -29t-78 -80t-28 -117
t28 -117.5t78 -80.5t113 -29t113 29z" />
    <glyph glyph-name="P" unicode="P" horiz-adv-x="662" 
d="M84 690h290q80 0 139 -29t91 -83.5t32 -127.5t-32 -127.5t-91 -84t-139 -29.5h-155v-209h-135v690zM362 337q66 0 102.5 30t36.5 83q0 54 -36.5 83t-102.5 29h-143v-225h143z" />
    <glyph glyph-name="Q" unicode="Q" horiz-adv-x="803" 
d="M711 -46l-104 95q-88 -59 -206 -59q-102 0 -182.5 45.5t-126 126.5t-45.5 183t45.5 182.5t126 126t182.5 45.5t183 -45.5t126.5 -126t45.5 -182.5q0 -122 -65 -214l99 -91zM505 142l-107 98l79 86l113 -103q31 53 31 122q0 66 -28.5 117t-78.5 80t-113 29t-113 -29
t-78 -80t-28 -117t28 -117.5t78 -80.5t113 -29q56 0 104 24z" />
    <glyph glyph-name="R" unicode="R" horiz-adv-x="672" 
d="M480 0l-168 229h-93v-229h-135v690h297q113 0 179.5 -62t66.5 -169q0 -83 -42 -140.5t-117 -78.5l176 -240h-164zM219 349h150q58 0 90.5 28.5t32.5 79.5q0 53 -32.5 80.5t-90.5 27.5h-150v-216z" />
    <glyph glyph-name="S" unicode="S" horiz-adv-x="594" 
d="M100 172q80 -57 183 -57q60 0 93 19.5t33 53.5q0 27 -18 45t-44.5 29t-76.5 27q-68 21 -112 41.5t-75 61t-31 104.5q0 60 30.5 106.5t86 72t129.5 25.5q66 0 127.5 -19.5t111.5 -56.5l-69 -109q-80 60 -171 60q-51 0 -79.5 -18.5t-28.5 -48.5q0 -25 17.5 -41.5t43 -27.5
t73.5 -26q69 -21 113.5 -42t76.5 -63t32 -109q0 -62 -33 -109.5t-93.5 -74t-139.5 -26.5q-68 0 -131 17.5t-113 50.5z" />
    <glyph glyph-name="T" unicode="T" horiz-adv-x="640" 
d="M630 562h-242v-562h-136v562h-242v128h620v-128z" />
    <glyph glyph-name="U" unicode="U" horiz-adv-x="745" 
d="M217 28q-67 38 -104 108t-37 163v391h135v-381q0 -93 43 -144t118 -51t118.5 51t43.5 144v381h135v-391q0 -93 -37 -163t-104 -108t-156 -38q-88 0 -155 38z" />
    <glyph glyph-name="V" unicode="V" horiz-adv-x="747" 
d="M737 690l-279 -690h-169l-279 690h146l218 -558l218 558h145z" />
    <glyph glyph-name="W" unicode="W" horiz-adv-x="1056" 
d="M1046 690l-214 -690h-155l-149 494l-149 -494h-155l-214 690h144l152 -501l150 501h144l150 -501l152 501h144z" />
    <glyph glyph-name="X" unicode="X" horiz-adv-x="709" 
d="M527 0l-172 250l-173 -250h-170l259 353l-247 337h170l161 -233l160 233h170l-246 -337l258 -353h-170z" />
    <glyph glyph-name="Y" unicode="Y" horiz-adv-x="682" 
d="M273 277l-263 413h160l171 -271l171 271h160l-263 -413v-277h-136v277z" />
    <glyph glyph-name="Z" unicode="Z" horiz-adv-x="642" 
d="M573 568l-349 -440h361v-128h-537v122l348 440h-336v128h513v-122z" />
    <glyph glyph-name="bracketleft" unicode="[" horiz-adv-x="403" 
d="M200 660v-770h163v-100h-283v970h283v-100h-163z" />
    <glyph glyph-name="backslash" unicode="\" horiz-adv-x="510" 
d="M382 -210l-393 970h139l393 -970h-139z" />
    <glyph glyph-name="bracketright" unicode="]" horiz-adv-x="403" 
d="M40 760h283v-970h-283v100h163v770h-163v100z" />
    <glyph glyph-name="asciicircum" unicode="^" horiz-adv-x="476" 
d="M239 588h-2l-108 -228h-121l161 331h138l161 -331h-121z" />
    <glyph glyph-name="underscore" unicode="_" horiz-adv-x="500" 
d="M500 -92v-118h-500v118h500z" />
    <glyph glyph-name="grave" unicode="`" horiz-adv-x="326" 
d="M163 617l-133 153h153l113 -153h-133z" />
    <glyph glyph-name="a" unicode="a" horiz-adv-x="671" 
d="M595 530v-530h-116l-13 61q-30 -33 -74 -51t-95 -18q-74 0 -132 35t-90.5 97t-32.5 141t32.5 141.5t90.5 97t132 34.5q51 0 95 -18t74 -51l13 61h116zM390.5 129.5q33.5 17.5 54 51t20.5 79.5v10q0 46 -20.5 79.5t-54 51t-72.5 17.5q-63 0 -104.5 -43.5t-41.5 -109.5
t41.5 -109.5t104.5 -43.5q39 0 72.5 17.5z" />
    <glyph glyph-name="b" unicode="b" horiz-adv-x="671" 
d="M506 503.5q58 -34.5 90.5 -97t32.5 -141.5t-32.5 -141t-90.5 -97t-132 -35q-51 0 -95 18t-74 51l-13 -61h-116v760h130v-289q31 31 74.5 49t93.5 18q74 0 132 -34.5zM457.5 155.5q41.5 43.5 41.5 109.5t-41.5 109.5t-104.5 43.5q-39 0 -72.5 -17.5t-54 -51t-20.5 -79.5
v-10q0 -46 20.5 -79.5t54 -51t72.5 -17.5q63 0 104.5 43.5z" />
    <glyph glyph-name="c" unicode="c" horiz-adv-x="523" 
d="M175.5 27q-62.5 35 -98 97t-35.5 141t35.5 141t98 97t142.5 35q121 0 197 -84l-89 -88q-40 50 -108 50q-64 0 -105 -41.5t-41 -109.5t41 -109.5t105 -41.5q68 0 108 50l89 -88q-76 -84 -197 -84q-80 0 -142.5 35z" />
    <glyph glyph-name="d" unicode="d" horiz-adv-x="671" 
d="M595 760v-760h-116l-13 61q-30 -33 -74 -51t-95 -18q-74 0 -132 35t-90.5 97t-32.5 141t32.5 141.5t90.5 97t132 34.5q50 0 93.5 -18t74.5 -49v289h130zM390.5 129.5q33.5 17.5 54 51t20.5 79.5v10q0 46 -20.5 79.5t-54 51t-72.5 17.5q-63 0 -104.5 -43.5t-41.5 -109.5
t41.5 -109.5t104.5 -43.5q39 0 72.5 17.5z" />
    <glyph glyph-name="e" unicode="e" horiz-adv-x="598" 
d="M551 216h-377q14 -53 52 -83.5t92 -30.5q33 0 68 14.5t62 39.5l72 -86q-40 -38 -91.5 -58t-110.5 -20q-80 0 -143 35t-98 97t-35 141t33 141.5t92 97t134 34.5q74 0 132 -33.5t90.5 -93t32.5 -135.5q0 -27 -5 -60zM218.5 398q-34.5 -30 -45.5 -81h254q-8 51 -42 81
t-84 30q-48 0 -82.5 -30z" />
    <glyph glyph-name="f" unicode="f" horiz-adv-x="370" 
d="M289 646q-31 0 -45.5 -15.5t-14.5 -46.5v-54h121v-115h-121v-415h-130v415h-79v115h79v68q0 79 47 123.5t130 44.5q54 0 101 -22l-46 -108q-20 10 -42 10z" />
    <glyph glyph-name="g" unicode="g" horiz-adv-x="661" 
d="M585 530v-480q0 -128 -75 -198t-212 -70q-112 0 -214 56l53 117q43 -27 82 -39t79 -12q76 0 116.5 37.5t40.5 108.5v26q-30 -31 -73 -49t-92 -18q-71 0 -127.5 34t-88.5 94.5t-32 136.5t32 136t88.5 94t127.5 34q50 0 93.5 -18t73.5 -50l13 60h115zM384 145.5
q32 16.5 51.5 48t19.5 74.5v11q0 43 -19.5 74.5t-51.5 48t-68 16.5q-41 0 -74 -19t-51.5 -52t-18.5 -73t18.5 -73t51.5 -52.5t74 -19.5q36 0 68 16.5z" />
    <glyph glyph-name="h" unicode="h" horiz-adv-x="638" 
d="M515 474.5q57 -63.5 57 -171.5v-303h-130v289q0 62 -28 94.5t-79 32.5q-59 0 -94 -42.5t-35 -124.5v-249h-130v760h130v-292q58 70 155 70t154 -63.5z" />
    <glyph glyph-name="i" unicode="i" horiz-adv-x="282" 
d="M206 530v-530h-130v530h130zM79.5 629q-23.5 24 -23.5 61q0 38 23.5 61.5t61.5 23.5q37 0 61 -23.5t24 -61.5q0 -37 -24 -61t-61 -24q-38 0 -61.5 24z" />
    <glyph glyph-name="j" unicode="j" horiz-adv-x="282" 
d="M11 -96q65 0 65 73v553h130v-552q0 -91 -50 -143.5t-138 -52.5q-49 0 -88 16l40 113q18 -7 41 -7zM79.5 629q-23.5 24 -23.5 61q0 38 23.5 61.5t61.5 23.5q37 0 61 -23.5t24 -61.5q0 -37 -24 -61t-61 -24q-38 0 -61.5 24z" />
    <glyph glyph-name="k" unicode="k" horiz-adv-x="597" 
d="M257 211h-51v-211h-130v760h130v-433h46l166 203h169l-217 -258l238 -272h-174z" />
    <glyph glyph-name="l" unicode="l" horiz-adv-x="282" 
d="M76 0v760h130v-760h-130z" />
    <glyph glyph-name="m" unicode="m" horiz-adv-x="962" 
d="M841.5 477q54.5 -61 54.5 -164v-313h-130v299q0 57 -25.5 87t-71.5 30q-54 0 -86 -38.5t-32 -113.5v-264h-130v299q0 58 -25.5 87.5t-71.5 29.5q-54 0 -86 -38.5t-32 -113.5v-264h-130v530h116l13 -63q54 71 150 71q57 0 100.5 -25.5t67.5 -72.5q58 98 172 98
q92 0 146.5 -61z" />
    <glyph glyph-name="n" unicode="n" horiz-adv-x="638" 
d="M515 474.5q57 -63.5 57 -171.5v-303h-130v289q0 62 -28 94.5t-79 32.5q-59 0 -94 -42.5t-35 -124.5v-249h-130v530h116l13 -64q57 72 156 72q97 0 154 -63.5z" />
    <glyph glyph-name="o" unicode="o" horiz-adv-x="630" 
d="M174 27q-62 35 -97 97t-35 141t35 141.5t97 97t141 34.5t141.5 -35t97 -97t34.5 -141q0 -80 -34.5 -142t-96.5 -96.5t-142 -34.5q-79 0 -141 35zM418 156q40 42 40 109t-40 109t-103 42t-103 -42t-40 -109t40 -109t103 -42t103 42z" />
    <glyph glyph-name="p" unicode="p" horiz-adv-x="671" 
d="M506 503.5q58 -34.5 90.5 -97t32.5 -141.5t-32.5 -141t-90.5 -97t-132 -35q-50 0 -93.5 18t-74.5 49v-269h-130v740h116l13 -61q30 33 74 51t95 18q74 0 132 -34.5zM457.5 155.5q41.5 43.5 41.5 109.5t-41.5 109.5t-104.5 43.5q-39 0 -72.5 -17.5t-54 -51t-20.5 -79.5
v-10q0 -46 20.5 -79.5t54 -51t72.5 -17.5q63 0 104.5 43.5z" />
    <glyph glyph-name="q" unicode="q" horiz-adv-x="671" 
d="M595 530v-740h-130v269q-31 -31 -74.5 -49t-93.5 -18q-74 0 -132 35t-90.5 97t-32.5 141t32.5 141.5t90.5 97t132 34.5q51 0 95 -18t74 -51l13 61h116zM390.5 129.5q33.5 17.5 54 51t20.5 79.5v10q0 46 -20.5 79.5t-54 51t-72.5 17.5q-63 0 -104.5 -43.5t-41.5 -109.5
t41.5 -109.5t104.5 -43.5q39 0 72.5 17.5z" />
    <glyph glyph-name="r" unicode="r" horiz-adv-x="409" 
d="M388 534v-136q-30 10 -66 10q-52 0 -84 -32.5t-32 -94.5v-281h-130v530h116l11 -57q31 34 65 49.5t74 15.5q26 0 46 -4z" />
    <glyph glyph-name="s" unicode="s" horiz-adv-x="477" 
d="M91 150q29 -23 64 -35.5t71 -12.5q37 0 57.5 11.5t20.5 33.5q0 23 -22 36t-70 29q-51 17 -84.5 34t-57.5 49t-24 83q0 71 54.5 115.5t142.5 44.5q104 0 186 -60l-64 -97q-60 47 -124 47q-31 0 -48 -11t-17 -30q0 -21 20.5 -32.5t67.5 -26.5q53 -18 86.5 -34.5t58.5 -50
t25 -86.5q0 -49 -26.5 -86t-74 -58t-110.5 -21q-53 0 -102.5 13.5t-87.5 38.5z" />
    <glyph glyph-name="t" unicode="t" horiz-adv-x="452" 
d="M440 29q-68 -37 -147 -37q-87 0 -137 47.5t-50 129.5v246h-85v115h85v153h130v-153h189v-115h-189v-227q0 -74 72 -74q44 0 89 24z" />
    <glyph glyph-name="u" unicode="u" horiz-adv-x="624" 
d="M183 23q-56 31 -86.5 87.5t-30.5 132.5v287h130v-273q0 -69 31 -106t85 -37t85 37t31 106v273h130v-287q0 -76 -30.5 -132.5t-86.5 -87.5t-129 -31t-129 31z" />
    <glyph glyph-name="v" unicode="v" horiz-adv-x="614" 
d="M603 530l-211 -530h-170l-211 530h140l156 -406l157 406h139z" />
    <glyph glyph-name="w" unicode="w" horiz-adv-x="925" 
d="M914 530l-185 -530h-150l-116 355l-117 -355h-151l-184 530h138l126 -372l122 372h132l121 -371l126 371h138z" />
    <glyph glyph-name="x" unicode="x" horiz-adv-x="608" 
d="M430 0l-126 176l-126 -176h-167l211 272l-200 258h166l116 -161l115 161h167l-199 -258l210 -272h-167z" />
    <glyph glyph-name="y" unicode="y" horiz-adv-x="612" 
d="M601 530l-221 -560q-41 -103 -101 -146t-151 -43q-34 0 -55 7l17 129q15 -3 34 -3q48 0 77.5 17.5t47.5 61.5l-238 537h145l163 -377l140 377h142z" />
    <glyph glyph-name="z" unicode="z" horiz-adv-x="534" 
d="M476 422l-261 -307h271v-115h-438v108l260 307h-249v115h417v-108z" />
    <glyph glyph-name="braceleft" unicode="{" horiz-adv-x="420" 
d="M212.5 339.5q-22.5 -41.5 -64.5 -64.5q42 -23 64.5 -64.5t22.5 -97.5v-86q0 -64 29 -100.5t80 -36.5h36v-100h-36q-69 0 -121 29t-80 83t-28 125v89q0 51 -25.5 80t-69.5 29v100q44 0 69.5 29t25.5 80v89q0 71 28 125t80 83t121 29h36v-100h-36q-51 0 -80 -36.5
t-29 -100.5v-86q0 -56 -22.5 -97.5z" />
    <glyph glyph-name="bar" unicode="|" horiz-adv-x="275" 
d="M205 760v-970h-135v970h135z" />
    <glyph glyph-name="braceright" unicode="}" horiz-adv-x="420" 
d="M330.5 354q25.5 -29 69.5 -29v-100q-44 0 -69.5 -29t-25.5 -80v-89q0 -71 -28 -125t-80 -83t-121 -29h-36v100h36q51 0 80 36.5t29 100.5v86q0 56 22.5 97.5t64.5 64.5q-42 23 -64.5 64.5t-22.5 97.5v86q0 64 -29 100.5t-80 36.5h-36v100h36q69 0 121 -29t80 -83t28 -125
v-89q0 -51 25.5 -80z" />
    <glyph glyph-name="asciitilde" unicode="~" horiz-adv-x="575" 
d="M445.5 335q19.5 24 19.5 63h86q0 -85 -44 -136.5t-114 -51.5q-35 0 -62.5 13.5t-61.5 38.5q-29 22 -48.5 32t-41.5 10q-31 0 -50 -23.5t-19 -61.5h-86q0 84 44.5 135.5t114.5 51.5q35 0 62 -13.5t62 -39.5q28 -21 47.5 -31.5t40.5 -10.5q31 0 50.5 24z" />
    <glyph glyph-name="uni00A0" unicode="&#xa0;" horiz-adv-x="240" 
 />
    <glyph glyph-name="exclamdown" unicode="&#xa1;" horiz-adv-x="290" 
d="M213.5 483.5q26.5 -26.5 26.5 -68.5t-26.5 -68.5t-68.5 -26.5t-68.5 26.5t-26.5 68.5t26.5 68.5t68.5 26.5t68.5 -26.5zM62 -190l30 452h106l30 -452h-166z" />
    <glyph glyph-name="cent" unicode="&#xa2;" horiz-adv-x="540" 
d="M436 264l89 -88q-64 -70 -158 -82v-94h-130v105q-85 26 -135 95.5t-50 164.5t50 164.5t135 95.5v65h130v-54q94 -12 158 -82l-89 -88q-40 50 -108 50q-64 0 -105 -41.5t-41 -109.5t41 -109.5t105 -41.5q68 0 108 50z" />
    <glyph glyph-name="sterling" unicode="&#xa3;" horiz-adv-x="540" 
d="M510 122v-122h-494v120q46 10 67.5 44t21.5 98v22h-70v122h70v62q0 107 58 169.5t158 62.5q59 0 107 -23t80 -65l-101 -79q-37 45 -86 45q-84 0 -84 -110v-62h173v-122h-173v-22q0 -87 -37 -140h310z" />
    <glyph glyph-name="currency" unicode="&#xa4;" horiz-adv-x="650" 
d="M529 148l81 -82l-86 -88l-82 81q-51 -28 -117 -28q-64 0 -117 28l-81 -81l-87 88l81 82q-26 50 -26 113q0 66 28 117l-83 83l87 88l85 -84q50 26 113 26q64 0 113 -26l86 84l86 -88l-83 -83q28 -53 28 -117q0 -63 -26 -113zM238.5 174.5q33.5 -33.5 86.5 -33.5
q54 0 87.5 33.5t33.5 86.5q0 51 -34 86t-87 35t-86.5 -33.5t-33.5 -87.5q0 -53 33.5 -86.5z" />
    <glyph glyph-name="yen" unicode="&#xa5;" horiz-adv-x="540" 
d="M372 400h114v-100h-148v-60h148v-100h-148v-140h-136v140h-148v100h148v60h-148v100h114l-184 290h160l126 -201l126 201h160z" />
    <glyph glyph-name="brokenbar" unicode="&#xa6;" horiz-adv-x="275" 
d="M70 760h135v-350h-135v350zM205 -210h-135v350h135v-350z" />
    <glyph glyph-name="section" unicode="&#xa7;" horiz-adv-x="504" 
d="M431 49q0 -46 -25 -81.5t-70.5 -55.5t-104.5 -20q-51 0 -97.5 13t-83.5 37l58 105q27 -21 59.5 -33t66.5 -12q32 0 49.5 9.5t17.5 27.5q0 17 -20 29t-69 32q-54 21 -90 40.5t-62.5 52.5t-26.5 82q0 50 27 85t81 63q-37 22 -57.5 52t-20.5 73q0 68 51.5 110.5t135.5 42.5
q99 0 176 -57l-63 -97q-55 44 -115 44q-27 0 -41 -9t-14 -24t19.5 -26.5t64.5 -28.5q56 -21 92.5 -40.5t64 -54.5t27.5 -86q0 -99 -99 -152q69 -48 69 -121zM184 258q21 -15 65 -33q38 14 60 33.5t22 43.5t-22.5 40t-68.5 35q-36 -16 -56.5 -37.5t-20.5 -45.5q0 -21 21 -36z
" />
    <glyph glyph-name="dieresis" unicode="&#xa8;" horiz-adv-x="440" 
d="M52.5 632.5q-22.5 22.5 -22.5 57.5t22.5 57.5t57.5 22.5t57.5 -22.5t22.5 -57.5t-22.5 -57.5t-57.5 -22.5t-57.5 22.5zM272.5 632.5q-22.5 22.5 -22.5 57.5t22.5 57.5t57.5 22.5t57.5 -22.5t22.5 -57.5t-22.5 -57.5t-57.5 -22.5t-57.5 22.5z" />
    <glyph glyph-name="copyright" unicode="&#xa9;" horiz-adv-x="802" 
d="M217.5 35.5q-80.5 45.5 -126 126t-45.5 183.5t45.5 183.5t126 126t183.5 45.5t183.5 -45.5t126 -126t45.5 -183.5t-45.5 -183.5t-126 -126t-183.5 -45.5t-183.5 45.5zM540.5 109.5q61.5 34.5 96 96t34.5 139.5t-34.5 139.5t-96 96t-139.5 34.5t-139.5 -34.5t-96 -96
t-34.5 -139.5t34.5 -139.5t96 -96t139.5 -34.5t139.5 34.5zM297 158.5q-49 27.5 -76.5 76t-27.5 110.5t27.5 110.5t76.5 76t111 27.5q95 0 156 -68l-85 -84q-26 32 -72 32q-39 0 -64 -26t-25 -68t25 -68t64 -26q47 0 72 32l85 -84q-61 -68 -156 -68q-62 0 -111 27.5z" />
    <glyph glyph-name="ordfeminine" unicode="&#xaa;" horiz-adv-x="469" 
d="M408 690v-350h-103l-6 28q-19 -16 -44.5 -25t-53.5 -9q-48 0 -86 23t-59.5 64t-21.5 93v2q0 52 21.5 93t59.5 64t86 23q28 0 53.5 -9t44.5 -25l6 28h103zM275 456q23 21 23 56v6q0 35 -23 56t-55 21q-33 0 -54.5 -23t-21.5 -56v-2q0 -33 21.5 -56t54.5 -23q32 0 55 21z
" />
    <glyph glyph-name="guillemotleft" unicode="&#xab;" horiz-adv-x="684" 
d="M214 292l160 -197h-164l-160 197l160 197h164zM464 292l160 -197h-164l-160 197l160 197h164z" />
    <glyph glyph-name="logicalnot" unicode="&#xac;" horiz-adv-x="540" 
d="M384 344h-328v103h429v-318h-101v215z" />
    <glyph glyph-name="uni00AD" unicode="&#xad;" horiz-adv-x="412" 
d="M42 228v128h328v-128h-328z" />
    <glyph glyph-name="registered" unicode="&#xae;" horiz-adv-x="600" 
d="M395 670.5q52 -29.5 81.5 -81.5t29.5 -119t-29.5 -119t-81.5 -81.5t-119 -29.5t-119 29.5t-81.5 81.5t-29.5 119t29.5 119t81.5 81.5t119 29.5t119 -29.5zM395 351q46 46 46 119t-46 119t-119 46t-119 -46t-46 -119t46 -119t119 -46t119 46zM374 450.5
q-12 -20.5 -34 -31.5l50 -64h-88l-44 56h-12v-56h-73v235h125q40 0 64 -24.5t24 -65.5q0 -29 -12 -49.5zM246 475h43q10 0 17 6.5t7 17.5t-7 17.5t-17 6.5h-43v-48z" />
    <glyph glyph-name="macron" unicode="&#xaf;" horiz-adv-x="365" 
d="M335 744v-108h-305v108h305z" />
    <glyph glyph-name="degree" unicode="&#xb0;" horiz-adv-x="360" 
d="M107 429.5q-33 19.5 -52.5 52.5t-19.5 73q0 39 19.5 72.5t52.5 53t73 19.5q39 0 72.5 -19.5t53 -53t19.5 -72.5q0 -40 -19.5 -73t-53 -52.5t-72.5 -19.5q-40 0 -73 19.5zM233.5 502q21.5 22 21.5 53q0 30 -22 52.5t-53 22.5t-53 -22.5t-22 -52.5q0 -31 22 -53t53 -22
q32 0 53.5 22z" />
    <glyph glyph-name="plusminus" unicode="&#xb1;" horiz-adv-x="540" 
d="M485 297h-163v-148h-103v148h-163v100h163v148h103v-148h163v-100zM56 100h429v-100h-429v100z" />
    <glyph glyph-name="twosuperior" unicode="&#xb2;" horiz-adv-x="342" 
d="M303 529v-80h-275v17q0 39 15 68t36.5 48t55.5 43q38 27 55.5 45.5t17.5 45.5q0 39 -47 39q-23 0 -35.5 -11.5t-19.5 -39.5l-86 21q14 53 51 82.5t90 29.5q60 0 98 -34t38 -87q0 -38 -15 -65.5t-35.5 -45t-53.5 -39.5t-48 -37h158z" />
    <glyph glyph-name="threesuperior" unicode="&#xb3;" horiz-adv-x="342" 
d="M276 646q20 -31 20 -75q0 -58 -38 -93t-100 -35q-46 0 -80 22t-46 59l78 33q5 -15 18 -23.5t30 -8.5q23 0 36 12t13 34q0 27 -17 39t-52 12q-8 0 -26 -2v60l53 67h-117v81h231v-60l-60 -77q37 -14 57 -45z" />
    <glyph glyph-name="acute" unicode="&#xb4;" horiz-adv-x="326" 
d="M143 770h153l-133 -153h-133z" />
    <glyph glyph-name="mu" unicode="&#xb5;" horiz-adv-x="626" 
d="M550 500v-500h-116l-12 57q-51 -65 -136 -65q-45 0 -80 18v-220h-130v710h130v-270q0 -57 25.5 -86.5t71.5 -29.5q54 0 85.5 39.5t31.5 115.5v231h130z" />
    <glyph glyph-name="paragraph" unicode="&#xb6;" horiz-adv-x="699" 
d="M611 -116h-112v701h-76v-701h-111v325h-29q-68 0 -127 30t-94.5 85t-35.5 126t35.5 126t94.5 85t127 30h406v-106h-78v-701z" />
    <glyph glyph-name="periodcentered" unicode="&#xb7;" horiz-adv-x="280" 
d="M68 248q-28 28 -28 72t28 72t72 28t72 -28t28 -72t-28 -72t-72 -28t-72 28z" />
    <glyph glyph-name="cedilla" unicode="&#xb8;" horiz-adv-x="230" 
d="M200 -50l-70 -150h-100l37 150h133z" />
    <glyph glyph-name="onesuperior" unicode="&#xb9;" horiz-adv-x="343" 
d="M295 531v-82h-247v82h78v185l-78 -29v86l166 61v-303h81z" />
    <glyph glyph-name="ordmasculine" unicode="&#xba;" horiz-adv-x="430" 
d="M121.5 357q-41.5 23 -64.5 64t-23 93v2q0 52 23 93t64.5 64t93.5 23t93.5 -23t64.5 -64t23 -93v-2q0 -52 -23 -93t-64.5 -64t-93.5 -23t-93.5 23zM265.5 458.5q19.5 21.5 19.5 55.5v2q0 34 -19.5 55.5t-50.5 21.5t-51 -21.5t-20 -55.5v-2q0 -34 20 -55.5t51 -21.5
t50.5 21.5z" />
    <glyph glyph-name="guillemotright" unicode="&#xbb;" horiz-adv-x="684" 
d="M224 489l160 -197l-160 -197h-164l160 197l-160 197h164zM474 489l160 -197l-160 -197h-164l160 197l-160 197h164z" />
    <glyph glyph-name="onequarter" unicode="&#xbc;" horiz-adv-x="908" 
d="M295 394v-82h-247v82h78v185l-78 -29v86l166 61v-303h81zM193 0l450 740l80 -50l-449 -740zM860 79h-39v-79h-88v79h-164v93l158 207h94v-218h39v-82zM733 161v114l-87 -114h87z" />
    <glyph glyph-name="onehalf" unicode="&#xbd;" horiz-adv-x="934" 
d="M295 394v-82h-247v82h78v185l-78 -29v86l166 61v-303h81zM193 0l450 740l80 -50l-449 -740zM886 80v-80h-275v17q0 39 15 68t36.5 48t55.5 43q38 27 55.5 45.5t17.5 45.5q0 39 -47 39q-23 0 -35.5 -11.5t-19.5 -39.5l-86 21q14 53 51 82.5t90 29.5q60 0 98 -34t38 -87
q0 -38 -15 -65.5t-35.5 -45t-53.5 -39.5t-48 -37h158z" />
    <glyph glyph-name="threequarters" unicode="&#xbe;" horiz-adv-x="895" 
d="M276 509q20 -31 20 -75q0 -58 -38 -93t-100 -35q-46 0 -80 22t-46 59l78 33q5 -15 18 -23.5t30 -8.5q23 0 36 12t13 34q0 27 -17 39t-52 12q-8 0 -26 -2v60l53 67h-117v81h231v-60l-60 -77q37 -14 57 -45zM212 0l450 740l80 -50l-449 -740zM869 79h-39v-79h-88v79h-164
v93l158 207h94v-218h39v-82zM742 161v114l-87 -114h87z" />
    <glyph glyph-name="questiondown" unicode="&#xbf;" horiz-adv-x="522" 
d="M195 346.5q-26 26.5 -26 68.5t26.5 68.5t68.5 26.5t68.5 -26.5t26.5 -68.5t-26.5 -68.5t-68.5 -26.5q-43 0 -69 26.5zM512 -9q-24 -93 -88 -144t-158 -51q-72 0 -126.5 28t-84 77.5t-29.5 113.5q0 39 18.5 81t59 74.5t103.5 41.5l4 50h106l7 -125q-88 -8 -127 -40.5
t-39 -81.5q0 -47 27 -72t81 -25q49 0 77 24t41 79z" />
    <glyph glyph-name="Agrave" unicode="&#xc0;" horiz-adv-x="726" 
d="M505 173h-284l-65 -173h-146l268 690h169l269 -690h-146zM459 297l-96 254l-96 -254h192zM333 727l-133 153h153l113 -153h-133z" />
    <glyph glyph-name="Aacute" unicode="&#xc1;" horiz-adv-x="726" 
d="M505 173h-284l-65 -173h-146l268 690h169l269 -690h-146zM459 297l-96 254l-96 -254h192zM373 880h153l-133 -153h-133z" />
    <glyph glyph-name="Acircumflex" unicode="&#xc2;" horiz-adv-x="726" 
d="M505 173h-284l-65 -173h-146l268 690h169l269 -690h-146zM459 297l-96 254l-96 -254h192zM423 727l-60 81l-60 -81h-133l113 153h160l113 -153h-133z" />
    <glyph glyph-name="Atilde" unicode="&#xc3;" horiz-adv-x="726" 
d="M505 173h-284l-65 -173h-146l268 690h169l269 -690h-146zM459 297l-96 254l-96 -254h192zM252 722h-90q0 68 35.5 110.5t91.5 42.5q23 0 41.5 -6t39.5 -18q18 -9 31.5 -14t28.5 -5q44 0 44 43h90q0 -68 -35.5 -110.5t-91.5 -42.5q-23 0 -41.5 6t-39.5 18q-18 9 -31.5 14
t-28.5 5q-44 0 -44 -43z" />
    <glyph glyph-name="Adieresis" unicode="&#xc4;" horiz-adv-x="726" 
d="M505 173h-284l-65 -173h-146l268 690h169l269 -690h-146zM459 297l-96 254l-96 -254h192zM195.5 742.5q-22.5 22.5 -22.5 57.5t22.5 57.5t57.5 22.5t57.5 -22.5t22.5 -57.5t-22.5 -57.5t-57.5 -22.5t-57.5 22.5zM415.5 742.5q-22.5 22.5 -22.5 57.5t22.5 57.5t57.5 22.5
t57.5 -22.5t22.5 -57.5t-22.5 -57.5t-57.5 -22.5t-57.5 22.5z" />
    <glyph glyph-name="Aring" unicode="&#xc5;" horiz-adv-x="726" 
d="M505 173h-284l-65 -173h-146l268 690h17q-22 16 -34.5 40.5t-12.5 52.5q0 47 33.5 81t81.5 34q47 0 81 -34t34 -81q0 -28 -12.5 -52.5t-34.5 -40.5h16l269 -690h-146zM327.5 818q-14.5 -15 -14.5 -35q0 -21 14.5 -35.5t35.5 -14.5t35.5 14.5t14.5 35.5q0 20 -14.5 35
t-35.5 15t-35.5 -15zM459 297l-96 254l-96 -254h192z" />
    <glyph glyph-name="AE" unicode="&#xc6;" horiz-adv-x="965" 
d="M625 566v-151h265v-123h-265v-168h302v-124h-437v173h-267l-87 -173h-146l358 690h579v-124h-302zM490 297v269h-68l-136 -269h204z" />
    <glyph glyph-name="Ccedilla" unicode="&#xc7;" horiz-adv-x="686" 
d="M220.5 34.5q-81.5 45.5 -127.5 126.5t-46 184t46 184t127.5 126.5t185.5 45.5q156 0 255 -107l-94 -93q-63 70 -162 70q-64 0 -115 -28t-79.5 -79.5t-28.5 -118.5t28.5 -118.5t79.5 -79.5t115 -28q100 0 163 69l93 -92q-99 -107 -255 -107q-104 0 -185.5 45.5zM468 -50
l-70 -150h-100l37 150h133z" />
    <glyph glyph-name="Egrave" unicode="&#xc8;" horiz-adv-x="609" 
d="M219 566v-151h315v-123h-315v-168h352v-124h-487v690h487v-124h-352zM298 727l-133 153h153l113 -153h-133z" />
    <glyph glyph-name="Eacute" unicode="&#xc9;" horiz-adv-x="609" 
d="M219 566v-151h315v-123h-315v-168h352v-124h-487v690h487v-124h-352zM338 880h153l-133 -153h-133z" />
    <glyph glyph-name="Ecircumflex" unicode="&#xca;" horiz-adv-x="609" 
d="M219 566v-151h315v-123h-315v-168h352v-124h-487v690h487v-124h-352zM388 727l-60 81l-60 -81h-133l113 153h160l113 -153h-133z" />
    <glyph glyph-name="Edieresis" unicode="&#xcb;" horiz-adv-x="609" 
d="M219 566v-151h315v-123h-315v-168h352v-124h-487v690h487v-124h-352zM160.5 742.5q-22.5 22.5 -22.5 57.5t22.5 57.5t57.5 22.5t57.5 -22.5t22.5 -57.5t-22.5 -57.5t-57.5 -22.5t-57.5 22.5zM380.5 742.5q-22.5 22.5 -22.5 57.5t22.5 57.5t57.5 22.5t57.5 -22.5
t22.5 -57.5t-22.5 -57.5t-57.5 -22.5t-57.5 22.5z" />
    <glyph glyph-name="Igrave" unicode="&#xcc;" horiz-adv-x="303" 
d="M84 0v690h135v-690h-135zM122 727l-133 153h153l113 -153h-133z" />
    <glyph glyph-name="Iacute" unicode="&#xcd;" horiz-adv-x="303" 
d="M84 0v690h135v-690h-135zM162 880h153l-133 -153h-133z" />
    <glyph glyph-name="Icircumflex" unicode="&#xce;" horiz-adv-x="303" 
d="M84 0v690h135v-690h-135zM212 727l-60 81l-60 -81h-133l113 153h160l113 -153h-133z" />
    <glyph glyph-name="Idieresis" unicode="&#xcf;" horiz-adv-x="303" 
d="M84 0v690h135v-690h-135zM-15.5 742.5q-22.5 22.5 -22.5 57.5t22.5 57.5t57.5 22.5t57.5 -22.5t22.5 -57.5t-22.5 -57.5t-57.5 -22.5t-57.5 22.5zM204.5 742.5q-22.5 22.5 -22.5 57.5t22.5 57.5t57.5 22.5t57.5 -22.5t22.5 -57.5t-22.5 -57.5t-57.5 -22.5t-57.5 22.5z
" />
    <glyph glyph-name="Eth" unicode="&#xd0;" horiz-adv-x="737" 
d="M522.5 646q82.5 -44 125 -122t42.5 -179t-42.5 -179t-125 -122t-196.5 -44h-242v290h-84v110h84v290h242q114 0 196.5 -44zM496 187.5q59 59.5 59 157.5t-59 157.5t-170 59.5h-107v-162h158v-110h-158v-162h107q111 0 170 59.5z" />
    <glyph glyph-name="Ntilde" unicode="&#xd1;" horiz-adv-x="796" 
d="M712 690v-690h-161l-333 500v-500h-134v690h160l334 -501v501h134zM287 722h-90q0 68 35.5 110.5t91.5 42.5q23 0 41.5 -6t39.5 -18q18 -9 31.5 -14t28.5 -5q44 0 44 43h90q0 -68 -35.5 -110.5t-91.5 -42.5q-23 0 -41.5 6t-39.5 18q-18 9 -31.5 14t-28.5 5q-44 0 -44 -43
z" />
    <glyph glyph-name="Ograve" unicode="&#xd2;" horiz-adv-x="803" 
d="M218.5 35.5q-80.5 45.5 -126 126.5t-45.5 183t45.5 182.5t126 126t182.5 45.5t183 -45.5t126.5 -126t45.5 -182.5t-45.5 -183t-126.5 -126.5t-183 -45.5t-182.5 45.5zM514 147q50 29 78.5 80.5t28.5 117.5t-28.5 117t-78.5 80t-113 29t-113 -29t-78 -80t-28 -117
t28 -117.5t78 -80.5t113 -29t113 29zM372 732l-133 153h153l113 -153h-133z" />
    <glyph glyph-name="Oacute" unicode="&#xd3;" horiz-adv-x="803" 
d="M218.5 35.5q-80.5 45.5 -126 126.5t-45.5 183t45.5 182.5t126 126t182.5 45.5t183 -45.5t126.5 -126t45.5 -182.5t-45.5 -183t-126.5 -126.5t-183 -45.5t-182.5 45.5zM514 147q50 29 78.5 80.5t28.5 117.5t-28.5 117t-78.5 80t-113 29t-113 -29t-78 -80t-28 -117
t28 -117.5t78 -80.5t113 -29t113 29zM412 885h153l-133 -153h-133z" />
    <glyph glyph-name="Ocircumflex" unicode="&#xd4;" horiz-adv-x="803" 
d="M218.5 35.5q-80.5 45.5 -126 126.5t-45.5 183t45.5 182.5t126 126t182.5 45.5t183 -45.5t126.5 -126t45.5 -182.5t-45.5 -183t-126.5 -126.5t-183 -45.5t-182.5 45.5zM514 147q50 29 78.5 80.5t28.5 117.5t-28.5 117t-78.5 80t-113 29t-113 -29t-78 -80t-28 -117
t28 -117.5t78 -80.5t113 -29t113 29zM462 727l-60 81l-60 -81h-133l113 153h160l113 -153h-133z" />
    <glyph glyph-name="Otilde" unicode="&#xd5;" horiz-adv-x="803" 
d="M218.5 35.5q-80.5 45.5 -126 126.5t-45.5 183t45.5 182.5t126 126t182.5 45.5t183 -45.5t126.5 -126t45.5 -182.5t-45.5 -183t-126.5 -126.5t-183 -45.5t-182.5 45.5zM514 147q50 29 78.5 80.5t28.5 117.5t-28.5 117t-78.5 80t-113 29t-113 -29t-78 -80t-28 -117
t28 -117.5t78 -80.5t113 -29t113 29zM291 722h-90q0 68 35.5 110.5t91.5 42.5q23 0 41.5 -6t39.5 -18q18 -9 31.5 -14t28.5 -5q44 0 44 43h90q0 -68 -35.5 -110.5t-91.5 -42.5q-23 0 -41.5 6t-39.5 18q-18 9 -31.5 14t-28.5 5q-44 0 -44 -43z" />
    <glyph glyph-name="Odieresis" unicode="&#xd6;" horiz-adv-x="803" 
d="M218.5 35.5q-80.5 45.5 -126 126.5t-45.5 183t45.5 182.5t126 126t182.5 45.5t183 -45.5t126.5 -126t45.5 -182.5t-45.5 -183t-126.5 -126.5t-183 -45.5t-182.5 45.5zM514 147q50 29 78.5 80.5t28.5 117.5t-28.5 117t-78.5 80t-113 29t-113 -29t-78 -80t-28 -117
t28 -117.5t78 -80.5t113 -29t113 29zM234.5 742.5q-22.5 22.5 -22.5 57.5t22.5 57.5t57.5 22.5t57.5 -22.5t22.5 -57.5t-22.5 -57.5t-57.5 -22.5t-57.5 22.5zM454.5 742.5q-22.5 22.5 -22.5 57.5t22.5 57.5t57.5 22.5t57.5 -22.5t22.5 -57.5t-22.5 -57.5t-57.5 -22.5
t-57.5 22.5z" />
    <glyph glyph-name="multiply" unicode="&#xd7;" horiz-adv-x="540" 
d="M518 129l-72 -72l-175 175l-175 -174l-72 72l176 174l-176 175l72 72l175 -175l175 175l72 -71l-175 -176z" />
    <glyph glyph-name="Oslash" unicode="&#xd8;" horiz-adv-x="803" 
d="M697 550q59 -88 59 -205q0 -102 -45.5 -183t-126.5 -126.5t-183 -45.5q-116 0 -205 59l-59 -59l-90 90l59 59q-59 89 -59 206q0 102 45.5 182.5t126 126t182.5 45.5q117 0 206 -59l60 60l90 -90zM205 238l306 306q-51 27 -110 27q-63 0 -113 -29t-78 -80t-28 -117
q0 -59 23 -107zM598 451l-306 -306q49 -27 109 -27q63 0 113 29t78.5 80.5t28.5 117.5q0 58 -23 106z" />
    <glyph glyph-name="Ugrave" unicode="&#xd9;" horiz-adv-x="745" 
d="M217 28q-67 38 -104 108t-37 163v391h135v-381q0 -93 43 -144t118 -51t118.5 51t43.5 144v381h135v-391q0 -93 -37 -163t-104 -108t-156 -38q-88 0 -155 38zM343 727l-133 153h153l113 -153h-133z" />
    <glyph glyph-name="Uacute" unicode="&#xda;" horiz-adv-x="745" 
d="M217 28q-67 38 -104 108t-37 163v391h135v-381q0 -93 43 -144t118 -51t118.5 51t43.5 144v381h135v-391q0 -93 -37 -163t-104 -108t-156 -38q-88 0 -155 38zM383 880h153l-133 -153h-133z" />
    <glyph glyph-name="Ucircumflex" unicode="&#xdb;" horiz-adv-x="745" 
d="M217 28q-67 38 -104 108t-37 163v391h135v-381q0 -93 43 -144t118 -51t118.5 51t43.5 144v381h135v-391q0 -93 -37 -163t-104 -108t-156 -38q-88 0 -155 38zM433 727l-60 81l-60 -81h-133l113 153h160l113 -153h-133z" />
    <glyph glyph-name="Udieresis" unicode="&#xdc;" horiz-adv-x="745" 
d="M217 28q-67 38 -104 108t-37 163v391h135v-381q0 -93 43 -144t118 -51t118.5 51t43.5 144v381h135v-391q0 -93 -37 -163t-104 -108t-156 -38q-88 0 -155 38zM205.5 742.5q-22.5 22.5 -22.5 57.5t22.5 57.5t57.5 22.5t57.5 -22.5t22.5 -57.5t-22.5 -57.5t-57.5 -22.5
t-57.5 22.5zM425.5 742.5q-22.5 22.5 -22.5 57.5t22.5 57.5t57.5 22.5t57.5 -22.5t22.5 -57.5t-22.5 -57.5t-57.5 -22.5t-57.5 22.5z" />
    <glyph glyph-name="Yacute" unicode="&#xdd;" horiz-adv-x="682" 
d="M273 277l-263 413h160l171 -271l171 271h160l-263 -413v-277h-136v277zM351 880h153l-133 -153h-133z" />
    <glyph glyph-name="Thorn" unicode="&#xde;" horiz-adv-x="662" 
d="M84 690h135v-100h155q80 0 139 -29t91 -83.5t32 -127.5t-32 -127.5t-91 -84t-139 -29.5h-155v-109h-135v690zM362 237q66 0 102.5 30t36.5 83q0 54 -36.5 83t-102.5 29h-143v-225h143z" />
    <glyph glyph-name="germandbls" unicode="&#xdf;" horiz-adv-x="679" 
d="M591.5 347q44.5 -56 44.5 -141q0 -61 -27 -109.5t-76 -76.5t-113 -28q-89 0 -161 50l58 105q25 -17 49.5 -26t53.5 -9q37 0 61.5 24t24.5 70q0 57 -42.5 89t-132.5 39v120q49 22 69.5 46t20.5 60t-28 61t-77 25q-54 0 -82 -31.5t-28 -108.5v-506h-130v506q0 132 67.5 196
t170.5 64q75 0 128.5 -26t81 -71t27.5 -100q0 -96 -80 -144q76 -22 120.5 -78z" />
    <glyph glyph-name="agrave" unicode="&#xe0;" horiz-adv-x="671" 
d="M595 530v-530h-116l-13 61q-30 -33 -74 -51t-95 -18q-74 0 -132 35t-90.5 97t-32.5 141t32.5 141.5t90.5 97t132 34.5q51 0 95 -18t74 -51l13 61h116zM390.5 129.5q33.5 17.5 54 51t20.5 79.5v10q0 46 -20.5 79.5t-54 51t-72.5 17.5q-63 0 -104.5 -43.5t-41.5 -109.5
t41.5 -109.5t104.5 -43.5q39 0 72.5 17.5zM288 617l-133 153h153l113 -153h-133z" />
    <glyph glyph-name="aacute" unicode="&#xe1;" horiz-adv-x="671" 
d="M595 530v-530h-116l-13 61q-30 -33 -74 -51t-95 -18q-74 0 -132 35t-90.5 97t-32.5 141t32.5 141.5t90.5 97t132 34.5q51 0 95 -18t74 -51l13 61h116zM390.5 129.5q33.5 17.5 54 51t20.5 79.5v10q0 46 -20.5 79.5t-54 51t-72.5 17.5q-63 0 -104.5 -43.5t-41.5 -109.5
t41.5 -109.5t104.5 -43.5q39 0 72.5 17.5zM328 770h153l-133 -153h-133z" />
    <glyph glyph-name="acircumflex" unicode="&#xe2;" horiz-adv-x="671" 
d="M595 530v-530h-116l-13 61q-30 -33 -74 -51t-95 -18q-74 0 -132 35t-90.5 97t-32.5 141t32.5 141.5t90.5 97t132 34.5q51 0 95 -18t74 -51l13 61h116zM390.5 129.5q33.5 17.5 54 51t20.5 79.5v10q0 46 -20.5 79.5t-54 51t-72.5 17.5q-63 0 -104.5 -43.5t-41.5 -109.5
t41.5 -109.5t104.5 -43.5q39 0 72.5 17.5zM378 617l-60 81l-60 -81h-133l113 153h160l113 -153h-133z" />
    <glyph glyph-name="atilde" unicode="&#xe3;" horiz-adv-x="671" 
d="M595 530v-530h-116l-13 61q-30 -33 -74 -51t-95 -18q-74 0 -132 35t-90.5 97t-32.5 141t32.5 141.5t90.5 97t132 34.5q51 0 95 -18t74 -51l13 61h116zM390.5 129.5q33.5 17.5 54 51t20.5 79.5v10q0 46 -20.5 79.5t-54 51t-72.5 17.5q-63 0 -104.5 -43.5t-41.5 -109.5
t41.5 -109.5t104.5 -43.5q39 0 72.5 17.5zM207 602h-90q0 73 35.5 118t91.5 45q23 0 41 -7.5t40 -21.5q17 -12 30.5 -18t29.5 -6q44 0 44 53h90q0 -73 -35.5 -118t-91.5 -45q-23 0 -41 7.5t-40 21.5q-17 12 -30.5 18t-29.5 6q-44 0 -44 -53z" />
    <glyph glyph-name="adieresis" unicode="&#xe4;" horiz-adv-x="671" 
d="M595 530v-530h-116l-13 61q-30 -33 -74 -51t-95 -18q-74 0 -132 35t-90.5 97t-32.5 141t32.5 141.5t90.5 97t132 34.5q51 0 95 -18t74 -51l13 61h116zM390.5 129.5q33.5 17.5 54 51t20.5 79.5v10q0 46 -20.5 79.5t-54 51t-72.5 17.5q-63 0 -104.5 -43.5t-41.5 -109.5
t41.5 -109.5t104.5 -43.5q39 0 72.5 17.5zM150.5 632.5q-22.5 22.5 -22.5 57.5t22.5 57.5t57.5 22.5t57.5 -22.5t22.5 -57.5t-22.5 -57.5t-57.5 -22.5t-57.5 22.5zM370.5 632.5q-22.5 22.5 -22.5 57.5t22.5 57.5t57.5 22.5t57.5 -22.5t22.5 -57.5t-22.5 -57.5t-57.5 -22.5
t-57.5 22.5z" />
    <glyph glyph-name="aring" unicode="&#xe5;" horiz-adv-x="671" 
d="M595 530v-530h-116l-13 61q-30 -33 -74 -51t-95 -18q-74 0 -132 35t-90.5 97t-32.5 141t32.5 141.5t90.5 97t132 34.5q51 0 95 -18t74 -51l13 61h116zM390.5 129.5q33.5 17.5 54 51t20.5 79.5v10q0 46 -20.5 79.5t-54 51t-72.5 17.5q-63 0 -104.5 -43.5t-41.5 -109.5
t41.5 -109.5t104.5 -43.5q39 0 72.5 17.5zM236.5 601.5q-33.5 33.5 -33.5 81.5q0 47 33.5 81t81.5 34q47 0 81 -34t34 -81q0 -48 -34 -81.5t-81 -33.5q-48 0 -81.5 33.5zM353.5 647.5q14.5 14.5 14.5 35.5q0 20 -14.5 35t-35.5 15t-35.5 -15t-14.5 -35q0 -21 14.5 -35.5
t35.5 -14.5t35.5 14.5z" />
    <glyph glyph-name="ae" unicode="&#xe6;" horiz-adv-x="892" 
d="M845 216h-354q12 -53 47 -83.5t85 -30.5q31 0 63 14.5t56 39.5l71 -86q-81 -78 -190 -78q-59 0 -107.5 25t-81.5 70q-28 -49 -78 -74t-117 -25q-103 0 -154.5 46.5t-51.5 122.5q0 79 55 123.5t145 44.5q85 0 126 -37v25q0 49 -27.5 78t-80.5 29q-73 0 -128 -58l-83 81
q86 98 217 98q57 0 102.5 -25t72.5 -71q30 45 75 69t100 24q70 0 125 -33.5t86.5 -93.5t31.5 -135q0 -27 -5 -60zM531.5 398q-31.5 -30 -41.5 -81h232q-8 51 -39 81t-76 30q-44 0 -75.5 -30zM332 114.5q27 17.5 27 48.5q0 30 -27 47.5t-72 17.5q-44 0 -69.5 -17.5
t-25.5 -47.5q0 -31 25.5 -48.5t69.5 -17.5q45 0 72 17.5z" />
    <glyph glyph-name="ccedilla" unicode="&#xe7;" horiz-adv-x="523" 
d="M175.5 27q-62.5 35 -98 97t-35.5 141t35.5 141t98 97t142.5 35q121 0 197 -84l-89 -88q-40 50 -108 50q-64 0 -105 -41.5t-41 -109.5t41 -109.5t105 -41.5q68 0 108 50l89 -88q-76 -84 -197 -84q-80 0 -142.5 35zM378 -50l-70 -150h-100l37 150h133z" />
    <glyph glyph-name="egrave" unicode="&#xe8;" horiz-adv-x="598" 
d="M551 216h-377q14 -53 52 -83.5t92 -30.5q33 0 68 14.5t62 39.5l72 -86q-40 -38 -91.5 -58t-110.5 -20q-80 0 -143 35t-98 97t-35 141t33 141.5t92 97t134 34.5q74 0 132 -33.5t90.5 -93t32.5 -135.5q0 -27 -5 -60zM218.5 398q-34.5 -30 -45.5 -81h254q-8 51 -42 81
t-84 30q-48 0 -82.5 -30zM270 617l-133 153h153l113 -153h-133z" />
    <glyph glyph-name="eacute" unicode="&#xe9;" horiz-adv-x="598" 
d="M551 216h-377q14 -53 52 -83.5t92 -30.5q33 0 68 14.5t62 39.5l72 -86q-40 -38 -91.5 -58t-110.5 -20q-80 0 -143 35t-98 97t-35 141t33 141.5t92 97t134 34.5q74 0 132 -33.5t90.5 -93t32.5 -135.5q0 -27 -5 -60zM218.5 398q-34.5 -30 -45.5 -81h254q-8 51 -42 81
t-84 30q-48 0 -82.5 -30zM310 770h153l-133 -153h-133z" />
    <glyph glyph-name="ecircumflex" unicode="&#xea;" horiz-adv-x="598" 
d="M551 216h-377q14 -53 52 -83.5t92 -30.5q33 0 68 14.5t62 39.5l72 -86q-40 -38 -91.5 -58t-110.5 -20q-80 0 -143 35t-98 97t-35 141t33 141.5t92 97t134 34.5q74 0 132 -33.5t90.5 -93t32.5 -135.5q0 -27 -5 -60zM218.5 398q-34.5 -30 -45.5 -81h254q-8 51 -42 81
t-84 30q-48 0 -82.5 -30zM360 617l-60 81l-60 -81h-133l113 153h160l113 -153h-133z" />
    <glyph glyph-name="edieresis" unicode="&#xeb;" horiz-adv-x="598" 
d="M551 216h-377q14 -53 52 -83.5t92 -30.5q33 0 68 14.5t62 39.5l72 -86q-40 -38 -91.5 -58t-110.5 -20q-80 0 -143 35t-98 97t-35 141t33 141.5t92 97t134 34.5q74 0 132 -33.5t90.5 -93t32.5 -135.5q0 -27 -5 -60zM218.5 398q-34.5 -30 -45.5 -81h254q-8 51 -42 81
t-84 30q-48 0 -82.5 -30zM132.5 632.5q-22.5 22.5 -22.5 57.5t22.5 57.5t57.5 22.5t57.5 -22.5t22.5 -57.5t-22.5 -57.5t-57.5 -22.5t-57.5 22.5zM352.5 632.5q-22.5 22.5 -22.5 57.5t22.5 57.5t57.5 22.5t57.5 -22.5t22.5 -57.5t-22.5 -57.5t-57.5 -22.5t-57.5 22.5z" />
    <glyph glyph-name="igrave" unicode="&#xec;" horiz-adv-x="282" 
d="M206 530v-530h-130v530h130zM111 617l-133 153h153l113 -153h-133z" />
    <glyph glyph-name="iacute" unicode="&#xed;" horiz-adv-x="282" 
d="M206 530v-530h-130v530h130zM151 770h153l-133 -153h-133z" />
    <glyph glyph-name="icircumflex" unicode="&#xee;" horiz-adv-x="282" 
d="M206 530v-530h-130v530h130zM186 617l-45 74l-45 -74h-113l93 153h130l93 -153h-113z" />
    <glyph glyph-name="idieresis" unicode="&#xef;" horiz-adv-x="282" 
d="M206 530v-530h-130v530h130zM-3 636q-21 21 -21 54t21 54t54 21t54 -21t21 -54t-21 -54t-54 -21t-54 21zM177 636q-21 21 -21 54t21 54t54 21t54 -21t21 -54t-21 -54t-54 -21t-54 21z" />
    <glyph glyph-name="eth" unicode="&#xf0;" horiz-adv-x="596" 
d="M506.5 429q44.5 -97 44.5 -189q0 -73 -32 -130t-89.5 -88.5t-129.5 -31.5q-74 0 -132.5 33t-92 89.5t-33.5 125.5q0 67 32 123.5t86 89t117 32.5q34 0 66 -12q-31 44 -81 100l-113 -66l-48 79l96 56l-35 36l96 91l55 -59l100 58l46 -78l-86 -51q89 -111 133.5 -208z
M386 148q35 36 35 93q0 54 -35 87t-87 33q-54 0 -90.5 -34.5t-36.5 -89.5t36.5 -90t90.5 -35q52 0 87 36z" />
    <glyph glyph-name="ntilde" unicode="&#xf1;" horiz-adv-x="638" 
d="M515 474.5q57 -63.5 57 -171.5v-303h-130v289q0 62 -28 94.5t-79 32.5q-59 0 -94 -42.5t-35 -124.5v-249h-130v530h116l13 -64q57 72 156 72q97 0 154 -63.5zM208 602h-90q0 73 35.5 118t91.5 45q23 0 41 -7.5t40 -21.5q17 -12 30.5 -18t29.5 -6q44 0 44 53h90
q0 -73 -35.5 -118t-91.5 -45q-23 0 -41 7.5t-40 21.5q-17 12 -30.5 18t-29.5 6q-44 0 -44 -53z" />
    <glyph glyph-name="ograve" unicode="&#xf2;" horiz-adv-x="630" 
d="M174 27q-62 35 -97 97t-35 141t35 141.5t97 97t141 34.5t141.5 -35t97 -97t34.5 -141q0 -80 -34.5 -142t-96.5 -96.5t-142 -34.5q-79 0 -141 35zM418 156q40 42 40 109t-40 109t-103 42t-103 -42t-40 -109t40 -109t103 -42t103 42zM286 617l-133 153h153l113 -153h-133z
" />
    <glyph glyph-name="oacute" unicode="&#xf3;" horiz-adv-x="630" 
d="M174 27q-62 35 -97 97t-35 141t35 141.5t97 97t141 34.5t141.5 -35t97 -97t34.5 -141q0 -80 -34.5 -142t-96.5 -96.5t-142 -34.5q-79 0 -141 35zM418 156q40 42 40 109t-40 109t-103 42t-103 -42t-40 -109t40 -109t103 -42t103 42zM326 770h153l-133 -153h-133z" />
    <glyph glyph-name="ocircumflex" unicode="&#xf4;" horiz-adv-x="630" 
d="M174 27q-62 35 -97 97t-35 141t35 141.5t97 97t141 34.5t141.5 -35t97 -97t34.5 -141q0 -80 -34.5 -142t-96.5 -96.5t-142 -34.5q-79 0 -141 35zM418 156q40 42 40 109t-40 109t-103 42t-103 -42t-40 -109t40 -109t103 -42t103 42zM376 617l-60 81l-60 -81h-133l113 153
h160l113 -153h-133z" />
    <glyph glyph-name="otilde" unicode="&#xf5;" horiz-adv-x="630" 
d="M174 27q-62 35 -97 97t-35 141t35 141.5t97 97t141 34.5t141.5 -35t97 -97t34.5 -141q0 -80 -34.5 -142t-96.5 -96.5t-142 -34.5q-79 0 -141 35zM418 156q40 42 40 109t-40 109t-103 42t-103 -42t-40 -109t40 -109t103 -42t103 42zM205 602h-90q0 73 35.5 118t91.5 45
q23 0 41 -7.5t40 -21.5q17 -12 30.5 -18t29.5 -6q44 0 44 53h90q0 -73 -35.5 -118t-91.5 -45q-23 0 -41 7.5t-40 21.5q-17 12 -30.5 18t-29.5 6q-44 0 -44 -53z" />
    <glyph glyph-name="odieresis" unicode="&#xf6;" horiz-adv-x="630" 
d="M174 27q-62 35 -97 97t-35 141t35 141.5t97 97t141 34.5t141.5 -35t97 -97t34.5 -141q0 -80 -34.5 -142t-96.5 -96.5t-142 -34.5q-79 0 -141 35zM418 156q40 42 40 109t-40 109t-103 42t-103 -42t-40 -109t40 -109t103 -42t103 42zM148.5 632.5q-22.5 22.5 -22.5 57.5
t22.5 57.5t57.5 22.5t57.5 -22.5t22.5 -57.5t-22.5 -57.5t-57.5 -22.5t-57.5 22.5zM368.5 632.5q-22.5 22.5 -22.5 57.5t22.5 57.5t57.5 22.5t57.5 -22.5t22.5 -57.5t-22.5 -57.5t-57.5 -22.5t-57.5 22.5z" />
    <glyph glyph-name="divide" unicode="&#xf7;" horiz-adv-x="540" 
d="M219.5 434.5q-19.5 19.5 -19.5 50.5t19.5 51t50.5 20q32 0 51.5 -19.5t19.5 -51.5q0 -31 -20 -50.5t-51 -19.5t-50.5 19.5zM56 359h429v-102h-429v102zM219.5 81.5q-19.5 19.5 -19.5 50.5t19.5 51t50.5 20q32 0 51.5 -19.5t19.5 -51.5q0 -31 -20 -50.5t-51 -19.5
t-50.5 19.5z" />
    <glyph glyph-name="oslash" unicode="&#xf8;" horiz-adv-x="630" 
d="M545 420q43 -66 43 -155q0 -80 -34.5 -142t-96.5 -96.5t-142 -34.5q-89 0 -155 43l-42 -42l-74 74l42 42q-44 68 -44 156q0 79 35 141.5t97 97t141 34.5q88 0 156 -44l43 43l74 -74zM182 205l197 197q-30 14 -64 14q-63 0 -103 -42t-40 -109q0 -34 10 -60zM449 324
l-197 -197q31 -13 63 -13q63 0 103 42t40 109q0 32 -9 59z" />
    <glyph glyph-name="ugrave" unicode="&#xf9;" horiz-adv-x="624" 
d="M183 23q-56 31 -86.5 87.5t-30.5 132.5v287h130v-273q0 -69 31 -106t85 -37t85 37t31 106v273h130v-287q0 -76 -30.5 -132.5t-86.5 -87.5t-129 -31t-129 31zM282 617l-133 153h153l113 -153h-133z" />
    <glyph glyph-name="uacute" unicode="&#xfa;" horiz-adv-x="624" 
d="M183 23q-56 31 -86.5 87.5t-30.5 132.5v287h130v-273q0 -69 31 -106t85 -37t85 37t31 106v273h130v-287q0 -76 -30.5 -132.5t-86.5 -87.5t-129 -31t-129 31zM322 770h153l-133 -153h-133z" />
    <glyph glyph-name="ucircumflex" unicode="&#xfb;" horiz-adv-x="624" 
d="M183 23q-56 31 -86.5 87.5t-30.5 132.5v287h130v-273q0 -69 31 -106t85 -37t85 37t31 106v273h130v-287q0 -76 -30.5 -132.5t-86.5 -87.5t-129 -31t-129 31zM372 617l-60 81l-60 -81h-133l113 153h160l113 -153h-133z" />
    <glyph glyph-name="udieresis" unicode="&#xfc;" horiz-adv-x="624" 
d="M183 23q-56 31 -86.5 87.5t-30.5 132.5v287h130v-273q0 -69 31 -106t85 -37t85 37t31 106v273h130v-287q0 -76 -30.5 -132.5t-86.5 -87.5t-129 -31t-129 31zM144.5 632.5q-22.5 22.5 -22.5 57.5t22.5 57.5t57.5 22.5t57.5 -22.5t22.5 -57.5t-22.5 -57.5t-57.5 -22.5
t-57.5 22.5zM364.5 632.5q-22.5 22.5 -22.5 57.5t22.5 57.5t57.5 22.5t57.5 -22.5t22.5 -57.5t-22.5 -57.5t-57.5 -22.5t-57.5 22.5z" />
    <glyph glyph-name="yacute" unicode="&#xfd;" horiz-adv-x="612" 
d="M601 530l-221 -560q-41 -103 -101 -146t-151 -43q-34 0 -55 7l17 129q15 -3 34 -3q48 0 77.5 17.5t47.5 61.5l-238 537h145l163 -377l140 377h142zM316 770h153l-133 -153h-133z" />
    <glyph glyph-name="thorn" unicode="&#xfe;" horiz-adv-x="671" 
d="M506 503.5q58 -34.5 90.5 -97t32.5 -141.5t-32.5 -141t-90.5 -97t-132 -35q-50 0 -93.5 18t-74.5 49v-269h-130v970h130v-290q30 32 74 50t94 18q74 0 132 -34.5zM457.5 155.5q41.5 43.5 41.5 109.5t-41.5 109.5t-104.5 43.5q-39 0 -72.5 -17.5t-54 -51t-20.5 -79.5v-10
q0 -46 20.5 -79.5t54 -51t72.5 -17.5q63 0 104.5 43.5z" />
    <glyph glyph-name="ydieresis" unicode="&#xff;" horiz-adv-x="612" 
d="M601 530l-221 -560q-41 -103 -101 -146t-151 -43q-34 0 -55 7l17 129q15 -3 34 -3q48 0 77.5 17.5t47.5 61.5l-238 537h145l163 -377l140 377h142zM138.5 632.5q-22.5 22.5 -22.5 57.5t22.5 57.5t57.5 22.5t57.5 -22.5t22.5 -57.5t-22.5 -57.5t-57.5 -22.5t-57.5 22.5z
M358.5 632.5q-22.5 22.5 -22.5 57.5t22.5 57.5t57.5 22.5t57.5 -22.5t22.5 -57.5t-22.5 -57.5t-57.5 -22.5t-57.5 22.5z" />
    <glyph glyph-name="Amacron" unicode="&#x100;" horiz-adv-x="726" 
d="M505 173h-284l-65 -173h-146l268 690h169l269 -690h-146zM459 297l-96 254l-96 -254h192zM515 854v-108h-305v108h305z" />
    <glyph glyph-name="amacron" unicode="&#x101;" horiz-adv-x="671" 
d="M595 530v-530h-116l-13 61q-30 -33 -74 -51t-95 -18q-74 0 -132 35t-90.5 97t-32.5 141t32.5 141.5t90.5 97t132 34.5q51 0 95 -18t74 -51l13 61h116zM390.5 129.5q33.5 17.5 54 51t20.5 79.5v10q0 46 -20.5 79.5t-54 51t-72.5 17.5q-63 0 -104.5 -43.5t-41.5 -109.5
t41.5 -109.5t104.5 -43.5q39 0 72.5 17.5zM470 744v-108h-305v108h305z" />
    <glyph glyph-name="Abreve" unicode="&#x102;" horiz-adv-x="726" 
d="M505 173h-284l-65 -173h-146l268 690h169l269 -690h-146zM459 297l-96 254l-96 -254h192zM248 768.5q-45 43.5 -45 111.5h95q0 -25 17.5 -40t47.5 -15t47.5 15t17.5 40h95q0 -68 -45 -111.5t-115 -43.5t-115 43.5z" />
    <glyph glyph-name="abreve" unicode="&#x103;" horiz-adv-x="671" 
d="M595 530v-530h-116l-13 61q-30 -33 -74 -51t-95 -18q-74 0 -132 35t-90.5 97t-32.5 141t32.5 141.5t90.5 97t132 34.5q51 0 95 -18t74 -51l13 61h116zM390.5 129.5q33.5 17.5 54 51t20.5 79.5v10q0 46 -20.5 79.5t-54 51t-72.5 17.5q-63 0 -104.5 -43.5t-41.5 -109.5
t41.5 -109.5t104.5 -43.5q39 0 72.5 17.5zM235.5 630q-36.5 21 -57 57.5t-20.5 82.5h95q0 -28 17.5 -44.5t47.5 -16.5t47.5 16.5t17.5 44.5h95q0 -46 -20.5 -82.5t-57 -57.5t-82.5 -21t-82.5 21z" />
    <glyph glyph-name="Aogonek" unicode="&#x104;" horiz-adv-x="726" 
d="M655 -49.5q-14 -19.5 -14 -39.5q0 -31 31 -31q18 0 32 8v-92q-32 -13 -83 -13q-57 0 -88.5 24t-31.5 69q0 32 15.5 60.5t53.5 63.5l-65 173h-284l-65 -173h-146l268 690h169l269 -690h-11q-36 -30 -50 -49.5zM459 297l-96 254l-96 -254h192z" />
    <glyph glyph-name="aogonek" unicode="&#x105;" horiz-adv-x="671" 
d="M545 -49.5q-14 -19.5 -14 -39.5q0 -31 31 -31q18 0 32 8v-92q-32 -13 -83 -13q-57 0 -88.5 24t-31.5 69q0 32 20 60.5t68 63.5l-13 61q-30 -33 -74 -51t-95 -18q-74 0 -132 35t-90.5 97t-32.5 141t32.5 141.5t90.5 97t132 34.5q51 0 95 -18t74 -51l13 61h116v-530
q-36 -30 -50 -49.5zM390.5 129.5q33.5 17.5 54 51t20.5 79.5v10q0 46 -20.5 79.5t-54 51t-72.5 17.5q-63 0 -104.5 -43.5t-41.5 -109.5t41.5 -109.5t104.5 -43.5q39 0 72.5 17.5z" />
    <glyph glyph-name="Cacute" unicode="&#x106;" horiz-adv-x="686" 
d="M220.5 34.5q-81.5 45.5 -127.5 126.5t-46 184t46 184t127.5 126.5t185.5 45.5q156 0 255 -107l-94 -93q-63 70 -162 70q-64 0 -115 -28t-79.5 -79.5t-28.5 -118.5t28.5 -118.5t79.5 -79.5t115 -28q100 0 163 69l93 -92q-99 -107 -255 -107q-104 0 -185.5 45.5zM393 880
h153l-133 -153h-133z" />
    <glyph glyph-name="cacute" unicode="&#x107;" horiz-adv-x="523" 
d="M175.5 27q-62.5 35 -98 97t-35.5 141t35.5 141t98 97t142.5 35q121 0 197 -84l-89 -88q-40 50 -108 50q-64 0 -105 -41.5t-41 -109.5t41 -109.5t105 -41.5q68 0 108 50l89 -88q-76 -84 -197 -84q-80 0 -142.5 35zM303 770h153l-133 -153h-133z" />
    <glyph glyph-name="Ccircumflex" unicode="&#x108;" horiz-adv-x="686" 
d="M220.5 34.5q-81.5 45.5 -127.5 126.5t-46 184t46 184t127.5 126.5t185.5 45.5q156 0 255 -107l-94 -93q-63 70 -162 70q-64 0 -115 -28t-79.5 -79.5t-28.5 -118.5t28.5 -118.5t79.5 -79.5t115 -28q100 0 163 69l93 -92q-99 -107 -255 -107q-104 0 -185.5 45.5zM443 727
l-60 81l-60 -81h-133l113 153h160l113 -153h-133z" />
    <glyph glyph-name="ccircumflex" unicode="&#x109;" horiz-adv-x="523" 
d="M175.5 27q-62.5 35 -98 97t-35.5 141t35.5 141t98 97t142.5 35q121 0 197 -84l-89 -88q-40 50 -108 50q-64 0 -105 -41.5t-41 -109.5t41 -109.5t105 -41.5q68 0 108 50l89 -88q-76 -84 -197 -84q-80 0 -142.5 35zM353 617l-60 81l-60 -81h-133l113 153h160l113 -153h-133
z" />
    <glyph glyph-name="Cdotaccent" unicode="&#x10a;" horiz-adv-x="686" 
d="M220.5 34.5q-81.5 45.5 -127.5 126.5t-46 184t46 184t127.5 126.5t185.5 45.5q156 0 255 -107l-94 -93q-63 70 -162 70q-64 0 -115 -28t-79.5 -79.5t-28.5 -118.5t28.5 -118.5t79.5 -79.5t115 -28q100 0 163 69l93 -92q-99 -107 -255 -107q-104 0 -185.5 45.5zM322 749
q-24 24 -24 61q0 38 24 61.5t61 23.5q38 0 61.5 -23.5t23.5 -61.5q0 -37 -23.5 -61t-61.5 -24q-37 0 -61 24z" />
    <glyph glyph-name="cdotaccent" unicode="&#x10b;" horiz-adv-x="523" 
d="M175.5 27q-62.5 35 -98 97t-35.5 141t35.5 141t98 97t142.5 35q121 0 197 -84l-89 -88q-40 50 -108 50q-64 0 -105 -41.5t-41 -109.5t41 -109.5t105 -41.5q68 0 108 50l89 -88q-76 -84 -197 -84q-80 0 -142.5 35zM231.5 629q-23.5 24 -23.5 61q0 38 23.5 61.5t61.5 23.5
q37 0 61 -23.5t24 -61.5q0 -37 -24 -61t-61 -24q-38 0 -61.5 24z" />
    <glyph glyph-name="Ccaron" unicode="&#x10c;" horiz-adv-x="686" 
d="M220.5 34.5q-81.5 45.5 -127.5 126.5t-46 184t46 184t127.5 126.5t185.5 45.5q156 0 255 -107l-94 -93q-63 70 -162 70q-64 0 -115 -28t-79.5 -79.5t-28.5 -118.5t28.5 -118.5t79.5 -79.5t115 -28q100 0 163 69l93 -92q-99 -107 -255 -107q-104 0 -185.5 45.5zM576 880
l-113 -153h-160l-113 153h133l60 -81l60 81h133z" />
    <glyph glyph-name="ccaron" unicode="&#x10d;" horiz-adv-x="523" 
d="M175.5 27q-62.5 35 -98 97t-35.5 141t35.5 141t98 97t142.5 35q121 0 197 -84l-89 -88q-40 50 -108 50q-64 0 -105 -41.5t-41 -109.5t41 -109.5t105 -41.5q68 0 108 50l89 -88q-76 -84 -197 -84q-80 0 -142.5 35zM486 770l-113 -153h-160l-113 153h133l60 -81l60 81h133z
" />
    <glyph glyph-name="Dcaron" unicode="&#x10e;" horiz-adv-x="737" 
d="M522.5 646q82.5 -44 125 -122t42.5 -179t-42.5 -179t-125 -122t-196.5 -44h-242v690h242q114 0 196.5 -44zM496 187.5q59 59.5 59 157.5t-59 157.5t-170 59.5h-107v-434h107q111 0 170 59.5zM562 880l-113 -153h-160l-113 153h133l60 -81l60 81h133z" />
    <glyph glyph-name="dcaron" unicode="&#x10f;" horiz-adv-x="671" 
d="M595 760v-760h-116l-13 61q-30 -33 -74 -51t-95 -18q-74 0 -132 35t-90.5 97t-32.5 141t32.5 141.5t90.5 97t132 34.5q50 0 93.5 -18t74.5 -49v289h130zM390.5 129.5q33.5 17.5 54 51t20.5 79.5v10q0 46 -20.5 79.5t-54 51t-72.5 17.5q-63 0 -104.5 -43.5t-41.5 -109.5
t41.5 -109.5t104.5 -43.5q39 0 72.5 17.5zM813 760l-82 -196h-99l39 196h142z" />
    <glyph glyph-name="Dcroat" unicode="&#x110;" horiz-adv-x="737" 
d="M522.5 646q82.5 -44 125 -122t42.5 -179t-42.5 -179t-125 -122t-196.5 -44h-242v290h-84v110h84v290h242q114 0 196.5 -44zM496 187.5q59 59.5 59 157.5t-59 157.5t-170 59.5h-107v-162h158v-110h-158v-162h107q111 0 170 59.5z" />
    <glyph glyph-name="dcroat" unicode="&#x111;" horiz-adv-x="671" 
d="M653 600h-58v-600h-116l-13 61q-30 -33 -74 -51t-95 -18q-74 0 -132 35t-90.5 97t-32.5 141t32.5 141.5t90.5 97t132 34.5q50 0 93.5 -18t74.5 -49v129h-169v100h169v60h130v-60h58v-100zM390.5 129.5q33.5 17.5 54 51t20.5 79.5v10q0 46 -20.5 79.5t-54 51t-72.5 17.5
q-63 0 -104.5 -43.5t-41.5 -109.5t41.5 -109.5t104.5 -43.5q39 0 72.5 17.5z" />
    <glyph glyph-name="Emacron" unicode="&#x112;" horiz-adv-x="609" 
d="M219 566v-151h315v-123h-315v-168h352v-124h-487v690h487v-124h-352zM480 854v-108h-305v108h305z" />
    <glyph glyph-name="emacron" unicode="&#x113;" horiz-adv-x="598" 
d="M551 216h-377q14 -53 52 -83.5t92 -30.5q33 0 68 14.5t62 39.5l72 -86q-40 -38 -91.5 -58t-110.5 -20q-80 0 -143 35t-98 97t-35 141t33 141.5t92 97t134 34.5q74 0 132 -33.5t90.5 -93t32.5 -135.5q0 -27 -5 -60zM218.5 398q-34.5 -30 -45.5 -81h254q-8 51 -42 81
t-84 30q-48 0 -82.5 -30zM452 744v-108h-305v108h305z" />
    <glyph glyph-name="Ebreve" unicode="&#x114;" horiz-adv-x="609" 
d="M219 566v-151h315v-123h-315v-168h352v-124h-487v690h487v-124h-352zM213 768.5q-45 43.5 -45 111.5h95q0 -25 17.5 -40t47.5 -15t47.5 15t17.5 40h95q0 -68 -45 -111.5t-115 -43.5t-115 43.5z" />
    <glyph glyph-name="ebreve" unicode="&#x115;" horiz-adv-x="598" 
d="M551 216h-377q14 -53 52 -83.5t92 -30.5q33 0 68 14.5t62 39.5l72 -86q-40 -38 -91.5 -58t-110.5 -20q-80 0 -143 35t-98 97t-35 141t33 141.5t92 97t134 34.5q74 0 132 -33.5t90.5 -93t32.5 -135.5q0 -27 -5 -60zM218.5 398q-34.5 -30 -45.5 -81h254q-8 51 -42 81
t-84 30q-48 0 -82.5 -30zM217.5 630q-36.5 21 -57 57.5t-20.5 82.5h95q0 -28 17.5 -44.5t47.5 -16.5t47.5 16.5t17.5 44.5h95q0 -46 -20.5 -82.5t-57 -57.5t-82.5 -21t-82.5 21z" />
    <glyph glyph-name="Edotaccent" unicode="&#x116;" horiz-adv-x="609" 
d="M219 566v-151h315v-123h-315v-168h352v-124h-487v690h487v-124h-352zM266.5 739q-23.5 24 -23.5 61q0 38 23.5 61.5t61.5 23.5q37 0 61 -23.5t24 -61.5q0 -37 -24 -61t-61 -24q-38 0 -61.5 24z" />
    <glyph glyph-name="edotaccent" unicode="&#x117;" horiz-adv-x="598" 
d="M551 216h-377q14 -53 52 -83.5t92 -30.5q33 0 68 14.5t62 39.5l72 -86q-40 -38 -91.5 -58t-110.5 -20q-80 0 -143 35t-98 97t-35 141t33 141.5t92 97t134 34.5q74 0 132 -33.5t90.5 -93t32.5 -135.5q0 -27 -5 -60zM218.5 398q-34.5 -30 -45.5 -81h254q-8 51 -42 81
t-84 30q-48 0 -82.5 -30zM238.5 629q-23.5 24 -23.5 61q0 38 23.5 61.5t61.5 23.5q37 0 61 -23.5t24 -61.5q0 -37 -24 -61t-61 -24q-38 0 -61.5 24z" />
    <glyph glyph-name="Eogonek" unicode="&#x118;" horiz-adv-x="609" 
d="M219 566v-151h315v-123h-315v-168h352v-124q-36 -30 -50 -49.5t-14 -39.5q0 -31 31 -31q18 0 32 8v-92q-32 -13 -83 -13q-57 0 -88.5 24t-31.5 69q0 32 15.5 60.5t53.5 63.5h-352v690h487v-124h-352z" />
    <glyph glyph-name="eogonek" unicode="&#x119;" horiz-adv-x="598" 
d="M551 216h-377q14 -53 52 -83.5t92 -30.5q33 0 68 14.5t62 39.5l72 -86q-19 -18 -35 -28q-44 -35 -63 -68t-19 -59q0 -19 7.5 -27t23.5 -8q18 0 32 8v-92q-32 -13 -83 -13q-57 0 -88.5 24t-31.5 69q0 31 18 57.5t60 59.5q-7 -1 -23 -1q-80 0 -143 35t-98 97t-35 141
t33 141.5t92 97t134 34.5q74 0 132 -33.5t90.5 -93t32.5 -135.5q0 -27 -5 -60zM218.5 398q-34.5 -30 -45.5 -81h254q-8 51 -42 81t-84 30q-48 0 -82.5 -30z" />
    <glyph glyph-name="Ecaron" unicode="&#x11a;" horiz-adv-x="609" 
d="M219 566v-151h315v-123h-315v-168h352v-124h-487v690h487v-124h-352zM521 880l-113 -153h-160l-113 153h133l60 -81l60 81h133z" />
    <glyph glyph-name="ecaron" unicode="&#x11b;" horiz-adv-x="598" 
d="M551 216h-377q14 -53 52 -83.5t92 -30.5q33 0 68 14.5t62 39.5l72 -86q-40 -38 -91.5 -58t-110.5 -20q-80 0 -143 35t-98 97t-35 141t33 141.5t92 97t134 34.5q74 0 132 -33.5t90.5 -93t32.5 -135.5q0 -27 -5 -60zM218.5 398q-34.5 -30 -45.5 -81h254q-8 51 -42 81
t-84 30q-48 0 -82.5 -30zM493 770l-113 -153h-160l-113 153h133l60 -81l60 81h133z" />
    <glyph glyph-name="Gcircumflex" unicode="&#x11c;" horiz-adv-x="796" 
d="M754 342q0 -106 -46.5 -186.5t-126 -123.5t-175.5 -43q-104 0 -185.5 45.5t-127.5 126.5t-46 184t46 184t127.5 126.5t185.5 45.5q156 0 255 -107l-91 -91q-64 73 -165 73q-64 0 -115 -29t-79.5 -81.5t-28.5 -120.5t28.5 -120.5t79.5 -81.5t115 -29q78 0 132.5 42.5
t70.5 121.5h-206v125h348q4 -27 4 -61zM458 727l-60 81l-60 -81h-133l113 153h160l113 -153h-133z" />
    <glyph glyph-name="gcircumflex" unicode="&#x11d;" horiz-adv-x="661" 
d="M585 530v-480q0 -128 -75 -198t-212 -70q-112 0 -214 56l53 117q43 -27 82 -39t79 -12q76 0 116.5 37.5t40.5 108.5v26q-30 -31 -73 -49t-92 -18q-71 0 -127.5 34t-88.5 94.5t-32 136.5t32 136t88.5 94t127.5 34q50 0 93.5 -18t73.5 -50l13 60h115zM384 145.5
q32 16.5 51.5 48t19.5 74.5v11q0 43 -19.5 74.5t-51.5 48t-68 16.5q-41 0 -74 -19t-51.5 -52t-18.5 -73t18.5 -73t51.5 -52.5t74 -19.5q36 0 68 16.5zM391 617l-60 81l-60 -81h-133l113 153h160l113 -153h-133z" />
    <glyph glyph-name="Gbreve" unicode="&#x11e;" horiz-adv-x="796" 
d="M754 342q0 -106 -46.5 -186.5t-126 -123.5t-175.5 -43q-104 0 -185.5 45.5t-127.5 126.5t-46 184t46 184t127.5 126.5t185.5 45.5q156 0 255 -107l-91 -91q-64 73 -165 73q-64 0 -115 -29t-79.5 -81.5t-28.5 -120.5t28.5 -120.5t79.5 -81.5t115 -29q78 0 132.5 42.5
t70.5 121.5h-206v125h348q4 -27 4 -61zM270 768.5q-45 43.5 -45 111.5h95q0 -25 17.5 -40t47.5 -15t47.5 15t17.5 40h95q0 -68 -45 -111.5t-115 -43.5t-115 43.5z" />
    <glyph glyph-name="gbreve" unicode="&#x11f;" horiz-adv-x="661" 
d="M585 530v-480q0 -128 -75 -198t-212 -70q-112 0 -214 56l53 117q43 -27 82 -39t79 -12q76 0 116.5 37.5t40.5 108.5v26q-30 -31 -73 -49t-92 -18q-71 0 -127.5 34t-88.5 94.5t-32 136.5t32 136t88.5 94t127.5 34q50 0 93.5 -18t73.5 -50l13 60h115zM384 145.5
q32 16.5 51.5 48t19.5 74.5v11q0 43 -19.5 74.5t-51.5 48t-68 16.5q-41 0 -74 -19t-51.5 -52t-18.5 -73t18.5 -73t51.5 -52.5t74 -19.5q36 0 68 16.5zM248.5 630q-36.5 21 -57 57.5t-20.5 82.5h95q0 -28 17.5 -44.5t47.5 -16.5t47.5 16.5t17.5 44.5h95q0 -46 -20.5 -82.5
t-57 -57.5t-82.5 -21t-82.5 21z" />
    <glyph glyph-name="Gdotaccent" unicode="&#x120;" horiz-adv-x="796" 
d="M754 342q0 -106 -46.5 -186.5t-126 -123.5t-175.5 -43q-104 0 -185.5 45.5t-127.5 126.5t-46 184t46 184t127.5 126.5t185.5 45.5q156 0 255 -107l-91 -91q-64 73 -165 73q-64 0 -115 -29t-79.5 -81.5t-28.5 -120.5t28.5 -120.5t79.5 -81.5t115 -29q78 0 132.5 42.5
t70.5 121.5h-206v125h348q4 -27 4 -61zM337 749q-24 24 -24 61q0 38 24 61.5t61 23.5q38 0 61.5 -23.5t23.5 -61.5q0 -37 -23.5 -61t-61.5 -24q-37 0 -61 24z" />
    <glyph glyph-name="gdotaccent" unicode="&#x121;" horiz-adv-x="661" 
d="M585 530v-480q0 -128 -75 -198t-212 -70q-112 0 -214 56l53 117q43 -27 82 -39t79 -12q76 0 116.5 37.5t40.5 108.5v26q-30 -31 -73 -49t-92 -18q-71 0 -127.5 34t-88.5 94.5t-32 136.5t32 136t88.5 94t127.5 34q50 0 93.5 -18t73.5 -50l13 60h115zM384 145.5
q32 16.5 51.5 48t19.5 74.5v11q0 43 -19.5 74.5t-51.5 48t-68 16.5q-41 0 -74 -19t-51.5 -52t-18.5 -73t18.5 -73t51.5 -52.5t74 -19.5q36 0 68 16.5zM269.5 629q-23.5 24 -23.5 61q0 38 23.5 61.5t61.5 23.5q37 0 61 -23.5t24 -61.5q0 -37 -24 -61t-61 -24q-38 0 -61.5 24z
" />
    <glyph glyph-name="Gcommaaccent" unicode="&#x122;" horiz-adv-x="796" 
d="M754 342q0 -106 -46.5 -186.5t-126 -123.5t-175.5 -43q-104 0 -185.5 45.5t-127.5 126.5t-46 184t46 184t127.5 126.5t185.5 45.5q156 0 255 -107l-91 -91q-64 73 -165 73q-64 0 -115 -29t-79.5 -81.5t-28.5 -120.5t28.5 -120.5t79.5 -81.5t115 -29q78 0 132.5 42.5
t70.5 121.5h-206v125h348q4 -27 4 -61zM483 -50l-70 -150h-100l37 150h133z" />
    <glyph glyph-name="gcommaaccent" unicode="&#x123;" horiz-adv-x="661" 
d="M585 530v-480q0 -128 -75 -198t-212 -70q-112 0 -214 56l53 117q43 -27 82 -39t79 -12q76 0 116.5 37.5t40.5 108.5v26q-30 -31 -73 -49t-92 -18q-71 0 -127.5 34t-88.5 94.5t-32 136.5t32 136t88.5 94t127.5 34q50 0 93.5 -18t73.5 -50l13 60h115zM384 145.5
q32 16.5 51.5 48t19.5 74.5v11q0 43 -19.5 74.5t-51.5 48t-68 16.5q-41 0 -74 -19t-51.5 -52t-18.5 -73t18.5 -73t51.5 -52.5t74 -19.5q36 0 68 16.5zM246 620l80 150h90l-37 -150h-133z" />
    <glyph glyph-name="Hcircumflex" unicode="&#x124;" horiz-adv-x="766" 
d="M682 690v-690h-135v285h-328v-285h-135v690h135v-277h328v277h135zM443 727l-60 81l-60 -81h-133l113 153h160l113 -153h-133z" />
    <glyph glyph-name="hcircumflex" unicode="&#x125;" horiz-adv-x="638" 
d="M255 727h-133l113 153h160l113 -153h-133l-60 81zM515 474.5q57 -63.5 57 -171.5v-303h-130v289q0 62 -28 94.5t-79 32.5q-59 0 -94 -42.5t-35 -124.5v-249h-130v690h130v-222q58 70 155 70t154 -63.5z" />
    <glyph glyph-name="Hbar" unicode="&#x126;" horiz-adv-x="806" 
d="M752 523h-50v-523h-135v285h-328v-285h-135v523h-50v88h50v79h135v-79h328v79h135v-79h50v-88zM567 523h-328v-110h328v110z" />
    <glyph glyph-name="hbar" unicode="&#x127;" horiz-adv-x="638" 
d="M515 474.5q57 -63.5 57 -171.5v-303h-130v289q0 62 -28 94.5t-79 32.5q-59 0 -94 -42.5t-35 -124.5v-249h-130v600h-64v100h64v60h130v-60h163v-100h-163v-132q58 70 155 70t154 -63.5z" />
    <glyph glyph-name="Itilde" unicode="&#x128;" horiz-adv-x="303" 
d="M84 0v690h135v-690h-135zM41 722h-90q0 68 35.5 110.5t91.5 42.5q23 0 41.5 -6t39.5 -18q18 -9 31.5 -14t28.5 -5q44 0 44 43h90q0 -68 -35.5 -110.5t-91.5 -42.5q-23 0 -41.5 6t-39.5 18q-18 9 -31.5 14t-28.5 5q-44 0 -44 -43z" />
    <glyph glyph-name="itilde" unicode="&#x129;" horiz-adv-x="282" 
d="M206 530v-530h-130v530h130zM73.5 634q-8.5 -11 -8.5 -32l-85 1q0 69 27.5 110.5t74.5 41.5q17 0 31 -6.5t31 -18.5q3 -2 12 -7.5t16.5 -8t13.5 -2.5q14 0 22.5 11t8.5 32h85q0 -70 -27 -111.5t-75 -41.5q-17 0 -31 6.5t-31 18.5q-3 2 -12 7.5t-16.5 8t-13.5 2.5
q-14 0 -22.5 -11z" />
    <glyph glyph-name="Imacron" unicode="&#x12a;" horiz-adv-x="303" 
d="M84 0v690h135v-690h-135zM304 854v-108h-305v108h305z" />
    <glyph glyph-name="imacron" unicode="&#x12b;" horiz-adv-x="282" 
d="M206 530v-530h-130v530h130zM263 744v-108h-245v108h245z" />
    <glyph glyph-name="Ibreve" unicode="&#x12c;" horiz-adv-x="303" 
d="M84 0v690h135v-690h-135zM37 768.5q-45 43.5 -45 111.5h95q0 -25 17.5 -40t47.5 -15t47.5 15t17.5 40h95q0 -68 -45 -111.5t-115 -43.5t-115 43.5z" />
    <glyph glyph-name="ibreve" unicode="&#x12d;" horiz-adv-x="282" 
d="M206 530v-530h-130v530h130zM40 651.5q-39 42.5 -39 118.5h95q0 -28 12 -44.5t33 -16.5t33 16.5t12 44.5h95q0 -76 -39 -118.5t-101 -42.5t-101 42.5z" />
    <glyph glyph-name="Iogonek" unicode="&#x12e;" horiz-adv-x="303" 
d="M238 -112v-92q-32 -13 -83 -13q-57 0 -88.5 24t-31.5 69q0 32 11 60.5t38 63.5v690h135v-690q-25 -30 -34.5 -49.5t-9.5 -39.5q0 -31 31 -31q18 0 32 8z" />
    <glyph glyph-name="iogonek" unicode="&#x12f;" horiz-adv-x="282" 
d="M74 629q-24 24 -24 61q0 38 24 61.5t61 23.5q38 0 61.5 -23.5t23.5 -61.5q0 -37 -23.5 -61t-61.5 -24q-37 0 -61 24zM225 -112v-92q-32 -13 -83 -13q-57 0 -88.5 24t-31.5 69q0 32 12.5 60.5t41.5 63.5v530h130v-530q-25 -30 -34.5 -49.5t-9.5 -39.5q0 -31 31 -31
q18 0 32 8z" />
    <glyph glyph-name="Idotaccent" unicode="&#x130;" horiz-adv-x="303" 
d="M84 0v690h135v-690h-135zM90.5 739q-23.5 24 -23.5 61q0 38 23.5 61.5t61.5 23.5q37 0 61 -23.5t24 -61.5q0 -37 -24 -61t-61 -24q-38 0 -61.5 24z" />
    <glyph glyph-name="dotlessi" unicode="&#x131;" horiz-adv-x="282" 
d="M206 530v-530h-130v530h130z" />
    <glyph glyph-name="IJ" unicode="&#x132;" horiz-adv-x="806" 
d="M84 0v690h135v-690h-135zM462 120q65 0 95 37.5t30 114.5v418h135v-424q0 -127 -67 -200.5t-185 -73.5q-107 0 -177 60l72 103q40 -35 97 -35z" />
    <glyph glyph-name="ij" unicode="&#x133;" horiz-adv-x="564" 
d="M206 530v-530h-130v530h130zM79.5 629q-23.5 24 -23.5 61q0 38 23.5 61.5t61.5 23.5q37 0 61 -23.5t24 -61.5q0 -37 -24 -61t-61 -24q-38 0 -61.5 24zM293 -96q65 0 65 73v553h130v-552q0 -91 -50 -143.5t-138 -52.5q-49 0 -88 16l40 113q18 -7 41 -7zM361.5 629
q-23.5 24 -23.5 61q0 38 23.5 61.5t61.5 23.5q37 0 61 -23.5t24 -61.5q0 -37 -24 -61t-61 -24q-38 0 -61.5 24z" />
    <glyph glyph-name="Jcircumflex" unicode="&#x134;" horiz-adv-x="503" 
d="M159 120q65 0 95 37.5t30 114.5v418h135v-424q0 -127 -67 -200.5t-185 -73.5q-107 0 -177 60l72 103q40 -35 97 -35zM412 727l-60 81l-60 -81h-133l113 153h160l113 -153h-133z" />
    <glyph glyph-name="jcircumflex" unicode="&#x135;" horiz-adv-x="282" 
d="M11 -96q65 0 65 73v553h130v-552q0 -91 -50 -143.5t-138 -52.5q-49 0 -88 16l40 113q18 -7 41 -7zM186 617l-45 74l-45 -74h-113l93 153h130l93 -153h-113z" />
    <glyph glyph-name="Kcommaaccent" unicode="&#x136;" horiz-adv-x="686" 
d="M284 287h-65v-287h-135v690h135v-275h64l223 275h174l-278 -337l294 -353h-179zM435 -50l-70 -150h-100l37 150h133z" />
    <glyph glyph-name="kcommaaccent" unicode="&#x137;" horiz-adv-x="597" 
d="M257 211h-51v-211h-130v760h130v-433h46l166 203h169l-217 -258l238 -272h-174zM383 -50l-70 -150h-100l37 150h133z" />
    <glyph glyph-name="kgreenlandic" unicode="&#x138;" horiz-adv-x="597" 
d="M257 211h-51v-211h-130v530h130v-203h46l166 203h169l-217 -258l238 -272h-174z" />
    <glyph glyph-name="Lacute" unicode="&#x139;" horiz-adv-x="561" 
d="M84 690h135v-562h332v-128h-467v690zM231 880h153l-133 -153h-133z" />
    <glyph glyph-name="lacute" unicode="&#x13a;" horiz-adv-x="282" 
d="M151 880h153l-133 -153h-133zM76 0v690h130v-690h-130z" />
    <glyph glyph-name="Lcommaaccent" unicode="&#x13b;" horiz-adv-x="561" 
d="M84 690h135v-562h332v-128h-467v690zM403 -50l-70 -150h-100l37 150h133z" />
    <glyph glyph-name="lcommaaccent" unicode="&#x13c;" horiz-adv-x="282" 
d="M76 0v760h130v-760h-130zM226 -50l-70 -150h-100l37 150h133z" />
    <glyph glyph-name="Lcaron" unicode="&#x13d;" horiz-adv-x="561" 
d="M84 690h135v-562h332v-128h-467v690zM457 690l-82 -196h-99l39 196h142z" />
    <glyph glyph-name="lcaron" unicode="&#x13e;" horiz-adv-x="282" 
d="M76 0v760h130v-760h-130zM424 760l-82 -196h-99l39 196h142z" />
    <glyph glyph-name="Ldot" unicode="&#x13f;" horiz-adv-x="561" 
d="M84 690h135v-562h332v-128h-467v690zM360 348q-28 28 -28 72t28 72t72 28t72 -28t28 -72t-28 -72t-72 -28t-72 28z" />
    <glyph glyph-name="ldot" unicode="&#x140;" horiz-adv-x="458" 
d="M76 0v760h130v-760h-130zM298 268q-28 28 -28 72t28 72t72 28t72 -28t28 -72t-28 -72t-72 -28t-72 28z" />
    <glyph glyph-name="Lslash" unicode="&#x141;" horiz-adv-x="561" 
d="M551 128v-128h-467v257l-90 -60v140l90 60v293h135v-227l161 107v-140l-161 -107v-195h332z" />
    <glyph glyph-name="lslash" unicode="&#x142;" horiz-adv-x="310" 
d="M305 400l-85 -57v-343h-130v277l-85 -57v140l85 57v343h130v-277l85 57v-140z" />
    <glyph glyph-name="Nacute" unicode="&#x143;" horiz-adv-x="796" 
d="M712 690v-690h-161l-333 500v-500h-134v690h160l334 -501v501h134zM408 880h153l-133 -153h-133z" />
    <glyph glyph-name="nacute" unicode="&#x144;" horiz-adv-x="638" 
d="M515 474.5q57 -63.5 57 -171.5v-303h-130v289q0 62 -28 94.5t-79 32.5q-59 0 -94 -42.5t-35 -124.5v-249h-130v530h116l13 -64q57 72 156 72q97 0 154 -63.5zM329 770h153l-133 -153h-133z" />
    <glyph glyph-name="Ncommaaccent" unicode="&#x145;" horiz-adv-x="796" 
d="M712 690v-690h-161l-333 500v-500h-134v690h160l334 -501v501h134zM483 -50l-70 -150h-100l37 150h133z" />
    <glyph glyph-name="ncommaaccent" unicode="&#x146;" horiz-adv-x="638" 
d="M515 474.5q57 -63.5 57 -171.5v-303h-130v289q0 62 -28 94.5t-79 32.5q-59 0 -94 -42.5t-35 -124.5v-249h-130v530h116l13 -64q57 72 156 72q97 0 154 -63.5zM404 -50l-70 -150h-100l37 150h133z" />
    <glyph glyph-name="Ncaron" unicode="&#x147;" horiz-adv-x="796" 
d="M712 690v-690h-161l-333 500v-500h-134v690h160l334 -501v501h134zM591 880l-113 -153h-160l-113 153h133l60 -81l60 81h133z" />
    <glyph glyph-name="ncaron" unicode="&#x148;" horiz-adv-x="638" 
d="M515 474.5q57 -63.5 57 -171.5v-303h-130v289q0 62 -28 94.5t-79 32.5q-59 0 -94 -42.5t-35 -124.5v-249h-130v530h116l13 -64q57 72 156 72q97 0 154 -63.5zM512 770l-113 -153h-160l-113 153h133l60 -81l60 81h133z" />
    <glyph glyph-name="napostrophe" unicode="&#x149;" horiz-adv-x="638" 
d="M515 474.5q57 -63.5 57 -171.5v-303h-130v289q0 62 -28 94.5t-79 32.5q-59 0 -94 -42.5t-35 -124.5v-249h-130v530h116l13 -64q57 72 156 72q97 0 154 -63.5zM0 690l-112 -250h-100l66 250h146z" />
    <glyph glyph-name="Eng" unicode="&#x14a;" horiz-adv-x="796" 
d="M712 690v-690q0 -102 -62.5 -160.5t-173.5 -58.5q-56 0 -93 19l49 115q14 -6 36 -6q55 0 81 22.5t28 68.5l-359 503v-503h-134v690h160l334 -468v468h134z" />
    <glyph glyph-name="eng" unicode="&#x14b;" horiz-adv-x="638" 
d="M515 474.5q57 -63.5 57 -171.5v-333q0 -87 -48 -137.5t-132 -50.5q-48 0 -86 16l40 113q17 -7 38 -7q58 0 58 65v320q0 62 -28 94.5t-79 32.5q-59 0 -94 -42.5t-35 -124.5v-249h-130v530h116l13 -64q57 72 156 72q97 0 154 -63.5z" />
    <glyph glyph-name="Omacron" unicode="&#x14c;" horiz-adv-x="803" 
d="M218.5 35.5q-80.5 45.5 -126 126.5t-45.5 183t45.5 182.5t126 126t182.5 45.5t183 -45.5t126.5 -126t45.5 -182.5t-45.5 -183t-126.5 -126.5t-183 -45.5t-182.5 45.5zM514 147q50 29 78.5 80.5t28.5 117.5t-28.5 117t-78.5 80t-113 29t-113 -29t-78 -80t-28 -117
t28 -117.5t78 -80.5t113 -29t113 29zM554 854v-108h-305v108h305z" />
    <glyph glyph-name="omacron" unicode="&#x14d;" horiz-adv-x="630" 
d="M174 27q-62 35 -97 97t-35 141t35 141.5t97 97t141 34.5t141.5 -35t97 -97t34.5 -141q0 -80 -34.5 -142t-96.5 -96.5t-142 -34.5q-79 0 -141 35zM418 156q40 42 40 109t-40 109t-103 42t-103 -42t-40 -109t40 -109t103 -42t103 42zM468 744v-108h-305v108h305z" />
    <glyph glyph-name="Obreve" unicode="&#x14e;" horiz-adv-x="803" 
d="M218.5 35.5q-80.5 45.5 -126 126.5t-45.5 183t45.5 182.5t126 126t182.5 45.5t183 -45.5t126.5 -126t45.5 -182.5t-45.5 -183t-126.5 -126.5t-183 -45.5t-182.5 45.5zM514 147q50 29 78.5 80.5t28.5 117.5t-28.5 117t-78.5 80t-113 29t-113 -29t-78 -80t-28 -117
t28 -117.5t78 -80.5t113 -29t113 29zM270 768.5q-45 43.5 -45 111.5h95q0 -25 17.5 -40t47.5 -15t47.5 15t17.5 40h95q0 -68 -45 -111.5t-115 -43.5t-115 43.5z" />
    <glyph glyph-name="obreve" unicode="&#x14f;" horiz-adv-x="630" 
d="M174 27q-62 35 -97 97t-35 141t35 141.5t97 97t141 34.5t141.5 -35t97 -97t34.5 -141q0 -80 -34.5 -142t-96.5 -96.5t-142 -34.5q-79 0 -141 35zM418 156q40 42 40 109t-40 109t-103 42t-103 -42t-40 -109t40 -109t103 -42t103 42zM233.5 630q-36.5 21 -57 57.5
t-20.5 82.5h95q0 -28 17.5 -44.5t47.5 -16.5t47.5 16.5t17.5 44.5h95q0 -46 -20.5 -82.5t-57 -57.5t-82.5 -21t-82.5 21z" />
    <glyph glyph-name="Ohungarumlaut" unicode="&#x150;" horiz-adv-x="803" 
d="M218.5 35.5q-80.5 45.5 -126 126.5t-45.5 183t45.5 182.5t126 126t182.5 45.5t183 -45.5t126.5 -126t45.5 -182.5t-45.5 -183t-126.5 -126.5t-183 -45.5t-182.5 45.5zM514 147q50 29 78.5 80.5t28.5 117.5t-28.5 117t-78.5 80t-113 29t-113 -29t-78 -80t-28 -117
t28 -117.5t78 -80.5t113 -29t113 29zM302 885h143l-133 -153h-123zM482 885h143l-133 -153h-123z" />
    <glyph glyph-name="ohungarumlaut" unicode="&#x151;" horiz-adv-x="630" 
d="M174 27q-62 35 -97 97t-35 141t35 141.5t97 97t141 34.5t141.5 -35t97 -97t34.5 -141q0 -80 -34.5 -142t-96.5 -96.5t-142 -34.5q-79 0 -141 35zM418 156q40 42 40 109t-40 109t-103 42t-103 -42t-40 -109t40 -109t103 -42t103 42zM251 770h143l-133 -153h-123zM431 770
h143l-133 -153h-123z" />
    <glyph glyph-name="OE" unicode="&#x152;" horiz-adv-x="1076" 
d="M736 566v-151h265v-123h-265v-168h302v-124h-437v91q-42 -48 -100.5 -74.5t-129.5 -26.5q-89 0 -163.5 45.5t-117.5 127t-43 182.5t43 182t117.5 126.5t163.5 45.5q71 0 129.5 -26t100.5 -75v92h437v-124h-302zM499 147q48 29 75 80.5t27 117.5q0 65 -27 116.5t-75 80.5
t-108 29t-107.5 -29t-74.5 -80t-27 -117t27 -117.5t74.5 -80.5t107.5 -29t108 29z" />
    <glyph glyph-name="oe" unicode="&#x153;" horiz-adv-x="972" 
d="M925 216h-354q12 -53 47 -83.5t85 -30.5q30 0 61 14t58 40l71 -86q-81 -78 -190 -78q-64 0 -116 29t-85 81q-32 -52 -83 -81t-115 -29q-76 0 -135.5 35t-93 97t-33.5 141t33.5 141.5t93 97t135.5 34.5q63 0 113.5 -28.5t83.5 -79.5q30 51 78 79.5t107 28.5
q70 0 125.5 -33.5t87 -93t31.5 -135.5q0 -27 -5 -60zM611 398q-31 -30 -42 -81h232q-8 51 -39 81t-76 30q-44 0 -75 -30zM398.5 156q36.5 42 36.5 109t-36.5 109t-94.5 42t-95 -42t-37 -109t37 -109t95 -42t94.5 42z" />
    <glyph glyph-name="Racute" unicode="&#x154;" horiz-adv-x="672" 
d="M480 0l-168 229h-93v-229h-135v690h297q113 0 179.5 -62t66.5 -169q0 -83 -42 -140.5t-117 -78.5l176 -240h-164zM219 349h150q58 0 90.5 28.5t32.5 79.5q0 53 -32.5 80.5t-90.5 27.5h-150v-216zM346 880h153l-133 -153h-133z" />
    <glyph glyph-name="racute" unicode="&#x155;" horiz-adv-x="409" 
d="M388 534v-136q-30 10 -66 10q-52 0 -84 -32.5t-32 -94.5v-281h-130v530h116l11 -57q31 34 65 49.5t74 15.5q26 0 46 -4zM243 770h153l-133 -153h-133z" />
    <glyph glyph-name="Rcommaaccent" unicode="&#x156;" horiz-adv-x="672" 
d="M480 0l-168 229h-93v-229h-135v690h297q113 0 179.5 -62t66.5 -169q0 -83 -42 -140.5t-117 -78.5l176 -240h-164zM219 349h150q58 0 90.5 28.5t32.5 79.5q0 53 -32.5 80.5t-90.5 27.5h-150v-216zM421 -50l-70 -150h-100l37 150h133z" />
    <glyph glyph-name="rcommaaccent" unicode="&#x157;" horiz-adv-x="409" 
d="M388 534v-136q-30 10 -66 10q-52 0 -84 -32.5t-32 -94.5v-281h-130v530h116l11 -57q31 34 65 49.5t74 15.5q26 0 46 -4zM226 -50l-70 -150h-100l37 150h133z" />
    <glyph glyph-name="Rcaron" unicode="&#x158;" horiz-adv-x="672" 
d="M480 0l-168 229h-93v-229h-135v690h297q113 0 179.5 -62t66.5 -169q0 -83 -42 -140.5t-117 -78.5l176 -240h-164zM219 349h150q58 0 90.5 28.5t32.5 79.5q0 53 -32.5 80.5t-90.5 27.5h-150v-216zM529 880l-113 -153h-160l-113 153h133l60 -81l60 81h133z" />
    <glyph glyph-name="rcaron" unicode="&#x159;" horiz-adv-x="409" 
d="M388 534v-136q-30 10 -66 10q-52 0 -84 -32.5t-32 -94.5v-281h-130v530h116l11 -57q31 34 65 49.5t74 15.5q26 0 46 -4zM426 770l-113 -153h-160l-113 153h133l60 -81l60 81h133z" />
    <glyph glyph-name="Sacute" unicode="&#x15a;" horiz-adv-x="594" 
d="M100 172q80 -57 183 -57q60 0 93 19.5t33 53.5q0 27 -18 45t-44.5 29t-76.5 27q-68 21 -112 41.5t-75 61t-31 104.5q0 60 30.5 106.5t86 72t129.5 25.5q66 0 127.5 -19.5t111.5 -56.5l-69 -109q-80 60 -171 60q-51 0 -79.5 -18.5t-28.5 -48.5q0 -25 17.5 -41.5t43 -27.5
t73.5 -26q69 -21 113.5 -42t76.5 -63t32 -109q0 -62 -33 -109.5t-93.5 -74t-139.5 -26.5q-68 0 -131 17.5t-113 50.5zM307 880h153l-133 -153h-133z" />
    <glyph glyph-name="sacute" unicode="&#x15b;" horiz-adv-x="477" 
d="M91 150q29 -23 64 -35.5t71 -12.5q37 0 57.5 11.5t20.5 33.5q0 23 -22 36t-70 29q-51 17 -84.5 34t-57.5 49t-24 83q0 71 54.5 115.5t142.5 44.5q104 0 186 -60l-64 -97q-60 47 -124 47q-31 0 -48 -11t-17 -30q0 -21 20.5 -32.5t67.5 -26.5q53 -18 86.5 -34.5t58.5 -50
t25 -86.5q0 -49 -26.5 -86t-74 -58t-110.5 -21q-53 0 -102.5 13.5t-87.5 38.5zM248 770h153l-133 -153h-133z" />
    <glyph glyph-name="Scircumflex" unicode="&#x15c;" horiz-adv-x="594" 
d="M100 172q80 -57 183 -57q60 0 93 19.5t33 53.5q0 27 -18 45t-44.5 29t-76.5 27q-68 21 -112 41.5t-75 61t-31 104.5q0 60 30.5 106.5t86 72t129.5 25.5q66 0 127.5 -19.5t111.5 -56.5l-69 -109q-80 60 -171 60q-51 0 -79.5 -18.5t-28.5 -48.5q0 -25 17.5 -41.5t43 -27.5
t73.5 -26q69 -21 113.5 -42t76.5 -63t32 -109q0 -62 -33 -109.5t-93.5 -74t-139.5 -26.5q-68 0 -131 17.5t-113 50.5zM357 727l-60 81l-60 -81h-133l113 153h160l113 -153h-133z" />
    <glyph glyph-name="scircumflex" unicode="&#x15d;" horiz-adv-x="477" 
d="M91 150q29 -23 64 -35.5t71 -12.5q37 0 57.5 11.5t20.5 33.5q0 23 -22 36t-70 29q-51 17 -84.5 34t-57.5 49t-24 83q0 71 54.5 115.5t142.5 44.5q104 0 186 -60l-64 -97q-60 47 -124 47q-31 0 -48 -11t-17 -30q0 -21 20.5 -32.5t67.5 -26.5q53 -18 86.5 -34.5t58.5 -50
t25 -86.5q0 -49 -26.5 -86t-74 -58t-110.5 -21q-53 0 -102.5 13.5t-87.5 38.5zM298 617l-60 81l-60 -81h-133l113 153h160l113 -153h-133z" />
    <glyph glyph-name="Scedilla" unicode="&#x15e;" horiz-adv-x="594" 
d="M100 172q80 -57 183 -57q60 0 93 19.5t33 53.5q0 27 -18 45t-44.5 29t-76.5 27q-68 21 -112 41.5t-75 61t-31 104.5q0 60 30.5 106.5t86 72t129.5 25.5q66 0 127.5 -19.5t111.5 -56.5l-69 -109q-80 60 -171 60q-51 0 -79.5 -18.5t-28.5 -48.5q0 -25 17.5 -41.5t43 -27.5
t73.5 -26q69 -21 113.5 -42t76.5 -63t32 -109q0 -62 -33 -109.5t-93.5 -74t-139.5 -26.5q-68 0 -131 17.5t-113 50.5zM382 -50l-70 -150h-100l37 150h133z" />
    <glyph glyph-name="scedilla" unicode="&#x15f;" horiz-adv-x="477" 
d="M91 150q29 -23 64 -35.5t71 -12.5q37 0 57.5 11.5t20.5 33.5q0 23 -22 36t-70 29q-51 17 -84.5 34t-57.5 49t-24 83q0 71 54.5 115.5t142.5 44.5q104 0 186 -60l-64 -97q-60 47 -124 47q-31 0 -48 -11t-17 -30q0 -21 20.5 -32.5t67.5 -26.5q53 -18 86.5 -34.5t58.5 -50
t25 -86.5q0 -49 -26.5 -86t-74 -58t-110.5 -21q-53 0 -102.5 13.5t-87.5 38.5zM323 -50l-70 -150h-100l37 150h133z" />
    <glyph glyph-name="Scaron" unicode="&#x160;" horiz-adv-x="594" 
d="M100 172q80 -57 183 -57q60 0 93 19.5t33 53.5q0 27 -18 45t-44.5 29t-76.5 27q-68 21 -112 41.5t-75 61t-31 104.5q0 60 30.5 106.5t86 72t129.5 25.5q66 0 127.5 -19.5t111.5 -56.5l-69 -109q-80 60 -171 60q-51 0 -79.5 -18.5t-28.5 -48.5q0 -25 17.5 -41.5t43 -27.5
t73.5 -26q69 -21 113.5 -42t76.5 -63t32 -109q0 -62 -33 -109.5t-93.5 -74t-139.5 -26.5q-68 0 -131 17.5t-113 50.5zM490 880l-113 -153h-160l-113 153h133l60 -81l60 81h133z" />
    <glyph glyph-name="scaron" unicode="&#x161;" horiz-adv-x="477" 
d="M91 150q29 -23 64 -35.5t71 -12.5q37 0 57.5 11.5t20.5 33.5q0 23 -22 36t-70 29q-51 17 -84.5 34t-57.5 49t-24 83q0 71 54.5 115.5t142.5 44.5q104 0 186 -60l-64 -97q-60 47 -124 47q-31 0 -48 -11t-17 -30q0 -21 20.5 -32.5t67.5 -26.5q53 -18 86.5 -34.5t58.5 -50
t25 -86.5q0 -49 -26.5 -86t-74 -58t-110.5 -21q-53 0 -102.5 13.5t-87.5 38.5zM431 770l-113 -153h-160l-113 153h133l60 -81l60 81h133z" />
    <glyph glyph-name="uni0162" unicode="&#x162;" horiz-adv-x="640" 
d="M630 562h-242v-562h-136v562h-242v128h620v-128zM405 -50l-70 -150h-100l37 150h133z" />
    <glyph glyph-name="uni0163" unicode="&#x163;" horiz-adv-x="452" 
d="M440 29q-68 -37 -147 -37q-87 0 -137 47.5t-50 129.5v246h-85v115h85v153h130v-153h189v-115h-189v-227q0 -74 72 -74q44 0 89 24zM358 -50l-70 -150h-100l37 150h133z" />
    <glyph glyph-name="Tcaron" unicode="&#x164;" horiz-adv-x="640" 
d="M630 562h-242v-562h-136v562h-242v128h620v-128zM513 880l-113 -153h-160l-113 153h133l60 -81l60 81h133z" />
    <glyph glyph-name="tcaron" unicode="&#x165;" horiz-adv-x="452" 
d="M440 29q-68 -37 -147 -37q-87 0 -137 47.5t-50 129.5v246h-85v115h85v153h130v-153h189v-115h-189v-227q0 -74 72 -74q44 0 89 24zM455 760l-82 -196h-99l39 196h142z" />
    <glyph glyph-name="Tbar" unicode="&#x166;" horiz-adv-x="640" 
d="M388 562v-202h120v-110h-120v-250h-136v250h-121v110h121v202h-242v128h620v-128h-242z" />
    <glyph glyph-name="tbar" unicode="&#x167;" horiz-adv-x="452" 
d="M440 29q-68 -37 -147 -37q-87 0 -137 47.5t-50 129.5v57h-70v100h70v89h-85v115h85v153h130v-153h189v-115h-189v-89h157v-100h-157v-38q0 -74 72 -74q44 0 89 24z" />
    <glyph glyph-name="Utilde" unicode="&#x168;" horiz-adv-x="745" 
d="M217 28q-67 38 -104 108t-37 163v391h135v-381q0 -93 43 -144t118 -51t118.5 51t43.5 144v381h135v-391q0 -93 -37 -163t-104 -108t-156 -38q-88 0 -155 38zM262 722h-90q0 68 35.5 110.5t91.5 42.5q23 0 41.5 -6t39.5 -18q18 -9 31.5 -14t28.5 -5q44 0 44 43h90
q0 -68 -35.5 -110.5t-91.5 -42.5q-23 0 -41.5 6t-39.5 18q-18 9 -31.5 14t-28.5 5q-44 0 -44 -43z" />
    <glyph glyph-name="utilde" unicode="&#x169;" horiz-adv-x="624" 
d="M183 23q-56 31 -86.5 87.5t-30.5 132.5v287h130v-273q0 -69 31 -106t85 -37t85 37t31 106v273h130v-287q0 -76 -30.5 -132.5t-86.5 -87.5t-129 -31t-129 31zM201 602h-90q0 73 35.5 118t91.5 45q23 0 41 -7.5t40 -21.5q17 -12 30.5 -18t29.5 -6q44 0 44 53h90
q0 -73 -35.5 -118t-91.5 -45q-23 0 -41 7.5t-40 21.5q-17 12 -30.5 18t-29.5 6q-44 0 -44 -53z" />
    <glyph glyph-name="Umacron" unicode="&#x16a;" horiz-adv-x="745" 
d="M217 28q-67 38 -104 108t-37 163v391h135v-381q0 -93 43 -144t118 -51t118.5 51t43.5 144v381h135v-391q0 -93 -37 -163t-104 -108t-156 -38q-88 0 -155 38zM525 854v-108h-305v108h305z" />
    <glyph glyph-name="umacron" unicode="&#x16b;" horiz-adv-x="624" 
d="M183 23q-56 31 -86.5 87.5t-30.5 132.5v287h130v-273q0 -69 31 -106t85 -37t85 37t31 106v273h130v-287q0 -76 -30.5 -132.5t-86.5 -87.5t-129 -31t-129 31zM464 744v-108h-305v108h305z" />
    <glyph glyph-name="Ubreve" unicode="&#x16c;" horiz-adv-x="745" 
d="M217 28q-67 38 -104 108t-37 163v391h135v-381q0 -93 43 -144t118 -51t118.5 51t43.5 144v381h135v-391q0 -93 -37 -163t-104 -108t-156 -38q-88 0 -155 38zM258 768.5q-45 43.5 -45 111.5h95q0 -25 17.5 -40t47.5 -15t47.5 15t17.5 40h95q0 -68 -45 -111.5t-115 -43.5
t-115 43.5z" />
    <glyph glyph-name="ubreve" unicode="&#x16d;" horiz-adv-x="624" 
d="M183 23q-56 31 -86.5 87.5t-30.5 132.5v287h130v-273q0 -69 31 -106t85 -37t85 37t31 106v273h130v-287q0 -76 -30.5 -132.5t-86.5 -87.5t-129 -31t-129 31zM229.5 630q-36.5 21 -57 57.5t-20.5 82.5h95q0 -28 17.5 -44.5t47.5 -16.5t47.5 16.5t17.5 44.5h95
q0 -46 -20.5 -82.5t-57 -57.5t-82.5 -21t-82.5 21z" />
    <glyph glyph-name="Uring" unicode="&#x16e;" horiz-adv-x="745" 
d="M217 28q-67 38 -104 108t-37 163v391h135v-381q0 -93 43 -144t118 -51t118.5 51t43.5 144v381h135v-391q0 -93 -37 -163t-104 -108t-156 -38q-88 0 -155 38zM291.5 701.5q-33.5 33.5 -33.5 81.5q0 47 33.5 81t81.5 34q47 0 81 -34t34 -81q0 -48 -34 -81.5t-81 -33.5
q-48 0 -81.5 33.5zM408.5 747.5q14.5 14.5 14.5 35.5q0 20 -14.5 35t-35.5 15t-35.5 -15t-14.5 -35q0 -21 14.5 -35.5t35.5 -14.5t35.5 14.5z" />
    <glyph glyph-name="uring" unicode="&#x16f;" horiz-adv-x="624" 
d="M183 23q-56 31 -86.5 87.5t-30.5 132.5v287h130v-273q0 -69 31 -106t85 -37t85 37t31 106v273h130v-287q0 -76 -30.5 -132.5t-86.5 -87.5t-129 -31t-129 31zM230.5 601.5q-33.5 33.5 -33.5 81.5q0 47 33.5 81t81.5 34q47 0 81 -34t34 -81q0 -48 -34 -81.5t-81 -33.5
q-48 0 -81.5 33.5zM347.5 647.5q14.5 14.5 14.5 35.5q0 20 -14.5 35t-35.5 15t-35.5 -15t-14.5 -35q0 -21 14.5 -35.5t35.5 -14.5t35.5 14.5z" />
    <glyph glyph-name="Uhungarumlaut" unicode="&#x170;" horiz-adv-x="745" 
d="M217 28q-67 38 -104 108t-37 163v391h135v-381q0 -93 43 -144t118 -51t118.5 51t43.5 144v381h135v-391q0 -93 -37 -163t-104 -108t-156 -38q-88 0 -155 38zM268 880h143l-133 -153h-123zM458 880h143l-133 -153h-123z" />
    <glyph glyph-name="uhungarumlaut" unicode="&#x171;" horiz-adv-x="624" 
d="M183 23q-56 31 -86.5 87.5t-30.5 132.5v287h130v-273q0 -69 31 -106t85 -37t85 37t31 106v273h130v-287q0 -76 -30.5 -132.5t-86.5 -87.5t-129 -31t-129 31zM247 770h143l-133 -153h-123zM427 770h143l-133 -153h-123z" />
    <glyph glyph-name="Uogonek" unicode="&#x172;" horiz-adv-x="745" 
d="M669 690v-391q0 -79 -26.5 -141t-75.5 -103q-40 -42 -60.5 -77t-20.5 -67q0 -31 31 -31q18 0 32 8v-92q-32 -13 -83 -13q-57 0 -88.5 24t-31.5 69q0 32 20.5 59.5t70.5 60.5q-30 -6 -65 -6q-88 0 -155 38t-104 108t-37 163v391h135v-381q0 -93 43 -144t118 -51t118.5 51
t43.5 144v381h135z" />
    <glyph glyph-name="uogonek" unicode="&#x173;" horiz-adv-x="624" 
d="M558 530v-287q0 -62 -21 -112.5t-60 -83.5q-88 -80 -88 -132q0 -19 7.5 -27t23.5 -8q18 0 32 8v-92q-32 -13 -83 -13q-57 0 -88.5 24t-31.5 69q0 31 17.5 57.5t60.5 58.5h-15q-73 0 -129 31t-86.5 87.5t-30.5 132.5v287h130v-273q0 -69 31 -106t85 -37t85 37t31 106v273
h130z" />
    <glyph glyph-name="Wcircumflex" unicode="&#x174;" horiz-adv-x="1056" 
d="M1046 690l-214 -690h-155l-149 494l-149 -494h-155l-214 690h144l152 -501l150 501h144l150 -501l152 501h144zM588 727l-60 81l-60 -81h-133l113 153h160l113 -153h-133z" />
    <glyph glyph-name="wcircumflex" unicode="&#x175;" horiz-adv-x="925" 
d="M914 530l-185 -530h-150l-116 355l-117 -355h-151l-184 530h138l126 -372l122 372h132l121 -371l126 371h138zM522 617l-60 81l-60 -81h-133l113 153h160l113 -153h-133z" />
    <glyph glyph-name="Ycircumflex" unicode="&#x176;" horiz-adv-x="682" 
d="M273 277l-263 413h160l171 -271l171 271h160l-263 -413v-277h-136v277zM401 727l-60 81l-60 -81h-133l113 153h160l113 -153h-133z" />
    <glyph glyph-name="ycircumflex" unicode="&#x177;" horiz-adv-x="612" 
d="M601 530l-221 -560q-41 -103 -101 -146t-151 -43q-34 0 -55 7l17 129q15 -3 34 -3q48 0 77.5 17.5t47.5 61.5l-238 537h145l163 -377l140 377h142zM366 617l-60 81l-60 -81h-133l113 153h160l113 -153h-133z" />
    <glyph glyph-name="Ydieresis" unicode="&#x178;" horiz-adv-x="682" 
d="M273 277l-263 413h160l171 -271l171 271h160l-263 -413v-277h-136v277zM173.5 742.5q-22.5 22.5 -22.5 57.5t22.5 57.5t57.5 22.5t57.5 -22.5t22.5 -57.5t-22.5 -57.5t-57.5 -22.5t-57.5 22.5zM393.5 742.5q-22.5 22.5 -22.5 57.5t22.5 57.5t57.5 22.5t57.5 -22.5
t22.5 -57.5t-22.5 -57.5t-57.5 -22.5t-57.5 22.5z" />
    <glyph glyph-name="Zacute" unicode="&#x179;" horiz-adv-x="642" 
d="M573 568l-349 -440h361v-128h-537v122l348 440h-336v128h513v-122zM327 880h153l-133 -153h-133z" />
    <glyph glyph-name="zacute" unicode="&#x17a;" horiz-adv-x="534" 
d="M476 422l-261 -307h271v-115h-438v108l260 307h-249v115h417v-108zM278 770h153l-133 -153h-133z" />
    <glyph glyph-name="Zdotaccent" unicode="&#x17b;" horiz-adv-x="642" 
d="M573 568l-349 -440h361v-128h-537v122l348 440h-336v128h513v-122zM255.5 739q-23.5 24 -23.5 61q0 38 23.5 61.5t61.5 23.5q37 0 61 -23.5t24 -61.5q0 -37 -24 -61t-61 -24q-38 0 -61.5 24z" />
    <glyph glyph-name="zdotaccent" unicode="&#x17c;" horiz-adv-x="534" 
d="M476 422l-261 -307h271v-115h-438v108l260 307h-249v115h417v-108zM206.5 629q-23.5 24 -23.5 61q0 38 23.5 61.5t61.5 23.5q37 0 61 -23.5t24 -61.5q0 -37 -24 -61t-61 -24q-38 0 -61.5 24z" />
    <glyph glyph-name="Zcaron" unicode="&#x17d;" horiz-adv-x="642" 
d="M573 568l-349 -440h361v-128h-537v122l348 440h-336v128h513v-122zM510 880l-113 -153h-160l-113 153h133l60 -81l60 81h133z" />
    <glyph glyph-name="zcaron" unicode="&#x17e;" horiz-adv-x="534" 
d="M476 422l-261 -307h271v-115h-438v108l260 307h-249v115h417v-108zM461 770l-113 -153h-160l-113 153h133l60 -81l60 81h133z" />
    <glyph glyph-name="florin" unicode="&#x192;" horiz-adv-x="540" 
d="M362.5 565.5q-16.5 -15.5 -21.5 -46.5l-9 -62h111v-122h-129l-57 -396q-11 -80 -60 -124t-130 -44q-29 0 -58 6t-50 16l61 108q19 -10 40 -10q31 0 47.5 15.5t21.5 46.5l55 382h-76v122h94l11 76q11 80 60 124t130 44q29 0 58 -6t50 -16l-61 -108q-19 10 -40 10
q-31 0 -47.5 -15.5z" />
    <glyph glyph-name="Scommaaccent" unicode="&#x218;" horiz-adv-x="594" 
d="M100 172q80 -57 183 -57q60 0 93 19.5t33 53.5q0 27 -18 45t-44.5 29t-76.5 27q-68 21 -112 41.5t-75 61t-31 104.5q0 60 30.5 106.5t86 72t129.5 25.5q66 0 127.5 -19.5t111.5 -56.5l-69 -109q-80 60 -171 60q-51 0 -79.5 -18.5t-28.5 -48.5q0 -25 17.5 -41.5t43 -27.5
t73.5 -26q69 -21 113.5 -42t76.5 -63t32 -109q0 -62 -33 -109.5t-93.5 -74t-139.5 -26.5q-68 0 -131 17.5t-113 50.5zM382 -50l-70 -150h-100l37 150h133z" />
    <glyph glyph-name="scommaaccent" unicode="&#x219;" horiz-adv-x="477" 
d="M91 150q29 -23 64 -35.5t71 -12.5q37 0 57.5 11.5t20.5 33.5q0 23 -22 36t-70 29q-51 17 -84.5 34t-57.5 49t-24 83q0 71 54.5 115.5t142.5 44.5q104 0 186 -60l-64 -97q-60 47 -124 47q-31 0 -48 -11t-17 -30q0 -21 20.5 -32.5t67.5 -26.5q53 -18 86.5 -34.5t58.5 -50
t25 -86.5q0 -49 -26.5 -86t-74 -58t-110.5 -21q-53 0 -102.5 13.5t-87.5 38.5zM323 -50l-70 -150h-100l37 150h133z" />
    <glyph glyph-name="uni021A" unicode="&#x21a;" horiz-adv-x="640" 
d="M630 562h-242v-562h-136v562h-242v128h620v-128zM405 -50l-70 -150h-100l37 150h133z" />
    <glyph glyph-name="uni021B" unicode="&#x21b;" horiz-adv-x="452" 
d="M440 29q-68 -37 -147 -37q-87 0 -137 47.5t-50 129.5v246h-85v115h85v153h130v-153h189v-115h-189v-227q0 -74 72 -74q44 0 89 24zM358 -50l-70 -150h-100l37 150h133z" />
    <glyph glyph-name="dotlessj" unicode="&#x237;" horiz-adv-x="282" 
d="M11 -96q65 0 65 73v553h130v-552q0 -91 -50 -143.5t-138 -52.5q-49 0 -88 16l40 113q18 -7 41 -7z" />
    <glyph glyph-name="circumflex" unicode="&#x2c6;" horiz-adv-x="446" 
d="M283 617l-60 81l-60 -81h-133l113 153h160l113 -153h-133z" />
    <glyph glyph-name="caron" unicode="&#x2c7;" horiz-adv-x="446" 
d="M416 770l-113 -153h-160l-113 153h133l60 -81l60 81h133z" />
    <glyph glyph-name="uni02C9" unicode="&#x2c9;" horiz-adv-x="365" 
d="M335 744v-108h-305v108h305z" />
    <glyph glyph-name="breve" unicode="&#x2d8;" horiz-adv-x="380" 
d="M107.5 630q-36.5 21 -57 57.5t-20.5 82.5h95q0 -28 17.5 -44.5t47.5 -16.5t47.5 16.5t17.5 44.5h95q0 -46 -20.5 -82.5t-57 -57.5t-82.5 -21t-82.5 21z" />
    <glyph glyph-name="dotaccent" unicode="&#x2d9;" horiz-adv-x="230" 
d="M54 629q-24 24 -24 61q0 38 24 61.5t61 23.5q38 0 61.5 -23.5t23.5 -61.5q0 -37 -23.5 -61t-61.5 -24q-37 0 -61 24z" />
    <glyph glyph-name="ring" unicode="&#x2da;" horiz-adv-x="290" 
d="M63.5 601.5q-33.5 33.5 -33.5 81.5q0 47 33.5 81t81.5 34q47 0 81 -34t34 -81q0 -48 -34 -81.5t-81 -33.5q-48 0 -81.5 33.5zM180.5 647.5q14.5 14.5 14.5 35.5q0 20 -14.5 35t-35.5 15t-35.5 -15t-14.5 -35q0 -21 14.5 -35.5t35.5 -14.5t35.5 14.5z" />
    <glyph glyph-name="ogonek" unicode="&#x2db;" horiz-adv-x="264" 
d="M233 -204q-32 -13 -83 -13q-57 0 -88.5 24t-31.5 69q0 32 20 60.5t68 63.5h116q-36 -30 -50 -49.5t-14 -39.5q0 -31 31 -31q18 0 32 8v-92z" />
    <glyph glyph-name="tilde" unicode="&#x2dc;" horiz-adv-x="462" 
d="M120 602h-90q0 73 35.5 118t91.5 45q23 0 41 -7.5t40 -21.5q17 -12 30.5 -18t29.5 -6q44 0 44 53h90q0 -73 -35.5 -118t-91.5 -45q-23 0 -41 7.5t-40 21.5q-17 12 -30.5 18t-29.5 6q-44 0 -44 -53z" />
    <glyph glyph-name="hungarumlaut" unicode="&#x2dd;" horiz-adv-x="496" 
d="M143 770h143l-133 -153h-123zM323 770h143l-133 -153h-123z" />
    <glyph glyph-name="gravecomb" unicode="&#x300;" 
d="M-163 617l-133 153h153l113 -153h-133z" />
    <glyph glyph-name="acutecomb" unicode="&#x301;" 
d="M-183 770h153l-133 -153h-133z" />
    <glyph glyph-name="circumflexcomb" unicode="&#x302;" 
d="M-163 617l-60 81l-60 -81h-133l113 153h160l113 -153h-133z" />
    <glyph glyph-name="tildecomb" unicode="&#x303;" 
d="M-342 602h-90q0 73 35.5 118t91.5 45q23 0 41 -7.5t40 -21.5q17 -12 30.5 -18t29.5 -6q44 0 44 53h90q0 -73 -35.5 -118t-91.5 -45q-23 0 -41 7.5t-40 21.5q-17 12 -30.5 18t-29.5 6q-44 0 -44 -53z" />
    <glyph glyph-name="macroncomb" unicode="&#x304;" 
d="M-30 744v-108h-305v108h305z" />
    <glyph glyph-name="brevecomb" unicode="&#x306;" 
d="M-272.5 630q-36.5 21 -57 57.5t-20.5 82.5h95q0 -28 17.5 -44.5t47.5 -16.5t47.5 16.5t17.5 44.5h95q0 -46 -20.5 -82.5t-57 -57.5t-82.5 -21t-82.5 21z" />
    <glyph glyph-name="dotaccentcomb" unicode="&#x307;" 
d="M-176.5 629q-23.5 24 -23.5 61q0 38 23.5 61.5t61.5 23.5q37 0 61 -23.5t24 -61.5q0 -37 -24 -61t-61 -24q-38 0 -61.5 24z" />
    <glyph glyph-name="dieresiscomb" unicode="&#x308;" 
d="M-387.5 632.5q-22.5 22.5 -22.5 57.5t22.5 57.5t57.5 22.5t57.5 -22.5t22.5 -57.5t-22.5 -57.5t-57.5 -22.5t-57.5 22.5zM-167.5 632.5q-22.5 22.5 -22.5 57.5t22.5 57.5t57.5 22.5t57.5 -22.5t22.5 -57.5t-22.5 -57.5t-57.5 -22.5t-57.5 22.5z" />
    <glyph glyph-name="ringcomb" unicode="&#x30a;" 
d="M-218.5 601.5q-33.5 33.5 -33.5 81.5q0 47 33.5 81t81.5 34q47 0 81 -34t34 -81q0 -48 -34 -81.5t-81 -33.5q-48 0 -81.5 33.5zM-101.5 647.5q14.5 14.5 14.5 35.5q0 20 -14.5 35t-35.5 15t-35.5 -15t-14.5 -35q0 -21 14.5 -35.5t35.5 -14.5t35.5 14.5z" />
    <glyph glyph-name="hungarumlautcomb" unicode="&#x30b;" 
d="M-353 770h143l-133 -153h-123zM-173 770h143l-133 -153h-123z" />
    <glyph glyph-name="caroncomb" unicode="&#x30c;" 
d="M-30 770l-113 -153h-160l-113 153h133l60 -81l60 81h133z" />
    <glyph glyph-name="commaturnedabovecomb" unicode="&#x312;" 
d="M-200 620l80 150h90l-37 -150h-133z" />
    <glyph glyph-name="commaaccent" unicode="&#x326;" 
d="M-30 -50l-70 -150h-100l37 150h133z" />
    <glyph glyph-name="cedillacomb" unicode="&#x327;" 
d="M-30 -50l-70 -150h-100l37 150h133z" />
    <glyph glyph-name="ogonekcomb" unicode="&#x328;" 
d="M-31 -204q-32 -13 -83 -13q-57 0 -88.5 24t-31.5 69q0 32 20 60.5t68 63.5h116q-36 -30 -50 -49.5t-14 -39.5q0 -31 31 -31q18 0 32 8v-92z" />
    <glyph glyph-name="uni0335" unicode="&#x335;" 
d="M-30 697v-100h-357v100h357z" />
    <glyph glyph-name="uni0394" unicode="&#x394;" horiz-adv-x="726" 
d="M716 0h-706l268 690h169zM523 124l-160 427l-160 -427h320z" />
    <glyph glyph-name="uni03A9" unicode="&#x3a9;" horiz-adv-x="780" 
d="M290 549q-45 -22 -72 -66t-27 -108q0 -81 42.5 -144.5t109.5 -102.5v-128h-279v128h113q-54 42 -87.5 109.5t-33.5 137.5q0 101 42.5 174.5t118 111.5t173.5 38t173.5 -38t118 -111.5t42.5 -174.5q0 -70 -33.5 -137.5t-87.5 -109.5h113v-128h-279v128q67 39 109.5 102.5
t42.5 144.5q0 64 -27 108t-72 66t-100 22t-100 -22z" />
    <glyph glyph-name="uni03BC" unicode="&#x3bc;" horiz-adv-x="626" 
d="M550 500v-500h-116l-12 57q-51 -65 -136 -65q-45 0 -80 18v-220h-130v710h130v-270q0 -57 25.5 -86.5t71.5 -29.5q54 0 85.5 39.5t31.5 115.5v231h130z" />
    <glyph glyph-name="Wgrave" unicode="&#x1e80;" horiz-adv-x="1056" 
d="M1046 690l-214 -690h-155l-149 494l-149 -494h-155l-214 690h144l152 -501l150 501h144l150 -501l152 501h144zM498 727l-133 153h153l113 -153h-133z" />
    <glyph glyph-name="wgrave" unicode="&#x1e81;" horiz-adv-x="925" 
d="M914 530l-185 -530h-150l-116 355l-117 -355h-151l-184 530h138l126 -372l122 372h132l121 -371l126 371h138zM432 617l-133 153h153l113 -153h-133z" />
    <glyph glyph-name="Wacute" unicode="&#x1e82;" horiz-adv-x="1056" 
d="M1046 690l-214 -690h-155l-149 494l-149 -494h-155l-214 690h144l152 -501l150 501h144l150 -501l152 501h144zM538 880h153l-133 -153h-133z" />
    <glyph glyph-name="wacute" unicode="&#x1e83;" horiz-adv-x="925" 
d="M914 530l-185 -530h-150l-116 355l-117 -355h-151l-184 530h138l126 -372l122 372h132l121 -371l126 371h138zM472 770h153l-133 -153h-133z" />
    <glyph glyph-name="Wdieresis" unicode="&#x1e84;" horiz-adv-x="1056" 
d="M1046 690l-214 -690h-155l-149 494l-149 -494h-155l-214 690h144l152 -501l150 501h144l150 -501l152 501h144zM360.5 742.5q-22.5 22.5 -22.5 57.5t22.5 57.5t57.5 22.5t57.5 -22.5t22.5 -57.5t-22.5 -57.5t-57.5 -22.5t-57.5 22.5zM580.5 742.5q-22.5 22.5 -22.5 57.5
t22.5 57.5t57.5 22.5t57.5 -22.5t22.5 -57.5t-22.5 -57.5t-57.5 -22.5t-57.5 22.5z" />
    <glyph glyph-name="wdieresis" unicode="&#x1e85;" horiz-adv-x="925" 
d="M914 530l-185 -530h-150l-116 355l-117 -355h-151l-184 530h138l126 -372l122 372h132l121 -371l126 371h138zM294.5 632.5q-22.5 22.5 -22.5 57.5t22.5 57.5t57.5 22.5t57.5 -22.5t22.5 -57.5t-22.5 -57.5t-57.5 -22.5t-57.5 22.5zM514.5 632.5q-22.5 22.5 -22.5 57.5
t22.5 57.5t57.5 22.5t57.5 -22.5t22.5 -57.5t-22.5 -57.5t-57.5 -22.5t-57.5 22.5z" />
    <glyph glyph-name="Germandbls" unicode="&#x1e9e;" horiz-adv-x="746" 
d="M656 326.5q41 -48.5 41 -111.5q0 -107 -60 -166.5t-176 -59.5q-54 0 -104 17.5t-90 50.5l68 108q26 -24 60 -37t70 -13q49 0 72.5 25t23.5 63q0 46 -36 72t-107 26q-19 0 -29 -1v88l92 133q-21 24 -54 36.5t-72 12.5q-76 0 -116 -49t-40 -140v-381h-135v387
q0 147 76.5 229t214.5 82q98 0 172 -44.5t121 -122.5l-109 -133q76 -23 117 -71.5z" />
    <glyph glyph-name="Ygrave" unicode="&#x1ef2;" horiz-adv-x="682" 
d="M273 277l-263 413h160l171 -271l171 271h160l-263 -413v-277h-136v277zM311 727l-133 153h153l113 -153h-133z" />
    <glyph glyph-name="ygrave" unicode="&#x1ef3;" horiz-adv-x="612" 
d="M601 530l-221 -560q-41 -103 -101 -146t-151 -43q-34 0 -55 7l17 129q15 -3 34 -3q48 0 77.5 17.5t47.5 61.5l-238 537h145l163 -377l140 377h142zM276 617l-133 153h153l113 -153h-133z" />
    <glyph glyph-name="endash" unicode="&#x2013;" horiz-adv-x="500" 
d="M25 248v88h450v-88h-450z" />
    <glyph glyph-name="emdash" unicode="&#x2014;" horiz-adv-x="1000" 
d="M25 248v88h950v-88h-950z" />
    <glyph glyph-name="quoteleft" unicode="&#x2018;" horiz-adv-x="272" 
d="M30 440l112 250h100l-66 -250h-146z" />
    <glyph glyph-name="quoteright" unicode="&#x2019;" horiz-adv-x="272" 
d="M242 690l-112 -250h-100l66 250h146z" />
    <glyph glyph-name="quotesinglbase" unicode="&#x201a;" horiz-adv-x="244" 
d="M208 120l-112 -250h-100l66 250h146z" />
    <glyph glyph-name="quotedblleft" unicode="&#x201c;" horiz-adv-x="462" 
d="M30 440l112 250h100l-66 -250h-146zM220 440l112 250h100l-66 -250h-146z" />
    <glyph glyph-name="quotedblright" unicode="&#x201d;" horiz-adv-x="462" 
d="M242 690l-112 -250h-100l66 250h146zM432 690l-112 -250h-100l66 250h146z" />
    <glyph glyph-name="quotedblbase" unicode="&#x201e;" horiz-adv-x="434" 
d="M208 120l-112 -250h-100l66 250h146zM398 120l-112 -250h-100l66 250h146z" />
    <glyph glyph-name="dagger" unicode="&#x2020;" horiz-adv-x="545" 
d="M507 408h-169v-524h-131v524h-169v112h169v170h131v-169h169v-113z" />
    <glyph glyph-name="daggerdbl" unicode="&#x2021;" horiz-adv-x="545" 
d="M507 412h-169v-223h169v-109h-169v-196h-131v196h-169v109h169v223h-169v109h169v169h131v-169h169v-109z" />
    <glyph glyph-name="bullet" unicode="&#x2022;" horiz-adv-x="440" 
d="M119 219q-39 39 -39 101t39 101t101 39t101 -39t39 -101t-39 -101t-101 -39t-101 39z" />
    <glyph glyph-name="ellipsis" unicode="&#x2026;" horiz-adv-x="880" 
d="M368 18q-28 28 -28 72t28 72t72 28t72 -28t28 -72t-28 -72t-72 -28t-72 28zM68 18q-28 28 -28 72t28 72t72 28t72 -28t28 -72t-28 -72t-72 -28t-72 28zM668 18q-28 28 -28 72t28 72t72 28t72 -28t28 -72t-28 -72t-72 -28t-72 28z" />
    <glyph glyph-name="perthousand" unicode="&#x2030;" horiz-adv-x="1264" 
d="M172 0l450 740l80 -50l-449 -740zM124 382.5q-39 22.5 -61.5 61.5t-22.5 86q0 46 22.5 85t61.5 62t86 23q45 0 84.5 -23t62.5 -62t23 -85q0 -47 -23 -86t-62.5 -61.5t-84.5 -22.5q-47 0 -86 22.5zM259.5 476.5q20.5 22.5 20.5 53.5t-21 53.5t-49 22.5q-29 0 -49.5 -22.5
t-20.5 -53.5q0 -32 20.5 -54t49.5 -22t49.5 22.5zM579.5 13q-39.5 23 -62.5 62t-23 85q0 47 23 86t62.5 61.5t84.5 22.5q47 0 86 -22.5t61.5 -61.5t22.5 -86q0 -46 -22.5 -85t-61.5 -62t-86 -23q-45 0 -84.5 23zM969.5 13q-39.5 23 -62.5 62t-23 85q0 47 23 86t62.5 61.5
t84.5 22.5q47 0 86 -22.5t61.5 -61.5t22.5 -86q0 -46 -22.5 -85t-61.5 -62t-86 -23q-45 0 -84.5 23zM713.5 106.5q20.5 22.5 20.5 53.5q0 32 -20.5 54t-49.5 22t-49.5 -22.5t-20.5 -53.5t21 -53.5t49 -22.5q29 0 49.5 22.5zM1103.5 106.5q20.5 22.5 20.5 53.5q0 32 -20.5 54
t-49.5 22t-49.5 -22.5t-20.5 -53.5t21 -53.5t49 -22.5q29 0 49.5 22.5z" />
    <glyph glyph-name="guilsinglleft" unicode="&#x2039;" horiz-adv-x="434" 
d="M214 292l160 -197h-164l-160 197l160 197h164z" />
    <glyph glyph-name="guilsinglright" unicode="&#x203a;" horiz-adv-x="434" 
d="M224 489l160 -197l-160 -197h-164l160 197l-160 197h164z" />
    <glyph glyph-name="fraction" unicode="&#x2044;" horiz-adv-x="270" 
d="M-130 0l450 740l80 -50l-449 -740z" />
    <glyph glyph-name="zero.superior" unicode="&#x2070;" horiz-adv-x="342" 
d="M273 485q-35 -41 -102 -41t-102 41t-35 120v67q0 79 35 120.5t102 41.5t102 -41.5t35 -120.5v-67q0 -79 -35 -120zM209 732q-12 20 -38 20q-25 0 -37 -20t-12 -63v-61q0 -42 12 -62.5t37 -20.5q50 0 50 83v61q0 43 -12 63z" />
    <glyph glyph-name="four.superior" unicode="&#x2074;" horiz-adv-x="343" 
d="M317 528h-39v-79h-88v79h-164v93l158 207h94v-218h39v-82zM190 610v114l-87 -114h87z" />
    <glyph glyph-name="five.superior" unicode="&#x2075;" horiz-adv-x="342" 
d="M257.5 674q41.5 -37 41.5 -93q0 -36 -18 -67.5t-51 -50.5t-74 -19q-38 0 -71.5 18t-50.5 49l75 44q14 -30 47 -30q25 0 39.5 14.5t14.5 38.5q0 25 -15.5 38.5t-41.5 13.5q-28 0 -53 -18l-50 20l18 196h214v-80h-133l-3 -37h7q63 0 104.5 -37z" />
    <glyph glyph-name="six.superior" unicode="&#x2076;" horiz-adv-x="343" 
d="M243 688q32 -18 50.5 -47.5t18.5 -64.5q0 -36 -18.5 -66.5t-51 -48t-71.5 -17.5q-38 0 -69.5 18t-50 48.5t-18.5 67.5q0 42 16.5 78t61.5 94l61 78h96l-95 -122q38 0 70 -18zM206 539q14 15 14 36t-14 35.5t-35 14.5q-19 0 -33 -14t-14 -34q0 -22 14 -37.5t33 -15.5
q21 0 35 15z" />
    <glyph glyph-name="seven.superior" unicode="&#x2077;" horiz-adv-x="343" 
d="M295 828v-76l-164 -303h-98l159 298h-151v81h254z" />
    <glyph glyph-name="eight.superior" unicode="&#x2078;" horiz-adv-x="343" 
d="M294 611.5q12 -23.5 12 -53.5q0 -52 -36.5 -83t-97.5 -31t-98 31t-37 83q0 30 12 53.5t35 38.5q-33 28 -33 77t33 78t88 29t87.5 -29t32.5 -78t-33 -77q23 -15 35 -38.5zM148.5 744.5q-8.5 -9.5 -8.5 -24.5t8.5 -24t23.5 -9q14 0 22.5 9t8.5 24t-8.5 24.5t-22.5 9.5
q-15 0 -23.5 -9.5zM203.5 536q11.5 12 11.5 31q0 18 -12 29t-31 11q-20 0 -32 -11t-12 -29q0 -20 12 -31.5t32 -11.5t31.5 12z" />
    <glyph glyph-name="nine.superior" unicode="&#x2079;" horiz-adv-x="343" 
d="M241.5 815q31.5 -18 50 -48.5t18.5 -67.5q0 -42 -16.5 -78t-61.5 -94l-61 -78h-96l95 122q-38 0 -70 18t-50.5 47.5t-18.5 64.5q0 36 18.5 66.5t51 48t71.5 17.5q38 0 69.5 -18zM137 666.5q14 -14.5 35 -14.5q19 0 33 14t14 34q0 22 -14 37.5t-33 15.5q-21 0 -35 -15
t-14 -36t14 -35.5z" />
    <glyph glyph-name="uni207A" unicode="&#x207a;" horiz-adv-x="348" 
d="M299 595h-80v-80h-91v80h-79v89h79v79h91v-79h80v-89z" />
    <glyph glyph-name="uni207B" unicode="&#x207b;" horiz-adv-x="348" 
d="M49 684h250v-89h-250v89z" />
    <glyph glyph-name="uni207C" unicode="&#x207c;" horiz-adv-x="348" 
d="M49 740h250v-82h-250v82zM49 620h250v-83h-250v83z" />
    <glyph glyph-name="uni207D" unicode="&#x207d;" horiz-adv-x="310" 
d="M168 621q0 160 110 267h-109q-105 -108 -105 -267q0 -158 105 -267h109q-110 109 -110 267z" />
    <glyph glyph-name="uni207E" unicode="&#x207e;" horiz-adv-x="310" 
d="M142 621q0 -160 -110 -267h109q105 108 105 267q0 158 -105 267h-109q110 -109 110 -267z" />
    <glyph glyph-name="zero.inferior" unicode="&#x2080;" horiz-adv-x="342" 
d="M273 -103q-35 -41 -102 -41t-102 41t-35 120v67q0 79 35 120.5t102 41.5t102 -41.5t35 -120.5v-67q0 -79 -35 -120zM209 144q-12 20 -38 20q-25 0 -37 -20t-12 -63v-61q0 -42 12 -62.5t37 -20.5q50 0 50 83v61q0 43 -12 63z" />
    <glyph glyph-name="one.inferior" unicode="&#x2081;" horiz-adv-x="343" 
d="M295 -57v-82h-247v82h78v185l-78 -29v86l166 61v-303h81z" />
    <glyph glyph-name="two.inferior" unicode="&#x2082;" horiz-adv-x="342" 
d="M303 -59v-80h-275v17q0 39 15 68t36.5 48t55.5 43q38 27 55.5 45.5t17.5 45.5q0 39 -47 39q-23 0 -35.5 -11.5t-19.5 -39.5l-86 21q14 53 51 82.5t90 29.5q60 0 98 -34t38 -87q0 -38 -15 -65.5t-35.5 -45t-53.5 -39.5t-48 -37h158z" />
    <glyph glyph-name="three.inferior" unicode="&#x2083;" horiz-adv-x="342" 
d="M276 58q20 -31 20 -75q0 -58 -38 -93t-100 -35q-46 0 -80 22t-46 59l78 33q5 -15 18 -23.5t30 -8.5q23 0 36 12t13 34q0 27 -17 39t-52 12q-8 0 -26 -2v60l53 67h-117v81h231v-60l-60 -77q37 -14 57 -45z" />
    <glyph glyph-name="four.inferior" unicode="&#x2084;" horiz-adv-x="343" 
d="M317 -60h-39v-79h-88v79h-164v93l158 207h94v-218h39v-82zM190 22v114l-87 -114h87z" />
    <glyph glyph-name="five.inferior" unicode="&#x2085;" horiz-adv-x="342" 
d="M257.5 86q41.5 -37 41.5 -93q0 -36 -18 -67.5t-51 -50.5t-74 -19q-38 0 -71.5 18t-50.5 49l75 44q14 -30 47 -30q25 0 39.5 14.5t14.5 38.5q0 25 -15.5 38.5t-41.5 13.5q-28 0 -53 -18l-50 20l18 196h214v-80h-133l-3 -37h7q63 0 104.5 -37z" />
    <glyph glyph-name="six.inferior" unicode="&#x2086;" horiz-adv-x="343" 
d="M243 100q32 -18 50.5 -47.5t18.5 -64.5q0 -36 -18.5 -66.5t-51 -48t-71.5 -17.5q-38 0 -69.5 18t-50 48.5t-18.5 67.5q0 42 16.5 78t61.5 94l61 78h96l-95 -122q38 0 70 -18zM206 -49q14 15 14 36t-14 35.5t-35 14.5q-19 0 -33 -14t-14 -34q0 -22 14 -37.5t33 -15.5
q21 0 35 15z" />
    <glyph glyph-name="seven.inferior" unicode="&#x2087;" horiz-adv-x="343" 
d="M295 240v-76l-164 -303h-98l159 298h-151v81h254z" />
    <glyph glyph-name="eight.inferior" unicode="&#x2088;" horiz-adv-x="343" 
d="M294 23.5q12 -23.5 12 -53.5q0 -52 -36.5 -83t-97.5 -31t-98 31t-37 83q0 30 12 53.5t35 38.5q-33 28 -33 77t33 78t88 29t87.5 -29t32.5 -78t-33 -77q23 -15 35 -38.5zM148.5 156.5q-8.5 -9.5 -8.5 -24.5t8.5 -24t23.5 -9q14 0 22.5 9t8.5 24t-8.5 24.5t-22.5 9.5
q-15 0 -23.5 -9.5zM203.5 -52q11.5 12 11.5 31q0 18 -12 29t-31 11q-20 0 -32 -11t-12 -29q0 -20 12 -31.5t32 -11.5t31.5 12z" />
    <glyph glyph-name="nine.inferior" unicode="&#x2089;" horiz-adv-x="343" 
d="M241.5 227q31.5 -18 50 -48.5t18.5 -67.5q0 -42 -16.5 -78t-61.5 -94l-61 -78h-96l95 122q-38 0 -70 18t-50.5 47.5t-18.5 64.5q0 36 18.5 66.5t51 48t71.5 17.5q38 0 69.5 -18zM137 78.5q14 -14.5 35 -14.5q19 0 33 14t14 34q0 22 -14 37.5t-33 15.5q-21 0 -35 -15
t-14 -36t14 -35.5z" />
    <glyph glyph-name="uni208A" unicode="&#x208a;" horiz-adv-x="348" 
d="M299 5h-80v-80h-91v80h-79v89h79v79h91v-79h80v-89z" />
    <glyph glyph-name="uni208B" unicode="&#x208b;" horiz-adv-x="348" 
d="M49 94h250v-89h-250v89z" />
    <glyph glyph-name="uni208C" unicode="&#x208c;" horiz-adv-x="348" 
d="M49 150h250v-82h-250v82zM49 30h250v-83h-250v83z" />
    <glyph glyph-name="uni208D" unicode="&#x208d;" horiz-adv-x="310" 
d="M168 31q0 160 110 267h-109q-105 -108 -105 -267q0 -158 105 -267h109q-110 109 -110 267z" />
    <glyph glyph-name="uni208E" unicode="&#x208e;" horiz-adv-x="310" 
d="M141 -236q105 109 105 267q0 159 -105 267h-109q110 -107 110 -267q0 -158 -110 -267h109z" />
    <glyph glyph-name="Euro" unicode="&#x20ac;" horiz-adv-x="540" 
d="M495 146l38 -125q-73 -32 -161 -32q-122 0 -206 61.5t-114 171.5h-41v95h26q-1 9 -1 28v22h-25v95h39q30 113 115.5 176t212.5 63q89 0 155 -33l-50 -122q-47 25 -106 25q-64 0 -111 -28.5t-71 -80.5h242l-20 -95h-245q-1 -7 -1 -22q0 -19 1 -28h235l-20 -95h-190
q24 -49 69 -76t105 -27q70 0 124 27z" />
    <glyph glyph-name="uni20B9" unicode="&#x20b9;" horiz-adv-x="540" 
d="M361 595q29 -30 40 -70h100v-95h-92q-7 -72 -48.5 -121t-109.5 -69l176 -240h-164l-182 248l48 101h23q97 0 118 81h-231v95h226q-13 32 -44.5 51t-77.5 19h-104v95h462v-95h-140z" />
    <glyph glyph-name="uni20BA" unicode="&#x20ba;" horiz-adv-x="540" 
d="M540 258q-27 -129 -101 -193.5t-203 -64.5h-152v224l-70 -36v105l70 36v58l-70 -36v105l70 36v198h135v-128l130 67v-105l-130 -67v-58l130 67v-106l-130 -67v-165h17q79 0 119 42t55 122z" />
    <glyph glyph-name="uni2113" unicode="&#x2113;" horiz-adv-x="600" 
d="M503 87q-48 -103 -157 -103q-64 0 -105.5 33.5t-63.5 109.5q-13 -6 -41 -16l-31 104l52 21q-7 59 -7 143q0 197 44.5 292t143.5 95q46 0 82 -27.5t56.5 -76.5t20.5 -109q0 -238 -212 -371q10 -48 27 -68t41 -20q22 0 36.5 11t25.5 36zM271 311q106 97 106 242
q0 54 -9.5 78.5t-29.5 24.5q-34 0 -51 -64t-17 -213q0 -47 1 -68z" />
    <glyph glyph-name="uni2117" unicode="&#x2117;" horiz-adv-x="802" 
d="M217.5 35.5q-80.5 45.5 -126 126t-45.5 183.5t45.5 183.5t126 126t183.5 45.5t183.5 -45.5t126 -126t45.5 -183.5t-45.5 -183.5t-126 -126t-183.5 -45.5t-183.5 45.5zM540.5 109.5q61.5 34.5 96 96t34.5 139.5t-34.5 139.5t-96 96t-139.5 34.5t-139.5 -34.5t-96 -96
t-34.5 -139.5t34.5 -139.5t96 -96t139.5 -34.5t139.5 34.5zM242 552h185q82 0 128 -44t46 -120t-46 -120t-128 -44h-60v-86h-125v414zM421 342q25 0 40 12.5t15 33.5q0 22 -14.5 34t-40.5 12h-54v-92h54z" />
    <glyph glyph-name="trademark" unicode="&#x2122;" horiz-adv-x="1040" 
d="M36 690h385v-98h-140v-281h-105v281h-140v98zM964 690v-379h-103v246l-102 -246h-81l-102 246v-246h-103v379h158l88 -214l88 214h157z" />
    <glyph glyph-name="Omega" unicode="&#x2126;" horiz-adv-x="780" 
d="M290 549q-45 -22 -72 -66t-27 -108q0 -81 42.5 -144.5t109.5 -102.5v-128h-279v128h113q-54 42 -87.5 109.5t-33.5 137.5q0 101 42.5 174.5t118 111.5t173.5 38t173.5 -38t118 -111.5t42.5 -174.5q0 -70 -33.5 -137.5t-87.5 -109.5h113v-128h-279v128q67 39 109.5 102.5
t42.5 144.5q0 64 -27 108t-72 66t-100 22t-100 -22z" />
    <glyph glyph-name="estimated" unicode="&#x212e;" horiz-adv-x="876" 
d="M645.5 650.5q88.5 -49.5 135 -133.5t46.5 -184h-621q-6 0 -10 -4t-4 -9v-169q0 -16 3.5 -26t12.5 -19q95 -93 230 -93q73 0 137.5 30.5t105.5 80.5h70q-40 -56 -119.5 -96t-193.5 -40q-116 0 -204.5 45.5t-137 126t-48.5 182.5q0 101 47.5 182.5t135.5 128.5t207 47
t207.5 -49.5zM208 578q-9 -8 -12.5 -17t-3.5 -24v-170q0 -5 4 -8.5t10 -3.5h463q5 0 9 3.5t4 8.5v170q0 15 -3 24t-12 17q-96 95 -229 95q-137 0 -230 -95z" />
    <glyph glyph-name="partialdiff" unicode="&#x2202;" horiz-adv-x="589" 
d="M488.5 605q62.5 -99 62.5 -247q0 -119 -35.5 -201t-99.5 -123.5t-150 -41.5q-67 0 -117.5 27.5t-78.5 77t-28 113.5q0 78 33 141t90.5 98t126.5 35q41 0 73.5 -12t54.5 -32q-6 69 -48.5 112.5t-107.5 43.5q-38 0 -68 -11.5t-55 -35.5l-63 92q77 63 193 63
q155 0 217.5 -99zM373.5 156q36.5 42 36.5 105q0 52 -28 78.5t-77 26.5q-62 0 -97 -40t-35 -103q0 -49 29 -79t77 -30q58 0 94.5 42z" />
    <glyph glyph-name="Delta" unicode="&#x2206;" horiz-adv-x="726" 
d="M716 0h-706l268 690h169zM523 124l-160 427l-160 -427h320z" />
    <glyph glyph-name="product" unicode="&#x220f;" horiz-adv-x="766" 
d="M682 -210h-135v772h-328v-772h-135v900h598v-900z" />
    <glyph glyph-name="summation" unicode="&#x2211;" horiz-adv-x="494" 
d="M352 239l-173 -334h281v-115h-426v115l176 334l-176 336v115h426v-115h-282z" />
    <glyph glyph-name="minus" unicode="&#x2212;" horiz-adv-x="540" 
d="M56 359h429v-102h-429v102z" />
    <glyph glyph-name="uni2215" unicode="&#x2215;" horiz-adv-x="464" 
d="M317 723h98l-289 -809h-97z" />
    <glyph glyph-name="uni2219" unicode="&#x2219;" horiz-adv-x="540" 
d="M198 248q-28 28 -28 72t28 72t72 28t72 -28t28 -72t-28 -72t-72 -28t-72 28z" />
    <glyph glyph-name="radical" unicode="&#x221a;" horiz-adv-x="615" 
d="M105 260h-81v104h168l88 -371h2l199 697h114l-231 -806h-171z" />
    <glyph glyph-name="infinity" unicode="&#x221e;" horiz-adv-x="759" 
d="M693.5 170.5q-47.5 -51.5 -125.5 -51.5q-62 0 -105 29t-83 81q-41 -52 -84 -81t-105 -29q-79 0 -126 51t-47 137t47 137t126 51q61 0 104.5 -29t84.5 -82q40 53 83 82t105 29q78 0 125.5 -51.5t47.5 -136.5t-47.5 -136.5zM266 372.5q-27 22.5 -64 22.5q-38 0 -60.5 -24
t-22.5 -64t22.5 -64.5t60.5 -24.5q37 0 64 23t57 66q-30 43 -57 65.5zM617.5 371q-22.5 24 -61.5 24q-36 0 -63.5 -23t-57.5 -65q30 -43 57.5 -66t63.5 -23q39 0 61.5 24.5t22.5 64.5t-22.5 64z" />
    <glyph glyph-name="integral" unicode="&#x222b;" horiz-adv-x="339" 
d="M331 601q-8 3 -23 3q-38 0 -56.5 -19t-18.5 -61v-552q0 -80 -40.5 -119.5t-118.5 -39.5q-32 0 -66 8v89q9 -3 23 -3q38 0 56.5 19t18.5 61v552q0 80 40.5 119.5t118.5 39.5q26 0 66 -7v-90z" />
    <glyph glyph-name="approxequal" unicode="&#x2248;" horiz-adv-x="540" 
d="M394.5 432.5q14.5 17.5 14.5 47.5h77q0 -71 -35 -114.5t-93 -43.5q-27 0 -48.5 11t-49.5 32q-28 19 -42 26.5t-31 7.5q-26 0 -41 -17.5t-15 -46.5h-76q0 70 35 113.5t93 43.5q27 0 49.5 -11t50.5 -32q23 -17 38.5 -25.5t32.5 -8.5q26 0 40.5 17.5zM394.5 233
q14.5 17 14.5 47h77q0 -70 -35 -113.5t-93 -43.5q-27 0 -48.5 11t-49.5 32q-28 19 -42 26.5t-31 7.5q-26 0 -41 -17.5t-15 -47.5h-76q0 71 35 114.5t93 43.5q27 0 49.5 -11t50.5 -32q23 -17 38.5 -25.5t32.5 -8.5q26 0 40.5 17z" />
    <glyph glyph-name="notequal" unicode="&#x2260;" horiz-adv-x="540" 
d="M485 265v-96h-246l-71 -118l-67 39l46 79h-91v96h143l51 84h-194v96h246l70 119l68 -39l-48 -80h93v-96h-143l-53 -84h196z" />
    <glyph glyph-name="lessequal" unicode="&#x2264;" horiz-adv-x="540" 
d="M176 339l309 -113v-95l-429 153v112l429 152v-95l-309 -112v-2zM56 0v90h429v-90h-429z" />
    <glyph glyph-name="greaterequal" unicode="&#x2265;" horiz-adv-x="540" 
d="M56 131v95l309 113v2l-309 112v95l429 -152v-112zM56 90h429v-90h-429v90z" />
    <glyph glyph-name="lozenge" unicode="&#x25ca;" horiz-adv-x="660" 
d="M635 240l-205 -450h-200l-205 450l205 450h200zM490 240l-160 362l-160 -362l160 -362z" />
    <glyph glyph-name="uniF8FF" unicode="&#xf8ff;" horiz-adv-x="514" 
d="M514 760v-760h-514v760h514zM424 88v584h-334v-584h334z" />
    <glyph glyph-name="uniFEFF" unicode="&#xfeff;" 
 />
    <glyph glyph-name="a.ss01" horiz-adv-x="555" 
d="M428 479q61 -62 61 -170v-309h-116l-7 42q-57 -54 -150 -54q-87 0 -135 47t-48 122q0 79 55 123.5t145 44.5q85 0 126 -37v25q0 49 -27.5 78t-80.5 29q-73 0 -128 -58l-83 81q86 98 217 98q110 0 171 -62zM332 114.5q27 17.5 27 48.5q0 30 -27 47.5t-72 17.5
q-44 0 -69.5 -17.5t-25.5 -47.5q0 -31 25.5 -48.5t69.5 -17.5q45 0 72 17.5z" />
    <glyph glyph-name="aacute.ss01" horiz-adv-x="555" 
d="M428 479q61 -62 61 -170v-309h-116l-7 42q-57 -54 -150 -54q-87 0 -135 47t-48 122q0 79 55 123.5t145 44.5q85 0 126 -37v25q0 49 -27.5 78t-80.5 29q-73 0 -128 -58l-83 81q86 98 217 98q110 0 171 -62zM332 114.5q27 17.5 27 48.5q0 30 -27 47.5t-72 17.5
q-44 0 -69.5 -17.5t-25.5 -47.5q0 -31 25.5 -48.5t69.5 -17.5q45 0 72 17.5zM288 770h153l-133 -153h-133z" />
    <glyph glyph-name="abreve.ss01" horiz-adv-x="555" 
d="M428 479q61 -62 61 -170v-309h-116l-7 42q-57 -54 -150 -54q-87 0 -135 47t-48 122q0 79 55 123.5t145 44.5q85 0 126 -37v25q0 49 -27.5 78t-80.5 29q-73 0 -128 -58l-83 81q86 98 217 98q110 0 171 -62zM332 114.5q27 17.5 27 48.5q0 30 -27 47.5t-72 17.5
q-44 0 -69.5 -17.5t-25.5 -47.5q0 -31 25.5 -48.5t69.5 -17.5q45 0 72 17.5zM195.5 630q-36.5 21 -57 57.5t-20.5 82.5h95q0 -28 17.5 -44.5t47.5 -16.5t47.5 16.5t17.5 44.5h95q0 -46 -20.5 -82.5t-57 -57.5t-82.5 -21t-82.5 21z" />
    <glyph glyph-name="acircumflex.ss01" horiz-adv-x="555" 
d="M428 479q61 -62 61 -170v-309h-116l-7 42q-57 -54 -150 -54q-87 0 -135 47t-48 122q0 79 55 123.5t145 44.5q85 0 126 -37v25q0 49 -27.5 78t-80.5 29q-73 0 -128 -58l-83 81q86 98 217 98q110 0 171 -62zM332 114.5q27 17.5 27 48.5q0 30 -27 47.5t-72 17.5
q-44 0 -69.5 -17.5t-25.5 -47.5q0 -31 25.5 -48.5t69.5 -17.5q45 0 72 17.5zM338 617l-60 81l-60 -81h-133l113 153h160l113 -153h-133z" />
    <glyph glyph-name="adieresis.ss01" horiz-adv-x="555" 
d="M428 479q61 -62 61 -170v-309h-116l-7 42q-57 -54 -150 -54q-87 0 -135 47t-48 122q0 79 55 123.5t145 44.5q85 0 126 -37v25q0 49 -27.5 78t-80.5 29q-73 0 -128 -58l-83 81q86 98 217 98q110 0 171 -62zM332 114.5q27 17.5 27 48.5q0 30 -27 47.5t-72 17.5
q-44 0 -69.5 -17.5t-25.5 -47.5q0 -31 25.5 -48.5t69.5 -17.5q45 0 72 17.5zM110.5 632.5q-22.5 22.5 -22.5 57.5t22.5 57.5t57.5 22.5t57.5 -22.5t22.5 -57.5t-22.5 -57.5t-57.5 -22.5t-57.5 22.5zM330.5 632.5q-22.5 22.5 -22.5 57.5t22.5 57.5t57.5 22.5t57.5 -22.5
t22.5 -57.5t-22.5 -57.5t-57.5 -22.5t-57.5 22.5z" />
    <glyph glyph-name="agrave.ss01" horiz-adv-x="555" 
d="M428 479q61 -62 61 -170v-309h-116l-7 42q-57 -54 -150 -54q-87 0 -135 47t-48 122q0 79 55 123.5t145 44.5q85 0 126 -37v25q0 49 -27.5 78t-80.5 29q-73 0 -128 -58l-83 81q86 98 217 98q110 0 171 -62zM332 114.5q27 17.5 27 48.5q0 30 -27 47.5t-72 17.5
q-44 0 -69.5 -17.5t-25.5 -47.5q0 -31 25.5 -48.5t69.5 -17.5q45 0 72 17.5zM248 617l-133 153h153l113 -153h-133z" />
    <glyph glyph-name="amacron.ss01" horiz-adv-x="555" 
d="M428 479q61 -62 61 -170v-309h-116l-7 42q-57 -54 -150 -54q-87 0 -135 47t-48 122q0 79 55 123.5t145 44.5q85 0 126 -37v25q0 49 -27.5 78t-80.5 29q-73 0 -128 -58l-83 81q86 98 217 98q110 0 171 -62zM332 114.5q27 17.5 27 48.5q0 30 -27 47.5t-72 17.5
q-44 0 -69.5 -17.5t-25.5 -47.5q0 -31 25.5 -48.5t69.5 -17.5q45 0 72 17.5zM430 744v-108h-305v108h305z" />
    <glyph glyph-name="aogonek.ss01" horiz-adv-x="555" 
d="M439 -49.5q-14 -19.5 -14 -39.5q0 -31 31 -31q18 0 32 8v-92q-32 -13 -83 -13q-57 0 -88.5 24t-31.5 69q0 32 20 60.5t68 63.5l-7 42q-57 -54 -150 -54q-87 0 -135 47t-48 122q0 79 55 123.5t145 44.5q85 0 126 -37v25q0 49 -27.5 78t-80.5 29q-73 0 -128 -58l-83 81
q86 98 217 98q110 0 171 -62t61 -170v-309q-36 -30 -50 -49.5zM332 114.5q27 17.5 27 48.5q0 30 -27 47.5t-72 17.5q-44 0 -69.5 -17.5t-25.5 -47.5q0 -31 25.5 -48.5t69.5 -17.5q45 0 72 17.5z" />
    <glyph glyph-name="aring.ss01" horiz-adv-x="555" 
d="M428 479q61 -62 61 -170v-309h-116l-7 42q-57 -54 -150 -54q-87 0 -135 47t-48 122q0 79 55 123.5t145 44.5q85 0 126 -37v25q0 49 -27.5 78t-80.5 29q-73 0 -128 -58l-83 81q86 98 217 98q110 0 171 -62zM332 114.5q27 17.5 27 48.5q0 30 -27 47.5t-72 17.5
q-44 0 -69.5 -17.5t-25.5 -47.5q0 -31 25.5 -48.5t69.5 -17.5q45 0 72 17.5zM196.5 601.5q-33.5 33.5 -33.5 81.5q0 47 33.5 81t81.5 34q47 0 81 -34t34 -81q0 -48 -34 -81.5t-81 -33.5q-48 0 -81.5 33.5zM313.5 647.5q14.5 14.5 14.5 35.5q0 20 -14.5 35t-35.5 15
t-35.5 -15t-14.5 -35q0 -21 14.5 -35.5t35.5 -14.5t35.5 14.5z" />
    <glyph glyph-name="atilde.ss01" horiz-adv-x="555" 
d="M428 479q61 -62 61 -170v-309h-116l-7 42q-57 -54 -150 -54q-87 0 -135 47t-48 122q0 79 55 123.5t145 44.5q85 0 126 -37v25q0 49 -27.5 78t-80.5 29q-73 0 -128 -58l-83 81q86 98 217 98q110 0 171 -62zM332 114.5q27 17.5 27 48.5q0 30 -27 47.5t-72 17.5
q-44 0 -69.5 -17.5t-25.5 -47.5q0 -31 25.5 -48.5t69.5 -17.5q45 0 72 17.5zM167 602h-90q0 73 35.5 118t91.5 45q23 0 41 -7.5t40 -21.5q17 -12 30.5 -18t29.5 -6q44 0 44 53h90q0 -73 -35.5 -118t-91.5 -45q-23 0 -41 7.5t-40 21.5q-17 12 -30.5 18t-29.5 6q-44 0 -44 -53
z" />
    <glyph glyph-name="l.ss02" horiz-adv-x="309" 
d="M261 117q11 0 23 3l15 -120q-27 -6 -58 -6q-77 0 -121 43.5t-44 119.5v603h130v-587q0 -56 55 -56z" />
    <glyph glyph-name="lacute.ss02" horiz-adv-x="304" 
d="M146 880h153l-133 -153h-133zM256 117q11 0 23 3l15 -120q-27 -6 -58 -6q-77 0 -121 43.5t-44 119.5v533h130v-517q0 -56 55 -56z" />
    <glyph glyph-name="lcaron.ss02" horiz-adv-x="309" 
d="M261 117q11 0 23 3l15 -120q-27 -6 -58 -6q-77 0 -121 43.5t-44 119.5v603h130v-587q0 -56 55 -56zM424 760l-82 -196h-99l39 196h142z" />
    <glyph glyph-name="uni013C.ss02" horiz-adv-x="309" 
d="M261 117q11 0 23 3l15 -120q-27 -6 -58 -6q-77 0 -121 43.5t-44 119.5v603h130v-587q0 -56 55 -56zM265 -50l-70 -150h-100l37 150h133z" />
    <glyph glyph-name="ldot.ss02" horiz-adv-x="458" 
d="M261 117q11 0 23 3l15 -120q-27 -6 -58 -6q-77 0 -121 43.5t-44 119.5v603h130v-587q0 -56 55 -56zM298 268q-28 28 -28 72t28 72t72 28t72 -28t28 -72t-28 -72t-72 -28t-72 28z" />
    <glyph glyph-name="lslash.ss02" horiz-adv-x="309" 
d="M299 0q-27 -6 -58 -6q-77 0 -121 43.5t-44 119.5v120l-85 -57v140l85 57v343h130v-277l85 57v-140l-85 -57v-170q0 -56 55 -56q11 0 23 3z" />
    <glyph glyph-name="f_i" horiz-adv-x="652" 
d="M289 646q-31 0 -45.5 -15.5t-14.5 -46.5v-54h121v-115h-121v-415h-130v415h-79v115h79v68q0 79 47 123.5t130 44.5q54 0 101 -22l-46 -108q-20 10 -42 10zM576 530v-530h-130v530h130zM449.5 629q-23.5 24 -23.5 61q0 38 23.5 61.5t61.5 23.5q37 0 61 -23.5t24 -61.5
q0 -37 -24 -61t-61 -24q-38 0 -61.5 24z" />
    <glyph glyph-name="f_l" horiz-adv-x="652" 
d="M289 646q-31 0 -45.5 -15.5t-14.5 -46.5v-54h121v-115h-121v-415h-130v415h-79v115h79v68q0 79 47 123.5t130 44.5q54 0 101 -22l-46 -108q-20 10 -42 10zM446 0v760h130v-760h-130z" />
    <glyph glyph-name="zero.lf" horiz-adv-x="570" 
d="M462 65.5q-61 -75.5 -177 -75.5t-177 75.5t-61 218.5v122q0 143 61 218.5t177 75.5t177 -75.5t61 -218.5v-122q0 -143 -61 -218.5zM366.5 534.5q-26.5 43.5 -81.5 43.5t-81.5 -43.5t-26.5 -132.5v-114q0 -89 26.5 -132.5t81.5 -43.5t81.5 43.5t26.5 132.5v114
q0 89 -26.5 132.5z" />
    <glyph glyph-name="one.lf" horiz-adv-x="497" 
d="M487 122v-122h-434v122h152v402l-152 -57v128l282 105v-578h152z" />
    <glyph glyph-name="two.lf" horiz-adv-x="566" 
d="M521 120v-120h-471v30q0 65 26 115t64 84t97 77q48 35 76 59.5t46.5 55.5t18.5 68q0 45 -27 69t-75 24q-46 0 -73 -24t-40 -79l-128 30q24 93 86.5 144t154.5 51q68 0 121.5 -27t83 -76t29.5 -112q0 -66 -26.5 -115.5t-64 -82t-97.5 -74.5q-46 -33 -70.5 -53t-40.5 -44
h310z" />
    <glyph glyph-name="three.lf" horiz-adv-x="535" 
d="M450.5 354.5q41.5 -57.5 41.5 -138.5q0 -67 -30.5 -118.5t-85.5 -80t-127 -28.5q-81 0 -140.5 38.5t-81.5 105.5l116 49q11 -33 39 -51.5t67 -18.5q51 0 81 27.5t30 76.5q0 55 -36 84t-104 29q-26 0 -46 -4v93l117 150h-235v122h405v-94l-125 -160q73 -24 114.5 -81.5z
" />
    <glyph glyph-name="four.lf" horiz-adv-x="575" 
d="M550 163h-84v-163h-130v163h-306v139l297 388h139v-405h84v-122zM336 285v247l-189 -247h189z" />
    <glyph glyph-name="five.lf" horiz-adv-x="547" 
d="M375 433q57 -30 89.5 -82.5t32.5 -117.5t-31.5 -121t-88.5 -89t-129 -33q-67 0 -124.5 31.5t-88.5 85.5l111 66q31 -61 102 -61q53 0 85 32t32 85q0 52 -32 82.5t-86 30.5q-56 0 -105 -35l-75 33l31 350h369v-120h-249l-10 -111q17 4 39 4q71 0 128 -30z" />
    <glyph glyph-name="six.lf" horiz-adv-x="559" 
d="M405.5 429.5q56.5 -31.5 89.5 -85t33 -117.5q0 -65 -33 -119.5t-89.5 -86t-124.5 -31.5q-66 0 -121.5 32.5t-87.5 88t-32 121.5q0 73 29 138t110 170l115 150h144l-175 -230q6 1 18 1q68 0 124.5 -31.5zM360.5 144q32.5 34 32.5 82t-32 81t-79 33q-44 0 -75.5 -32
t-31.5 -78q0 -50 31.5 -85t75.5 -35q46 0 78.5 34z" />
    <glyph glyph-name="seven.lf" horiz-adv-x="529" 
d="M499 690v-115l-303 -575h-145l296 568h-302v122h454z" />
    <glyph glyph-name="eight.lf" horiz-adv-x="578" 
d="M502 294q24 -43 24 -99q0 -61 -29 -107.5t-83 -72t-125 -25.5t-125 25.5t-83 72t-29 107.5q0 56 24 99t69 70q-33 25 -50.5 62t-17.5 84q0 86 57.5 138t154.5 52t154.5 -52t57.5 -138q0 -47 -17.5 -84t-50.5 -62q45 -27 69 -70zM230.5 558q-21.5 -22 -21.5 -58
q0 -37 21.5 -59t58.5 -22t58.5 22t21.5 59q0 36 -21.5 58t-58.5 22t-58.5 -22zM363.5 136.5q27.5 26.5 27.5 70.5q0 42 -28 68t-74 26t-74 -26t-28 -68q0 -44 27.5 -70.5t74.5 -26.5t74.5 26.5z" />
    <glyph glyph-name="nine.lf" horiz-adv-x="559" 
d="M399.5 667.5q55.5 -32.5 87.5 -88t32 -121.5q0 -73 -29 -138t-110 -170l-115 -150h-144l175 230q-6 -1 -18 -1q-68 0 -124.5 31.5t-89.5 85t-33 117.5q0 65 33 119.5t89.5 86t124.5 31.5q66 0 121.5 -32.5zM352.5 382q31.5 32 31.5 78q0 50 -31.5 85t-75.5 35
q-46 0 -78.5 -34t-32.5 -82t32 -81t79 -33q44 0 75.5 32z" />
    <glyph glyph-name="zero.dnom" horiz-adv-x="342" 
d="M273 36q-35 -41 -102 -41t-102 41t-35 120v67q0 79 35 120.5t102 41.5t102 -41.5t35 -120.5v-67q0 -79 -35 -120zM209 283q-12 20 -38 20q-25 0 -37 -20t-12 -63v-61q0 -42 12 -62.5t37 -20.5q50 0 50 83v61q0 43 -12 63z" />
    <glyph glyph-name="one.dnom" horiz-adv-x="343" 
d="M295 82v-82h-247v82h78v185l-78 -29v86l166 61v-303h81z" />
    <glyph glyph-name="two.dnom" horiz-adv-x="342" 
d="M303 80v-80h-275v17q0 39 15 68t36.5 48t55.5 43q38 27 55.5 45.5t17.5 45.5q0 39 -47 39q-23 0 -35.5 -11.5t-19.5 -39.5l-86 21q14 53 51 82.5t90 29.5q60 0 98 -34t38 -87q0 -38 -15 -65.5t-35.5 -45t-53.5 -39.5t-48 -37h158z" />
    <glyph glyph-name="three.dnom" horiz-adv-x="342" 
d="M276 197q20 -31 20 -75q0 -58 -38 -93t-100 -35q-46 0 -80 22t-46 59l78 33q5 -15 18 -23.5t30 -8.5q23 0 36 12t13 34q0 27 -17 39t-52 12q-8 0 -26 -2v60l53 67h-117v81h231v-60l-60 -77q37 -14 57 -45z" />
    <glyph glyph-name="four.dnom" horiz-adv-x="343" 
d="M317 79h-39v-79h-88v79h-164v93l158 207h94v-218h39v-82zM190 161v114l-87 -114h87z" />
    <glyph glyph-name="five.dnom" horiz-adv-x="342" 
d="M257.5 225q41.5 -37 41.5 -93q0 -36 -18 -67.5t-51 -50.5t-74 -19q-38 0 -71.5 18t-50.5 49l75 44q14 -30 47 -30q25 0 39.5 14.5t14.5 38.5q0 25 -15.5 38.5t-41.5 13.5q-28 0 -53 -18l-50 20l18 196h214v-80h-133l-3 -37h7q63 0 104.5 -37z" />
    <glyph glyph-name="six.dnom" horiz-adv-x="343" 
d="M243 239q32 -18 50.5 -47.5t18.5 -64.5q0 -36 -18.5 -66.5t-51 -48t-71.5 -17.5q-38 0 -69.5 18t-50 48.5t-18.5 67.5q0 42 16.5 78t61.5 94l61 78h96l-95 -122q38 0 70 -18zM206 90q14 15 14 36t-14 35.5t-35 14.5q-19 0 -33 -14t-14 -34q0 -22 14 -37.5t33 -15.5
q21 0 35 15z" />
    <glyph glyph-name="seven.dnom" horiz-adv-x="343" 
d="M295 379v-76l-164 -303h-98l159 298h-151v81h254z" />
    <glyph glyph-name="eight.dnom" horiz-adv-x="343" 
d="M294 162.5q12 -23.5 12 -53.5q0 -52 -36.5 -83t-97.5 -31t-98 31t-37 83q0 30 12 53.5t35 38.5q-33 28 -33 77t33 78t88 29t87.5 -29t32.5 -78t-33 -77q23 -15 35 -38.5zM148.5 295.5q-8.5 -9.5 -8.5 -24.5t8.5 -24t23.5 -9q14 0 22.5 9t8.5 24t-8.5 24.5t-22.5 9.5
q-15 0 -23.5 -9.5zM203.5 87q11.5 12 11.5 31q0 18 -12 29t-31 11q-20 0 -32 -11t-12 -29q0 -20 12 -31.5t32 -11.5t31.5 12z" />
    <glyph glyph-name="nine.dnom" horiz-adv-x="343" 
d="M241.5 366q31.5 -18 50 -48.5t18.5 -67.5q0 -42 -16.5 -78t-61.5 -94l-61 -78h-96l95 122q-38 0 -70 18t-50.5 47.5t-18.5 64.5q0 36 18.5 66.5t51 48t71.5 17.5q38 0 69.5 -18zM137 217.5q14 -14.5 35 -14.5q19 0 33 14t14 34q0 22 -14 37.5t-33 15.5q-21 0 -35 -15
t-14 -36t14 -35.5z" />
    <glyph glyph-name="zero.numr" horiz-adv-x="342" 
d="M273 347q-35 -41 -102 -41t-102 41t-35 120v67q0 79 35 120.5t102 41.5t102 -41.5t35 -120.5v-67q0 -79 -35 -120zM209 594q-12 20 -38 20q-25 0 -37 -20t-12 -63v-61q0 -42 12 -62.5t37 -20.5q50 0 50 83v61q0 43 -12 63z" />
    <glyph glyph-name="one.numr" horiz-adv-x="343" 
d="M295 394v-82h-247v82h78v185l-78 -29v86l166 61v-303h81z" />
    <glyph glyph-name="two.numr" horiz-adv-x="342" 
d="M303 391v-80h-275v17q0 39 15 68t36.5 48t55.5 43q38 27 55.5 45.5t17.5 45.5q0 39 -47 39q-23 0 -35.5 -11.5t-19.5 -39.5l-86 21q14 53 51 82.5t90 29.5q60 0 98 -34t38 -87q0 -38 -15 -65.5t-35.5 -45t-53.5 -39.5t-48 -37h158z" />
    <glyph glyph-name="three.numr" horiz-adv-x="342" 
d="M276 509q20 -31 20 -75q0 -58 -38 -93t-100 -35q-46 0 -80 22t-46 59l78 33q5 -15 18 -23.5t30 -8.5q23 0 36 12t13 34q0 27 -17 39t-52 12q-8 0 -26 -2v60l53 67h-117v81h231v-60l-60 -77q37 -14 57 -45z" />
    <glyph glyph-name="four.numr" horiz-adv-x="343" 
d="M317 390h-39v-79h-88v79h-164v93l158 207h94v-218h39v-82zM190 472v114l-87 -114h87z" />
    <glyph glyph-name="five.numr" horiz-adv-x="342" 
d="M257.5 536q41.5 -37 41.5 -93q0 -36 -18 -67.5t-51 -50.5t-74 -19q-38 0 -71.5 18t-50.5 49l75 44q14 -30 47 -30q25 0 39.5 14.5t14.5 38.5q0 25 -15.5 38.5t-41.5 13.5q-28 0 -53 -18l-50 20l18 196h214v-80h-133l-3 -37h7q63 0 104.5 -37z" />
    <glyph glyph-name="six.numr" horiz-adv-x="343" 
d="M243 550q32 -18 50.5 -47.5t18.5 -64.5q0 -36 -18.5 -66.5t-51 -48t-71.5 -17.5q-38 0 -69.5 18t-50 48.5t-18.5 67.5q0 42 16.5 78t61.5 94l61 78h96l-95 -122q38 0 70 -18zM206 401q14 15 14 36t-14 35.5t-35 14.5q-19 0 -33 -14t-14 -34q0 -22 14 -37.5t33 -15.5
q21 0 35 15z" />
    <glyph glyph-name="seven.numr" horiz-adv-x="343" 
d="M295 690v-76l-164 -303h-98l159 298h-151v81h254z" />
    <glyph glyph-name="eight.numr" horiz-adv-x="343" 
d="M294 473.5q12 -23.5 12 -53.5q0 -52 -36.5 -83t-97.5 -31t-98 31t-37 83q0 30 12 53.5t35 38.5q-33 28 -33 77t33 78t88 29t87.5 -29t32.5 -78t-33 -77q23 -15 35 -38.5zM148.5 606.5q-8.5 -9.5 -8.5 -24.5t8.5 -24t23.5 -9q14 0 22.5 9t8.5 24t-8.5 24.5t-22.5 9.5
q-15 0 -23.5 -9.5zM203.5 398q11.5 12 11.5 31q0 18 -12 29t-31 11q-20 0 -32 -11t-12 -29q0 -20 12 -31.5t32 -11.5t31.5 12z" />
    <glyph glyph-name="nine.numr" horiz-adv-x="343" 
d="M241.5 677q31.5 -18 50 -48.5t18.5 -67.5q0 -42 -16.5 -78t-61.5 -94l-61 -78h-96l95 122q-38 0 -70 18t-50.5 47.5t-18.5 64.5q0 36 18.5 66.5t51 48t71.5 17.5q38 0 69.5 -18zM137 528.5q14 -14.5 35 -14.5q19 0 33 14t14 34q0 22 -14 37.5t-33 15.5q-21 0 -35 -15
t-14 -36t14 -35.5z" />
    <glyph glyph-name="periodcentered.loclCAT.case" 
d="M-201 348q-28 28 -28 72t28 72t72 28t72 -28t28 -72t-28 -72t-72 -28t-72 28z" />
    <glyph glyph-name="periodcentered.loclCAT" horiz-adv-x="176" 
d="M16 268q-28 28 -28 72t28 72t72 28t72 -28t28 -72t-28 -72t-72 -28t-72 28z" />
    <glyph glyph-name="caroncomb.alt" 
d="M-40 760l-82 -196h-99l39 196h142z" />
    <glyph glyph-name="uni0308.case" 
d="M-387.5 742.5q-22.5 22.5 -22.5 57.5t22.5 57.5t57.5 22.5t57.5 -22.5t22.5 -57.5t-22.5 -57.5t-57.5 -22.5t-57.5 22.5zM-167.5 742.5q-22.5 22.5 -22.5 57.5t22.5 57.5t57.5 22.5t57.5 -22.5t22.5 -57.5t-22.5 -57.5t-57.5 -22.5t-57.5 22.5z" />
    <glyph glyph-name="uni0307.case" 
d="M-176.5 739q-23.5 24 -23.5 61q0 38 23.5 61.5t61.5 23.5q37 0 61 -23.5t24 -61.5q0 -37 -24 -61t-61 -24q-38 0 -61.5 24z" />
    <glyph glyph-name="gravecomb.case" 
d="M-163 727l-133 153h153l113 -153h-133z" />
    <glyph glyph-name="acutecomb.case" 
d="M-183 880h153l-133 -153h-133z" />
    <glyph glyph-name="uni030B.case" 
d="M-363 880h143l-133 -153h-123zM-173 880h143l-133 -153h-123z" />
    <glyph glyph-name="uni0302.case" 
d="M-163 727l-60 81l-60 -81h-133l113 153h160l113 -153h-133z" />
    <glyph glyph-name="uni030C.case" 
d="M-30 880l-113 -153h-160l-113 153h133l60 -81l60 81h133z" />
    <glyph glyph-name="uni0306.case" 
d="M-305 768.5q-45 43.5 -45 111.5h95q0 -25 17.5 -40t47.5 -15t47.5 15t17.5 40h95q0 -68 -45 -111.5t-115 -43.5t-115 43.5z" />
    <glyph glyph-name="uni030A.case" 
d="M-226.5 701.5q-33.5 33.5 -33.5 81.5q0 47 33.5 81t81.5 34q47 0 81 -34t34 -81q0 -48 -34 -81.5t-81 -33.5q-48 0 -81.5 33.5zM-109.5 747.5q14.5 14.5 14.5 35.5q0 20 -14.5 35t-35.5 15t-35.5 -15t-14.5 -35q0 -21 14.5 -35.5t35.5 -14.5t35.5 14.5z" />
    <glyph glyph-name="tildecomb.case" 
d="M-342 722h-90q0 68 35.5 110.5t91.5 42.5q23 0 41.5 -6t39.5 -18q18 -9 31.5 -14t28.5 -5q44 0 44 43h90q0 -68 -35.5 -110.5t-91.5 -42.5q-23 0 -41.5 6t-39.5 18q-18 9 -31.5 14t-28.5 5q-44 0 -44 -43z" />
    <glyph glyph-name="uni0304.case" 
d="M-30 854v-108h-305v108h305z" />
    <glyph glyph-name="uni0335.case" 
d="M-30 360v-110h-377v110h377z" />
    <glyph glyph-name="uni0308.narrow" 
d="M-339 606q-21 21 -21 54t21 54t54 21t54 -21t21 -54t-21 -54t-54 -21t-54 21zM-159 606q-21 21 -21 54t21 54t54 21t54 -21t21 -54t-21 -54t-54 -21t-54 21z" />
    <glyph glyph-name="uni0302.narrow" 
d="M-143 587l-45 74l-45 -74h-113l93 153h130l93 -153h-113z" />
    <glyph glyph-name="uni0306.narrow" 
d="M-271 621.5q-39 42.5 -39 118.5h95q0 -28 12 -44.5t33 -16.5t33 16.5t12 44.5h95q0 -76 -39 -118.5t-101 -42.5t-101 42.5z" />
    <glyph glyph-name="tildecomb.narrow" 
d="M-258.5 604q-8.5 -11 -8.5 -32l-85 1q0 69 27.5 110.5t74.5 41.5q17 0 31 -6.5t31 -18.5q3 -2 12 -7.5t16.5 -8t13.5 -2.5q14 0 22.5 11t8.5 32h85q0 -70 -27 -111.5t-75 -41.5q-17 0 -31 6.5t-31 18.5q-3 2 -12 7.5t-16.5 8t-13.5 2.5q-14 0 -22.5 -11z" />
    <glyph glyph-name="uni0304.narrow" 
d="M-30 714v-108h-245v108h245z" />
    <glyph glyph-name="caron.alt" horiz-adv-x="241" 
d="M211 760l-82 -196h-99l39 196h142z" />
    <glyph glyph-name="acute.case" horiz-adv-x="326" 
d="M143 880h153l-133 -153h-133z" />
    <glyph glyph-name="breve.case" horiz-adv-x="380" 
d="M75 768.5q-45 43.5 -45 111.5h95q0 -25 17.5 -40t47.5 -15t47.5 15t17.5 40h95q0 -68 -45 -111.5t-115 -43.5t-115 43.5z" />
    <glyph glyph-name="caron.case" horiz-adv-x="446" 
d="M416 880l-113 -153h-160l-113 153h133l60 -81l60 81h133z" />
    <glyph glyph-name="circumflex.case" horiz-adv-x="446" 
d="M283 727l-60 81l-60 -81h-133l113 153h160l113 -153h-133z" />
    <glyph glyph-name="dieresis.case" horiz-adv-x="440" 
d="M52.5 742.5q-22.5 22.5 -22.5 57.5t22.5 57.5t57.5 22.5t57.5 -22.5t22.5 -57.5t-22.5 -57.5t-57.5 -22.5t-57.5 22.5zM272.5 742.5q-22.5 22.5 -22.5 57.5t22.5 57.5t57.5 22.5t57.5 -22.5t22.5 -57.5t-22.5 -57.5t-57.5 -22.5t-57.5 22.5z" />
    <glyph glyph-name="dotaccent.case" horiz-adv-x="230" 
d="M54 739q-24 24 -24 61q0 38 24 61.5t61 23.5q38 0 61.5 -23.5t23.5 -61.5q0 -37 -23.5 -61t-61.5 -24q-37 0 -61 24z" />
    <glyph glyph-name="grave.case" horiz-adv-x="326" 
d="M163 727l-133 153h153l113 -153h-133z" />
    <glyph glyph-name="hungarumlaut.case" horiz-adv-x="326" 
d="M143 880h153l-133 -153h-133z" />
    <glyph glyph-name="macron.case" horiz-adv-x="365" 
d="M335 854v-108h-305v108h305z" />
    <glyph glyph-name="ring.case" horiz-adv-x="290" 
d="M63.5 701.5q-33.5 33.5 -33.5 81.5q0 47 33.5 81t81.5 34q47 0 81 -34t34 -81q0 -48 -34 -81.5t-81 -33.5q-48 0 -81.5 33.5zM180.5 747.5q14.5 14.5 14.5 35.5q0 20 -14.5 35t-35.5 15t-35.5 -15t-14.5 -35q0 -21 14.5 -35.5t35.5 -14.5t35.5 14.5z" />
    <glyph glyph-name="tilde.case" horiz-adv-x="462" 
d="M120 722h-90q0 68 35.5 110.5t91.5 42.5q23 0 41.5 -6t39.5 -18q18 -9 31.5 -14t28.5 -5q44 0 44 43h90q0 -68 -35.5 -110.5t-91.5 -42.5q-23 0 -41.5 6t-39.5 18q-18 9 -31.5 14t-28.5 5q-44 0 -44 -43z" />
    </font>
</defs>
</svg>
