<?xml version="1.0" standalone="no"?>
<!DOCTYPE svg PUBLIC "-//W3C//DTD SVG 1.1//EN" "http://www.w3.org/Graphics/SVG/1.1/DTD/svg11.dtd" >
<svg xmlns="http://www.w3.org/2000/svg" xmlns:xlink="http://www.w3.org/1999/xlink" version="1.1">
<metadata>
Created by FontForge 20161013 at Fri Mar 18 16:20:07 2016
 By ,,,
Copyright (c) 2016 Premier League. All rights reserved.
</metadata>
<defs>
<font id="PremierLeague-Regular" horiz-adv-x="0" >
  <font-face 
    font-family="Premier League"
    font-weight="400"
    font-stretch="normal"
    units-per-em="1000"
    panose-1="2 11 5 4 2 2 3 2 2 4"
    ascent="775"
    descent="-225"
    x-height="509"
    cap-height="690"
    bbox="-428 -236 1224 888"
    underline-thickness="50"
    underline-position="-175"
    unicode-range="U+000D-FEFF"
  />
<missing-glyph horiz-adv-x="489" 
d="M489 760v-760h-489v760h489zM433 55v650h-377v-650h377z" />
    <glyph glyph-name="ff" unicode="ff" horiz-adv-x="682" 
d="M259 694q-39 0 -57 -21.5t-18 -66.5v-97h137v-69h-137v-440h-75v440h-89v69h89v104q0 72 38.5 112.5t107.5 40.5q46 0 90 -21l-28 -66q-32 15 -58 15zM600 694q-39 0 -57 -21.5t-18 -66.5v-97h137v-69h-137v-440h-75v440h-89v69h89v104q0 72 38.5 112.5t107.5 40.5
q46 0 90 -21l-28 -66q-32 15 -58 15z" />
    <glyph glyph-name="fi" unicode="fi" horiz-adv-x="590" 
d="M259 694q-39 0 -57 -21.5t-18 -66.5v-97h137v-69h-137v-440h-75v440h-89v69h89v104q0 72 38.5 112.5t107.5 40.5q46 0 90 -21l-28 -66q-32 15 -58 15zM503 509v-509h-75v509h75zM426.5 649.5q-15.5 15.5 -15.5 38.5t15.5 38.5t38.5 15.5q24 0 39 -15.5t15 -38.5
t-15 -38.5t-39 -15.5q-23 0 -38.5 15.5z" />
    <glyph glyph-name="fl" unicode="fl" horiz-adv-x="590" 
d="M259 694q-39 0 -57 -21.5t-18 -66.5v-97h137v-69h-137v-440h-75v440h-89v69h89v104q0 72 38.5 112.5t107.5 40.5q46 0 90 -21l-28 -66q-32 15 -58 15zM428 0v760h75v-760h-75z" />
    <glyph glyph-name="ffi" unicode="ffi" horiz-adv-x="931" 
d="M259 694q-39 0 -57 -21.5t-18 -66.5v-97h137v-69h-137v-440h-75v440h-89v69h89v104q0 72 38.5 112.5t107.5 40.5q46 0 90 -21l-28 -66q-32 15 -58 15zM600 694q-39 0 -57 -21.5t-18 -66.5v-97h137v-69h-137v-440h-75v440h-89v69h89v104q0 72 38.5 112.5t107.5 40.5
q46 0 90 -21l-28 -66q-32 15 -58 15zM844 509v-509h-75v509h75zM767.5 649.5q-15.5 15.5 -15.5 38.5t15.5 38.5t38.5 15.5q24 0 39 -15.5t15 -38.5t-15 -38.5t-39 -15.5q-23 0 -38.5 15.5z" />
    <glyph glyph-name="ffl" unicode="ffl" horiz-adv-x="931" 
d="M259 694q-39 0 -57 -21.5t-18 -66.5v-97h137v-69h-137v-440h-75v440h-89v69h89v104q0 72 38.5 112.5t107.5 40.5q46 0 90 -21l-28 -66q-32 15 -58 15zM600 694q-39 0 -57 -21.5t-18 -66.5v-97h137v-69h-137v-440h-75v440h-89v69h89v104q0 72 38.5 112.5t107.5 40.5
q46 0 90 -21l-28 -66q-32 15 -58 15zM769 0v760h75v-760h-75z" />
    <glyph glyph-name=".notdef" horiz-adv-x="489" 
d="M489 760v-760h-489v760h489zM433 55v650h-377v-650h377z" />
    <glyph glyph-name=".null" 
 />
    <glyph glyph-name="nonmarkingreturn" horiz-adv-x="333" 
 />
    <glyph glyph-name="NULL" 
 />
    <glyph glyph-name="NULL" 
 />
    <glyph glyph-name="CR" unicode="&#xd;" horiz-adv-x="240" 
 />
    <glyph glyph-name="space" unicode=" " horiz-adv-x="240" 
 />
    <glyph glyph-name="exclam" unicode="!" horiz-adv-x="249" 
d="M173 690l-18 -486h-61l-18 486h97zM81 7q-17 17 -17 44q0 26 17 43t43 17q27 0 44 -17t17 -43q0 -27 -17 -44t-44 -17q-26 0 -43 17z" />
    <glyph glyph-name="quotedbl" unicode="&#x22;" horiz-adv-x="343" 
d="M140 690l-15 -250h-53l-15 250h83zM286 690l-15 -250h-53l-15 250h83z" />
    <glyph glyph-name="numbersign" unicode="#" horiz-adv-x="741" 
d="M557 447l-42 -204h131l-14 -68h-131l-36 -175h-73l36 175h-186l-36 -175h-73l36 175h-130l13 68h131l43 204h-131l13 68h132l36 175h72l-36 -175h187l36 175h72l-36 -175h131l-14 -68h-131zM485 447h-187l-42 -204h186z" />
    <glyph glyph-name="dollar" unicode="$" horiz-adv-x="540" 
d="M440 73q-49 -48 -134 -60v-83h-70v81q-52 2 -101 18.5t-87 44.5l43 64q62 -47 145 -53v238q-54 19 -91 39t-61 54t-24 86q0 71 47.5 117.5t128.5 56.5v84h70v-83q49 -5 94.5 -22.5t81.5 -47.5l-46 -62q-62 49 -130 58v-223q56 -19 94 -40t63.5 -57.5t25.5 -91.5
q0 -70 -49 -118zM163 445.5q25 -22.5 73 -41.5v198q-46 -8 -72 -34.5t-26 -63.5q0 -36 25 -58.5zM384 122.5q27 26.5 27 66.5t-27.5 65t-77.5 44v-210q51 8 78 34.5z" />
    <glyph glyph-name="percent" unicode="%" horiz-adv-x="915" 
d="M210 0l442 721l52 -31l-441 -721zM138 382.5q-39 22.5 -61.5 61.5t-22.5 86q0 46 22.5 85t61.5 62t86 23q45 0 84.5 -23t62.5 -62t23 -85q0 -47 -23 -86t-62.5 -61.5t-84.5 -22.5q-47 0 -86 22.5zM297.5 450q31.5 33 31.5 80q0 46 -31.5 79.5t-73.5 33.5q-43 0 -74 -33.5
t-31 -79.5q0 -47 30.5 -80t74.5 -33q42 0 73.5 33zM606.5 13q-39.5 23 -62.5 62t-23 85q0 47 23 86t62.5 61.5t84.5 22.5q47 0 86 -22.5t61.5 -61.5t22.5 -86q0 -46 -22.5 -85t-61.5 -62t-86 -23q-45 0 -84.5 23zM765 80.5q31 33.5 31 79.5q0 47 -30.5 80t-74.5 33
q-43 0 -74 -33t-31 -80q0 -46 31 -79.5t74 -33.5t74 33.5z" />
    <glyph glyph-name="ampersand" unicode="&#x26;" horiz-adv-x="659" 
d="M601 -11l-90 85q-96 -86 -237 -86q-112 0 -175.5 50t-63.5 137q0 64 37 110.5t125 86.5q-49 53 -68 89t-19 75q0 43 22.5 81t65 61.5t97.5 23.5q56 0 98.5 -21t65 -57.5t22.5 -82.5q0 -55 -37 -100t-128 -87l190 -175q45 71 45 170h73q0 -62 -16.5 -118t-48.5 -101
l90 -83zM217 603q-31 -27 -31 -69q0 -30 17.5 -59.5t62.5 -73.5q79 33 108 64t29 74q0 37 -28 64t-80 27q-47 0 -78 -27zM458 123l-214 201q-69 -31 -101 -66.5t-32 -80.5q0 -55 44.5 -86t119.5 -31q112 0 183 63z" />
    <glyph glyph-name="quotesingle" unicode="'" horiz-adv-x="197" 
d="M140 690l-15 -250h-53l-15 250h83z" />
    <glyph glyph-name="parenleft" unicode="(" horiz-adv-x="393" 
d="M205.5 11q-48.5 123 -48.5 264t48.5 264t147.5 221h-81q-185 -194 -185 -485t185 -485h81q-99 98 -147.5 221z" />
    <glyph glyph-name="parenright" unicode=")" horiz-adv-x="393" 
d="M122 -210q185 195 185 485t-185 485h-82q99 -98 147.5 -221t48.5 -264t-48.5 -264t-147.5 -221h82z" />
    <glyph glyph-name="asterisk" unicode="*" horiz-adv-x="393" 
d="M361 549l-135 -31l91 -106l-49 -35l-72 119l-71 -119l-48 35l90 106l-135 31l20 57l126 -54l-11 138h60l-12 -138l128 54z" />
    <glyph glyph-name="plus" unicode="+" horiz-adv-x="540" 
d="M479 278h-177v-179h-63v179h-177v60h177v178h63v-178h177v-60z" />
    <glyph glyph-name="comma" unicode="," horiz-adv-x="210" 
d="M168 116l-110 -266h-55l75 266h90z" />
    <glyph glyph-name="hyphen" unicode="-" horiz-adv-x="423" 
d="M48 255v74h328v-74h-328z" />
    <glyph glyph-name="period" unicode="." horiz-adv-x="232" 
d="M71.5 7.5q-17.5 17.5 -17.5 44.5q0 28 17.5 45t44.5 17t44.5 -17t17.5 -45q0 -27 -17.5 -44.5t-44.5 -17.5t-44.5 17.5z" />
    <glyph glyph-name="slash" unicode="/" horiz-adv-x="451" 
d="M381 760h81l-392 -970h-81z" />
    <glyph glyph-name="zero" unicode="0" horiz-adv-x="540" 
d="M436.5 65.5q-57.5 -75.5 -166.5 -75.5t-166.5 75.5t-57.5 218.5v122q0 143 57.5 218.5t166.5 75.5t166.5 -75.5t57.5 -218.5v-122q0 -143 -57.5 -218.5zM380.5 571q-37.5 57 -110.5 57t-110.5 -57t-37.5 -166v-120q0 -109 37.5 -165.5t110.5 -56.5t110.5 56.5t37.5 165.5
v120q0 109 -37.5 166z" />
    <glyph glyph-name="one" unicode="1" horiz-adv-x="540" 
d="M480 73v-73h-420v73h179v523l-179 -67v76l254 95v-627h166z" />
    <glyph glyph-name="two" unicode="2" horiz-adv-x="540" 
d="M485 72v-72h-429v30q0 55 24.5 98.5t60.5 76t94 75.5q55 41 86.5 69t53.5 65t22 82q0 62 -37.5 97t-102.5 35q-57 0 -91.5 -30t-51.5 -92l-74 17q22 86 77.5 132t139.5 46q64 0 113.5 -26t76.5 -72.5t27 -106.5q0 -62 -26.5 -110t-64 -82t-98.5 -78q-65 -47 -98.5 -80
t-44.5 -74h343z" />
    <glyph glyph-name="three" unicode="3" horiz-adv-x="540" 
d="M429 351.5q53 -59.5 53 -145.5q0 -64 -29.5 -113.5t-83 -76.5t-123.5 -27q-79 0 -136.5 37.5t-78.5 101.5l68 29q16 -46 54 -70t93 -24q74 0 116.5 38t42.5 105q0 68 -47.5 109.5t-126.5 41.5q-26 0 -46 -4v55l166 210h-291v72h392v-58l-164 -207q88 -14 141 -73.5z" />
    <glyph glyph-name="four" unicode="4" horiz-adv-x="540" 
d="M530 199h-111v-199h-77v199h-332v83l323 408h86v-419h111v-72zM342 271v323l-256 -323h256z" />
    <glyph glyph-name="five" unicode="5" horiz-adv-x="540" 
d="M371.5 410.5q52.5 -28.5 82 -78.5t29.5 -113q0 -65 -30 -117t-84 -82t-122 -30q-64 0 -118.5 28.5t-85.5 77.5l65 40q21 -36 57 -54.5t82 -18.5q71 0 115 42.5t44 112.5q0 67 -42 107.5t-111 40.5q-66 0 -126 -38l-45 24l29 338h344v-72h-273l-17 -196q43 17 88 17
q66 0 118.5 -28.5z" />
    <glyph glyph-name="six" unicode="6" horiz-adv-x="540" 
d="M389 418.5q54 -30.5 85.5 -83t31.5 -114.5q0 -64 -31.5 -116.5t-85.5 -83.5t-119 -31q-64 0 -117 31.5t-84 85.5t-31 119q0 71 29 134t108 166l128 164h89l-198 -255q36 14 76 14q65 0 119 -30.5zM349.5 83q36.5 21 57.5 57.5t21 80.5q0 42 -21 77.5t-57.5 56.5t-79.5 21
q-42 0 -77.5 -20t-56 -54.5t-20.5 -76.5q0 -45 20.5 -82t56 -59t77.5 -22q43 0 79.5 21z" />
    <glyph glyph-name="seven" unicode="7" horiz-adv-x="540" 
d="M492 690v-68l-324 -622h-83l318 618h-365v72h454z" />
    <glyph glyph-name="eight" unicode="8" horiz-adv-x="540" 
d="M470.5 293.5q29.5 -45.5 29.5 -105.5q0 -59 -28.5 -104t-80.5 -69.5t-121 -24.5t-121 24.5t-80.5 69.5t-28.5 104q0 60 29.5 105.5t82.5 68.5q-42 24 -64.5 63.5t-22.5 91.5q0 83 55.5 133t149.5 50t149.5 -50t55.5 -133q0 -52 -22.5 -91.5t-64.5 -63.5
q53 -23 82.5 -68.5zM177 596.5q-35 -31.5 -35 -84.5t35 -85t93 -32t93 32t35 85t-35 84.5t-93 31.5t-93 -31.5zM380.5 98q41.5 36 41.5 97q0 59 -41.5 94.5t-110.5 35.5t-110.5 -35.5t-41.5 -94.5q0 -61 41.5 -97t110.5 -36t110.5 36z" />
    <glyph glyph-name="nine" unicode="9" horiz-adv-x="540" 
d="M387 668.5q53 -31.5 84 -85.5t31 -119q0 -71 -29 -134t-108 -166l-128 -164h-89l198 255q-36 -14 -76 -14q-64 0 -118.5 30.5t-86 83t-31.5 114.5q0 63 31.5 116t85.5 84t119 31q64 0 117 -31.5zM347.5 334q35.5 20 56 54.5t20.5 76.5q0 45 -20.5 82t-56 59t-77.5 22
q-43 0 -79.5 -21t-57.5 -57.5t-21 -79.5t21 -78.5t57.5 -56.5t79.5 -21q42 0 77.5 20z" />
    <glyph glyph-name="colon" unicode=":" horiz-adv-x="232" 
d="M71.5 7.5q-17.5 17.5 -17.5 44.5q0 28 17.5 45t44.5 17t44.5 -17t17.5 -45q0 -27 -17.5 -44.5t-44.5 -17.5t-44.5 17.5zM71.5 403.5q-17.5 17.5 -17.5 44.5q0 28 17.5 45t44.5 17t44.5 -17t17.5 -45q0 -27 -17.5 -44.5t-44.5 -17.5t-44.5 17.5z" />
    <glyph glyph-name="semicolon" unicode=";" horiz-adv-x="232" 
d="M168 116l-110 -266h-55l75 266h90zM71.5 403.5q-17.5 17.5 -17.5 44.5q0 28 17.5 45t44.5 17t44.5 -17t17.5 -45q0 -27 -17.5 -44.5t-44.5 -17.5t-44.5 17.5z" />
    <glyph glyph-name="less" unicode="&#x3c;" horiz-adv-x="540" 
d="M132 307l347 -151v-64l-417 178v75l417 178v-64l-347 -151v-1z" />
    <glyph glyph-name="equal" unicode="=" horiz-adv-x="540" 
d="M62 412h417v-57h-417v57zM62 260h417v-58h-417v58z" />
    <glyph glyph-name="greater" unicode="&#x3e;" horiz-adv-x="540" 
d="M62 92v64l347 151v1l-347 151v64l417 -178v-75z" />
    <glyph glyph-name="question" unicode="?" horiz-adv-x="512" 
d="M368 675.5q51 -25.5 79 -72t28 -106.5q0 -71 -46 -132t-155 -77l-3 -84h-60l-5 132q109 15 150.5 58.5t41.5 102.5q0 61 -39.5 96t-108.5 35q-64 0 -105 -28.5t-61 -89.5l-74 20q29 84 89.5 127.5t150.5 43.5q67 0 118 -25.5zM284.5 94q16.5 -17 16.5 -43q0 -27 -17 -44
t-43 -17q-27 0 -44 17t-17 44q0 26 17 43t44 17t43.5 -17z" />
    <glyph glyph-name="at" unicode="@" horiz-adv-x="854" 
d="M592 211q-1 -5 -1 -15q0 -30 16 -47t44 -17q45 0 75 49t30 141q0 95 -40 166t-113 110t-169 39q-102 0 -178.5 -48.5t-117.5 -131.5t-41 -183q0 -103 40 -176.5t113.5 -112t172.5 -38.5q119 0 207 57l23 -43q-104 -63 -230 -63q-113 0 -198 44.5t-131 129.5t-46 202
q0 113 47.5 207.5t135.5 150t203 55.5q110 0 194.5 -45.5t131 -128.5t46.5 -191q0 -81 -23 -137t-60.5 -83.5t-81.5 -27.5q-40 0 -66.5 23t-33.5 59q-25 -39 -62.5 -60.5t-83.5 -21.5q-77 0 -124.5 53.5t-47.5 141.5q0 67 23.5 121.5t67.5 86t103 31.5q46 0 82.5 -22.5
t57.5 -63.5l10 78h62zM500.5 184q38.5 48 38.5 118q0 64 -33.5 104t-88.5 40q-61 0 -95.5 -49t-34.5 -124q0 -63 31.5 -100t82.5 -37q61 0 99.5 48z" />
    <glyph glyph-name="A" unicode="A" horiz-adv-x="668" 
d="M490 216h-312l-85 -216h-83l275 690h97l276 -690h-84zM461 289l-127 327l-128 -327h255z" />
    <glyph glyph-name="B" unicode="B" horiz-adv-x="658" 
d="M556.5 297.5q35.5 -43.5 35.5 -109.5q0 -86 -58 -137t-156 -51h-283v690h238q97 0 153.5 -49.5t56.5 -134.5q0 -52 -22.5 -90t-64.5 -59q65 -16 100.5 -59.5zM173 385h152q67 0 103.5 30t36.5 86t-36 86t-104 30h-152v-232zM477 103.5q37 30.5 37 88.5q0 59 -37 90
t-107 31h-197v-240h197q70 0 107 30.5z" />
    <glyph glyph-name="C" unicode="C" horiz-adv-x="699" 
d="M226.5 34.5q-81.5 45.5 -127.5 126.5t-46 184t46 184t127.5 126.5t185.5 45.5q155 0 252 -104l-55 -54q-82 83 -197 83q-81 0 -145 -35.5t-100 -99t-36 -146.5t36 -146.5t100 -99t145 -35.5q116 0 197 82l55 -53q-97 -104 -252 -104q-104 0 -185.5 45.5z" />
    <glyph glyph-name="D" unicode="D" horiz-adv-x="718" 
d="M497.5 646q82.5 -44 125 -122t42.5 -179t-42.5 -179t-125 -122t-196.5 -44h-206v690h206q114 0 196.5 -44zM457.5 108.5q64.5 34.5 97 95.5t32.5 141t-32.5 141t-97 95.5t-156.5 34.5h-128v-542h128q92 0 156.5 34.5z" />
    <glyph glyph-name="E" unicode="E" horiz-adv-x="601" 
d="M173 617v-227h342v-73h-342v-244h379v-73h-457v690h457v-73h-379z" />
    <glyph glyph-name="F" unicode="F" horiz-adv-x="565" 
d="M173 616v-236h332v-74h-332v-306h-78v690h447v-74h-369z" />
    <glyph glyph-name="G" unicode="G" horiz-adv-x="810" 
d="M763 344q0 -104 -46 -184.5t-126.5 -125.5t-180.5 -45q-103 0 -184 45.5t-127 126.5t-46 184t46.5 184t128.5 126.5t186 45.5q154 0 251 -104l-54 -53q-81 84 -198 84q-81 0 -144.5 -35.5t-99.5 -100t-36 -147.5t35.5 -147.5t98.5 -100t143 -35.5q72 0 130 29t94.5 82.5
t45.5 125.5h-275v74h357q1 -10 1 -29z" />
    <glyph glyph-name="H" unicode="H" horiz-adv-x="743" 
d="M648 690v-690h-78v314h-397v-314h-78v690h78v-302h397v302h78z" />
    <glyph glyph-name="I" unicode="I" horiz-adv-x="268" 
d="M95 0v690h78v-690h-78z" />
    <glyph glyph-name="J" unicode="J" horiz-adv-x="426" 
d="M113 66q140 0 140 171v453h78v-458q0 -112 -57 -176t-158 -64q-71 0 -119 34l38 63q35 -23 78 -23z" />
    <glyph glyph-name="K" unicode="K" horiz-adv-x="630" 
d="M244 313h-71v-313h-78v690h78v-302h71l277 302h103l-312 -338l328 -352h-107z" />
    <glyph glyph-name="L" unicode="L" horiz-adv-x="526" 
d="M95 690h78v-616h343v-74h-421v690z" />
    <glyph glyph-name="M" unicode="M" horiz-adv-x="876" 
d="M781 690v-690h-77v574l-263 -348h-6l-262 348v-574h-78v690h85l259 -342l258 342h84z" />
    <glyph glyph-name="N" unicode="N" horiz-adv-x="773" 
d="M678 690v-690h-91l-414 577v-577h-78v690h90l415 -578v578h78z" />
    <glyph glyph-name="O" unicode="O" horiz-adv-x="815" 
d="M225 35.5q-81 45.5 -126.5 126.5t-45.5 183t45.5 182.5t126.5 126t183 45.5t182.5 -45.5t126 -126t45.5 -182.5t-45.5 -183t-126 -126.5t-182.5 -45.5t-183 45.5zM550 100q63 36 98.5 100t35.5 145t-35.5 144.5t-98.5 99.5t-142 36t-142 -36t-99 -99.5t-36 -144.5
t36 -145t99 -100t142 -36t142 36z" />
    <glyph glyph-name="P" unicode="P" horiz-adv-x="621" 
d="M95 690h249q111 0 175.5 -57.5t64.5 -156.5t-64.5 -157t-175.5 -58h-171v-261h-78v690zM343 335q78 0 121 37t43 104t-42.5 103.5t-121.5 36.5h-170v-281h170z" />
    <glyph glyph-name="Q" unicode="Q" horiz-adv-x="815" 
d="M743 -34l-108 99q-45 -36 -103 -55.5t-124 -19.5q-102 0 -183 45.5t-126.5 126.5t-45.5 183t45.5 182.5t126.5 126t183 45.5t182.5 -45.5t126 -126t45.5 -182.5q0 -67 -20 -126t-57 -104l105 -96zM577 118l-147 134l47 53l150 -137q57 74 57 177q0 81 -35.5 144.5
t-98.5 99.5t-142 36t-142 -36t-99 -99.5t-36 -144.5t36 -145t99 -100t142 -36q98 0 169 54z" />
    <glyph glyph-name="R" unicode="R" horiz-adv-x="634" 
d="M504 0l-196 275h-135v-275h-78v690h245q110 0 174 -56t64 -152q0 -81 -47.5 -134.5t-131.5 -67.5l200 -280h-95zM173 346h166q78 0 119.5 35.5t41.5 100.5q0 66 -41 100.5t-120 34.5h-166v-271z" />
    <glyph glyph-name="S" unicode="S" horiz-adv-x="594" 
d="M86 124q86 -60 193 -60q85 0 130.5 33t45.5 89q0 38 -23 62.5t-58 37.5t-94 29q-72 20 -115.5 38t-74 55t-30.5 97q0 57 30 101.5t84 69t125 24.5q62 0 121 -19.5t106 -56.5l-43 -66q-86 68 -185 68q-74 0 -116.5 -33t-42.5 -84q0 -35 22 -57.5t55 -35t91 -28.5
q72 -20 117 -39t77 -57.5t32 -101.5q0 -59 -31.5 -104.5t-90 -71t-134.5 -25.5q-64 0 -124.5 17.5t-105.5 50.5z" />
    <glyph glyph-name="T" unicode="T" horiz-adv-x="607" 
d="M597 617h-254v-617h-79v617h-254v73h587v-73z" />
    <glyph glyph-name="U" unicode="U" horiz-adv-x="722" 
d="M217 25q-62 35 -96 100t-34 151v414h78v-408q0 -104 52.5 -161.5t142.5 -57.5q91 0 144 57.5t53 161.5v408h78v-414q0 -86 -34 -151t-96.5 -100t-144.5 -35q-81 0 -143 35z" />
    <glyph glyph-name="V" unicode="V" horiz-adv-x="675" 
d="M665 690l-279 -690h-97l-279 690h84l244 -618l243 618h84z" />
    <glyph glyph-name="W" unicode="W" horiz-adv-x="986" 
d="M976 690l-214 -690h-88l-181 578l-181 -578h-88l-214 690h83l177 -581l181 581h84l181 -581l177 581h83z" />
    <glyph glyph-name="X" unicode="X" horiz-adv-x="649" 
d="M539 0l-214 296l-215 -296h-98l264 353l-252 337h98l203 -279l202 279h98l-251 -337l263 -353h-98z" />
    <glyph glyph-name="Y" unicode="Y" horiz-adv-x="616" 
d="M269 285l-259 405h92l206 -326l206 326h92l-259 -405v-285h-78v285z" />
    <glyph glyph-name="Z" unicode="Z" horiz-adv-x="641" 
d="M570 611l-417 -535h429v-76h-525v79l416 535h-404v76h501v-79z" />
    <glyph glyph-name="bracketleft" unicode="[" horiz-adv-x="376" 
d="M157 699v-848h179v-61h-249v970h249v-61h-179z" />
    <glyph glyph-name="backslash" unicode="\" horiz-adv-x="451" 
d="M381 -210l-392 970h81l392 -970h-81z" />
    <glyph glyph-name="bracketright" unicode="]" horiz-adv-x="376" 
d="M40 760h249v-970h-249v61h178v848h-178v61z" />
    <glyph glyph-name="asciicircum" unicode="^" horiz-adv-x="427" 
d="M214 629h-2l-129 -269h-72l161 331h83l161 -331h-72z" />
    <glyph glyph-name="underscore" unicode="_" horiz-adv-x="500" 
d="M500 -92v-70h-500v70h500z" />
    <glyph glyph-name="grave" unicode="`" horiz-adv-x="271" 
d="M163 596l-133 153h98l113 -153h-78z" />
    <glyph glyph-name="a" unicode="a" horiz-adv-x="649" 
d="M562 509v-509h-65l-9 79q-33 -41 -82 -64t-106 -23q-73 0 -130.5 33.5t-89.5 93.5t-32 136t32 135.5t89.5 93t130.5 33.5q57 0 106 -23t82 -64l9 79h65zM395.5 85q41.5 22 66.5 64t25 99v13q0 57 -25 99t-66.5 64.5t-89.5 22.5q-53 0 -95 -24.5t-65 -68t-23 -99.5
t23 -99.5t65 -68t95 -24.5q48 0 89.5 22z" />
    <glyph glyph-name="b" unicode="b" horiz-adv-x="649" 
d="M479.5 483.5q57.5 -33.5 89.5 -93t32 -135.5t-32 -136t-89.5 -93.5t-130.5 -33.5q-60 0 -109 26t-78 71l-10 -89h-65v760h75v-338q30 44 79 69.5t108 25.5q73 0 130.5 -33.5zM438 87.5q42 24.5 65 68t23 99.5t-23 99.5t-65 68t-95 24.5q-48 0 -89.5 -22.5t-66.5 -64.5
t-25 -99v-13q0 -57 25 -99t66.5 -64t89.5 -22q53 0 95 24.5z" />
    <glyph glyph-name="c" unicode="c" horiz-adv-x="516" 
d="M176 25.5q-60 33.5 -94 93.5t-34 136t34 135.5t94 93t137 33.5q116 0 187 -78l-52 -51q-54 58 -135 58q-55 0 -98 -24t-67.5 -67.5t-24.5 -99.5q0 -57 24.5 -100.5t67.5 -67.5t98 -24q81 0 135 58l52 -51q-71 -78 -187 -78q-77 0 -137 33.5z" />
    <glyph glyph-name="d" unicode="d" horiz-adv-x="649" 
d="M562 760v-760h-65l-10 89q-29 -45 -78 -71t-109 -26q-73 0 -130.5 33.5t-89.5 93.5t-32 136t32 135.5t89.5 93t130.5 33.5q59 0 108 -25.5t79 -69.5v338h75zM395.5 85q41.5 22 66.5 64t25 99v13q0 57 -25 99t-66.5 64.5t-89.5 22.5q-53 0 -95 -24.5t-65 -68t-23 -99.5
t23 -99.5t65 -68t95 -24.5q48 0 89.5 22z" />
    <glyph glyph-name="e" unicode="e" horiz-adv-x="586" 
d="M535 228h-411q9 -77 60.5 -123t128.5 -46q41 0 79.5 15.5t69.5 43.5l42 -56q-38 -34 -87.5 -52t-103.5 -18q-77 0 -137 33.5t-94 93.5t-34 136t31.5 136t88 93t127.5 33q70 0 125 -32t86 -89.5t31 -130.5q0 -25 -2 -37zM181.5 406.5q-46.5 -43.5 -57.5 -114.5h338
q-10 72 -55 115t-112 43t-113.5 -43.5z" />
    <glyph glyph-name="f" unicode="f" horiz-adv-x="341" 
d="M259 694q-39 0 -57 -21.5t-18 -66.5v-97h137v-69h-137v-440h-75v440h-89v69h89v104q0 72 38.5 112.5t107.5 40.5q46 0 90 -21l-28 -66q-32 15 -58 15z" />
    <glyph glyph-name="g" unicode="g" horiz-adv-x="646" 
d="M559 509v-469q0 -122 -70 -190t-196 -68q-104 0 -193 48l31 67q45 -23 83.5 -33.5t78.5 -10.5q92 0 141.5 48.5t49.5 138.5v44q-32 -41 -80.5 -64t-105.5 -23q-73 0 -129.5 33.5t-88.5 92.5t-32 135q0 75 32 134t88.5 92t129.5 33q57 0 106 -23t81 -64l9 79h65zM394 90
q41 22 65.5 63.5t24.5 97.5v13q0 56 -24.5 97.5t-65.5 63.5t-88 22q-52 0 -93.5 -25t-65.5 -68t-24 -96t24 -96.5t65.5 -68.5t93.5 -25q47 0 88 22z" />
    <glyph glyph-name="h" unicode="h" horiz-adv-x="601" 
d="M469 458.5q55 -58.5 55 -157.5v-301h-75v294q0 75 -35 113.5t-98 38.5q-71 0 -112.5 -46.5t-41.5 -136.5v-263h-75v760h75v-316q56 73 159 73q93 0 148 -58.5z" />
    <glyph glyph-name="i" unicode="i" horiz-adv-x="249" 
d="M162 509v-509h-75v509h75zM85.5 649.5q-15.5 15.5 -15.5 38.5t15.5 38.5t38.5 15.5q24 0 39 -15.5t15 -38.5t-15 -38.5t-39 -15.5q-23 0 -38.5 15.5z" />
    <glyph glyph-name="j" unicode="j" horiz-adv-x="249" 
d="M-1 -147q88 0 88 99v557h75v-559q0 -78 -42.5 -123t-117.5 -45q-35 0 -67 12l23 66q18 -7 41 -7zM85.5 649.5q-15.5 15.5 -15.5 38.5t15.5 38.5t38.5 15.5q24 0 39 -15.5t15 -38.5t-15 -38.5t-39 -15.5q-23 0 -38.5 15.5z" />
    <glyph glyph-name="k" unicode="k" horiz-adv-x="531" 
d="M219 224h-57v-224h-75v760h75v-467h53l204 216h102l-237 -248l257 -261h-104z" />
    <glyph glyph-name="l" unicode="l" horiz-adv-x="249" 
d="M87 0v760h75v-760h-75z" />
    <glyph glyph-name="m" unicode="m" horiz-adv-x="922" 
d="M793 461q52 -56 52 -150v-311h-75v304q0 70 -32 106t-91 36q-66 0 -104.5 -45.5t-38.5 -133.5v-267h-75v304q0 70 -32.5 106t-91.5 36q-66 0 -104.5 -45.5t-38.5 -133.5v-267h-75v509h65l8 -66q54 74 152 74q60 0 103.5 -26.5t66.5 -74.5q56 101 170 101q89 0 141 -56z
" />
    <glyph glyph-name="n" unicode="n" horiz-adv-x="601" 
d="M469 458.5q55 -58.5 55 -157.5v-301h-75v294q0 75 -35 113.5t-98 38.5q-71 0 -112.5 -46.5t-41.5 -136.5v-263h-75v509h65l8 -67q57 75 161 75q93 0 148 -58.5z" />
    <glyph glyph-name="o" unicode="o" horiz-adv-x="622" 
d="M175 25.5q-60 33.5 -93.5 93.5t-33.5 136t33.5 136t93.5 93t136 33t136 -33.5t93.5 -93t33.5 -135.5q0 -77 -33.5 -136.5t-93.5 -93t-136 -33.5t-136 33.5zM408 87.5q43 24.5 67 68t24 99.5q0 55 -24 98.5t-67 68t-97 24.5t-97 -24.5t-67 -68t-24 -98.5q0 -56 24 -99.5
t67 -68t97 -24.5t97 24.5z" />
    <glyph glyph-name="p" unicode="p" horiz-adv-x="649" 
d="M479.5 483.5q57.5 -33.5 89.5 -93t32 -135.5t-32 -136t-89.5 -93.5t-130.5 -33.5q-59 0 -108 25.5t-79 69.5v-297h-75v719h65l10 -88q29 44 78 70t109 26q73 0 130.5 -33.5zM438 87.5q42 24.5 65 68t23 99.5t-23 99.5t-65 68t-95 24.5q-48 0 -89.5 -22.5t-66.5 -64.5
t-25 -99v-13q0 -57 25 -99t66.5 -64t89.5 -22q53 0 95 24.5z" />
    <glyph glyph-name="q" unicode="q" horiz-adv-x="649" 
d="M562 509v-719h-75v297q-30 -44 -79 -69.5t-108 -25.5q-73 0 -130.5 33.5t-89.5 93.5t-32 136t32 135.5t89.5 93t130.5 33.5q60 0 109 -26t78 -70l10 88h65zM395.5 85q41.5 22 66.5 64t25 99v13q0 57 -25 99t-66.5 64.5t-89.5 22.5q-53 0 -95 -24.5t-65 -68t-23 -99.5
t23 -99.5t65 -68t95 -24.5q48 0 89.5 22z" />
    <glyph glyph-name="r" unicode="r" horiz-adv-x="376" 
d="M356 511v-79q-30 10 -62 10q-60 0 -96 -36t-36 -106v-300h-75v509h65l8 -60q28 35 62.5 51.5t78.5 16.5q28 0 55 -6z" />
    <glyph glyph-name="s" unicode="s" horiz-adv-x="458" 
d="M77 104q61 -45 137 -45q57 0 87.5 21.5t30.5 57.5q0 25 -15.5 41t-38.5 25t-65 22q-52 15 -84.5 29t-55 42t-22.5 74q0 65 50 105.5t131 40.5q47 0 90.5 -14t79.5 -42l-39 -59q-63 48 -134 48q-48 0 -75.5 -21t-27.5 -54t27.5 -48.5t86.5 -32.5q54 -16 87 -30.5
t56.5 -43.5t23.5 -77q0 -67 -53 -109t-141 -42q-47 0 -92 13t-80 36z" />
    <glyph glyph-name="t" unicode="t" horiz-adv-x="408" 
d="M397 26q-60 -34 -127 -34q-74 0 -116.5 44.5t-42.5 122.5v281h-91v69h91v147h75v-147h196v-69h-196v-273q0 -52 22 -78t69 -26q48 0 93 27z" />
    <glyph glyph-name="u" unicode="u" horiz-adv-x="587" 
d="M179.5 19q-48.5 27 -75.5 77t-27 117v296h75v-288q0 -75 38 -116.5t103 -41.5q66 0 104 41t38 117v288h75v-296q0 -101 -59 -161t-158 -60q-65 0 -113.5 27z" />
    <glyph glyph-name="v" unicode="v" horiz-adv-x="526" 
d="M516 509l-203 -509h-100l-203 509h81l172 -442l172 442h81z" />
    <glyph glyph-name="w" unicode="w" horiz-adv-x="832" 
d="M822 509l-178 -509h-89l-139 413l-139 -413h-90l-177 509h80l143 -422l143 422h81l142 -422l143 422h80z" />
    <glyph glyph-name="x" unicode="x" horiz-adv-x="528" 
d="M422 0l-158 205l-158 -205h-96l208 261l-197 248h95l148 -192l147 192h96l-196 -248l206 -261h-95z" />
    <glyph glyph-name="y" unicode="y" horiz-adv-x="528" 
d="M518 509l-213 -544q-39 -100 -90 -140.5t-132 -40.5q-22 0 -40 5l11 74q12 -3 28 -3q56 0 88.5 26.5t61.5 99.5l4 11l-226 512h83l183 -424l161 424h81z" />
    <glyph glyph-name="z" unicode="z" horiz-adv-x="524" 
d="M457 438l-308 -369h318v-69h-411v72l308 368h-297v69h390v-71z" />
    <glyph glyph-name="braceleft" unicode="{" horiz-adv-x="409" 
d="M185.5 334.5q-24.5 -42.5 -68.5 -59.5q44 -17 68.5 -59.5t24.5 -102.5v-105q0 -73 36 -115t98 -42h25v-61h-25q-94 0 -149 59t-55 159v106q0 59 -30.5 93.5t-82.5 34.5v66q52 0 82.5 34.5t30.5 93.5v106q0 100 55 159t149 59h25v-61h-25q-62 0 -98 -42t-36 -115v-105
q0 -60 -24.5 -102.5z" />
    <glyph glyph-name="bar" unicode="|" horiz-adv-x="232" 
d="M155 760v-970h-78v970h78z" />
    <glyph glyph-name="braceright" unicode="}" horiz-adv-x="409" 
d="M299.5 342.5q30.5 -34.5 82.5 -34.5v-66q-52 0 -82.5 -34.5t-30.5 -93.5v-106q0 -100 -55 -159t-149 -59h-25v61h25q62 0 98 42t36 115v105q0 60 24.5 102.5t68.5 59.5q-44 17 -68.5 59.5t-24.5 102.5v105q0 73 -36 115t-98 42h-25v61h25q94 0 149 -59t55 -159v-106
q0 -59 30.5 -93.5z" />
    <glyph glyph-name="asciitilde" unicode="~" horiz-adv-x="563" 
d="M462.5 309.5q23.5 28.5 23.5 74.5h53q0 -74 -38.5 -119t-101.5 -45q-37 0 -65.5 15.5t-64.5 45.5q-33 27 -56 40t-51 13q-39 0 -62 -28t-23 -75h-53q0 73 39 118t101 45q37 0 65 -15t65 -45q33 -27 56 -40t51 -13q38 0 61.5 28.5z" />
    <glyph glyph-name="uni00A0" unicode="&#xa0;" horiz-adv-x="240" 
 />
    <glyph glyph-name="exclamdown" unicode="&#xa1;" horiz-adv-x="249" 
d="M168 493q17 -17 17 -44q0 -26 -17 -43t-44 -17q-26 0 -43 17t-17 43q0 27 17 44t43 17q27 0 44 -17zM76 -190l18 486h61l18 -486h-97z" />
    <glyph glyph-name="cent" unicode="&#xa2;" horiz-adv-x="540" 
d="M337 93v-93h-70v96q-64 10 -113 45.5t-76 90.5t-27 123t27 123t76 90t113 45v77h70v-74q102 -6 165 -77l-52 -51q-48 51 -113 57v-381q65 6 113 57l53 -51q-66 -71 -166 -77zM164.5 233q38.5 -50 102.5 -65v373q-64 -15 -102.5 -65t-38.5 -121q0 -72 38.5 -122z" />
    <glyph glyph-name="sterling" unicode="&#xa3;" horiz-adv-x="540" 
d="M503 73v-73h-481v71q56 13 83.5 55.5t27.5 117.5v65h-92v72h92v105q0 99 52 156.5t143 57.5q53 0 98 -20.5t74 -57.5l-58 -48q-46 54 -114 54q-58 0 -88 -36.5t-30 -105.5v-105h193v-72h-193v-65q0 -117 -57 -171h350z" />
    <glyph glyph-name="currency" unicode="&#xa4;" horiz-adv-x="616" 
d="M498 126l71 -70l-53 -55l-71 71q-61 -40 -137 -40q-79 0 -137 40l-70 -71l-54 55l71 70q-40 57 -40 136t41 137l-72 72l54 54l72 -72q58 39 135 39t135 -39l73 72l53 -54l-71 -72q40 -59 40 -137q0 -79 -40 -136zM164 177.5q21 -37.5 58.5 -58.5t85.5 -21q47 0 84.5 21
t58.5 58.5t21 84.5t-21 84.5t-58.5 59t-84.5 21.5q-73 0 -119 -46.5t-46 -118.5q0 -47 21 -84.5z" />
    <glyph glyph-name="yen" unicode="&#xa5;" horiz-adv-x="540" 
d="M338 400h141v-66h-170v-94h170v-66h-170v-174h-78v174h-170v66h170v94h-170v66h141l-185 290h92l161 -256l161 256h92z" />
    <glyph glyph-name="brokenbar" unicode="&#xa6;" horiz-adv-x="232" 
d="M77 760h78v-350h-78v350zM155 -210h-78v350h78v-350z" />
    <glyph glyph-name="section" unicode="&#xa7;" horiz-adv-x="496" 
d="M391 115q24 -30 24 -75q0 -66 -52.5 -107t-138.5 -41q-47 0 -91.5 12.5t-77.5 36.5l35 62q62 -44 135 -44q55 0 85 21t30 56q0 33 -30 51t-93 38q-56 18 -91 35t-60 47t-25 77t32.5 84.5t93.5 63.5q-45 20 -70.5 49.5t-25.5 75.5q0 64 49.5 104t128.5 40q46 0 89 -14.5
t78 -41.5l-39 -59q-61 48 -130 48q-47 0 -74 -20.5t-27 -52.5q0 -31 29.5 -48.5t90.5 -37.5q57 -19 92.5 -36t61 -48t25.5 -78q0 -49 -32.5 -87.5t-88.5 -60.5q43 -20 67 -50zM146.5 236q30.5 -19 93.5 -40q60 15 95 44t35 65q0 26 -17.5 43.5t-42.5 28.5t-72 28
q-61 -20 -91.5 -49.5t-30.5 -64.5q0 -36 30.5 -55z" />
    <glyph glyph-name="dieresis" unicode="&#xa8;" horiz-adv-x="369" 
d="M44.5 651.5q-14.5 14.5 -14.5 36.5q0 23 14.5 37t36.5 14q23 0 37 -14t14 -37q0 -22 -14 -36.5t-37 -14.5q-22 0 -36.5 14.5zM250.5 651.5q-14.5 14.5 -14.5 36.5t14.5 36.5t36.5 14.5q23 0 37.5 -14.5t14.5 -36.5t-14.5 -36.5t-37.5 -14.5q-22 0 -36.5 14.5z" />
    <glyph glyph-name="copyright" unicode="&#xa9;" horiz-adv-x="816" 
d="M224.5 35.5q-80.5 45.5 -126 126t-45.5 183.5t45.5 183.5t126 126t183.5 45.5t183.5 -45.5t126 -126t45.5 -183.5t-45.5 -183.5t-126 -126t-183.5 -45.5t-183.5 45.5zM561.5 86q67.5 38 105.5 105.5t38 153.5t-38 154t-105.5 106t-153.5 38t-154 -38t-106 -106t-38 -154
t38 -153.5t106 -105.5t154 -38t153.5 38zM303 158.5q-49 27.5 -76.5 76t-27.5 110.5t27.5 110.5t76.5 76t111 27.5q94 0 153 -64l-51 -51q-42 45 -102 45q-62 0 -101.5 -40t-39.5 -104t39.5 -103.5t101.5 -39.5q63 0 103 43l50 -50q-59 -64 -153 -64q-62 0 -111 27.5z" />
    <glyph glyph-name="ordfeminine" unicode="&#xaa;" horiz-adv-x="468" 
d="M398 690v-350h-61l-7 49q-21 -25 -52.5 -40t-68.5 -15q-49 0 -88 23t-60.5 64t-21.5 93v2q0 52 21.5 93t60.5 64t88 23q37 0 68.5 -15t52.5 -40l7 49h61zM297.5 428.5q32.5 30.5 32.5 82.5v8q0 52 -32.5 82.5t-78.5 30.5q-49 0 -81 -33t-32 -83v-2q0 -50 32 -83t81 -33
q46 0 78.5 30.5z" />
    <glyph glyph-name="guillemotleft" unicode="&#xab;" horiz-adv-x="580" 
d="M151 292l160 -197h-94l-160 197l160 197h94zM353 292l160 -197h-94l-160 197l160 197h94z" />
    <glyph glyph-name="logicalnot" unicode="&#xac;" horiz-adv-x="540" 
d="M418 374h-356v61h417v-294h-61v233z" />
    <glyph glyph-name="uni00AD" unicode="&#xad;" horiz-adv-x="423" 
d="M48 255v74h328v-74h-328z" />
    <glyph glyph-name="registered" unicode="&#xae;" horiz-adv-x="600" 
d="M402 670.5q52 -29.5 81.5 -81.5t29.5 -119t-29.5 -119t-81.5 -81.5t-119 -29.5t-119 29.5t-81.5 81.5t-29.5 119t29.5 119t81.5 81.5t119 29.5t119 -29.5zM377.5 310.5q41.5 23.5 65 65t23.5 94.5t-23.5 94.5t-65 65t-94.5 23.5t-94.5 -23.5t-65 -65t-23.5 -94.5
t23.5 -94.5t65 -65t94.5 -23.5t94.5 23.5zM368.5 460q-14.5 -20 -40.5 -28l61 -83h-62l-58 78h-30v-78h-52v244h109q40 0 63.5 -22.5t23.5 -60.5q0 -30 -14.5 -50zM239 472h52q19 0 30 10t11 27q0 18 -11 27.5t-30 9.5h-52v-74z" />
    <glyph glyph-name="macron" unicode="&#xaf;" horiz-adv-x="338" 
d="M308 701v-67h-278v67h278z" />
    <glyph glyph-name="degree" unicode="&#xb0;" horiz-adv-x="360" 
d="M111 442.5q-32 18.5 -50.5 50.5t-18.5 69t18.5 68.5t50.5 50.5t69 19t69 -19t50.5 -50.5t18.5 -68.5t-18.5 -69t-50.5 -50.5t-69 -18.5t-69 18.5zM240.5 502q24.5 25 24.5 60t-24.5 60t-60.5 25q-35 0 -60 -25t-25 -60t25 -60t60 -25q36 0 60.5 25z" />
    <glyph glyph-name="plusminus" unicode="&#xb1;" horiz-adv-x="540" 
d="M479 294h-178v-170h-61v170h-178v60h178v170h61v-170h178v-60zM62 60h417v-60h-417v60z" />
    <glyph glyph-name="twosuperior" unicode="&#xb2;" horiz-adv-x="349" 
d="M302 504v-55h-258v17q0 34 15 59.5t36 43.5t55 42q44 31 65 53.5t21 54.5q0 29 -18.5 45t-50.5 16q-30 0 -48 -14.5t-26 -47.5l-58 15q14 49 48 76t84 27q57 0 93 -32.5t36 -84.5q0 -35 -15 -62t-37 -45t-57 -42q-32 -21 -48 -35t-25 -31h188z" />
    <glyph glyph-name="threesuperior" unicode="&#xb3;" horiz-adv-x="350" 
d="M272.5 643.5q26.5 -32.5 26.5 -77.5q0 -55 -38 -89t-100 -34q-46 0 -79.5 21t-45.5 57l53 22q8 -21 26.5 -32.5t45.5 -11.5q36 0 57 17.5t21 49.5q0 33 -24 51.5t-66 18.5q-18 0 -27 -2v41l80 98h-149v56h229v-41l-82 -101q46 -11 72.5 -43.5z" />
    <glyph glyph-name="acute" unicode="&#xb4;" horiz-adv-x="271" 
d="M143 749h98l-133 -153h-78z" />
    <glyph glyph-name="mu" unicode="&#xb5;" horiz-adv-x="604" 
d="M517 500v-500h-65l-9 73q-54 -81 -156 -81q-79 0 -125 51v-253h-75v710h75v-288q0 -73 34 -111t96 -38q69 0 109.5 46t40.5 134v257h75z" />
    <glyph glyph-name="paragraph" unicode="&#xb6;" horiz-adv-x="616" 
d="M528 -116h-71v740h-83v-740h-70v377h-40q-62 0 -114 26.5t-82.5 75t-30.5 112.5t30.5 113t82.5 76t114 27h342v-67h-78v-740z" />
    <glyph glyph-name="periodcentered" unicode="&#xb7;" horiz-adv-x="232" 
d="M71.5 271.5q-17.5 17.5 -17.5 45.5q0 27 17.5 44.5t44.5 17.5t44.5 -17.5t17.5 -44.5q0 -28 -17.5 -45.5t-44.5 -17.5t-44.5 17.5z" />
    <glyph glyph-name="cedilla" unicode="&#xb8;" horiz-adv-x="187" 
d="M157 -50l-68 -150h-59l43 150h84z" />
    <glyph glyph-name="onesuperior" unicode="&#xb9;" horiz-adv-x="351" 
d="M298 504v-55h-245v55h95v251l-95 -34v58l153 55v-330h92z" />
    <glyph glyph-name="ordmasculine" unicode="&#xba;" horiz-adv-x="439" 
d="M126 357q-41 23 -64 64t-23 93v2q0 52 23 93t64 64t93 23t93.5 -23t64.5 -64t23 -93v-2q0 -52 -23 -93t-64.5 -64t-93.5 -23t-93 23zM300.5 430.5q31.5 32.5 31.5 83.5v2q0 51 -31.5 83.5t-81.5 32.5t-81.5 -32.5t-31.5 -83.5v-2q0 -51 31.5 -83.5t81.5 -32.5t81.5 32.5z
" />
    <glyph glyph-name="guillemotright" unicode="&#xbb;" horiz-adv-x="580" 
d="M161 489l160 -197l-160 -197h-94l160 197l-160 197h94zM363 489l160 -197l-160 -197h-94l160 197l-160 197h94z" />
    <glyph glyph-name="onequarter" unicode="&#xbc;" horiz-adv-x="892" 
d="M298 367v-55h-245v55h95v251l-95 -34v58l153 55v-330h92zM201 0l442 721l52 -31l-441 -721zM839 98h-56v-98h-59v98h-183v62l177 220h65v-227h56v-55zM724 153v157l-127 -157h127z" />
    <glyph glyph-name="onehalf" unicode="&#xbd;" horiz-adv-x="916" 
d="M298 367v-55h-245v55h95v251l-95 -34v58l153 55v-330h92zM201 0l442 721l52 -31l-441 -721zM864 55v-55h-258v17q0 34 15 59.5t36 43.5t55 42q44 31 65 53.5t21 54.5q0 29 -18.5 45t-50.5 16q-30 0 -48 -14.5t-26 -47.5l-58 15q14 49 48 76t84 27q57 0 93 -32.5t36 -84.5
q0 -35 -15 -62t-37 -45t-57 -42q-32 -21 -48 -35t-25 -31h188z" />
    <glyph glyph-name="threequarters" unicode="&#xbe;" horiz-adv-x="874" 
d="M272.5 506.5q26.5 -32.5 26.5 -77.5q0 -55 -38 -89t-100 -34q-46 0 -79.5 21t-45.5 57l53 22q8 -21 26.5 -32.5t45.5 -11.5q36 0 57 17.5t21 49.5q0 33 -24 51.5t-66 18.5q-18 0 -27 -2v41l80 98h-149v56h229v-41l-82 -101q46 -11 72.5 -43.5zM220 0l442 721l52 -31
l-441 -721zM848 98h-56v-98h-59v98h-183v62l177 220h65v-227h56v-55zM733 153v157l-127 -157h127z" />
    <glyph glyph-name="questiondown" unicode="&#xbf;" horiz-adv-x="512" 
d="M228 406q-17 17 -17 43q0 27 17 44t44 17q26 0 43 -17t17 -44q0 -26 -17 -43t-43 -17q-27 0 -44 17zM502 -30q-29 -84 -89.5 -127.5t-149.5 -43.5q-67 0 -118.5 25.5t-79.5 72t-28 106.5q0 71 46 132t155 77l3 84h61l5 -131q-110 -15 -151.5 -58.5t-41.5 -103.5
q0 -61 39.5 -96t109.5 -35q64 0 104.5 28.5t61.5 89.5z" />
    <glyph glyph-name="Agrave" unicode="&#xc0;" horiz-adv-x="668" 
d="M490 216h-312l-85 -216h-83l275 690h97l276 -690h-84zM461 289l-127 327l-128 -327h255zM325 727l-133 119h105l113 -119h-85z" />
    <glyph glyph-name="Aacute" unicode="&#xc1;" horiz-adv-x="668" 
d="M490 216h-312l-85 -216h-83l275 690h97l276 -690h-84zM461 289l-127 327l-128 -327h255zM372 846h105l-133 -119h-85z" />
    <glyph glyph-name="Acircumflex" unicode="&#xc2;" horiz-adv-x="668" 
d="M490 216h-312l-85 -216h-83l275 690h97l276 -690h-84zM461 289l-127 327l-128 -327h255zM413 727l-79 81l-79 -81h-88l116 119h101l117 -119h-88z" />
    <glyph glyph-name="Atilde" unicode="&#xc3;" horiz-adv-x="668" 
d="M490 216h-312l-85 -216h-83l275 690h97l276 -690h-84zM461 289l-127 327l-128 -327h255zM211 722h-59q0 57 29.5 91.5t76.5 34.5q25 0 43 -8t43 -25q19 -13 32.5 -19.5t29.5 -6.5q51 0 51 59h59q0 -57 -29.5 -91.5t-76.5 -34.5q-25 0 -43.5 8.5t-41.5 24.5q-21 14 -34 20
t-29 6q-51 0 -51 -59z" />
    <glyph glyph-name="Adieresis" unicode="&#xc4;" horiz-adv-x="668" 
d="M490 216h-312l-85 -216h-83l275 690h97l276 -690h-84zM461 289l-127 327l-128 -327h255zM194 747.5q-14 14.5 -14 36.5q0 23 14 37t37 14q22 0 36.5 -14t14.5 -37q0 -22 -14.5 -36.5t-36.5 -14.5q-23 0 -37 14.5zM400.5 747.5q-14.5 14.5 -14.5 36.5t14.5 36.5t36.5 14.5
q23 0 37.5 -14.5t14.5 -36.5t-14.5 -36.5t-37.5 -14.5q-22 0 -36.5 14.5z" />
    <glyph glyph-name="Aring" unicode="&#xc5;" horiz-adv-x="668" 
d="M490 216h-312l-85 -216h-83l272 682q-24 13 -38.5 36.5t-14.5 50.5q0 42 31 72t74 30t73.5 -30t30.5 -72q0 -27 -14.5 -50.5t-38.5 -37.5l273 -681h-84zM293.5 807q-16.5 -16 -16.5 -38t16.5 -37.5t40.5 -15.5q23 0 40 15.5t17 37.5t-17 38t-40 16q-24 0 -40.5 -16z
M461 289l-127 327l-128 -327h255z" />
    <glyph glyph-name="AE" unicode="&#xc6;" horiz-adv-x="903" 
d="M525 617v-227h292v-73h-292v-244h329v-73h-407v216h-265l-108 -216h-84l351 690h513v-73h-329zM447 289v328h-65l-164 -328h229z" />
    <glyph glyph-name="Ccedilla" unicode="&#xc7;" horiz-adv-x="699" 
d="M226.5 34.5q-81.5 45.5 -127.5 126.5t-46 184t46 184t127.5 126.5t185.5 45.5q155 0 252 -104l-55 -54q-82 83 -197 83q-81 0 -145 -35.5t-100 -99t-36 -146.5t36 -146.5t100 -99t145 -35.5q116 0 197 82l55 -53q-97 -104 -252 -104q-104 0 -185.5 45.5zM455 -50
l-68 -150h-59l43 150h84z" />
    <glyph glyph-name="Egrave" unicode="&#xc8;" horiz-adv-x="601" 
d="M173 617v-227h342v-73h-342v-244h379v-73h-457v690h457v-73h-379zM315 727l-133 119h105l113 -119h-85z" />
    <glyph glyph-name="Eacute" unicode="&#xc9;" horiz-adv-x="601" 
d="M173 617v-227h342v-73h-342v-244h379v-73h-457v690h457v-73h-379zM361 846h105l-133 -119h-85z" />
    <glyph glyph-name="Ecircumflex" unicode="&#xca;" horiz-adv-x="601" 
d="M173 617v-227h342v-73h-342v-244h379v-73h-457v690h457v-73h-379zM403 727l-79 81l-79 -81h-88l116 119h101l117 -119h-88z" />
    <glyph glyph-name="Edieresis" unicode="&#xcb;" horiz-adv-x="601" 
d="M173 617v-227h342v-73h-342v-244h379v-73h-457v690h457v-73h-379zM184 747.5q-14 14.5 -14 36.5q0 23 14 37t37 14q22 0 36.5 -14t14.5 -37q0 -22 -14.5 -36.5t-36.5 -14.5q-23 0 -37 14.5zM390.5 747.5q-14.5 14.5 -14.5 36.5t14.5 36.5t36.5 14.5q23 0 37.5 -14.5
t14.5 -36.5t-14.5 -36.5t-37.5 -14.5q-22 0 -36.5 14.5z" />
    <glyph glyph-name="Igrave" unicode="&#xcc;" horiz-adv-x="268" 
d="M95 0v690h78v-690h-78zM125 727l-133 119h105l113 -119h-85z" />
    <glyph glyph-name="Iacute" unicode="&#xcd;" horiz-adv-x="268" 
d="M95 0v690h78v-690h-78zM172 846h105l-133 -119h-85z" />
    <glyph glyph-name="Icircumflex" unicode="&#xce;" horiz-adv-x="268" 
d="M95 0v690h78v-690h-78zM213 727l-79 81l-79 -81h-88l116 119h101l117 -119h-88z" />
    <glyph glyph-name="Idieresis" unicode="&#xcf;" horiz-adv-x="268" 
d="M95 0v690h78v-690h-78zM-6 747.5q-14 14.5 -14 36.5q0 23 14 37t37 14q22 0 36.5 -14t14.5 -37q0 -22 -14.5 -36.5t-36.5 -14.5q-23 0 -37 14.5zM200.5 747.5q-14.5 14.5 -14.5 36.5t14.5 36.5t36.5 14.5q23 0 37.5 -14.5t14.5 -36.5t-14.5 -36.5t-37.5 -14.5
q-22 0 -36.5 14.5z" />
    <glyph glyph-name="Eth" unicode="&#xd0;" horiz-adv-x="718" 
d="M497.5 646q82.5 -44 125 -122t42.5 -179t-42.5 -179t-125 -122t-196.5 -44h-206v312h-95v67h95v311h206q114 0 196.5 -44zM457.5 108.5q64.5 34.5 97 95.5t32.5 141t-32.5 141t-97 95.5t-156.5 34.5h-128v-237h163v-67h-163v-238h128q92 0 156.5 34.5z" />
    <glyph glyph-name="Ntilde" unicode="&#xd1;" horiz-adv-x="773" 
d="M678 690v-690h-91l-414 577v-577h-78v690h90l415 -578v578h78zM263 722h-59q0 57 29.5 91.5t76.5 34.5q25 0 43 -8t43 -25q19 -13 32.5 -19.5t29.5 -6.5q51 0 51 59h59q0 -57 -29.5 -91.5t-76.5 -34.5q-25 0 -43.5 8.5t-41.5 24.5q-21 14 -34 20t-29 6q-51 0 -51 -59z
" />
    <glyph glyph-name="Ograve" unicode="&#xd2;" horiz-adv-x="815" 
d="M225 35.5q-81 45.5 -126.5 126.5t-45.5 183t45.5 182.5t126.5 126t183 45.5t182.5 -45.5t126 -126t45.5 -182.5t-45.5 -183t-126 -126.5t-182.5 -45.5t-183 45.5zM550 100q63 36 98.5 100t35.5 145t-35.5 144.5t-98.5 99.5t-142 36t-142 -36t-99 -99.5t-36 -144.5
t36 -145t99 -100t142 -36t142 36zM403 715l-133 153h98l113 -153h-78z" />
    <glyph glyph-name="Oacute" unicode="&#xd3;" horiz-adv-x="815" 
d="M225 35.5q-81 45.5 -126.5 126.5t-45.5 183t45.5 182.5t126.5 126t183 45.5t182.5 -45.5t126 -126t45.5 -182.5t-45.5 -183t-126 -126.5t-182.5 -45.5t-183 45.5zM550 100q63 36 98.5 100t35.5 145t-35.5 144.5t-98.5 99.5t-142 36t-142 -36t-99 -99.5t-36 -144.5
t36 -145t99 -100t142 -36t142 36zM450 868h98l-133 -153h-78z" />
    <glyph glyph-name="Ocircumflex" unicode="&#xd4;" horiz-adv-x="815" 
d="M225 35.5q-81 45.5 -126.5 126.5t-45.5 183t45.5 182.5t126.5 126t183 45.5t182.5 -45.5t126 -126t45.5 -182.5t-45.5 -183t-126 -126.5t-182.5 -45.5t-183 45.5zM550 100q63 36 98.5 100t35.5 145t-35.5 144.5t-98.5 99.5t-142 36t-142 -36t-99 -99.5t-36 -144.5
t36 -145t99 -100t142 -36t142 36zM487 727l-79 81l-79 -81h-88l116 119h101l117 -119h-88z" />
    <glyph glyph-name="Otilde" unicode="&#xd5;" horiz-adv-x="815" 
d="M225 35.5q-81 45.5 -126.5 126.5t-45.5 183t45.5 182.5t126.5 126t183 45.5t182.5 -45.5t126 -126t45.5 -182.5t-45.5 -183t-126 -126.5t-182.5 -45.5t-183 45.5zM550 100q63 36 98.5 100t35.5 145t-35.5 144.5t-98.5 99.5t-142 36t-142 -36t-99 -99.5t-36 -144.5
t36 -145t99 -100t142 -36t142 36zM285 722h-59q0 57 29.5 91.5t76.5 34.5q25 0 43 -8t43 -25q19 -13 32.5 -19.5t29.5 -6.5q51 0 51 59h59q0 -57 -29.5 -91.5t-76.5 -34.5q-25 0 -43.5 8.5t-41.5 24.5q-21 14 -34 20t-29 6q-51 0 -51 -59z" />
    <glyph glyph-name="Odieresis" unicode="&#xd6;" horiz-adv-x="815" 
d="M225 35.5q-81 45.5 -126.5 126.5t-45.5 183t45.5 182.5t126.5 126t183 45.5t182.5 -45.5t126 -126t45.5 -182.5t-45.5 -183t-126 -126.5t-182.5 -45.5t-183 45.5zM550 100q63 36 98.5 100t35.5 145t-35.5 144.5t-98.5 99.5t-142 36t-142 -36t-99 -99.5t-36 -144.5
t36 -145t99 -100t142 -36t142 36zM268 747.5q-14 14.5 -14 36.5q0 23 14 37t37 14q22 0 36.5 -14t14.5 -37q0 -22 -14.5 -36.5t-36.5 -14.5q-23 0 -37 14.5zM474.5 747.5q-14.5 14.5 -14.5 36.5t14.5 36.5t36.5 14.5q23 0 37.5 -14.5t14.5 -36.5t-14.5 -36.5t-37.5 -14.5
q-22 0 -36.5 14.5z" />
    <glyph glyph-name="multiply" unicode="&#xd7;" horiz-adv-x="540" 
d="M502 112l-42 -43l-189 188l-188 -187l-43 43l188 188l-188 188l43 43l188 -189l189 189l42 -42l-189 -189z" />
    <glyph glyph-name="Oslash" unicode="&#xd8;" horiz-adv-x="815" 
d="M687 572q36 -45 55.5 -103t19.5 -124q0 -102 -45.5 -183t-126 -126.5t-182.5 -45.5q-133 0 -228 75l-75 -75l-52 52l75 75q-75 95 -75 228q0 102 45.5 182.5t126.5 126t183 45.5q66 0 124 -19.5t103 -55.5l76 76l52 -52zM184 173l396 396q-72 56 -172 56q-79 0 -142 -36
t-99 -99.5t-36 -144.5q0 -100 53 -172zM631 516l-396 -396q73 -56 173 -56q79 0 142 36t98.5 100t35.5 145q0 99 -53 171z" />
    <glyph glyph-name="Ugrave" unicode="&#xd9;" horiz-adv-x="722" 
d="M217 25q-62 35 -96 100t-34 151v414h78v-408q0 -104 52.5 -161.5t142.5 -57.5q91 0 144 57.5t53 161.5v408h78v-414q0 -86 -34 -151t-96.5 -100t-144.5 -35q-81 0 -143 35zM352 727l-133 119h105l113 -119h-85z" />
    <glyph glyph-name="Uacute" unicode="&#xda;" horiz-adv-x="722" 
d="M217 25q-62 35 -96 100t-34 151v414h78v-408q0 -104 52.5 -161.5t142.5 -57.5q91 0 144 57.5t53 161.5v408h78v-414q0 -86 -34 -151t-96.5 -100t-144.5 -35q-81 0 -143 35zM399 846h105l-133 -119h-85z" />
    <glyph glyph-name="Ucircumflex" unicode="&#xdb;" horiz-adv-x="722" 
d="M217 25q-62 35 -96 100t-34 151v414h78v-408q0 -104 52.5 -161.5t142.5 -57.5q91 0 144 57.5t53 161.5v408h78v-414q0 -86 -34 -151t-96.5 -100t-144.5 -35q-81 0 -143 35zM440 727l-79 81l-79 -81h-88l116 119h101l117 -119h-88z" />
    <glyph glyph-name="Udieresis" unicode="&#xdc;" horiz-adv-x="722" 
d="M217 25q-62 35 -96 100t-34 151v414h78v-408q0 -104 52.5 -161.5t142.5 -57.5q91 0 144 57.5t53 161.5v408h78v-414q0 -86 -34 -151t-96.5 -100t-144.5 -35q-81 0 -143 35zM221 747.5q-14 14.5 -14 36.5q0 23 14 37t37 14q22 0 36.5 -14t14.5 -37q0 -22 -14.5 -36.5
t-36.5 -14.5q-23 0 -37 14.5zM427.5 747.5q-14.5 14.5 -14.5 36.5t14.5 36.5t36.5 14.5q23 0 37.5 -14.5t14.5 -36.5t-14.5 -36.5t-37.5 -14.5q-22 0 -36.5 14.5z" />
    <glyph glyph-name="Yacute" unicode="&#xdd;" horiz-adv-x="616" 
d="M269 285l-259 405h92l206 -326l206 326h92l-259 -405v-285h-78v285zM346 846h105l-133 -119h-85z" />
    <glyph glyph-name="Thorn" unicode="&#xde;" horiz-adv-x="621" 
d="M95 690h78v-125h171q111 0 175.5 -58t64.5 -156q0 -99 -64.5 -157.5t-175.5 -58.5h-171v-135h-78v690zM343 210q79 0 121.5 36.5t42.5 104.5q0 67 -42.5 103t-121.5 36h-170v-280h170z" />
    <glyph glyph-name="germandbls" unicode="&#xdf;" horiz-adv-x="632" 
d="M529 331.5q51 -56.5 51 -137.5q0 -58 -24.5 -104t-68 -72t-97.5 -26q-89 0 -156 49l35 62q29 -20 57.5 -30t63.5 -10q51 0 83 35.5t32 93.5q0 66 -49.5 109t-148.5 56v70q67 29 96 63t29 86q0 51 -36 85.5t-97 34.5q-62 0 -99.5 -40t-37.5 -120v-536h-75v539q0 73 28 124
t76 77t107 26q65 0 112.5 -25t72 -68t24.5 -94q0 -58 -31 -101.5t-85 -70.5q87 -19 138 -75.5z" />
    <glyph glyph-name="agrave" unicode="&#xe0;" horiz-adv-x="649" 
d="M562 509v-509h-65l-9 79q-33 -41 -82 -64t-106 -23q-73 0 -130.5 33.5t-89.5 93.5t-32 136t32 135.5t89.5 93t130.5 33.5q57 0 106 -23t82 -64l9 79h65zM395.5 85q41.5 22 66.5 64t25 99v13q0 57 -25 99t-66.5 64.5t-89.5 22.5q-53 0 -95 -24.5t-65 -68t-23 -99.5
t23 -99.5t65 -68t95 -24.5q48 0 89.5 22zM302 596l-133 153h98l113 -153h-78z" />
    <glyph glyph-name="aacute" unicode="&#xe1;" horiz-adv-x="649" 
d="M562 509v-509h-65l-9 79q-33 -41 -82 -64t-106 -23q-73 0 -130.5 33.5t-89.5 93.5t-32 136t32 135.5t89.5 93t130.5 33.5q57 0 106 -23t82 -64l9 79h65zM395.5 85q41.5 22 66.5 64t25 99v13q0 57 -25 99t-66.5 64.5t-89.5 22.5q-53 0 -95 -24.5t-65 -68t-23 -99.5
t23 -99.5t65 -68t95 -24.5q48 0 89.5 22zM342 749h98l-133 -153h-78z" />
    <glyph glyph-name="acircumflex" unicode="&#xe2;" horiz-adv-x="649" 
d="M562 509v-509h-65l-9 79q-33 -41 -82 -64t-106 -23q-73 0 -130.5 33.5t-89.5 93.5t-32 136t32 135.5t89.5 93t130.5 33.5q57 0 106 -23t82 -64l9 79h65zM395.5 85q41.5 22 66.5 64t25 99v13q0 57 -25 99t-66.5 64.5t-89.5 22.5q-53 0 -95 -24.5t-65 -68t-23 -99.5
t23 -99.5t65 -68t95 -24.5q48 0 89.5 22zM384 596l-79 107l-79 -107h-81l113 153h94l113 -153h-81z" />
    <glyph glyph-name="atilde" unicode="&#xe3;" horiz-adv-x="649" 
d="M562 509v-509h-65l-9 79q-33 -41 -82 -64t-106 -23q-73 0 -130.5 33.5t-89.5 93.5t-32 136t32 135.5t89.5 93t130.5 33.5q57 0 106 -23t82 -64l9 79h65zM395.5 85q41.5 22 66.5 64t25 99v13q0 57 -25 99t-66.5 64.5t-89.5 22.5q-53 0 -95 -24.5t-65 -68t-23 -99.5
t23 -99.5t65 -68t95 -24.5q48 0 89.5 22zM182 602h-59q0 61 29.5 98.5t76.5 37.5q25 0 42.5 -9t43.5 -29q18 -15 32 -23t30 -8q51 0 51 69h59q0 -61 -29.5 -98.5t-76.5 -37.5q-25 0 -43 9.5t-42 28.5q-20 16 -33 23.5t-30 7.5q-51 0 -51 -69z" />
    <glyph glyph-name="adieresis" unicode="&#xe4;" horiz-adv-x="649" 
d="M562 509v-509h-65l-9 79q-33 -41 -82 -64t-106 -23q-73 0 -130.5 33.5t-89.5 93.5t-32 136t32 135.5t89.5 93t130.5 33.5q57 0 106 -23t82 -64l9 79h65zM395.5 85q41.5 22 66.5 64t25 99v13q0 57 -25 99t-66.5 64.5t-89.5 22.5q-53 0 -95 -24.5t-65 -68t-23 -99.5
t23 -99.5t65 -68t95 -24.5q48 0 89.5 22zM164.5 651.5q-14.5 14.5 -14.5 36.5t14.5 36.5t37.5 14.5q22 0 36.5 -14.5t14.5 -36.5t-14.5 -36.5t-36.5 -14.5q-23 0 -37.5 14.5zM371 651.5q-14 14.5 -14 36.5q0 23 14 37t37 14q22 0 36.5 -14t14.5 -37q0 -22 -14.5 -36.5
t-36.5 -14.5q-23 0 -37 14.5z" />
    <glyph glyph-name="aring" unicode="&#xe5;" horiz-adv-x="649" 
d="M562 509v-509h-65l-9 79q-33 -41 -82 -64t-106 -23q-73 0 -130.5 33.5t-89.5 93.5t-32 136t32 135.5t89.5 93t130.5 33.5q57 0 106 -23t82 -64l9 79h65zM395.5 85q41.5 22 66.5 64t25 99v13q0 57 -25 99t-66.5 64.5t-89.5 22.5q-53 0 -95 -24.5t-65 -68t-23 -99.5
t23 -99.5t65 -68t95 -24.5q48 0 89.5 22zM228.5 592.5q-31.5 31.5 -31.5 76.5t31.5 76.5t76.5 31.5q44 0 76 -31.5t32 -76.5t-32 -76.5t-76 -31.5q-45 0 -76.5 31.5zM347.5 626.5q17.5 17.5 17.5 42.5t-17.5 43t-42.5 18t-42.5 -18t-17.5 -43t17.5 -42.5t42.5 -17.5
t42.5 17.5z" />
    <glyph glyph-name="ae" unicode="&#xe6;" horiz-adv-x="875" 
d="M824 228h-376q7 -76 54.5 -121.5t117.5 -45.5q37 0 70.5 14.5t60.5 42.5l42 -56q-35 -34 -79.5 -52t-93.5 -18q-64 0 -115 29.5t-82 81.5q-20 -54 -70 -84t-120 -30q-90 0 -141 44.5t-51 117.5q0 74 52.5 117t138.5 43q43 0 80 -12.5t60 -37.5v52q0 62 -34 99t-99 37
q-40 0 -72.5 -15.5t-62.5 -47.5l-50 49q38 43 84 64t104 21q65 0 110.5 -29.5t66.5 -84.5q29 52 76.5 81.5t106.5 29.5q64 0 115.5 -32t80.5 -89.5t29 -130.5q0 -19 -3 -37zM499.5 405.5q-42.5 -43.5 -51.5 -113.5h303q-8 71 -48.5 114t-100.5 43t-102.5 -43.5zM337 82.5
q35 26.5 35 70.5q0 43 -35 69.5t-93 26.5t-92 -26t-34 -70t34 -70.5t92 -26.5t93 26.5z" />
    <glyph glyph-name="ccedilla" unicode="&#xe7;" horiz-adv-x="516" 
d="M176 25.5q-60 33.5 -94 93.5t-34 136t34 135.5t94 93t137 33.5q116 0 187 -78l-52 -51q-54 58 -135 58q-55 0 -98 -24t-67.5 -67.5t-24.5 -99.5q0 -57 24.5 -100.5t67.5 -67.5t98 -24q81 0 135 58l52 -51q-71 -78 -187 -78q-77 0 -137 33.5zM354 -50l-68 -150h-59l43 150
h84z" />
    <glyph glyph-name="egrave" unicode="&#xe8;" horiz-adv-x="586" 
d="M535 228h-411q9 -77 60.5 -123t128.5 -46q41 0 79.5 15.5t69.5 43.5l42 -56q-38 -34 -87.5 -52t-103.5 -18q-77 0 -137 33.5t-94 93.5t-34 136t31.5 136t88 93t127.5 33q70 0 125 -32t86 -89.5t31 -130.5q0 -25 -2 -37zM181.5 406.5q-46.5 -43.5 -57.5 -114.5h338
q-10 72 -55 115t-112 43t-113.5 -43.5zM291 596l-133 153h98l113 -153h-78z" />
    <glyph glyph-name="eacute" unicode="&#xe9;" horiz-adv-x="586" 
d="M535 228h-411q9 -77 60.5 -123t128.5 -46q41 0 79.5 15.5t69.5 43.5l42 -56q-38 -34 -87.5 -52t-103.5 -18q-77 0 -137 33.5t-94 93.5t-34 136t31.5 136t88 93t127.5 33q70 0 125 -32t86 -89.5t31 -130.5q0 -25 -2 -37zM181.5 406.5q-46.5 -43.5 -57.5 -114.5h338
q-10 72 -55 115t-112 43t-113.5 -43.5zM331 749h98l-133 -153h-78z" />
    <glyph glyph-name="ecircumflex" unicode="&#xea;" horiz-adv-x="586" 
d="M535 228h-411q9 -77 60.5 -123t128.5 -46q41 0 79.5 15.5t69.5 43.5l42 -56q-38 -34 -87.5 -52t-103.5 -18q-77 0 -137 33.5t-94 93.5t-34 136t31.5 136t88 93t127.5 33q70 0 125 -32t86 -89.5t31 -130.5q0 -25 -2 -37zM181.5 406.5q-46.5 -43.5 -57.5 -114.5h338
q-10 72 -55 115t-112 43t-113.5 -43.5zM372 596l-79 107l-79 -107h-81l113 153h94l113 -153h-81z" />
    <glyph glyph-name="edieresis" unicode="&#xeb;" horiz-adv-x="586" 
d="M535 228h-411q9 -77 60.5 -123t128.5 -46q41 0 79.5 15.5t69.5 43.5l42 -56q-38 -34 -87.5 -52t-103.5 -18q-77 0 -137 33.5t-94 93.5t-34 136t31.5 136t88 93t127.5 33q70 0 125 -32t86 -89.5t31 -130.5q0 -25 -2 -37zM181.5 406.5q-46.5 -43.5 -57.5 -114.5h338
q-10 72 -55 115t-112 43t-113.5 -43.5zM153.5 651.5q-14.5 14.5 -14.5 36.5t14.5 36.5t37.5 14.5q22 0 36.5 -14.5t14.5 -36.5t-14.5 -36.5t-36.5 -14.5q-23 0 -37.5 14.5zM360 651.5q-14 14.5 -14 36.5q0 23 14 37t37 14q22 0 36.5 -14t14.5 -37q0 -22 -14.5 -36.5
t-36.5 -14.5q-23 0 -37 14.5z" />
    <glyph glyph-name="igrave" unicode="&#xec;" horiz-adv-x="249" 
d="M162 509v-509h-75v509h75zM122 596l-133 153h98l113 -153h-78z" />
    <glyph glyph-name="iacute" unicode="&#xed;" horiz-adv-x="249" 
d="M162 509v-509h-75v509h75zM162 749h98l-133 -153h-78z" />
    <glyph glyph-name="icircumflex" unicode="&#xee;" horiz-adv-x="249" 
d="M162 509v-509h-75v509h75zM186 596l-62 103l-63 -103h-70l92 153h81l92 -153h-70z" />
    <glyph glyph-name="idieresis" unicode="&#xef;" horiz-adv-x="249" 
d="M162 509v-509h-75v509h75zM13 652q-14 14 -14 36q0 21 14 35t36 14q21 0 35 -14t14 -35q0 -22 -14 -36t-35 -14q-22 0 -36 14zM165.5 652q-13.5 14 -13.5 36q0 21 13.5 35t35.5 14t36 -14t14 -35q0 -22 -14 -36t-36 -14t-35.5 14z" />
    <glyph glyph-name="eth" unicode="&#xf0;" horiz-adv-x="599" 
d="M499.5 437q48.5 -102 48.5 -197q0 -72 -32 -128.5t-88.5 -88.5t-128.5 -32t-129 32t-89.5 88.5t-32.5 127.5t32 127.5t87.5 88t124.5 31.5q72 0 126 -43q-45 81 -127 175l-132 -78l-31 53l122 71l-49 51l54 52q23 -24 60 -65l107 63l30 -52l-97 -57q96 -117 144.5 -219z
M388.5 85.5q39.5 22.5 62 63t22.5 91.5t-22.5 91t-62 62t-89.5 22t-90 -22.5t-63 -62.5t-23 -91t23 -91t63 -62.5t90 -22.5t89.5 22.5z" />
    <glyph glyph-name="ntilde" unicode="&#xf1;" horiz-adv-x="601" 
d="M469 458.5q55 -58.5 55 -157.5v-301h-75v294q0 75 -35 113.5t-98 38.5q-71 0 -112.5 -46.5t-41.5 -136.5v-263h-75v509h65l8 -67q57 75 161 75q93 0 148 -58.5zM177 602h-59q0 61 29.5 98.5t76.5 37.5q25 0 42.5 -9t43.5 -29q18 -15 32 -23t30 -8q51 0 51 69h59
q0 -61 -29.5 -98.5t-76.5 -37.5q-25 0 -43 9.5t-42 28.5q-20 16 -33 23.5t-30 7.5q-51 0 -51 -69z" />
    <glyph glyph-name="ograve" unicode="&#xf2;" horiz-adv-x="622" 
d="M175 25.5q-60 33.5 -93.5 93.5t-33.5 136t33.5 136t93.5 93t136 33t136 -33.5t93.5 -93t33.5 -135.5q0 -77 -33.5 -136.5t-93.5 -93t-136 -33.5t-136 33.5zM408 87.5q43 24.5 67 68t24 99.5q0 55 -24 98.5t-67 68t-97 24.5t-97 -24.5t-67 -68t-24 -98.5q0 -56 24 -99.5
t67 -68t97 -24.5t97 24.5zM309 596l-133 153h98l113 -153h-78z" />
    <glyph glyph-name="oacute" unicode="&#xf3;" horiz-adv-x="622" 
d="M175 25.5q-60 33.5 -93.5 93.5t-33.5 136t33.5 136t93.5 93t136 33t136 -33.5t93.5 -93t33.5 -135.5q0 -77 -33.5 -136.5t-93.5 -93t-136 -33.5t-136 33.5zM408 87.5q43 24.5 67 68t24 99.5q0 55 -24 98.5t-67 68t-97 24.5t-97 -24.5t-67 -68t-24 -98.5q0 -56 24 -99.5
t67 -68t97 -24.5t97 24.5zM349 749h98l-133 -153h-78z" />
    <glyph glyph-name="ocircumflex" unicode="&#xf4;" horiz-adv-x="622" 
d="M175 25.5q-60 33.5 -93.5 93.5t-33.5 136t33.5 136t93.5 93t136 33t136 -33.5t93.5 -93t33.5 -135.5q0 -77 -33.5 -136.5t-93.5 -93t-136 -33.5t-136 33.5zM408 87.5q43 24.5 67 68t24 99.5q0 55 -24 98.5t-67 68t-97 24.5t-97 -24.5t-67 -68t-24 -98.5q0 -56 24 -99.5
t67 -68t97 -24.5t97 24.5zM390 596l-79 107l-79 -107h-81l113 153h94l113 -153h-81z" />
    <glyph glyph-name="otilde" unicode="&#xf5;" horiz-adv-x="622" 
d="M175 25.5q-60 33.5 -93.5 93.5t-33.5 136t33.5 136t93.5 93t136 33t136 -33.5t93.5 -93t33.5 -135.5q0 -77 -33.5 -136.5t-93.5 -93t-136 -33.5t-136 33.5zM408 87.5q43 24.5 67 68t24 99.5q0 55 -24 98.5t-67 68t-97 24.5t-97 -24.5t-67 -68t-24 -98.5q0 -56 24 -99.5
t67 -68t97 -24.5t97 24.5zM188 602h-59q0 61 29.5 98.5t76.5 37.5q25 0 42.5 -9t43.5 -29q18 -15 32 -23t30 -8q51 0 51 69h59q0 -61 -29.5 -98.5t-76.5 -37.5q-25 0 -43 9.5t-42 28.5q-20 16 -33 23.5t-30 7.5q-51 0 -51 -69z" />
    <glyph glyph-name="odieresis" unicode="&#xf6;" horiz-adv-x="622" 
d="M175 25.5q-60 33.5 -93.5 93.5t-33.5 136t33.5 136t93.5 93t136 33t136 -33.5t93.5 -93t33.5 -135.5q0 -77 -33.5 -136.5t-93.5 -93t-136 -33.5t-136 33.5zM408 87.5q43 24.5 67 68t24 99.5q0 55 -24 98.5t-67 68t-97 24.5t-97 -24.5t-67 -68t-24 -98.5q0 -56 24 -99.5
t67 -68t97 -24.5t97 24.5zM171.5 651.5q-14.5 14.5 -14.5 36.5t14.5 36.5t37.5 14.5q22 0 36.5 -14.5t14.5 -36.5t-14.5 -36.5t-36.5 -14.5q-23 0 -37.5 14.5zM378 651.5q-14 14.5 -14 36.5q0 23 14 37t37 14q22 0 36.5 -14t14.5 -37q0 -22 -14.5 -36.5t-36.5 -14.5
q-23 0 -37 14.5z" />
    <glyph glyph-name="divide" unicode="&#xf7;" horiz-adv-x="540" 
d="M235.5 440q-13.5 13 -13.5 34t13.5 34.5t34.5 13.5t34.5 -13.5t13.5 -34.5t-13.5 -34t-34.5 -13t-34.5 13zM62 338h417v-60h-417v60zM235.5 108q-13.5 13 -13.5 34t13.5 34.5t34.5 13.5t34.5 -13.5t13.5 -34.5t-13.5 -34t-34.5 -13t-34.5 13z" />
    <glyph glyph-name="oslash" unicode="&#xf8;" horiz-adv-x="622" 
d="M574 255q0 -77 -33.5 -136.5t-93.5 -93t-136 -33.5q-96 0 -165 52l-47 -47l-46 46l47 47q-52 69 -52 165q0 76 33.5 136t93.5 93t136 33q95 0 164 -52l48 48l46 -46l-47 -47q52 -69 52 -165zM154 144l268 268q-46 34 -111 34q-54 0 -97 -24.5t-67 -68t-24 -98.5
q0 -64 31 -111zM408 87.5q43 24.5 67 68t24 99.5q0 63 -31 111l-269 -269q46 -34 112 -34q54 0 97 24.5z" />
    <glyph glyph-name="ugrave" unicode="&#xf9;" horiz-adv-x="587" 
d="M179.5 19q-48.5 27 -75.5 77t-27 117v296h75v-288q0 -75 38 -116.5t103 -41.5q66 0 104 41t38 117v288h75v-296q0 -101 -59 -161t-158 -60q-65 0 -113.5 27zM291 596l-133 153h98l113 -153h-78z" />
    <glyph glyph-name="uacute" unicode="&#xfa;" horiz-adv-x="587" 
d="M179.5 19q-48.5 27 -75.5 77t-27 117v296h75v-288q0 -75 38 -116.5t103 -41.5q66 0 104 41t38 117v288h75v-296q0 -101 -59 -161t-158 -60q-65 0 -113.5 27zM331 749h98l-133 -153h-78z" />
    <glyph glyph-name="ucircumflex" unicode="&#xfb;" horiz-adv-x="587" 
d="M179.5 19q-48.5 27 -75.5 77t-27 117v296h75v-288q0 -75 38 -116.5t103 -41.5q66 0 104 41t38 117v288h75v-296q0 -101 -59 -161t-158 -60q-65 0 -113.5 27zM372 596l-79 107l-79 -107h-81l113 153h94l113 -153h-81z" />
    <glyph glyph-name="udieresis" unicode="&#xfc;" horiz-adv-x="587" 
d="M179.5 19q-48.5 27 -75.5 77t-27 117v296h75v-288q0 -75 38 -116.5t103 -41.5q66 0 104 41t38 117v288h75v-296q0 -101 -59 -161t-158 -60q-65 0 -113.5 27zM153.5 651.5q-14.5 14.5 -14.5 36.5t14.5 36.5t37.5 14.5q22 0 36.5 -14.5t14.5 -36.5t-14.5 -36.5t-36.5 -14.5
q-23 0 -37.5 14.5zM360 651.5q-14 14.5 -14 36.5q0 23 14 37t37 14q22 0 36.5 -14t14.5 -37q0 -22 -14.5 -36.5t-36.5 -14.5q-23 0 -37 14.5z" />
    <glyph glyph-name="yacute" unicode="&#xfd;" horiz-adv-x="528" 
d="M518 509l-213 -544q-39 -100 -90 -140.5t-132 -40.5q-22 0 -40 5l11 74q12 -3 28 -3q56 0 88.5 26.5t61.5 99.5l4 11l-226 512h83l183 -424l161 424h81zM302 749h98l-133 -153h-78z" />
    <glyph glyph-name="thorn" unicode="&#xfe;" horiz-adv-x="649" 
d="M479.5 483.5q57.5 -33.5 89.5 -93t32 -135.5t-32 -136t-89.5 -93.5t-130.5 -33.5q-59 0 -108 25.5t-79 69.5v-297h-75v970h75v-339q29 44 78 70t109 26q73 0 130.5 -33.5zM438 87.5q42 24.5 65 68t23 99.5t-23 99.5t-65 68t-95 24.5q-48 0 -89.5 -22.5t-66.5 -64.5
t-25 -99v-13q0 -57 25 -99t66.5 -64t89.5 -22q53 0 95 24.5z" />
    <glyph glyph-name="ydieresis" unicode="&#xff;" horiz-adv-x="528" 
d="M518 509l-213 -544q-39 -100 -90 -140.5t-132 -40.5q-22 0 -40 5l11 74q12 -3 28 -3q56 0 88.5 26.5t61.5 99.5l4 11l-226 512h83l183 -424l161 424h81zM123.5 651.5q-14.5 14.5 -14.5 36.5t14.5 36.5t37.5 14.5q22 0 36.5 -14.5t14.5 -36.5t-14.5 -36.5t-36.5 -14.5
q-23 0 -37.5 14.5zM330 651.5q-14 14.5 -14 36.5q0 23 14 37t37 14q22 0 36.5 -14t14.5 -37q0 -22 -14.5 -36.5t-36.5 -14.5q-23 0 -37 14.5z" />
    <glyph glyph-name="Amacron" unicode="&#x100;" horiz-adv-x="668" 
d="M490 216h-312l-85 -216h-83l275 690h97l276 -690h-84zM461 289l-127 327l-128 -327h255zM473 818v-67h-278v67h278z" />
    <glyph glyph-name="amacron" unicode="&#x101;" horiz-adv-x="649" 
d="M562 509v-509h-65l-9 79q-33 -41 -82 -64t-106 -23q-73 0 -130.5 33.5t-89.5 93.5t-32 136t32 135.5t89.5 93t130.5 33.5q57 0 106 -23t82 -64l9 79h65zM395.5 85q41.5 22 66.5 64t25 99v13q0 57 -25 99t-66.5 64.5t-89.5 22.5q-53 0 -95 -24.5t-65 -68t-23 -99.5
t23 -99.5t65 -68t95 -24.5q48 0 89.5 22zM444 701v-67h-278v67h278z" />
    <glyph glyph-name="Abreve" unicode="&#x102;" horiz-adv-x="668" 
d="M490 216h-312l-85 -216h-83l275 690h97l276 -690h-84zM461 289l-127 327l-128 -327h255zM231 757q-40 35 -40 89h61q0 -28 22 -44t60 -16q37 0 59.5 16.5t22.5 43.5h61q0 -54 -40.5 -89t-102.5 -35q-63 0 -103 35z" />
    <glyph glyph-name="abreve" unicode="&#x103;" horiz-adv-x="649" 
d="M562 509v-509h-65l-9 79q-33 -41 -82 -64t-106 -23q-73 0 -130.5 33.5t-89.5 93.5t-32 136t32 135.5t89.5 93t130.5 33.5q57 0 106 -23t82 -64l9 79h65zM395.5 85q41.5 22 66.5 64t25 99v13q0 57 -25 99t-66.5 64.5t-89.5 22.5q-53 0 -95 -24.5t-65 -68t-23 -99.5
t23 -99.5t65 -68t95 -24.5q48 0 89.5 22zM202 637q-40 44 -40 112h61q0 -43 22 -68t60 -25q37 0 59.5 25.5t22.5 67.5h61q0 -68 -40.5 -112t-102.5 -44q-63 0 -103 44z" />
    <glyph glyph-name="Aogonek" unicode="&#x104;" horiz-adv-x="668" 
d="M585.5 -65q-18.5 -26 -18.5 -52q0 -37 38 -37q26 0 46 14v-64q-25 -13 -63 -13q-47 0 -73 22t-26 64q0 34 19.5 63.5t65.5 67.5l-84 216h-312l-85 -216h-83l275 690h97l276 -690h-6q-48 -39 -66.5 -65zM461 289l-127 327l-128 -327h255z" />
    <glyph glyph-name="aogonek" unicode="&#x105;" horiz-adv-x="649" 
d="M495.5 -65q-18.5 -26 -18.5 -52q0 -37 38 -37q26 0 46 14v-64q-23 -13 -62 -13q-47 0 -73.5 22t-26.5 64q0 35 22 64.5t76 66.5l-10 85q-30 -43 -79 -68t-108 -25q-73 0 -130.5 33.5t-89.5 93.5t-32 136t32 135.5t89.5 93t130.5 33.5q59 0 108 -25t79 -68l10 85h65v-509
q-48 -39 -66.5 -65zM395.5 85q41.5 22 66.5 64t25 99v13q0 57 -25 99t-66.5 64.5t-89.5 22.5q-53 0 -95 -24.5t-65 -68t-23 -99.5t23 -99.5t65 -68t95 -24.5q48 0 89.5 22z" />
    <glyph glyph-name="Cacute" unicode="&#x106;" horiz-adv-x="699" 
d="M226.5 34.5q-81.5 45.5 -127.5 126.5t-46 184t46 184t127.5 126.5t185.5 45.5q155 0 252 -104l-55 -54q-82 83 -197 83q-81 0 -145 -35.5t-100 -99t-36 -146.5t36 -146.5t100 -99t145 -35.5q116 0 197 82l55 -53q-97 -104 -252 -104q-104 0 -185.5 45.5zM427 846h105
l-133 -119h-85z" />
    <glyph glyph-name="cacute" unicode="&#x107;" horiz-adv-x="516" 
d="M176 25.5q-60 33.5 -94 93.5t-34 136t34 135.5t94 93t137 33.5q116 0 187 -78l-52 -51q-54 58 -135 58q-55 0 -98 -24t-67.5 -67.5t-24.5 -99.5q0 -57 24.5 -100.5t67.5 -67.5t98 -24q81 0 135 58l52 -51q-71 -78 -187 -78q-77 0 -137 33.5zM326 749h98l-133 -153h-78z
" />
    <glyph glyph-name="Ccircumflex" unicode="&#x108;" horiz-adv-x="699" 
d="M226.5 34.5q-81.5 45.5 -127.5 126.5t-46 184t46 184t127.5 126.5t185.5 45.5q155 0 252 -104l-55 -54q-82 83 -197 83q-81 0 -145 -35.5t-100 -99t-36 -146.5t36 -146.5t100 -99t145 -35.5q116 0 197 82l55 -53q-97 -104 -252 -104q-104 0 -185.5 45.5zM469 727l-79 81
l-79 -81h-88l116 119h101l117 -119h-88z" />
    <glyph glyph-name="ccircumflex" unicode="&#x109;" horiz-adv-x="516" 
d="M176 25.5q-60 33.5 -94 93.5t-34 136t34 135.5t94 93t137 33.5q116 0 187 -78l-52 -51q-54 58 -135 58q-55 0 -98 -24t-67.5 -67.5t-24.5 -99.5q0 -57 24.5 -100.5t67.5 -67.5t98 -24q81 0 135 58l52 -51q-71 -78 -187 -78q-77 0 -137 33.5zM368 596l-79 107l-79 -107
h-81l113 153h94l113 -153h-81z" />
    <glyph glyph-name="Cdotaccent" unicode="&#x10a;" horiz-adv-x="699" 
d="M226.5 34.5q-81.5 45.5 -127.5 126.5t-46 184t46 184t127.5 126.5t185.5 45.5q155 0 252 -104l-55 -54q-82 83 -197 83q-81 0 -145 -35.5t-100 -99t-36 -146.5t36 -146.5t100 -99t145 -35.5q116 0 197 82l55 -53q-97 -104 -252 -104q-104 0 -185.5 45.5zM351.5 748.5
q-15.5 15.5 -15.5 38.5t15.5 38.5t38.5 15.5q24 0 39 -15.5t15 -38.5t-15 -38.5t-39 -15.5q-23 0 -38.5 15.5z" />
    <glyph glyph-name="cdotaccent" unicode="&#x10b;" horiz-adv-x="516" 
d="M176 25.5q-60 33.5 -94 93.5t-34 136t34 135.5t94 93t137 33.5q116 0 187 -78l-52 -51q-54 58 -135 58q-55 0 -98 -24t-67.5 -67.5t-24.5 -99.5q0 -57 24.5 -100.5t67.5 -67.5t98 -24q81 0 135 58l52 -51q-71 -78 -187 -78q-77 0 -137 33.5zM250.5 649.5
q-15.5 15.5 -15.5 38.5t15.5 38.5t38.5 15.5q24 0 39 -15.5t15 -38.5t-15 -38.5t-39 -15.5q-23 0 -38.5 15.5z" />
    <glyph glyph-name="Ccaron" unicode="&#x10c;" horiz-adv-x="699" 
d="M226.5 34.5q-81.5 45.5 -127.5 126.5t-46 184t46 184t127.5 126.5t185.5 45.5q155 0 252 -104l-55 -54q-82 83 -197 83q-81 0 -145 -35.5t-100 -99t-36 -146.5t36 -146.5t100 -99t145 -35.5q116 0 197 82l55 -53q-97 -104 -252 -104q-104 0 -185.5 45.5zM557 846
l-117 -119h-101l-116 119h88l79 -81l79 81h88z" />
    <glyph glyph-name="ccaron" unicode="&#x10d;" horiz-adv-x="516" 
d="M176 25.5q-60 33.5 -94 93.5t-34 136t34 135.5t94 93t137 33.5q116 0 187 -78l-52 -51q-54 58 -135 58q-55 0 -98 -24t-67.5 -67.5t-24.5 -99.5q0 -57 24.5 -100.5t67.5 -67.5t98 -24q81 0 135 58l52 -51q-71 -78 -187 -78q-77 0 -137 33.5zM449 749l-113 -153h-94
l-113 153h81l79 -107l79 107h81z" />
    <glyph glyph-name="Dcaron" unicode="&#x10e;" horiz-adv-x="718" 
d="M497.5 646q82.5 -44 125 -122t42.5 -179t-42.5 -179t-125 -122t-196.5 -44h-206v690h206q114 0 196.5 -44zM457.5 108.5q64.5 34.5 97 95.5t32.5 141t-32.5 141t-97 95.5t-156.5 34.5h-128v-542h128q92 0 156.5 34.5zM527 846l-117 -119h-101l-116 119h88l79 -81l79 81
h88z" />
    <glyph glyph-name="dcaron" unicode="&#x10f;" horiz-adv-x="649" 
d="M562 760v-760h-65l-10 89q-29 -45 -78 -71t-109 -26q-73 0 -130.5 33.5t-89.5 93.5t-32 136t32 135.5t89.5 93t130.5 33.5q59 0 108 -25.5t79 -69.5v338h75zM395.5 85q41.5 22 66.5 64t25 99v13q0 57 -25 99t-66.5 64.5t-89.5 22.5q-53 0 -95 -24.5t-65 -68t-23 -99.5
t23 -99.5t65 -68t95 -24.5q48 0 89.5 22zM739 760l-75 -196h-58l53 196h80z" />
    <glyph glyph-name="Dcroat" unicode="&#x110;" horiz-adv-x="718" 
d="M497.5 646q82.5 -44 125 -122t42.5 -179t-42.5 -179t-125 -122t-196.5 -44h-206v312h-95v67h95v311h206q114 0 196.5 -44zM457.5 108.5q64.5 34.5 97 95.5t32.5 141t-32.5 141t-97 95.5t-156.5 34.5h-128v-237h163v-67h-163v-238h128q92 0 156.5 34.5z" />
    <glyph glyph-name="dcroat" unicode="&#x111;" horiz-adv-x="649" 
d="M633 617h-71v-617h-65l-10 85q-30 -43 -79 -68t-108 -25q-73 0 -130.5 33.5t-89.5 93.5t-32 136t32 135.5t89.5 93t130.5 33.5q59 0 108 -25t79 -68v193h-183v64h183v79h75v-79h71v-64zM395.5 85q41.5 22 66.5 64t25 99v13q0 57 -25 99t-66.5 64.5t-89.5 22.5
q-53 0 -95 -24.5t-65 -68t-23 -99.5t23 -99.5t65 -68t95 -24.5q48 0 89.5 22z" />
    <glyph glyph-name="Emacron" unicode="&#x112;" horiz-adv-x="601" 
d="M173 617v-227h342v-73h-342v-244h379v-73h-457v690h457v-73h-379zM463 818v-67h-278v67h278z" />
    <glyph glyph-name="emacron" unicode="&#x113;" horiz-adv-x="586" 
d="M535 228h-411q9 -77 60.5 -123t128.5 -46q41 0 79.5 15.5t69.5 43.5l42 -56q-38 -34 -87.5 -52t-103.5 -18q-77 0 -137 33.5t-94 93.5t-34 136t31.5 136t88 93t127.5 33q70 0 125 -32t86 -89.5t31 -130.5q0 -25 -2 -37zM181.5 406.5q-46.5 -43.5 -57.5 -114.5h338
q-10 72 -55 115t-112 43t-113.5 -43.5zM432 701v-67h-278v67h278z" />
    <glyph glyph-name="Ebreve" unicode="&#x114;" horiz-adv-x="601" 
d="M173 617v-227h342v-73h-342v-244h379v-73h-457v690h457v-73h-379zM221 757q-40 35 -40 89h61q0 -28 22 -44t60 -16q37 0 59.5 16.5t22.5 43.5h61q0 -54 -40.5 -89t-102.5 -35q-63 0 -103 35z" />
    <glyph glyph-name="ebreve" unicode="&#x115;" horiz-adv-x="586" 
d="M535 228h-411q9 -77 60.5 -123t128.5 -46q41 0 79.5 15.5t69.5 43.5l42 -56q-38 -34 -87.5 -52t-103.5 -18q-77 0 -137 33.5t-94 93.5t-34 136t31.5 136t88 93t127.5 33q70 0 125 -32t86 -89.5t31 -130.5q0 -25 -2 -37zM181.5 406.5q-46.5 -43.5 -57.5 -114.5h338
q-10 72 -55 115t-112 43t-113.5 -43.5zM190 637q-40 44 -40 112h61q0 -43 22 -68t60 -25q37 0 59.5 25.5t22.5 67.5h61q0 -68 -40.5 -112t-102.5 -44q-63 0 -103 44z" />
    <glyph glyph-name="Edotaccent" unicode="&#x116;" horiz-adv-x="601" 
d="M173 617v-227h342v-73h-342v-244h379v-73h-457v690h457v-73h-379zM285.5 745.5q-15.5 15.5 -15.5 38.5q0 24 15.5 39t38.5 15q24 0 39 -15t15 -39q0 -23 -15 -38.5t-39 -15.5q-23 0 -38.5 15.5z" />
    <glyph glyph-name="edotaccent" unicode="&#x117;" horiz-adv-x="586" 
d="M535 228h-411q9 -77 60.5 -123t128.5 -46q41 0 79.5 15.5t69.5 43.5l42 -56q-38 -34 -87.5 -52t-103.5 -18q-77 0 -137 33.5t-94 93.5t-34 136t31.5 136t88 93t127.5 33q70 0 125 -32t86 -89.5t31 -130.5q0 -25 -2 -37zM181.5 406.5q-46.5 -43.5 -57.5 -114.5h338
q-10 72 -55 115t-112 43t-113.5 -43.5zM254.5 649.5q-15.5 15.5 -15.5 38.5t15.5 38.5t38.5 15.5q24 0 39 -15.5t15 -38.5t-15 -38.5t-39 -15.5q-23 0 -38.5 15.5z" />
    <glyph glyph-name="Eogonek" unicode="&#x118;" horiz-adv-x="601" 
d="M506 -154q26 0 46 14v-64q-25 -13 -63 -13q-47 0 -73 22t-26 64q0 34 19.5 63.5t65.5 67.5h-380v690h457v-73h-379v-227h342v-73h-342v-244h379v-73h1q-48 -39 -66.5 -65t-18.5 -52q0 -37 38 -37z" />
    <glyph glyph-name="eogonek" unicode="&#x119;" horiz-adv-x="586" 
d="M535 228h-411q9 -77 60.5 -123t128.5 -46q41 0 79.5 15.5t69.5 43.5l42 -56q-9 -8 -29 -22q-103 -86 -103 -155q0 -39 38 -39q26 0 46 14v-64q-25 -13 -63 -13q-47 0 -73 22t-26 64q0 30 16.5 61t55.5 67q-28 -5 -53 -5q-77 0 -137 33.5t-94 93.5t-34 136t31.5 136t88 93
t127.5 33q70 0 125 -32t86 -89.5t31 -130.5q0 -25 -2 -37zM181.5 406.5q-46.5 -43.5 -57.5 -114.5h338q-10 72 -55 115t-112 43t-113.5 -43.5z" />
    <glyph glyph-name="Ecaron" unicode="&#x11a;" horiz-adv-x="601" 
d="M173 617v-227h342v-73h-342v-244h379v-73h-457v690h457v-73h-379zM491 846l-117 -119h-101l-116 119h88l79 -81l79 81h88z" />
    <glyph glyph-name="ecaron" unicode="&#x11b;" horiz-adv-x="586" 
d="M535 228h-411q9 -77 60.5 -123t128.5 -46q41 0 79.5 15.5t69.5 43.5l42 -56q-38 -34 -87.5 -52t-103.5 -18q-77 0 -137 33.5t-94 93.5t-34 136t31.5 136t88 93t127.5 33q70 0 125 -32t86 -89.5t31 -130.5q0 -25 -2 -37zM181.5 406.5q-46.5 -43.5 -57.5 -114.5h338
q-10 72 -55 115t-112 43t-113.5 -43.5zM453 749l-113 -153h-94l-113 153h81l79 -107l79 107h81z" />
    <glyph glyph-name="Gcircumflex" unicode="&#x11c;" horiz-adv-x="810" 
d="M763 344q0 -104 -46 -184.5t-126.5 -125.5t-180.5 -45q-103 0 -184 45.5t-127 126.5t-46 184t46.5 184t128.5 126.5t186 45.5q154 0 251 -104l-54 -53q-81 84 -198 84q-81 0 -144.5 -35.5t-99.5 -100t-36 -147.5t35.5 -147.5t98.5 -100t143 -35.5q72 0 130 29t94.5 82.5
t45.5 125.5h-275v74h357q1 -10 1 -29zM485 727l-79 81l-79 -81h-88l116 119h101l117 -119h-88z" />
    <glyph glyph-name="gcircumflex" unicode="&#x11d;" horiz-adv-x="646" 
d="M559 509v-469q0 -122 -70 -190t-196 -68q-104 0 -193 48l31 67q45 -23 83.5 -33.5t78.5 -10.5q92 0 141.5 48.5t49.5 138.5v44q-32 -41 -80.5 -64t-105.5 -23q-73 0 -129.5 33.5t-88.5 92.5t-32 135q0 75 32 134t88.5 92t129.5 33q57 0 106 -23t81 -64l9 79h65zM394 90
q41 22 65.5 63.5t24.5 97.5v13q0 56 -24.5 97.5t-65.5 63.5t-88 22q-52 0 -93.5 -25t-65.5 -68t-24 -96t24 -96.5t65.5 -68.5t93.5 -25q47 0 88 22zM402 596l-79 107l-79 -107h-81l113 153h94l113 -153h-81z" />
    <glyph glyph-name="Gbreve" unicode="&#x11e;" horiz-adv-x="810" 
d="M763 344q0 -104 -46 -184.5t-126.5 -125.5t-180.5 -45q-103 0 -184 45.5t-127 126.5t-46 184t46.5 184t128.5 126.5t186 45.5q154 0 251 -104l-54 -53q-81 84 -198 84q-81 0 -144.5 -35.5t-99.5 -100t-36 -147.5t35.5 -147.5t98.5 -100t143 -35.5q72 0 130 29t94.5 82.5
t45.5 125.5h-275v74h357q1 -10 1 -29zM299 757q-40 35 -40 89h61q0 -28 22 -44t60 -16q37 0 59.5 16.5t22.5 43.5h61q0 -54 -40.5 -89t-102.5 -35q-63 0 -103 35z" />
    <glyph glyph-name="gbreve" unicode="&#x11f;" horiz-adv-x="646" 
d="M559 509v-469q0 -122 -70 -190t-196 -68q-104 0 -193 48l31 67q45 -23 83.5 -33.5t78.5 -10.5q92 0 141.5 48.5t49.5 138.5v44q-32 -41 -80.5 -64t-105.5 -23q-73 0 -129.5 33.5t-88.5 92.5t-32 135q0 75 32 134t88.5 92t129.5 33q57 0 106 -23t81 -64l9 79h65zM394 90
q41 22 65.5 63.5t24.5 97.5v13q0 56 -24.5 97.5t-65.5 63.5t-88 22q-52 0 -93.5 -25t-65.5 -68t-24 -96t24 -96.5t65.5 -68.5t93.5 -25q47 0 88 22zM221 637q-40 44 -40 112h61q0 -43 22 -68t60 -25q37 0 59.5 25.5t22.5 67.5h61q0 -68 -40.5 -112t-102.5 -44q-63 0 -103 44
z" />
    <glyph glyph-name="Gdotaccent" unicode="&#x120;" horiz-adv-x="810" 
d="M763 344q0 -104 -46 -184.5t-126.5 -125.5t-180.5 -45q-103 0 -184 45.5t-127 126.5t-46 184t46.5 184t128.5 126.5t186 45.5q154 0 251 -104l-54 -53q-81 84 -198 84q-81 0 -144.5 -35.5t-99.5 -100t-36 -147.5t35.5 -147.5t98.5 -100t143 -35.5q72 0 130 29t94.5 82.5
t45.5 125.5h-275v74h357q1 -10 1 -29zM367.5 748.5q-15.5 15.5 -15.5 38.5t15.5 38.5t38.5 15.5q24 0 39 -15.5t15 -38.5t-15 -38.5t-39 -15.5q-23 0 -38.5 15.5z" />
    <glyph glyph-name="gdotaccent" unicode="&#x121;" horiz-adv-x="646" 
d="M559 509v-469q0 -122 -70 -190t-196 -68q-104 0 -193 48l31 67q45 -23 83.5 -33.5t78.5 -10.5q92 0 141.5 48.5t49.5 138.5v44q-32 -41 -80.5 -64t-105.5 -23q-73 0 -129.5 33.5t-88.5 92.5t-32 135q0 75 32 134t88.5 92t129.5 33q57 0 106 -23t81 -64l9 79h65zM394 90
q41 22 65.5 63.5t24.5 97.5v13q0 56 -24.5 97.5t-65.5 63.5t-88 22q-52 0 -93.5 -25t-65.5 -68t-24 -96t24 -96.5t65.5 -68.5t93.5 -25q47 0 88 22zM284.5 649.5q-15.5 15.5 -15.5 38.5t15.5 38.5t38.5 15.5q24 0 39 -15.5t15 -38.5t-15 -38.5t-39 -15.5q-23 0 -38.5 15.5z
" />
    <glyph glyph-name="Gcommaaccent" unicode="&#x122;" horiz-adv-x="810" 
d="M763 344q0 -104 -46 -184.5t-126.5 -125.5t-180.5 -45q-103 0 -184 45.5t-127 126.5t-46 184t46.5 184t128.5 126.5t186 45.5q154 0 251 -104l-54 -53q-81 84 -198 84q-81 0 -144.5 -35.5t-99.5 -100t-36 -147.5t35.5 -147.5t98.5 -100t143 -35.5q72 0 130 29t94.5 82.5
t45.5 125.5h-275v74h357q1 -10 1 -29zM471 -50l-68 -150h-59l43 150h84z" />
    <glyph glyph-name="gcommaaccent" unicode="&#x123;" horiz-adv-x="646" 
d="M559 509v-469q0 -122 -70 -190t-196 -68q-104 0 -193 48l31 67q45 -23 83.5 -33.5t78.5 -10.5q92 0 141.5 48.5t49.5 138.5v44q-32 -41 -80.5 -64t-105.5 -23q-73 0 -129.5 33.5t-88.5 92.5t-32 135q0 75 32 134t88.5 92t129.5 33q57 0 106 -23t81 -64l9 79h65zM394 90
q41 22 65.5 63.5t24.5 97.5v13q0 56 -24.5 97.5t-65.5 63.5t-88 22q-52 0 -93.5 -25t-65.5 -68t-24 -96t24 -96.5t65.5 -68.5t93.5 -25q47 0 88 22zM260 599l70 150h57l-44 -150h-83z" />
    <glyph glyph-name="Hcircumflex" unicode="&#x124;" horiz-adv-x="743" 
d="M648 690v-690h-78v314h-397v-314h-78v690h78v-302h397v302h78zM450 727l-79 81l-79 -81h-88l116 119h101l117 -119h-88z" />
    <glyph glyph-name="hcircumflex" unicode="&#x125;" horiz-adv-x="601" 
d="M217 727h-88l116 119h101l117 -119h-88l-79 81zM469 458.5q55 -58.5 55 -157.5v-301h-75v294q0 75 -35 113.5t-98 38.5q-71 0 -112.5 -46.5t-41.5 -136.5v-263h-75v690h75v-246q56 73 159 73q93 0 148 -58.5z" />
    <glyph glyph-name="Hbar" unicode="&#x126;" horiz-adv-x="810" 
d="M745 563h-64v-563h-78v314h-396v-314h-78v563h-64v55h64v72h78v-72h396v72h78v-72h64v-55zM603 563h-396v-175h396v175z" />
    <glyph glyph-name="hbar" unicode="&#x127;" horiz-adv-x="601" 
d="M469 458.5q55 -58.5 55 -157.5v-301h-75v294q0 75 -35 113.5t-98 38.5q-71 0 -112.5 -46.5t-41.5 -136.5v-263h-75v617h-74v64h74v79h75v-79h181v-64h-181v-173q56 73 159 73q93 0 148 -58.5z" />
    <glyph glyph-name="Itilde" unicode="&#x128;" horiz-adv-x="268" 
d="M95 0v690h78v-690h-78zM11 722h-59q0 57 29.5 91.5t76.5 34.5q25 0 43 -8t43 -25q19 -13 32.5 -19.5t29.5 -6.5q51 0 51 59h59q0 -57 -29.5 -91.5t-76.5 -34.5q-25 0 -43.5 8.5t-41.5 24.5q-21 14 -34 20t-29 6q-51 0 -51 -59z" />
    <glyph glyph-name="itilde" unicode="&#x129;" horiz-adv-x="249" 
d="M162 509v-509h-75v509h75zM34 602h-55q0 56 23.5 90.5t61.5 34.5q19 0 34 -8.5t35 -25.5q16 -13 26 -19t21 -6q35 0 35 59h55q0 -56 -23.5 -90.5t-61.5 -34.5q-19 0 -34.5 8.5t-35.5 24.5q-15 13 -24.5 19t-20.5 6q-36 0 -36 -58z" />
    <glyph glyph-name="Imacron" unicode="&#x12a;" horiz-adv-x="268" 
d="M95 0v690h78v-690h-78zM273 818v-67h-278v67h278z" />
    <glyph glyph-name="imacron" unicode="&#x12b;" horiz-adv-x="249" 
d="M162 509v-509h-75v509h75zM239 700v-66h-231v66h231z" />
    <glyph glyph-name="Ibreve" unicode="&#x12c;" horiz-adv-x="268" 
d="M95 0v690h78v-690h-78zM31 757q-40 35 -40 89h61q0 -28 22 -44t60 -16q37 0 59.5 16.5t22.5 43.5h61q0 -54 -40.5 -89t-102.5 -35q-63 0 -103 35z" />
    <glyph glyph-name="ibreve" unicode="&#x12d;" horiz-adv-x="249" 
d="M162 509v-509h-75v509h75zM35.5 632.5q-33.5 40.5 -33.5 116.5h61q0 -47 16.5 -70t45.5 -23t45.5 23.5t16.5 69.5h61q0 -76 -34 -116.5t-89 -40.5q-56 0 -89.5 40.5z" />
    <glyph glyph-name="Iogonek" unicode="&#x12e;" horiz-adv-x="268" 
d="M192 -140v-64q-25 -13 -62 -13q-47 0 -73.5 22t-26.5 64q0 34 14.5 63.5t50.5 67.5v690h78v-690q-36 -39 -50.5 -65t-14.5 -52q0 -37 38 -37q26 0 46 14z" />
    <glyph glyph-name="iogonek" unicode="&#x12f;" horiz-adv-x="249" 
d="M84 649.5q-15 15.5 -15 38.5t15 38.5t39 15.5q23 0 38.5 -15.5t15.5 -38.5t-15.5 -38.5t-38.5 -15.5q-24 0 -39 15.5zM181 -140v-64q-23 -13 -62 -13q-47 0 -73.5 22t-26.5 64q0 34 15.5 63.5t52.5 67.5v509h75v-509q-36 -39 -50.5 -65t-14.5 -52q0 -37 38 -37
q26 0 46 14z" />
    <glyph glyph-name="Idotaccent" unicode="&#x130;" horiz-adv-x="268" 
d="M95 0v690h78v-690h-78zM95.5 745.5q-15.5 15.5 -15.5 38.5q0 24 15.5 39t38.5 15q24 0 39 -15t15 -39q0 -23 -15 -38.5t-39 -15.5q-23 0 -38.5 15.5z" />
    <glyph glyph-name="dotlessi" unicode="&#x131;" horiz-adv-x="249" 
d="M162 509v-509h-75v509h75z" />
    <glyph glyph-name="IJ" unicode="&#x132;" horiz-adv-x="694" 
d="M95 0v690h78v-690h-78zM381 66q140 0 140 171v453h78v-458q0 -112 -57 -176t-158 -64q-71 0 -119 34l38 63q35 -23 78 -23z" />
    <glyph glyph-name="ij" unicode="&#x133;" horiz-adv-x="498" 
d="M162 509v-509h-75v509h75zM85.5 649.5q-15.5 15.5 -15.5 38.5t15.5 38.5t38.5 15.5q24 0 39 -15.5t15 -38.5t-15 -38.5t-39 -15.5q-23 0 -38.5 15.5zM248 -147q88 0 88 99v557h75v-559q0 -78 -42.5 -123t-117.5 -45q-35 0 -67 12l23 66q18 -7 41 -7zM334.5 649.5
q-15.5 15.5 -15.5 38.5t15.5 38.5t38.5 15.5q24 0 39 -15.5t15 -38.5t-15 -38.5t-39 -15.5q-23 0 -38.5 15.5z" />
    <glyph glyph-name="Jcircumflex" unicode="&#x134;" horiz-adv-x="426" 
d="M113 66q140 0 140 171v453h78v-458q0 -112 -57 -176t-158 -64q-71 0 -119 34l38 63q35 -23 78 -23zM371 727l-79 81l-79 -81h-88l116 119h101l117 -119h-88z" />
    <glyph glyph-name="jcircumflex" unicode="&#x135;" horiz-adv-x="249" 
d="M-1 -147q88 0 88 99v557h75v-559q0 -78 -42.5 -123t-117.5 -45q-35 0 -67 12l23 66q18 -7 41 -7zM186 596l-62 103l-63 -103h-70l92 153h81l92 -153h-70z" />
    <glyph glyph-name="Kcommaaccent" unicode="&#x136;" horiz-adv-x="630" 
d="M244 313h-71v-313h-78v690h78v-302h71l277 302h103l-312 -338l328 -352h-107zM395 -50l-68 -150h-59l43 150h84z" />
    <glyph glyph-name="kcommaaccent" unicode="&#x137;" horiz-adv-x="531" 
d="M219 224h-57v-224h-75v760h75v-467h53l204 216h102l-237 -248l257 -261h-104zM331 -50l-68 -150h-59l43 150h84z" />
    <glyph glyph-name="kgreenlandic" unicode="&#x138;" horiz-adv-x="531" 
d="M219 224h-57v-224h-75v509h75v-216h53l204 216h102l-237 -248l257 -261h-104z" />
    <glyph glyph-name="Lacute" unicode="&#x139;" horiz-adv-x="526" 
d="M95 690h78v-616h343v-74h-421v690zM234 846h105l-133 -119h-85z" />
    <glyph glyph-name="lacute" unicode="&#x13a;" horiz-adv-x="249" 
d="M162 846h105l-133 -119h-85zM87 0v690h75v-690h-75z" />
    <glyph glyph-name="Lcommaaccent" unicode="&#x13b;" horiz-adv-x="526" 
d="M95 690h78v-616h343v-74h-421v690zM371 -50l-68 -150h-59l43 150h84z" />
    <glyph glyph-name="lcommaaccent" unicode="&#x13c;" horiz-adv-x="249" 
d="M87 0v760h75v-760h-75zM190 -50l-68 -150h-59l43 150h84z" />
    <glyph glyph-name="Lcaron" unicode="&#x13d;" horiz-adv-x="526" 
d="M95 690h78v-616h343v-74h-421v690zM370 690l-75 -196h-58l53 196h80z" />
    <glyph glyph-name="lcaron" unicode="&#x13e;" horiz-adv-x="249" 
d="M87 0v760h75v-760h-75zM339 760l-75 -196h-58l53 196h80z" />
    <glyph glyph-name="Ldot" unicode="&#x13f;" horiz-adv-x="526" 
d="M95 690h78v-616h343v-74h-421v690zM352.5 364.5q-17.5 17.5 -17.5 45.5q0 27 17.5 44.5t44.5 17.5t44.5 -17.5t17.5 -44.5q0 -28 -17.5 -45.5t-44.5 -17.5t-44.5 17.5z" />
    <glyph glyph-name="ldot" unicode="&#x140;" horiz-adv-x="363" 
d="M87 0v760h75v-760h-75zM261.5 291.5q-17.5 17.5 -17.5 45.5q0 27 17.5 44.5t44.5 17.5t44.5 -17.5t17.5 -44.5q0 -28 -17.5 -45.5t-44.5 -17.5t-44.5 17.5z" />
    <glyph glyph-name="Lslash" unicode="&#x141;" horiz-adv-x="526" 
d="M516 74v-74h-421v284l-98 -65v85l98 65v321h78v-281l167 112v-85l-167 -112v-250h343z" />
    <glyph glyph-name="lslash" unicode="&#x142;" horiz-adv-x="292" 
d="M284 423l-100 -66v-357h-75v319l-101 -67v85l101 67v356h75v-318l100 66v-85z" />
    <glyph glyph-name="Nacute" unicode="&#x143;" horiz-adv-x="773" 
d="M678 690v-690h-91l-414 577v-577h-78v690h90l415 -578v578h78zM424 846h105l-133 -119h-85z" />
    <glyph glyph-name="nacute" unicode="&#x144;" horiz-adv-x="601" 
d="M469 458.5q55 -58.5 55 -157.5v-301h-75v294q0 75 -35 113.5t-98 38.5q-71 0 -112.5 -46.5t-41.5 -136.5v-263h-75v509h65l8 -67q57 75 161 75q93 0 148 -58.5zM338 749h98l-133 -153h-78z" />
    <glyph glyph-name="Ncommaaccent" unicode="&#x145;" horiz-adv-x="773" 
d="M678 690v-690h-91l-414 577v-577h-78v690h90l415 -578v578h78zM452 -50l-68 -150h-59l43 150h84z" />
    <glyph glyph-name="ncommaaccent" unicode="&#x146;" horiz-adv-x="601" 
d="M469 458.5q55 -58.5 55 -157.5v-301h-75v294q0 75 -35 113.5t-98 38.5q-71 0 -112.5 -46.5t-41.5 -136.5v-263h-75v509h65l8 -67q57 75 161 75q93 0 148 -58.5zM366 -50l-68 -150h-59l43 150h84z" />
    <glyph glyph-name="Ncaron" unicode="&#x147;" horiz-adv-x="773" 
d="M678 690v-690h-91l-414 577v-577h-78v690h90l415 -578v578h78zM553 846l-117 -119h-101l-116 119h88l79 -81l79 81h88z" />
    <glyph glyph-name="ncaron" unicode="&#x148;" horiz-adv-x="601" 
d="M469 458.5q55 -58.5 55 -157.5v-301h-75v294q0 75 -35 113.5t-98 38.5q-71 0 -112.5 -46.5t-41.5 -136.5v-263h-75v509h65l8 -67q57 75 161 75q93 0 148 -58.5zM460 749l-113 -153h-94l-113 153h81l79 -107l79 107h81z" />
    <glyph glyph-name="napostrophe" unicode="&#x149;" horiz-adv-x="601" 
d="M469 458.5q55 -58.5 55 -157.5v-301h-75v294q0 75 -35 113.5t-98 38.5q-71 0 -112.5 -46.5t-41.5 -136.5v-263h-75v509h65l8 -67q57 75 161 75q93 0 148 -58.5zM0 690l-104 -250h-55l73 250h86z" />
    <glyph glyph-name="Eng" unicode="&#x14a;" horiz-adv-x="773" 
d="M678 690v-690q-2 -103 -57 -161t-153 -58q-56 0 -93 22l31 66q25 -14 59 -14q130 0 135 145l-427 577v-577h-78v690h90l415 -561v561h78z" />
    <glyph glyph-name="eng" unicode="&#x14b;" horiz-adv-x="601" 
d="M469 458.5q55 -58.5 55 -157.5v-353q0 -78 -41.5 -122t-115.5 -44q-37 0 -67 12l23 66q18 -7 40 -7q86 0 86 96v345q0 75 -35 113.5t-98 38.5q-71 0 -112.5 -46.5t-41.5 -136.5v-263h-75v509h65l8 -67q57 75 161 75q93 0 148 -58.5z" />
    <glyph glyph-name="Omacron" unicode="&#x14c;" horiz-adv-x="815" 
d="M225 35.5q-81 45.5 -126.5 126.5t-45.5 183t45.5 182.5t126.5 126t183 45.5t182.5 -45.5t126 -126t45.5 -182.5t-45.5 -183t-126 -126.5t-182.5 -45.5t-183 45.5zM550 100q63 36 98.5 100t35.5 145t-35.5 144.5t-98.5 99.5t-142 36t-142 -36t-99 -99.5t-36 -144.5
t36 -145t99 -100t142 -36t142 36zM547 818v-67h-278v67h278z" />
    <glyph glyph-name="omacron" unicode="&#x14d;" horiz-adv-x="622" 
d="M175 25.5q-60 33.5 -93.5 93.5t-33.5 136t33.5 136t93.5 93t136 33t136 -33.5t93.5 -93t33.5 -135.5q0 -77 -33.5 -136.5t-93.5 -93t-136 -33.5t-136 33.5zM408 87.5q43 24.5 67 68t24 99.5q0 55 -24 98.5t-67 68t-97 24.5t-97 -24.5t-67 -68t-24 -98.5q0 -56 24 -99.5
t67 -68t97 -24.5t97 24.5zM450 701v-67h-278v67h278z" />
    <glyph glyph-name="Obreve" unicode="&#x14e;" horiz-adv-x="815" 
d="M225 35.5q-81 45.5 -126.5 126.5t-45.5 183t45.5 182.5t126.5 126t183 45.5t182.5 -45.5t126 -126t45.5 -182.5t-45.5 -183t-126 -126.5t-182.5 -45.5t-183 45.5zM550 100q63 36 98.5 100t35.5 145t-35.5 144.5t-98.5 99.5t-142 36t-142 -36t-99 -99.5t-36 -144.5
t36 -145t99 -100t142 -36t142 36zM299 757q-40 35 -40 89h61q0 -28 22 -44t60 -16q37 0 59.5 16.5t22.5 43.5h61q0 -54 -40.5 -89t-102.5 -35q-63 0 -103 35z" />
    <glyph glyph-name="obreve" unicode="&#x14f;" horiz-adv-x="622" 
d="M175 25.5q-60 33.5 -93.5 93.5t-33.5 136t33.5 136t93.5 93t136 33t136 -33.5t93.5 -93t33.5 -135.5q0 -77 -33.5 -136.5t-93.5 -93t-136 -33.5t-136 33.5zM408 87.5q43 24.5 67 68t24 99.5q0 55 -24 98.5t-67 68t-97 24.5t-97 -24.5t-67 -68t-24 -98.5q0 -56 24 -99.5
t67 -68t97 -24.5t97 24.5zM208 637q-40 44 -40 112h61q0 -43 22 -68t60 -25q37 0 59.5 25.5t22.5 67.5h61q0 -68 -40.5 -112t-102.5 -44q-63 0 -103 44z" />
    <glyph glyph-name="Ohungarumlaut" unicode="&#x150;" horiz-adv-x="815" 
d="M225 35.5q-81 45.5 -126.5 126.5t-45.5 183t45.5 182.5t126.5 126t183 45.5t182.5 -45.5t126 -126t45.5 -182.5t-45.5 -183t-126 -126.5t-182.5 -45.5t-183 45.5zM550 100q63 36 98.5 100t35.5 145t-35.5 144.5t-98.5 99.5t-142 36t-142 -36t-99 -99.5t-36 -144.5
t36 -145t99 -100t142 -36t142 36zM413 868h91l-133 -153h-71zM559 868h91l-133 -153h-71z" />
    <glyph glyph-name="ohungarumlaut" unicode="&#x151;" horiz-adv-x="622" 
d="M175 25.5q-60 33.5 -93.5 93.5t-33.5 136t33.5 136t93.5 93t136 33t136 -33.5t93.5 -93t33.5 -135.5q0 -77 -33.5 -136.5t-93.5 -93t-136 -33.5t-136 33.5zM408 87.5q43 24.5 67 68t24 99.5q0 55 -24 98.5t-67 68t-97 24.5t-97 -24.5t-67 -68t-24 -98.5q0 -56 24 -99.5
t67 -68t97 -24.5t97 24.5zM289 749h91l-133 -153h-71zM435 749h91l-133 -153h-71z" />
    <glyph glyph-name="OE" unicode="&#x152;" horiz-adv-x="1093" 
d="M715 617v-227h292v-73h-292v-244h329v-73h-407v130q-40 -66 -106.5 -103t-152.5 -37q-92 0 -166.5 45.5t-116.5 126.5t-42 183t42 182.5t116 126t167 45.5q85 0 151.5 -36.5t107.5 -102.5v130h407v-73h-329zM517.5 100q57.5 36 88.5 99.5t31 145.5t-31 145.5t-88.5 99
t-133.5 35.5q-72 0 -130 -36t-90.5 -99.5t-32.5 -144.5t32.5 -145t90.5 -100t130 -36q76 0 133.5 36z" />
    <glyph glyph-name="oe" unicode="&#x153;" horiz-adv-x="968" 
d="M917 228h-376q7 -76 54.5 -121.5t117.5 -45.5q74 0 131 57l42 -56q-35 -34 -79.5 -52t-93.5 -18q-71 0 -126.5 36t-84.5 99q-28 -63 -82.5 -99t-125.5 -36t-127 33.5t-87.5 93.5t-31.5 136t31.5 136t87.5 93t127 33q70 0 124 -35t83 -97q27 61 77.5 96.5t115.5 35.5
t116.5 -32t80.5 -89.5t29 -130.5q0 -19 -3 -37zM592 405.5q-42 -43.5 -51 -113.5h303q-9 72 -49.5 114.5t-100.5 42.5t-102 -43.5zM381.5 87.5q38.5 24.5 60.5 68t22 99.5q0 55 -22 98.5t-60.5 68t-87.5 24.5t-88 -24.5t-61 -68t-22 -98.5q0 -56 22 -99.5t61 -68t88 -24.5
t87.5 24.5z" />
    <glyph glyph-name="Racute" unicode="&#x154;" horiz-adv-x="634" 
d="M504 0l-196 275h-135v-275h-78v690h245q110 0 174 -56t64 -152q0 -81 -47.5 -134.5t-131.5 -67.5l200 -280h-95zM173 346h166q78 0 119.5 35.5t41.5 100.5q0 66 -41 100.5t-120 34.5h-166v-271zM354 846h105l-133 -119h-85z" />
    <glyph glyph-name="racute" unicode="&#x155;" horiz-adv-x="376" 
d="M356 511v-79q-30 10 -62 10q-60 0 -96 -36t-36 -106v-300h-75v509h65l8 -60q28 35 62.5 51.5t78.5 16.5q28 0 55 -6zM260 749h98l-133 -153h-78z" />
    <glyph glyph-name="Rcommaaccent" unicode="&#x156;" horiz-adv-x="634" 
d="M504 0l-196 275h-135v-275h-78v690h245q110 0 174 -56t64 -152q0 -81 -47.5 -134.5t-131.5 -67.5l200 -280h-95zM173 346h166q78 0 119.5 35.5t41.5 100.5q0 66 -41 100.5t-120 34.5h-166v-271zM382 -50l-68 -150h-59l43 150h84z" />
    <glyph glyph-name="rcommaaccent" unicode="&#x157;" horiz-adv-x="376" 
d="M356 511v-79q-30 10 -62 10q-60 0 -96 -36t-36 -106v-300h-75v509h65l8 -60q28 35 62.5 51.5t78.5 16.5q28 0 55 -6zM190 -50l-68 -150h-59l43 150h84z" />
    <glyph glyph-name="Rcaron" unicode="&#x158;" horiz-adv-x="634" 
d="M504 0l-196 275h-135v-275h-78v690h245q110 0 174 -56t64 -152q0 -81 -47.5 -134.5t-131.5 -67.5l200 -280h-95zM173 346h166q78 0 119.5 35.5t41.5 100.5q0 66 -41 100.5t-120 34.5h-166v-271zM484 846l-117 -119h-101l-116 119h88l79 -81l79 81h88z" />
    <glyph glyph-name="rcaron" unicode="&#x159;" horiz-adv-x="376" 
d="M356 511v-79q-30 10 -62 10q-60 0 -96 -36t-36 -106v-300h-75v509h65l8 -60q28 35 62.5 51.5t78.5 16.5q28 0 55 -6zM382 749l-113 -153h-94l-113 153h81l79 -107l79 107h81z" />
    <glyph glyph-name="Sacute" unicode="&#x15a;" horiz-adv-x="594" 
d="M86 124q86 -60 193 -60q85 0 130.5 33t45.5 89q0 38 -23 62.5t-58 37.5t-94 29q-72 20 -115.5 38t-74 55t-30.5 97q0 57 30 101.5t84 69t125 24.5q62 0 121 -19.5t106 -56.5l-43 -66q-86 68 -185 68q-74 0 -116.5 -33t-42.5 -84q0 -35 22 -57.5t55 -35t91 -28.5
q72 -20 117 -39t77 -57.5t32 -101.5q0 -59 -31.5 -104.5t-90 -71t-134.5 -25.5q-64 0 -124.5 17.5t-105.5 50.5zM335 846h105l-133 -119h-85z" />
    <glyph glyph-name="sacute" unicode="&#x15b;" horiz-adv-x="458" 
d="M77 104q61 -45 137 -45q57 0 87.5 21.5t30.5 57.5q0 25 -15.5 41t-38.5 25t-65 22q-52 15 -84.5 29t-55 42t-22.5 74q0 65 50 105.5t131 40.5q47 0 90.5 -14t79.5 -42l-39 -59q-63 48 -134 48q-48 0 -75.5 -21t-27.5 -54t27.5 -48.5t86.5 -32.5q54 -16 87 -30.5
t56.5 -43.5t23.5 -77q0 -67 -53 -109t-141 -42q-47 0 -92 13t-80 36zM267 749h98l-133 -153h-78z" />
    <glyph glyph-name="Scircumflex" unicode="&#x15c;" horiz-adv-x="594" 
d="M86 124q86 -60 193 -60q85 0 130.5 33t45.5 89q0 38 -23 62.5t-58 37.5t-94 29q-72 20 -115.5 38t-74 55t-30.5 97q0 57 30 101.5t84 69t125 24.5q62 0 121 -19.5t106 -56.5l-43 -66q-86 68 -185 68q-74 0 -116.5 -33t-42.5 -84q0 -35 22 -57.5t55 -35t91 -28.5
q72 -20 117 -39t77 -57.5t32 -101.5q0 -59 -31.5 -104.5t-90 -71t-134.5 -25.5q-64 0 -124.5 17.5t-105.5 50.5zM376 727l-79 81l-79 -81h-88l116 119h101l117 -119h-88z" />
    <glyph glyph-name="scircumflex" unicode="&#x15d;" horiz-adv-x="458" 
d="M77 104q61 -45 137 -45q57 0 87.5 21.5t30.5 57.5q0 25 -15.5 41t-38.5 25t-65 22q-52 15 -84.5 29t-55 42t-22.5 74q0 65 50 105.5t131 40.5q47 0 90.5 -14t79.5 -42l-39 -59q-63 48 -134 48q-48 0 -75.5 -21t-27.5 -54t27.5 -48.5t86.5 -32.5q54 -16 87 -30.5
t56.5 -43.5t23.5 -77q0 -67 -53 -109t-141 -42q-47 0 -92 13t-80 36zM308 596l-79 107l-79 -107h-81l113 153h94l113 -153h-81z" />
    <glyph glyph-name="Scedilla" unicode="&#x15e;" horiz-adv-x="594" 
d="M86 124q86 -60 193 -60q85 0 130.5 33t45.5 89q0 38 -23 62.5t-58 37.5t-94 29q-72 20 -115.5 38t-74 55t-30.5 97q0 57 30 101.5t84 69t125 24.5q62 0 121 -19.5t106 -56.5l-43 -66q-86 68 -185 68q-74 0 -116.5 -33t-42.5 -84q0 -35 22 -57.5t55 -35t91 -28.5
q72 -20 117 -39t77 -57.5t32 -101.5q0 -59 -31.5 -104.5t-90 -71t-134.5 -25.5q-64 0 -124.5 17.5t-105.5 50.5zM362 -50l-68 -150h-59l43 150h84z" />
    <glyph glyph-name="scedilla" unicode="&#x15f;" horiz-adv-x="458" 
d="M77 104q61 -45 137 -45q57 0 87.5 21.5t30.5 57.5q0 25 -15.5 41t-38.5 25t-65 22q-52 15 -84.5 29t-55 42t-22.5 74q0 65 50 105.5t131 40.5q47 0 90.5 -14t79.5 -42l-39 -59q-63 48 -134 48q-48 0 -75.5 -21t-27.5 -54t27.5 -48.5t86.5 -32.5q54 -16 87 -30.5
t56.5 -43.5t23.5 -77q0 -67 -53 -109t-141 -42q-47 0 -92 13t-80 36zM294 -50l-68 -150h-59l43 150h84z" />
    <glyph glyph-name="Scaron" unicode="&#x160;" horiz-adv-x="594" 
d="M86 124q86 -60 193 -60q85 0 130.5 33t45.5 89q0 38 -23 62.5t-58 37.5t-94 29q-72 20 -115.5 38t-74 55t-30.5 97q0 57 30 101.5t84 69t125 24.5q62 0 121 -19.5t106 -56.5l-43 -66q-86 68 -185 68q-74 0 -116.5 -33t-42.5 -84q0 -35 22 -57.5t55 -35t91 -28.5
q72 -20 117 -39t77 -57.5t32 -101.5q0 -59 -31.5 -104.5t-90 -71t-134.5 -25.5q-64 0 -124.5 17.5t-105.5 50.5zM464 846l-117 -119h-101l-116 119h88l79 -81l79 81h88z" />
    <glyph glyph-name="scaron" unicode="&#x161;" horiz-adv-x="458" 
d="M77 104q61 -45 137 -45q57 0 87.5 21.5t30.5 57.5q0 25 -15.5 41t-38.5 25t-65 22q-52 15 -84.5 29t-55 42t-22.5 74q0 65 50 105.5t131 40.5q47 0 90.5 -14t79.5 -42l-39 -59q-63 48 -134 48q-48 0 -75.5 -21t-27.5 -54t27.5 -48.5t86.5 -32.5q54 -16 87 -30.5
t56.5 -43.5t23.5 -77q0 -67 -53 -109t-141 -42q-47 0 -92 13t-80 36zM389 749l-113 -153h-94l-113 153h81l79 -107l79 107h81z" />
    <glyph glyph-name="uni0162" unicode="&#x162;" horiz-adv-x="607" 
d="M597 617h-254v-617h-79v617h-254v73h587v-73zM369 -50l-68 -150h-59l43 150h84z" />
    <glyph glyph-name="uni0163" unicode="&#x163;" horiz-adv-x="408" 
d="M397 26q-60 -34 -127 -34q-74 0 -116.5 44.5t-42.5 122.5v281h-91v69h91v147h75v-147h196v-69h-196v-273q0 -52 22 -78t69 -26q48 0 93 27zM319 -50l-68 -150h-59l43 150h84z" />
    <glyph glyph-name="Tcaron" unicode="&#x164;" horiz-adv-x="607" 
d="M597 617h-254v-617h-79v617h-254v73h587v-73zM471 846l-117 -119h-101l-116 119h88l79 -81l79 81h88z" />
    <glyph glyph-name="tcaron" unicode="&#x165;" horiz-adv-x="408" 
d="M397 26q-60 -34 -127 -34q-74 0 -116.5 44.5t-42.5 122.5v281h-91v69h91v147h75v-147h196v-69h-196v-273q0 -52 22 -78t69 -26q48 0 93 27zM370 760l-75 -196h-58l53 196h80z" />
    <glyph glyph-name="Tbar" unicode="&#x166;" horiz-adv-x="607" 
d="M343 617v-251h128v-67h-128v-299h-79v299h-129v67h129v251h-254v73h587v-73h-254z" />
    <glyph glyph-name="tbar" unicode="&#x167;" horiz-adv-x="408" 
d="M397 26q-60 -34 -127 -34q-74 0 -116.5 44.5t-42.5 122.5v74h-80v64h80v143h-91v69h91v147h75v-147h196v-69h-196v-143h175v-64h-175v-66q0 -52 22 -78t69 -26q48 0 93 27z" />
    <glyph glyph-name="Utilde" unicode="&#x168;" horiz-adv-x="722" 
d="M217 25q-62 35 -96 100t-34 151v414h78v-408q0 -104 52.5 -161.5t142.5 -57.5q91 0 144 57.5t53 161.5v408h78v-414q0 -86 -34 -151t-96.5 -100t-144.5 -35q-81 0 -143 35zM238 722h-59q0 57 29.5 91.5t76.5 34.5q25 0 43 -8t43 -25q19 -13 32.5 -19.5t29.5 -6.5
q51 0 51 59h59q0 -57 -29.5 -91.5t-76.5 -34.5q-25 0 -43.5 8.5t-41.5 24.5q-21 14 -34 20t-29 6q-51 0 -51 -59z" />
    <glyph glyph-name="utilde" unicode="&#x169;" horiz-adv-x="587" 
d="M179.5 19q-48.5 27 -75.5 77t-27 117v296h75v-288q0 -75 38 -116.5t103 -41.5q66 0 104 41t38 117v288h75v-296q0 -101 -59 -161t-158 -60q-65 0 -113.5 27zM170 602h-59q0 61 29.5 98.5t76.5 37.5q25 0 42.5 -9t43.5 -29q18 -15 32 -23t30 -8q51 0 51 69h59
q0 -61 -29.5 -98.5t-76.5 -37.5q-25 0 -43 9.5t-42 28.5q-20 16 -33 23.5t-30 7.5q-51 0 -51 -69z" />
    <glyph glyph-name="Umacron" unicode="&#x16a;" horiz-adv-x="722" 
d="M217 25q-62 35 -96 100t-34 151v414h78v-408q0 -104 52.5 -161.5t142.5 -57.5q91 0 144 57.5t53 161.5v408h78v-414q0 -86 -34 -151t-96.5 -100t-144.5 -35q-81 0 -143 35zM500 818v-67h-278v67h278z" />
    <glyph glyph-name="umacron" unicode="&#x16b;" horiz-adv-x="587" 
d="M179.5 19q-48.5 27 -75.5 77t-27 117v296h75v-288q0 -75 38 -116.5t103 -41.5q66 0 104 41t38 117v288h75v-296q0 -101 -59 -161t-158 -60q-65 0 -113.5 27zM432 701v-67h-278v67h278z" />
    <glyph glyph-name="Ubreve" unicode="&#x16c;" horiz-adv-x="722" 
d="M217 25q-62 35 -96 100t-34 151v414h78v-408q0 -104 52.5 -161.5t142.5 -57.5q91 0 144 57.5t53 161.5v408h78v-414q0 -86 -34 -151t-96.5 -100t-144.5 -35q-81 0 -143 35zM259 757q-40 35 -40 89h61q0 -28 22 -44t60 -16q37 0 59.5 16.5t22.5 43.5h61q0 -54 -40.5 -89
t-102.5 -35q-63 0 -103 35z" />
    <glyph glyph-name="ubreve" unicode="&#x16d;" horiz-adv-x="587" 
d="M179.5 19q-48.5 27 -75.5 77t-27 117v296h75v-288q0 -75 38 -116.5t103 -41.5q66 0 104 41t38 117v288h75v-296q0 -101 -59 -161t-158 -60q-65 0 -113.5 27zM191 637q-40 44 -40 112h61q0 -43 22 -68t60 -25q37 0 59.5 25.5t22.5 67.5h61q0 -68 -40.5 -112t-102.5 -44
q-63 0 -103 44z" />
    <glyph glyph-name="Uring" unicode="&#x16e;" horiz-adv-x="722" 
d="M217 25q-62 35 -96 100t-34 151v414h78v-408q0 -104 52.5 -161.5t142.5 -57.5q91 0 144 57.5t53 161.5v408h78v-414q0 -86 -34 -151t-96.5 -100t-144.5 -35q-81 0 -143 35zM288 698q-31 30 -31 71q0 42 31 72t74 30t73.5 -30t30.5 -72q0 -41 -30.5 -71t-73.5 -30t-74 30z
M402 731.5q17 15.5 17 37.5t-17 38t-40 16q-24 0 -40.5 -16t-16.5 -38t16.5 -37.5t40.5 -15.5q23 0 40 15.5z" />
    <glyph glyph-name="uring" unicode="&#x16f;" horiz-adv-x="587" 
d="M179.5 19q-48.5 27 -75.5 77t-27 117v296h75v-288q0 -75 38 -116.5t103 -41.5q66 0 104 41t38 117v288h75v-296q0 -101 -59 -161t-158 -60q-65 0 -113.5 27zM217.5 592.5q-31.5 31.5 -31.5 76.5t31.5 76.5t76.5 31.5q44 0 76 -31.5t32 -76.5t-32 -76.5t-76 -31.5
q-45 0 -76.5 31.5zM336.5 626.5q17.5 17.5 17.5 42.5t-17.5 43t-42.5 18t-42.5 -18t-17.5 -43t17.5 -42.5t42.5 -17.5t42.5 17.5z" />
    <glyph glyph-name="Uhungarumlaut" unicode="&#x170;" horiz-adv-x="722" 
d="M217 25q-62 35 -96 100t-34 151v414h78v-408q0 -104 52.5 -161.5t142.5 -57.5q91 0 144 57.5t53 161.5v408h78v-414q0 -86 -34 -151t-96.5 -100t-144.5 -35q-81 0 -143 35zM369 868h91l-133 -153h-71zM515 868h91l-133 -153h-71z" />
    <glyph glyph-name="uhungarumlaut" unicode="&#x171;" horiz-adv-x="587" 
d="M179.5 19q-48.5 27 -75.5 77t-27 117v296h75v-288q0 -75 38 -116.5t103 -41.5q66 0 104 41t38 117v288h75v-296q0 -101 -59 -161t-158 -60q-65 0 -113.5 27zM271 749h91l-133 -153h-71zM417 749h91l-133 -153h-71z" />
    <glyph glyph-name="Uogonek" unicode="&#x172;" horiz-adv-x="722" 
d="M635 690v-414q0 -74 -25 -132t-72 -96q-51 -54 -71.5 -93.5t-20.5 -71.5q0 -37 38 -37q26 0 46 14v-64q-25 -13 -63 -13q-47 0 -73 22t-26 64q0 30 15.5 61t54.5 69q-36 -9 -78 -9q-81 0 -143 35t-96 100t-34 151v414h78v-408q0 -104 52.5 -161.5t142.5 -57.5
q91 0 144 57.5t53 161.5v408h78z" />
    <glyph glyph-name="uogonek" unicode="&#x173;" horiz-adv-x="587" 
d="M510 509v-296q0 -55 -18.5 -99t-53.5 -74q-97 -93 -97 -155q0 -39 38 -39q24 0 46 14v-64q-25 -13 -63 -13q-47 0 -73 22t-26 64q0 30 15.5 60t50.5 65q-24 -2 -36 -2q-65 0 -113.5 27t-75.5 77t-27 117v296h75v-288q0 -75 38 -116.5t103 -41.5q66 0 104 41t38 117v288
h75z" />
    <glyph glyph-name="Wcircumflex" unicode="&#x174;" horiz-adv-x="986" 
d="M976 690l-214 -690h-88l-181 578l-181 -578h-88l-214 690h83l177 -581l181 581h84l181 -581l177 581h83zM572 727l-79 81l-79 -81h-88l116 119h101l117 -119h-88z" />
    <glyph glyph-name="wcircumflex" unicode="&#x175;" horiz-adv-x="832" 
d="M822 509l-178 -509h-89l-139 413l-139 -413h-90l-177 509h80l143 -422l143 422h81l142 -422l143 422h80zM495 596l-79 107l-79 -107h-81l113 153h94l113 -153h-81z" />
    <glyph glyph-name="Ycircumflex" unicode="&#x176;" horiz-adv-x="616" 
d="M269 285l-259 405h92l206 -326l206 326h92l-259 -405v-285h-78v285zM387 727l-79 81l-79 -81h-88l116 119h101l117 -119h-88z" />
    <glyph glyph-name="ycircumflex" unicode="&#x177;" horiz-adv-x="528" 
d="M518 509l-213 -544q-39 -100 -90 -140.5t-132 -40.5q-22 0 -40 5l11 74q12 -3 28 -3q56 0 88.5 26.5t61.5 99.5l4 11l-226 512h83l183 -424l161 424h81zM343 596l-79 107l-79 -107h-81l113 153h94l113 -153h-81z" />
    <glyph glyph-name="Ydieresis" unicode="&#x178;" horiz-adv-x="616" 
d="M269 285l-259 405h92l206 -326l206 326h92l-259 -405v-285h-78v285zM168 747.5q-14 14.5 -14 36.5q0 23 14 37t37 14q22 0 36.5 -14t14.5 -37q0 -22 -14.5 -36.5t-36.5 -14.5q-23 0 -37 14.5zM374.5 747.5q-14.5 14.5 -14.5 36.5t14.5 36.5t36.5 14.5q23 0 37.5 -14.5
t14.5 -36.5t-14.5 -36.5t-37.5 -14.5q-22 0 -36.5 14.5z" />
    <glyph glyph-name="Zacute" unicode="&#x179;" horiz-adv-x="641" 
d="M570 611l-417 -535h429v-76h-525v79l416 535h-404v76h501v-79zM357 846h105l-133 -119h-85z" />
    <glyph glyph-name="zacute" unicode="&#x17a;" horiz-adv-x="524" 
d="M457 438l-308 -369h318v-69h-411v72l308 368h-297v69h390v-71zM300 749h98l-133 -153h-78z" />
    <glyph glyph-name="Zdotaccent" unicode="&#x17b;" horiz-adv-x="641" 
d="M570 611l-417 -535h429v-76h-525v79l416 535h-404v76h501v-79zM281.5 745.5q-15.5 15.5 -15.5 38.5q0 24 15.5 39t38.5 15q24 0 39 -15t15 -39q0 -23 -15 -38.5t-39 -15.5q-23 0 -38.5 15.5z" />
    <glyph glyph-name="zdotaccent" unicode="&#x17c;" horiz-adv-x="524" 
d="M457 438l-308 -369h318v-69h-411v72l308 368h-297v69h390v-71zM223.5 649.5q-15.5 15.5 -15.5 38.5t15.5 38.5t38.5 15.5q24 0 39 -15.5t15 -38.5t-15 -38.5t-39 -15.5q-23 0 -38.5 15.5z" />
    <glyph glyph-name="Zcaron" unicode="&#x17d;" horiz-adv-x="641" 
d="M570 611l-417 -535h429v-76h-525v79l416 535h-404v76h501v-79zM487 846l-117 -119h-101l-116 119h88l79 -81l79 81h88z" />
    <glyph glyph-name="zcaron" unicode="&#x17e;" horiz-adv-x="524" 
d="M457 438l-308 -369h318v-69h-411v72l308 368h-297v69h390v-71zM423 749l-113 -153h-94l-113 153h81l79 -107l79 107h81z" />
    <glyph glyph-name="florin" unicode="&#x192;" horiz-adv-x="540" 
d="M336 536l-13 -84h118v-72h-130l-70 -442q-12 -80 -53 -118.5t-104 -38.5q-44 0 -86 17l30 67q28 -12 52 -12q33 0 54.5 22.5t30.5 76.5l68 428h-93v72h104l16 98q12 74 55.5 112.5t105.5 38.5q43 0 86 -17l-29 -67q-29 12 -53 12q-74 0 -89 -93z" />
    <glyph glyph-name="Scommaaccent" unicode="&#x218;" horiz-adv-x="594" 
d="M86 124q86 -60 193 -60q85 0 130.5 33t45.5 89q0 38 -23 62.5t-58 37.5t-94 29q-72 20 -115.5 38t-74 55t-30.5 97q0 57 30 101.5t84 69t125 24.5q62 0 121 -19.5t106 -56.5l-43 -66q-86 68 -185 68q-74 0 -116.5 -33t-42.5 -84q0 -35 22 -57.5t55 -35t91 -28.5
q72 -20 117 -39t77 -57.5t32 -101.5q0 -59 -31.5 -104.5t-90 -71t-134.5 -25.5q-64 0 -124.5 17.5t-105.5 50.5zM362 -50l-68 -150h-59l43 150h84z" />
    <glyph glyph-name="scommaaccent" unicode="&#x219;" horiz-adv-x="458" 
d="M77 104q61 -45 137 -45q57 0 87.5 21.5t30.5 57.5q0 25 -15.5 41t-38.5 25t-65 22q-52 15 -84.5 29t-55 42t-22.5 74q0 65 50 105.5t131 40.5q47 0 90.5 -14t79.5 -42l-39 -59q-63 48 -134 48q-48 0 -75.5 -21t-27.5 -54t27.5 -48.5t86.5 -32.5q54 -16 87 -30.5
t56.5 -43.5t23.5 -77q0 -67 -53 -109t-141 -42q-47 0 -92 13t-80 36zM294 -50l-68 -150h-59l43 150h84z" />
    <glyph glyph-name="uni021A" unicode="&#x21a;" horiz-adv-x="607" 
d="M597 617h-254v-617h-79v617h-254v73h587v-73zM369 -50l-68 -150h-59l43 150h84z" />
    <glyph glyph-name="uni021B" unicode="&#x21b;" horiz-adv-x="408" 
d="M397 26q-60 -34 -127 -34q-74 0 -116.5 44.5t-42.5 122.5v281h-91v69h91v147h75v-147h196v-69h-196v-273q0 -52 22 -78t69 -26q48 0 93 27zM319 -50l-68 -150h-59l43 150h84z" />
    <glyph glyph-name="dotlessj" unicode="&#x237;" horiz-adv-x="249" 
d="M-1 -147q88 0 88 99v557h75v-559q0 -78 -42.5 -123t-117.5 -45q-35 0 -67 12l23 66q18 -7 41 -7z" />
    <glyph glyph-name="circumflex" unicode="&#x2c6;" horiz-adv-x="380" 
d="M269 596l-79 107l-79 -107h-81l113 153h94l113 -153h-81z" />
    <glyph glyph-name="caron" unicode="&#x2c7;" horiz-adv-x="380" 
d="M350 749l-113 -153h-94l-113 153h81l79 -107l79 107h81z" />
    <glyph glyph-name="uni02C9" unicode="&#x2c9;" horiz-adv-x="338" 
d="M308 701v-67h-278v67h278z" />
    <glyph glyph-name="breve" unicode="&#x2d8;" horiz-adv-x="346" 
d="M70 637q-40 44 -40 112h61q0 -43 22 -68t60 -25q37 0 59.5 25.5t22.5 67.5h61q0 -68 -40.5 -112t-102.5 -44q-63 0 -103 44z" />
    <glyph glyph-name="dotaccent" unicode="&#x2d9;" horiz-adv-x="168" 
d="M45.5 649.5q-15.5 15.5 -15.5 38.5t15.5 38.5t38.5 15.5q24 0 39 -15.5t15 -38.5t-15 -38.5t-39 -15.5q-23 0 -38.5 15.5z" />
    <glyph glyph-name="ring" unicode="&#x2da;" horiz-adv-x="276" 
d="M61.5 592.5q-31.5 31.5 -31.5 76.5t31.5 76.5t76.5 31.5t76.5 -31.5t31.5 -76.5t-31.5 -76.5t-76.5 -31.5t-76.5 31.5zM180.5 626.5q17.5 17.5 17.5 42.5t-17.5 43t-42.5 18t-42.5 -18t-17.5 -43t17.5 -42.5t42.5 -17.5t42.5 17.5z" />
    <glyph glyph-name="ogonek" unicode="&#x2db;" horiz-adv-x="223" 
d="M192 -204q-25 -13 -63 -13q-47 0 -73 22t-26 64q0 35 22 64.5t76 66.5h65q-48 -39 -66.5 -65t-18.5 -52q0 -37 38 -37q26 0 46 14v-64z" />
    <glyph glyph-name="tilde" unicode="&#x2dc;" horiz-adv-x="424" 
d="M89 602h-59q0 61 29.5 98.5t76.5 37.5q25 0 42.5 -9t43.5 -29q18 -15 32 -23t30 -8q51 0 51 69h59q0 -61 -29.5 -98.5t-76.5 -37.5q-25 0 -43 9.5t-42 28.5q-20 16 -33 23.5t-30 7.5q-51 0 -51 -69z" />
    <glyph glyph-name="hungarumlaut" unicode="&#x2dd;" horiz-adv-x="410" 
d="M143 749h91l-133 -153h-71zM289 749h91l-133 -153h-71z" />
    <glyph glyph-name="gravecomb" unicode="&#x300;" 
d="M-108 596l-133 153h98l113 -153h-78z" />
    <glyph glyph-name="acutecomb" unicode="&#x301;" 
d="M-121 749h98l-133 -153h-78z" />
    <glyph glyph-name="circumflexcomb" unicode="&#x302;" 
d="M-111 596l-79 107l-79 -107h-81l113 153h94l113 -153h-81z" />
    <glyph glyph-name="tildecomb" unicode="&#x303;" 
d="M-335 602h-59q0 61 29.5 98.5t76.5 37.5q25 0 42.5 -9t43.5 -29q18 -15 32 -23t30 -8q51 0 51 69h59q0 -61 -29.5 -98.5t-76.5 -37.5q-25 0 -43 9.5t-42 28.5q-20 16 -33 23.5t-30 7.5q-51 0 -51 -69z" />
    <glyph glyph-name="macroncomb" unicode="&#x304;" 
d="M-30 701v-67h-278v67h278z" />
    <glyph glyph-name="brevecomb" unicode="&#x306;" 
d="M-276 637q-40 44 -40 112h61q0 -43 22 -68t60 -25q37 0 59.5 25.5t22.5 67.5h61q0 -68 -40.5 -112t-102.5 -44q-63 0 -103 44z" />
    <glyph glyph-name="dotaccentcomb" unicode="&#x307;" 
d="M-122.5 649.5q-15.5 15.5 -15.5 38.5t15.5 38.5t38.5 15.5q24 0 39 -15.5t15 -38.5t-15 -38.5t-39 -15.5q-23 0 -38.5 15.5z" />
    <glyph glyph-name="dieresiscomb" unicode="&#x308;" 
d="M-325.5 651.5q-14.5 14.5 -14.5 36.5t14.5 36.5t37.5 14.5q22 0 36.5 -14.5t14.5 -36.5t-14.5 -36.5t-36.5 -14.5q-23 0 -37.5 14.5zM-119 651.5q-14 14.5 -14 36.5q0 23 14 37t37 14q22 0 36.5 -14t14.5 -37q0 -22 -14.5 -36.5t-36.5 -14.5q-23 0 -37 14.5z" />
    <glyph glyph-name="ringcomb" unicode="&#x30a;" 
d="M-218.5 592.5q-31.5 31.5 -31.5 76.5t31.5 76.5t76.5 31.5q44 0 76 -31.5t32 -76.5t-32 -76.5t-76 -31.5q-45 0 -76.5 31.5zM-99.5 626.5q17.5 17.5 17.5 42.5t-17.5 43t-42.5 18t-42.5 -18t-17.5 -43t17.5 -42.5t42.5 -17.5t42.5 17.5z" />
    <glyph glyph-name="hungarumlautcomb" unicode="&#x30b;" 
d="M-267 749h91l-133 -153h-71zM-121 749h91l-133 -153h-71z" />
    <glyph glyph-name="caroncomb" unicode="&#x30c;" 
d="M-30 749l-113 -153h-94l-113 153h81l79 -107l79 107h81z" />
    <glyph glyph-name="commaturnedabovecomb" unicode="&#x312;" 
d="M-155 599l70 150h57l-44 -150h-83z" />
    <glyph glyph-name="commaaccent" unicode="&#x326;" 
d="M-26 -50l-68 -150h-59l43 150h84z" />
    <glyph glyph-name="cedillacomb" unicode="&#x327;" 
d="M-30 -50l-68 -150h-59l43 150h84z" />
    <glyph glyph-name="ogonekcomb" unicode="&#x328;" 
d="M-31 -204q-25 -13 -63 -13q-47 0 -73 22t-26 64q0 35 22 64.5t76 66.5h65q-48 -39 -66.5 -65t-18.5 -52q0 -37 38 -37q26 0 46 14v-64z" />
    <glyph glyph-name="uni0335" unicode="&#x335;" 
d="M-30 680v-64h-330v64h330z" />
    <glyph glyph-name="uni0394" unicode="&#x394;" horiz-adv-x="668" 
d="M658 0h-648l275 690h97zM546 73l-212 543l-212 -543h424z" />
    <glyph glyph-name="uni03A9" unicode="&#x3a9;" horiz-adv-x="812" 
d="M274 595q-58 -30 -91.5 -87.5t-33.5 -137.5q0 -93 46.5 -163t132.5 -133v-74h-262v74h153q-71 62 -109.5 137t-38.5 159q0 101 42.5 175.5t118.5 114t174 39.5t174 -39.5t118.5 -114t42.5 -175.5q0 -83 -38.5 -158.5t-109.5 -137.5h153v-74h-262v74q86 63 132.5 133
t46.5 163q0 80 -33.5 137.5t-92 87.5t-131.5 30q-74 0 -132 -30z" />
    <glyph glyph-name="uni03BC" unicode="&#x3bc;" horiz-adv-x="604" 
d="M517 500v-500h-65l-9 73q-54 -81 -156 -81q-79 0 -125 51v-253h-75v710h75v-288q0 -73 34 -111t96 -38q69 0 109.5 46t40.5 134v257h75z" />
    <glyph glyph-name="Wgrave" unicode="&#x1e80;" horiz-adv-x="986" 
d="M976 690l-214 -690h-88l-181 578l-181 -578h-88l-214 690h83l177 -581l181 581h84l181 -581l177 581h83zM484 727l-133 119h105l113 -119h-85z" />
    <glyph glyph-name="wgrave" unicode="&#x1e81;" horiz-adv-x="832" 
d="M822 509l-178 -509h-89l-139 413l-139 -413h-90l-177 509h80l143 -422l143 422h81l142 -422l143 422h80zM413 596l-133 153h98l113 -153h-78z" />
    <glyph glyph-name="Wacute" unicode="&#x1e82;" horiz-adv-x="986" 
d="M976 690l-214 -690h-88l-181 578l-181 -578h-88l-214 690h83l177 -581l181 581h84l181 -581l177 581h83zM530 846h105l-133 -119h-85z" />
    <glyph glyph-name="wacute" unicode="&#x1e83;" horiz-adv-x="832" 
d="M822 509l-178 -509h-89l-139 413l-139 -413h-90l-177 509h80l143 -422l143 422h81l142 -422l143 422h80zM453 749h98l-133 -153h-78z" />
    <glyph glyph-name="Wdieresis" unicode="&#x1e84;" horiz-adv-x="986" 
d="M976 690l-214 -690h-88l-181 578l-181 -578h-88l-214 690h83l177 -581l181 581h84l181 -581l177 581h83zM353 747.5q-14 14.5 -14 36.5q0 23 14 37t37 14q22 0 36.5 -14t14.5 -37q0 -22 -14.5 -36.5t-36.5 -14.5q-23 0 -37 14.5zM559.5 747.5q-14.5 14.5 -14.5 36.5
t14.5 36.5t36.5 14.5q23 0 37.5 -14.5t14.5 -36.5t-14.5 -36.5t-37.5 -14.5q-22 0 -36.5 14.5z" />
    <glyph glyph-name="wdieresis" unicode="&#x1e85;" horiz-adv-x="832" 
d="M822 509l-178 -509h-89l-139 413l-139 -413h-90l-177 509h80l143 -422l143 422h81l142 -422l143 422h80zM275.5 651.5q-14.5 14.5 -14.5 36.5t14.5 36.5t37.5 14.5q22 0 36.5 -14.5t14.5 -36.5t-14.5 -36.5t-36.5 -14.5q-23 0 -37.5 14.5zM482 651.5q-14 14.5 -14 36.5
q0 23 14 37t37 14q22 0 36.5 -14t14.5 -37q0 -22 -14.5 -36.5t-36.5 -14.5q-23 0 -37 14.5z" />
    <glyph glyph-name="Germandbls" unicode="&#x1e9e;" horiz-adv-x="732" 
d="M615 328q56 -52 56 -133q0 -61 -28.5 -107.5t-81.5 -72.5t-123 -26q-57 0 -109.5 17.5t-91.5 50.5l40 65q73 -58 163 -58q69 0 111 36t42 91q0 60 -45.5 96.5t-141.5 36.5q-22 0 -48 -3v61l145 169q-26 32 -68 52.5t-98 20.5q-86 0 -135 -55.5t-49 -154.5v-414h-78v419
q0 84 32.5 147.5t91.5 97.5t137 34q88 0 156 -38.5t109 -105.5l-147 -164q105 -10 161 -62z" />
    <glyph glyph-name="Ygrave" unicode="&#x1ef2;" horiz-adv-x="616" 
d="M269 285l-259 405h92l206 -326l206 326h92l-259 -405v-285h-78v285zM299 727l-133 119h105l113 -119h-85z" />
    <glyph glyph-name="ygrave" unicode="&#x1ef3;" horiz-adv-x="528" 
d="M518 509l-213 -544q-39 -100 -90 -140.5t-132 -40.5q-22 0 -40 5l11 74q12 -3 28 -3q56 0 88.5 26.5t61.5 99.5l4 11l-226 512h83l183 -424l161 424h81zM262 596l-133 153h98l113 -153h-78z" />
    <glyph glyph-name="endash" unicode="&#x2013;" horiz-adv-x="500" 
d="M25 265v55h450v-55h-450z" />
    <glyph glyph-name="emdash" unicode="&#x2014;" horiz-adv-x="1000" 
d="M25 265v55h950v-55h-950z" />
    <glyph glyph-name="quoteleft" unicode="&#x2018;" horiz-adv-x="233" 
d="M37 440l104 250h55l-73 -250h-86z" />
    <glyph glyph-name="quoteright" unicode="&#x2019;" horiz-adv-x="233" 
d="M196 690l-104 -250h-55l73 250h86z" />
    <glyph glyph-name="quotesinglbase" unicode="&#x201a;" horiz-adv-x="204" 
d="M162 106l-104 -250h-55l73 250h86z" />
    <glyph glyph-name="quotedblleft" unicode="&#x201c;" horiz-adv-x="388" 
d="M37 440l104 250h55l-73 -250h-86zM193 440l103 250h56l-73 -250h-86z" />
    <glyph glyph-name="quotedblright" unicode="&#x201d;" horiz-adv-x="388" 
d="M196 690l-104 -250h-55l73 250h86zM352 690l-104 -250h-55l73 250h86z" />
    <glyph glyph-name="quotedblbase" unicode="&#x201e;" horiz-adv-x="360" 
d="M162 106l-104 -250h-55l73 250h86zM318 106l-104 -250h-55l73 250h86z" />
    <glyph glyph-name="dagger" unicode="&#x2020;" horiz-adv-x="525" 
d="M476 436h-175v-552h-76v552h-176v66h176v189h76v-189h175v-66z" />
    <glyph glyph-name="daggerdbl" unicode="&#x2021;" horiz-adv-x="525" 
d="M476 438h-175v-249h175v-64h-175v-241h-76v241h-176v64h176v249h-176v64h176v189h76v-189h175v-64z" />
    <glyph glyph-name="bullet" unicode="&#x2022;" horiz-adv-x="440" 
d="M119 219q-39 39 -39 101t39 101t101 39t101 -39t39 -101t-39 -101t-101 -39t-101 39z" />
    <glyph glyph-name="ellipsis" unicode="&#x2026;" horiz-adv-x="694" 
d="M302.5 7.5q-17.5 17.5 -17.5 44.5q0 28 17.5 45t44.5 17t44.5 -17t17.5 -45q0 -27 -17.5 -44.5t-44.5 -17.5t-44.5 17.5zM71.5 7.5q-17.5 17.5 -17.5 44.5q0 28 17.5 45t44.5 17t44.5 -17t17.5 -45q0 -27 -17.5 -44.5t-44.5 -17.5t-44.5 17.5zM534.5 7.5
q-17.5 17.5 -17.5 44.5q0 28 17.5 45t44.5 17t44.5 -17t17.5 -45q0 -27 -17.5 -44.5t-44.5 -17.5t-44.5 17.5z" />
    <glyph glyph-name="perthousand" unicode="&#x2030;" horiz-adv-x="1278" 
d="M193 0l442 721l53 -31l-442 -721zM138 382.5q-39 22.5 -61.5 61.5t-22.5 86q0 46 22.5 85t61.5 62t86 23q45 0 84.5 -23t62.5 -62t23 -85q0 -47 -23 -86t-62.5 -61.5t-84.5 -22.5q-47 0 -86 22.5zM297.5 450q31.5 33 31.5 80q0 46 -31.5 79.5t-73.5 33.5q-43 0 -74 -33.5
t-31 -79.5q0 -47 30.5 -80t74.5 -33q42 0 73.5 33zM572.5 13q-39.5 23 -62.5 62t-23 85q0 47 23 86t62.5 61.5t84.5 22.5q47 0 86 -22.5t61.5 -61.5t22.5 -86q0 -46 -22.5 -85t-61.5 -62t-86 -23q-45 0 -84.5 23zM969.5 13q-39.5 23 -62.5 62t-23 85q0 47 23 86t62.5 61.5
t84.5 22.5q47 0 86 -22.5t61.5 -61.5t22.5 -86q0 -46 -22.5 -85t-61.5 -62t-86 -23q-45 0 -84.5 23zM731 80.5q31 33.5 31 79.5q0 47 -30.5 80t-74.5 33q-42 0 -73.5 -33t-31.5 -80q0 -46 31.5 -79.5t73.5 -33.5q43 0 74 33.5zM1128 80.5q31 33.5 31 79.5q0 47 -30.5 80
t-74.5 33q-43 0 -74 -33t-31 -80q0 -46 31 -79.5t74 -33.5t74 33.5z" />
    <glyph glyph-name="guilsinglleft" unicode="&#x2039;" horiz-adv-x="378" 
d="M151 292l160 -197h-94l-160 197l160 197h94z" />
    <glyph glyph-name="guilsinglright" unicode="&#x203a;" horiz-adv-x="378" 
d="M161 489l160 -197l-160 -197h-94l160 197l-160 197h94z" />
    <glyph glyph-name="fraction" unicode="&#x2044;" horiz-adv-x="234" 
d="M-130 0l442 721l52 -31l-441 -721z" />
    <glyph glyph-name="zero.superior" unicode="&#x2070;" horiz-adv-x="350" 
d="M273 484.5q-34 -41.5 -99 -41.5q-64 0 -98 41.5t-34 120.5v67q0 79 34 120.5t98 41.5q65 0 99 -41.5t34 -120.5v-67q0 -79 -34 -120.5zM174 779q-73 0 -73 -109v-63q0 -53 18.5 -80.5t54.5 -27.5q75 0 75 108v63q0 109 -75 109z" />
    <glyph glyph-name="four.superior" unicode="&#x2074;" horiz-adv-x="350" 
d="M324 547h-56v-98h-59v98h-183v62l177 220h65v-227h56v-55zM209 602v157l-127 -157h127z" />
    <glyph glyph-name="five.superior" unicode="&#x2075;" horiz-adv-x="350" 
d="M261 662.5q39 -35.5 39 -88.5q0 -55 -39 -93t-99 -38q-38 0 -70.5 17t-49.5 46l50 29q21 -36 70 -36q35 0 56.5 20t21.5 54q0 31 -21 50.5t-56 19.5q-37 0 -67 -20l-34 16l17 190h204v-55h-150l-7 -81q20 5 37 5q59 0 98 -35.5z" />
    <glyph glyph-name="six.superior" unicode="&#x2076;" horiz-adv-x="350" 
d="M244 683q32 -17 50.5 -46t18.5 -64t-18.5 -65t-50.5 -47.5t-70 -17.5q-36 0 -67 18t-49.5 48t-18.5 66q0 40 16.5 75.5t62.5 91.5l69 87h67l-106 -132q12 3 26 3q38 0 70 -17zM229.5 519.5q22.5 21.5 22.5 52.5t-22.5 52t-54.5 21q-31 0 -53 -20.5t-22 -50.5
q0 -31 22 -53.5t53 -22.5q32 0 54.5 21.5z" />
    <glyph glyph-name="seven.superior" unicode="&#x2077;" horiz-adv-x="350" 
d="M302 829v-51l-180 -329h-65l176 324h-191v56h260z" />
    <glyph glyph-name="eight.superior" unicode="&#x2078;" horiz-adv-x="350" 
d="M294 610.5q15 -24.5 15 -55.5q0 -50 -36.5 -81t-97.5 -31t-97.5 30.5t-36.5 81.5q0 32 15 56t43 38q-43 28 -43 82q0 47 32 75t87 28t87.5 -28t32.5 -75q0 -27 -11.5 -48t-32.5 -34q28 -14 43 -38.5zM131 765q-16 -14 -16 -38t16 -38.5t44 -14.5t44 14.5t16 38.5t-16 38
t-44 14t-44 -14zM228.5 515q20.5 17 20.5 45t-20.5 44t-53.5 16t-53 -16t-20 -44t20 -45t53 -17t53.5 17z" />
    <glyph glyph-name="nine.superior" unicode="&#x2079;" horiz-adv-x="350" 
d="M243 816.5q31 -17.5 49.5 -48t18.5 -66.5q0 -39 -16.5 -74.5t-62.5 -92.5l-69 -86h-67l106 132q-13 -3 -27 -3q-38 0 -69.5 17t-50 46.5t-18.5 63.5q0 35 18.5 65t50 47t69.5 17q37 0 68 -17.5zM120.5 654q22.5 -21 54.5 -21q31 0 53 20.5t22 49.5q0 32 -22 54.5
t-53 22.5q-32 0 -54.5 -22t-22.5 -53q0 -30 22.5 -51z" />
    <glyph glyph-name="uni207A" unicode="&#x207a;" horiz-adv-x="356" 
d="M300 612h-95v-91h-56v91h-94v54h94v92h56v-92h95v-54z" />
    <glyph glyph-name="uni207B" unicode="&#x207b;" horiz-adv-x="356" 
d="M55 666h245v-54h-245v54z" />
    <glyph glyph-name="uni207C" unicode="&#x207c;" horiz-adv-x="356" 
d="M55 713h245v-51h-245v51zM55 615h245v-51h-245v51z" />
    <glyph glyph-name="uni207D" unicode="&#x207d;" horiz-adv-x="278" 
d="M133 621q0 160 113 267h-70q-106 -107 -106 -267q0 -158 106 -267h70q-113 109 -113 267z" />
    <glyph glyph-name="uni207E" unicode="&#x207e;" horiz-adv-x="278" 
d="M145 621q0 -160 -113 -267h70q106 107 106 267q0 158 -106 267h-70q113 -109 113 -267z" />
    <glyph glyph-name="zero.inferior" unicode="&#x2080;" horiz-adv-x="350" 
d="M273 -103.5q-34 -41.5 -99 -41.5q-64 0 -98 41.5t-34 120.5v67q0 79 34 120.5t98 41.5q65 0 99 -41.5t34 -120.5v-67q0 -79 -34 -120.5zM174 191q-73 0 -73 -109v-63q0 -53 18.5 -80.5t54.5 -27.5q75 0 75 108v63q0 109 -75 109z" />
    <glyph glyph-name="one.inferior" unicode="&#x2081;" horiz-adv-x="351" 
d="M298 -84v-55h-245v55h95v251l-95 -34v58l153 55v-330h92z" />
    <glyph glyph-name="two.inferior" unicode="&#x2082;" horiz-adv-x="349" 
d="M302 -84v-55h-258v17q0 34 15 59.5t36 43.5t55 42q44 31 65 53.5t21 54.5q0 29 -18.5 45t-50.5 16q-30 0 -48 -14.5t-26 -47.5l-58 15q14 49 48 76t84 27q57 0 93 -32.5t36 -84.5q0 -35 -15 -62t-37 -45t-57 -42q-32 -21 -48 -35t-25 -31h188z" />
    <glyph glyph-name="three.inferior" unicode="&#x2083;" horiz-adv-x="350" 
d="M272.5 55.5q26.5 -32.5 26.5 -77.5q0 -55 -38 -89t-100 -34q-46 0 -79.5 21t-45.5 57l53 22q8 -21 26.5 -32.5t45.5 -11.5q36 0 57 17.5t21 49.5q0 33 -24 51.5t-66 18.5q-18 0 -27 -2v41l80 98h-149v56h229v-41l-82 -101q46 -11 72.5 -43.5z" />
    <glyph glyph-name="four.inferior" unicode="&#x2084;" horiz-adv-x="350" 
d="M324 -41h-56v-98h-59v98h-183v62l177 220h65v-227h56v-55zM209 14v157l-127 -157h127z" />
    <glyph glyph-name="five.inferior" unicode="&#x2085;" horiz-adv-x="350" 
d="M261 74.5q39 -35.5 39 -88.5q0 -55 -39 -93t-99 -38q-38 0 -70.5 17t-49.5 46l50 29q21 -36 70 -36q35 0 56.5 20t21.5 54q0 31 -21 50.5t-56 19.5q-37 0 -67 -20l-34 16l17 190h204v-55h-150l-7 -81q20 5 37 5q59 0 98 -35.5z" />
    <glyph glyph-name="six.inferior" unicode="&#x2086;" horiz-adv-x="350" 
d="M244 95q32 -17 50.5 -46t18.5 -64t-18.5 -65t-50.5 -47.5t-70 -17.5q-36 0 -67 18t-49.5 48t-18.5 66q0 40 16.5 75.5t62.5 91.5l69 87h67l-106 -132q12 3 26 3q38 0 70 -17zM229.5 -68.5q22.5 21.5 22.5 52.5t-22.5 52t-54.5 21q-31 0 -53 -20.5t-22 -50.5
q0 -31 22 -53.5t53 -22.5q32 0 54.5 21.5z" />
    <glyph glyph-name="seven.inferior" unicode="&#x2087;" horiz-adv-x="350" 
d="M302 241v-51l-180 -329h-65l176 324h-191v56h260z" />
    <glyph glyph-name="eight.inferior" unicode="&#x2088;" horiz-adv-x="350" 
d="M294 22.5q15 -24.5 15 -55.5q0 -50 -36.5 -81t-97.5 -31t-97.5 30.5t-36.5 81.5q0 32 15 56t43 38q-43 28 -43 82q0 47 32 75t87 28t87.5 -28t32.5 -75q0 -27 -11.5 -48t-32.5 -34q28 -14 43 -38.5zM131 177q-16 -14 -16 -38t16 -38.5t44 -14.5t44 14.5t16 38.5t-16 38
t-44 14t-44 -14zM228.5 -73q20.5 17 20.5 45t-20.5 44t-53.5 16t-53 -16t-20 -44t20 -45t53 -17t53.5 17z" />
    <glyph glyph-name="nine.inferior" unicode="&#x2089;" horiz-adv-x="350" 
d="M243 228.5q31 -17.5 49.5 -48t18.5 -66.5q0 -39 -16.5 -74.5t-62.5 -92.5l-69 -86h-67l106 132q-13 -3 -27 -3q-38 0 -69.5 17t-50 46.5t-18.5 63.5q0 35 18.5 65t50 47t69.5 17q37 0 68 -17.5zM120.5 66q22.5 -21 54.5 -21q31 0 53 20.5t22 49.5q0 32 -22 54.5t-53 22.5
q-32 0 -54.5 -22t-22.5 -53q0 -30 22.5 -51z" />
    <glyph glyph-name="uni208A" unicode="&#x208a;" horiz-adv-x="356" 
d="M300 22h-95v-91h-56v91h-94v54h94v92h56v-92h95v-54z" />
    <glyph glyph-name="uni208B" unicode="&#x208b;" horiz-adv-x="356" 
d="M55 76h245v-54h-245v54z" />
    <glyph glyph-name="uni208C" unicode="&#x208c;" horiz-adv-x="356" 
d="M55 123h245v-51h-245v51zM55 25h245v-51h-245v51z" />
    <glyph glyph-name="uni208D" unicode="&#x208d;" horiz-adv-x="278" 
d="M133 31q0 160 113 267h-70q-106 -107 -106 -267q0 -158 106 -267h70q-113 109 -113 267z" />
    <glyph glyph-name="uni208E" unicode="&#x208e;" horiz-adv-x="278" 
d="M102 -236q106 109 106 267q0 160 -106 267h-70q113 -107 113 -267q0 -158 -113 -267h70z" />
    <glyph glyph-name="Euro" unicode="&#x20ac;" horiz-adv-x="540" 
d="M509 94l25 -70q-74 -35 -160 -35q-125 0 -207.5 67t-108.5 187h-40v64h31q-1 12 -1 38t1 39h-31v64h40q26 119 108.5 186t206.5 67q95 0 161 -36l-31 -69q-60 30 -130 30q-89 0 -150 -47t-84 -131h275l-13 -64h-273q-2 -26 -2 -39q0 -14 2 -38h263l-14 -64h-238
q23 -85 84.5 -132t150.5 -47q72 0 135 30z" />
    <glyph glyph-name="uni20B9" unicode="&#x20b9;" horiz-adv-x="540" 
d="M492 626h-173q48 -37 61 -98h112v-64h-108q-5 -73 -52 -121t-126 -62l200 -281h-95l-200 282l29 64h8q70 0 110 30.5t48 87.5h-257v64h253q-11 47 -51.5 72.5t-106.5 25.5h-95v64h443v-64z" />
    <glyph glyph-name="uni20BA" unicode="&#x20ba;" horiz-adv-x="540" 
d="M510 266q-30 -135 -111.5 -200.5t-201.5 -65.5h-102v262l-75 -38v69l75 39v86l-75 -39v69l75 39v203h78v-163l179 92v-69l-179 -92v-86l179 93v-71l-179 -92v-228h24q89 0 152 51t87 161z" />
    <glyph glyph-name="uni2113" unicode="&#x2113;" horiz-adv-x="600" 
d="M491 97q-43 -112 -140 -112q-63 0 -102 40.5t-58 128.5q-36 -16 -56 -23l-22 64q34 13 67 30q-7 62 -7 154q0 200 39 293.5t126 93.5q64 0 100 -52.5t36 -139.5q0 -118 -55 -217t-161 -166q12 -72 35.5 -104.5t59.5 -32.5q26 0 44.5 17t31.5 54zM250 270q74 57 112 135
t38 169q0 60 -15.5 93t-46.5 33q-46 0 -68.5 -76t-22.5 -245q0 -61 3 -109z" />
    <glyph glyph-name="uni2117" unicode="&#x2117;" horiz-adv-x="816" 
d="M224.5 35.5q-80.5 45.5 -126 126t-45.5 183.5t45.5 183.5t126 126t183.5 45.5t183.5 -45.5t126 -126t45.5 -183.5t-45.5 -183.5t-126 -126t-183.5 -45.5t-183.5 45.5zM561.5 86q67.5 38 105.5 105.5t38 153.5t-38 154t-105.5 106t-153.5 38t-154 -38t-106 -106t-38 -154
t38 -153.5t106 -105.5t154 -38t153.5 38zM272 552h163q71 0 112.5 -38t41.5 -103t-41.5 -102.5t-112.5 -37.5h-89v-133h-74v414zM432 340q39 0 61 19t22 52q0 34 -21.5 52.5t-61.5 18.5h-86v-142h86z" />
    <glyph glyph-name="trademark" unicode="&#x2122;" horiz-adv-x="991" 
d="M36 690h362v-59h-149v-321h-64v321h-149v59zM908 690v-380h-63v297l-137 -297h-51l-137 297v-297h-63v380h94l132 -286l131 286h94z" />
    <glyph glyph-name="Omega" unicode="&#x2126;" horiz-adv-x="812" 
d="M274 595q-58 -30 -91.5 -87.5t-33.5 -137.5q0 -93 46.5 -163t132.5 -133v-74h-262v74h153q-71 62 -109.5 137t-38.5 159q0 101 42.5 175.5t118.5 114t174 39.5t174 -39.5t118.5 -114t42.5 -175.5q0 -83 -38.5 -158.5t-109.5 -137.5h153v-74h-262v74q86 63 132.5 133
t46.5 163q0 80 -33.5 137.5t-92 87.5t-131.5 30q-74 0 -132 -30z" />
    <glyph glyph-name="estimated" unicode="&#x212e;" horiz-adv-x="876" 
d="M645.5 650.5q88.5 -49.5 135 -133.5t46.5 -184h-621q-6 0 -10 -4t-4 -9v-169q0 -16 3.5 -26t12.5 -19q95 -93 230 -93q73 0 137.5 30.5t105.5 80.5h70q-40 -56 -119.5 -96t-193.5 -40q-116 0 -204.5 45.5t-137 126t-48.5 182.5q0 101 47.5 182.5t135.5 128.5t207 47
t207.5 -49.5zM208 578q-9 -8 -12.5 -17t-3.5 -24v-170q0 -5 4 -8.5t10 -3.5h463q5 0 9 3.5t4 8.5v170q0 15 -3 24t-12 17q-96 95 -229 95q-137 0 -230 -95z" />
    <glyph glyph-name="partialdiff" unicode="&#x2202;" horiz-adv-x="569" 
d="M526 326q0 -165 -69.5 -249.5t-188.5 -84.5q-65 0 -115 27.5t-77.5 78.5t-27.5 118q0 75 32.5 136t89.5 96t129 35q104 0 154 -77q-9 117 -60.5 176t-135.5 59q-31 0 -62.5 -10.5t-54.5 -28.5l-37 53q30 22 72 34.5t84 12.5q267 0 267 -376zM366.5 90q39.5 27 60 71.5
t20.5 94.5q0 70 -39 113.5t-104 43.5q-87 0 -133.5 -53t-46.5 -140q0 -72 39 -114.5t109 -42.5q55 0 94.5 27z" />
    <glyph glyph-name="Delta" unicode="&#x2206;" horiz-adv-x="668" 
d="M658 0h-648l275 690h97zM546 73l-212 543l-212 -543h424z" />
    <glyph glyph-name="product" unicode="&#x220f;" horiz-adv-x="743" 
d="M648 -210h-78v826h-397v-826h-78v900h553v-900z" />
    <glyph glyph-name="summation" unicode="&#x2211;" horiz-adv-x="464" 
d="M320 237l-201 -379h311v-68h-396v68l203 379l-203 385v68h396v-68h-312z" />
    <glyph glyph-name="minus" unicode="&#x2212;" horiz-adv-x="540" 
d="M62 338h417v-60h-417v60z" />
    <glyph glyph-name="uni2215" unicode="&#x2215;" horiz-adv-x="426" 
d="M317 723h60l-289 -809h-59z" />
    <glyph glyph-name="uni2219" unicode="&#x2219;" horiz-adv-x="540" 
d="M225.5 271.5q-17.5 17.5 -17.5 45.5q0 27 17.5 44.5t44.5 17.5t44.5 -17.5t17.5 -44.5q0 -28 -17.5 -45.5t-44.5 -17.5t-44.5 17.5z" />
    <glyph glyph-name="radical" unicode="&#x221a;" horiz-adv-x="546" 
d="M104 283h-80v63h130l93 -388h2l209 732h68l-231 -806h-97z" />
    <glyph glyph-name="infinity" unicode="&#x221e;" horiz-adv-x="700" 
d="M640.5 188.5q-41.5 -45.5 -109.5 -45.5q-59 0 -99 30t-82 87q-42 -57 -82.5 -87t-99.5 -30q-67 0 -108.5 45.5t-41.5 119.5t41 119t109 45q59 0 99.5 -30.5t82.5 -87.5q42 57 82 87.5t99 30.5q68 0 109.5 -45t41.5 -119t-41.5 -119.5zM249.5 385.5q-30.5 26.5 -74.5 26.5
q-43 0 -70 -28.5t-27 -75.5t26.5 -75.5t70.5 -28.5t75 26.5t66 77.5q-36 51 -66.5 77.5zM595 383.5q-26 28.5 -71 28.5q-43 0 -74 -26.5t-67 -77.5q35 -51 66.5 -77.5t74.5 -26.5q45 0 71 28.5t26 75.5t-26 75.5z" />
    <glyph glyph-name="integral" unicode="&#x222b;" horiz-adv-x="300" 
d="M289 636q-9 3 -25 3q-77 0 -77 -90v-595q0 -69 -33 -103.5t-96 -34.5q-25 0 -47 5v54q9 -3 24 -3q40 0 59 21.5t19 68.5v595q0 69 33 104t96 35q14 0 47 -5v-55z" />
    <glyph glyph-name="approxequal" unicode="&#x2248;" horiz-adv-x="540" 
d="M413.5 401q18.5 22 18.5 58h47q0 -61 -31 -98.5t-83 -37.5q-29 0 -52 13t-51 37q-26 22 -44 32.5t-40 10.5q-32 0 -51 -22t-19 -58h-46q0 61 31 98t83 37q29 0 51.5 -12.5t51.5 -36.5q26 -22 44 -32.5t40 -10.5q32 0 50.5 22zM413.5 221.5q18.5 21.5 18.5 57.5h47
q0 -61 -31 -98t-83 -37q-29 0 -51.5 12.5t-51.5 36.5q-26 22 -44 32.5t-40 10.5q-32 0 -51 -22t-19 -58h-46q0 61 31 98.5t83 37.5q29 0 51.5 -12.5t51.5 -36.5q26 -22 44 -32.5t40 -10.5q32 0 50.5 21.5z" />
    <glyph glyph-name="notequal" unicode="&#x2260;" horiz-adv-x="540" 
d="M479 260v-58h-244l-87 -130l-39 26l68 104h-115v58h149l63 95h-212v57h244l87 131l40 -26l-71 -105h117v-57h-148l-65 -95h213z" />
    <glyph glyph-name="lessequal" unicode="&#x2264;" horiz-adv-x="540" 
d="M132 324l347 -144v-58l-417 168v69l417 168v-58l-347 -144v-1zM62 0v55h417v-55h-417z" />
    <glyph glyph-name="greaterequal" unicode="&#x2265;" horiz-adv-x="540" 
d="M62 122v58l347 144v1l-347 144v58l417 -168v-69zM62 55h417v-55h-417v55z" />
    <glyph glyph-name="lozenge" unicode="&#x25ca;" horiz-adv-x="594" 
d="M562 240l-210 -450h-111l-209 450l209 450h111zM478 240l-181 395l-181 -395l181 -395z" />
    <glyph glyph-name="uniF8FF" unicode="&#xf8ff;" horiz-adv-x="489" 
d="M489 760v-760h-489v760h489zM433 55v650h-377v-650h377z" />
    <glyph glyph-name="uniFEFF" unicode="&#xfeff;" 
 />
    <glyph glyph-name="a.ss01" horiz-adv-x="524" 
d="M393 464.5q54 -55.5 54 -152.5v-312h-65l-8 48q-25 -29 -63 -44t-85 -15q-85 0 -135 44.5t-50 117.5q0 74 52.5 117t138.5 43q43 0 80 -12.5t60 -37.5v52q0 62 -34 99t-99 37q-40 0 -72.5 -15.5t-62.5 -47.5l-50 49q38 43 84 64t104 21q97 0 151 -55.5zM337 82.5
q35 26.5 35 70.5q0 43 -35 69.5t-93 26.5t-92 -26t-34 -70t34 -70.5t92 -26.5t93 26.5z" />
    <glyph glyph-name="aacute.ss01" horiz-adv-x="524" 
d="M393 464.5q54 -55.5 54 -152.5v-312h-65l-8 48q-25 -29 -63 -44t-85 -15q-85 0 -135 44.5t-50 117.5q0 74 52.5 117t138.5 43q43 0 80 -12.5t60 -37.5v52q0 62 -34 99t-99 37q-40 0 -72.5 -15.5t-62.5 -47.5l-50 49q38 43 84 64t104 21q97 0 151 -55.5zM337 82.5
q35 26.5 35 70.5q0 43 -35 69.5t-93 26.5t-92 -26t-34 -70t34 -70.5t92 -26.5t93 26.5zM300 749h98l-133 -153h-78z" />
    <glyph glyph-name="abreve.ss01" horiz-adv-x="524" 
d="M393 464.5q54 -55.5 54 -152.5v-312h-65l-8 48q-25 -29 -63 -44t-85 -15q-85 0 -135 44.5t-50 117.5q0 74 52.5 117t138.5 43q43 0 80 -12.5t60 -37.5v52q0 62 -34 99t-99 37q-40 0 -72.5 -15.5t-62.5 -47.5l-50 49q38 43 84 64t104 21q97 0 151 -55.5zM337 82.5
q35 26.5 35 70.5q0 43 -35 69.5t-93 26.5t-92 -26t-34 -70t34 -70.5t92 -26.5t93 26.5zM159 637q-40 44 -40 112h61q0 -43 22 -68t60 -25q37 0 59.5 25.5t22.5 67.5h61q0 -68 -40.5 -112t-102.5 -44q-63 0 -103 44z" />
    <glyph glyph-name="acircumflex.ss01" horiz-adv-x="524" 
d="M393 464.5q54 -55.5 54 -152.5v-312h-65l-8 48q-25 -29 -63 -44t-85 -15q-85 0 -135 44.5t-50 117.5q0 74 52.5 117t138.5 43q43 0 80 -12.5t60 -37.5v52q0 62 -34 99t-99 37q-40 0 -72.5 -15.5t-62.5 -47.5l-50 49q38 43 84 64t104 21q97 0 151 -55.5zM337 82.5
q35 26.5 35 70.5q0 43 -35 69.5t-93 26.5t-92 -26t-34 -70t34 -70.5t92 -26.5t93 26.5zM341 596l-79 107l-79 -107h-81l113 153h94l113 -153h-81z" />
    <glyph glyph-name="adieresis.ss01" horiz-adv-x="524" 
d="M393 464.5q54 -55.5 54 -152.5v-312h-65l-8 48q-25 -29 -63 -44t-85 -15q-85 0 -135 44.5t-50 117.5q0 74 52.5 117t138.5 43q43 0 80 -12.5t60 -37.5v52q0 62 -34 99t-99 37q-40 0 -72.5 -15.5t-62.5 -47.5l-50 49q38 43 84 64t104 21q97 0 151 -55.5zM337 82.5
q35 26.5 35 70.5q0 43 -35 69.5t-93 26.5t-92 -26t-34 -70t34 -70.5t92 -26.5t93 26.5zM122.5 651.5q-14.5 14.5 -14.5 36.5t14.5 36.5t37.5 14.5q22 0 36.5 -14.5t14.5 -36.5t-14.5 -36.5t-36.5 -14.5q-23 0 -37.5 14.5zM329 651.5q-14 14.5 -14 36.5q0 23 14 37t37 14
q22 0 36.5 -14t14.5 -37q0 -22 -14.5 -36.5t-36.5 -14.5q-23 0 -37 14.5z" />
    <glyph glyph-name="agrave.ss01" horiz-adv-x="524" 
d="M393 464.5q54 -55.5 54 -152.5v-312h-65l-8 48q-25 -29 -63 -44t-85 -15q-85 0 -135 44.5t-50 117.5q0 74 52.5 117t138.5 43q43 0 80 -12.5t60 -37.5v52q0 62 -34 99t-99 37q-40 0 -72.5 -15.5t-62.5 -47.5l-50 49q38 43 84 64t104 21q97 0 151 -55.5zM337 82.5
q35 26.5 35 70.5q0 43 -35 69.5t-93 26.5t-92 -26t-34 -70t34 -70.5t92 -26.5t93 26.5zM260 596l-133 153h98l113 -153h-78z" />
    <glyph glyph-name="amacron.ss01" horiz-adv-x="524" 
d="M393 464.5q54 -55.5 54 -152.5v-312h-65l-8 48q-25 -29 -63 -44t-85 -15q-85 0 -135 44.5t-50 117.5q0 74 52.5 117t138.5 43q43 0 80 -12.5t60 -37.5v52q0 62 -34 99t-99 37q-40 0 -72.5 -15.5t-62.5 -47.5l-50 49q38 43 84 64t104 21q97 0 151 -55.5zM337 82.5
q35 26.5 35 70.5q0 43 -35 69.5t-93 26.5t-92 -26t-34 -70t34 -70.5t92 -26.5t93 26.5zM401 701v-67h-278v67h278z" />
    <glyph glyph-name="aogonek.ss01" horiz-adv-x="524" 
d="M380.5 -65q-18.5 -26 -18.5 -52q0 -37 38 -37q26 0 46 14v-64q-23 -13 -62 -13q-47 0 -73.5 22t-26.5 64q0 35 22 64.5t76 66.5l-8 48q-25 -29 -63 -44t-85 -15q-85 0 -135 44.5t-50 117.5q0 74 52.5 117t138.5 43q43 0 80 -12.5t60 -37.5v52q0 62 -34 99t-99 37
q-40 0 -72.5 -15.5t-62.5 -47.5l-50 49q38 43 84 64t104 21q97 0 151 -55.5t54 -152.5v-312q-48 -39 -66.5 -65zM337 82.5q35 26.5 35 70.5q0 43 -35 69.5t-93 26.5t-92 -26t-34 -70t34 -70.5t92 -26.5t93 26.5z" />
    <glyph glyph-name="aring.ss01" horiz-adv-x="524" 
d="M393 464.5q54 -55.5 54 -152.5v-312h-65l-8 48q-25 -29 -63 -44t-85 -15q-85 0 -135 44.5t-50 117.5q0 74 52.5 117t138.5 43q43 0 80 -12.5t60 -37.5v52q0 62 -34 99t-99 37q-40 0 -72.5 -15.5t-62.5 -47.5l-50 49q38 43 84 64t104 21q97 0 151 -55.5zM337 82.5
q35 26.5 35 70.5q0 43 -35 69.5t-93 26.5t-92 -26t-34 -70t34 -70.5t92 -26.5t93 26.5zM185.5 592.5q-31.5 31.5 -31.5 76.5t31.5 76.5t76.5 31.5q44 0 76 -31.5t32 -76.5t-32 -76.5t-76 -31.5q-45 0 -76.5 31.5zM304.5 626.5q17.5 17.5 17.5 42.5t-17.5 43t-42.5 18
t-42.5 -18t-17.5 -43t17.5 -42.5t42.5 -17.5t42.5 17.5z" />
    <glyph glyph-name="atilde.ss01" horiz-adv-x="524" 
d="M393 464.5q54 -55.5 54 -152.5v-312h-65l-8 48q-25 -29 -63 -44t-85 -15q-85 0 -135 44.5t-50 117.5q0 74 52.5 117t138.5 43q43 0 80 -12.5t60 -37.5v52q0 62 -34 99t-99 37q-40 0 -72.5 -15.5t-62.5 -47.5l-50 49q38 43 84 64t104 21q97 0 151 -55.5zM337 82.5
q35 26.5 35 70.5q0 43 -35 69.5t-93 26.5t-92 -26t-34 -70t34 -70.5t92 -26.5t93 26.5zM139 602h-59q0 61 29.5 98.5t76.5 37.5q25 0 42.5 -9t43.5 -29q18 -15 32 -23t30 -8q51 0 51 69h59q0 -61 -29.5 -98.5t-76.5 -37.5q-25 0 -43 9.5t-42 28.5q-20 16 -33 23.5t-30 7.5
q-51 0 -51 -69z" />
    <glyph glyph-name="l.ss02" horiz-adv-x="293" 
d="M239 65q18 0 34 4l10 -69q-24 -6 -53 -6q-67 0 -105 40.5t-38 111.5v614h75v-608q0 -87 77 -87z" />
    <glyph glyph-name="lacute.ss02" horiz-adv-x="288" 
d="M157 846h105l-133 -119h-85zM234 65q18 0 34 4l10 -69q-24 -6 -53 -6q-67 0 -105 40.5t-38 111.5v544h75v-538q0 -87 77 -87z" />
    <glyph glyph-name="lcaron.ss02" horiz-adv-x="293" 
d="M239 65q18 0 34 4l10 -69q-24 -6 -53 -6q-67 0 -105 40.5t-38 111.5v614h75v-608q0 -87 77 -87zM339 760l-75 -196h-58l53 196h80z" />
    <glyph glyph-name="uni013C.ss02" horiz-adv-x="293" 
d="M239 65q18 0 34 4l10 -69q-24 -6 -53 -6q-67 0 -105 40.5t-38 111.5v614h75v-608q0 -87 77 -87zM249 -50l-68 -150h-59l43 150h84z" />
    <glyph glyph-name="ldot.ss02" horiz-adv-x="365" 
d="M239 65q18 0 34 4l10 -69q-24 -6 -53 -6q-67 0 -105 40.5t-38 111.5v614h75v-608q0 -87 77 -87zM261.5 291.5q-17.5 17.5 -17.5 45.5q0 27 17.5 44.5t44.5 17.5t44.5 -17.5t17.5 -44.5q0 -28 -17.5 -45.5t-44.5 -17.5t-44.5 17.5z" />
    <glyph glyph-name="lslash.ss02" horiz-adv-x="293" 
d="M283 0q-24 -6 -53 -6q-67 0 -105 40.5t-38 111.5v172l-100 -66v85l100 66v357h75v-318l100 66v-85l-100 -66v-205q0 -87 77 -87q18 0 34 4z" />
    <glyph glyph-name="f_i" horiz-adv-x="590" 
d="M259 694q-39 0 -57 -21.5t-18 -66.5v-97h137v-69h-137v-440h-75v440h-89v69h89v104q0 72 38.5 112.5t107.5 40.5q46 0 90 -21l-28 -66q-32 15 -58 15zM503 509v-509h-75v509h75zM426.5 649.5q-15.5 15.5 -15.5 38.5t15.5 38.5t38.5 15.5q24 0 39 -15.5t15 -38.5
t-15 -38.5t-39 -15.5q-23 0 -38.5 15.5z" />
    <glyph glyph-name="f_l" horiz-adv-x="590" 
d="M259 694q-39 0 -57 -21.5t-18 -66.5v-97h137v-69h-137v-440h-75v440h-89v69h89v104q0 72 38.5 112.5t107.5 40.5q46 0 90 -21l-28 -66q-32 15 -58 15zM428 0v760h75v-760h-75z" />
    <glyph glyph-name="zero.lf" horiz-adv-x="555" 
d="M443.5 65.5q-57.5 -75.5 -166.5 -75.5t-166.5 75.5t-57.5 218.5v122q0 143 57.5 218.5t166.5 75.5t166.5 -75.5t57.5 -218.5v-122q0 -143 -57.5 -218.5zM387.5 571q-37.5 57 -110.5 57t-110.5 -57t-37.5 -166v-120q0 -109 37.5 -165.5t110.5 -56.5t110.5 56.5t37.5 165.5
v120q0 109 -37.5 166z" />
    <glyph glyph-name="one.lf" horiz-adv-x="490" 
d="M480 73v-73h-420v73h179v523l-179 -67v76l254 95v-627h166z" />
    <glyph glyph-name="two.lf" horiz-adv-x="536" 
d="M487 72v-72h-429v30q0 55 24.5 98.5t60.5 76t94 75.5q55 41 86.5 69t53.5 65t22 82q0 62 -37.5 97t-102.5 35q-57 0 -91.5 -30t-51.5 -92l-74 17q22 86 77.5 132t139.5 46q64 0 113.5 -26t76.5 -72.5t27 -106.5q0 -62 -26.5 -110t-64 -82t-98.5 -78q-65 -47 -98.5 -80
t-44.5 -74h343z" />
    <glyph glyph-name="three.lf" horiz-adv-x="531" 
d="M430 351.5q53 -59.5 53 -145.5q0 -64 -29.5 -113.5t-83 -76.5t-123.5 -27q-79 0 -136.5 37.5t-78.5 101.5l68 29q16 -46 54 -70t93 -24q74 0 116.5 38t42.5 105q0 68 -47.5 109.5t-126.5 41.5q-26 0 -46 -4v55l166 210h-291v72h392v-58l-164 -207q88 -14 141 -73.5z" />
    <glyph glyph-name="four.lf" horiz-adv-x="572" 
d="M550 199h-111v-199h-77v199h-332v83l323 408h86v-419h111v-72zM362 271v323l-256 -323h256z" />
    <glyph glyph-name="five.lf" horiz-adv-x="532" 
d="M369.5 410.5q52.5 -28.5 82 -78.5t29.5 -113q0 -65 -30 -117t-84 -82t-122 -30q-64 0 -118.5 28.5t-85.5 77.5l65 40q21 -36 57 -54.5t82 -18.5q71 0 115 42.5t44 112.5q0 67 -42 107.5t-111 40.5q-66 0 -126 -38l-45 24l29 338h344v-72h-273l-17 -196q43 17 88 17
q66 0 118.5 -28.5z" />
    <glyph glyph-name="six.lf" horiz-adv-x="556" 
d="M398 418.5q54 -30.5 85.5 -83t31.5 -114.5q0 -64 -31.5 -116.5t-85.5 -83.5t-119 -31q-64 0 -117 31.5t-84 85.5t-31 119q0 71 29 134t108 166l128 164h89l-198 -255q36 14 76 14q65 0 119 -30.5zM358.5 83q36.5 21 57.5 57.5t21 80.5q0 42 -21 77.5t-57.5 56.5t-79.5 21
q-42 0 -77.5 -20t-56 -54.5t-20.5 -76.5q0 -45 20.5 -82t56 -59t77.5 -22q43 0 79.5 21z" />
    <glyph glyph-name="seven.lf" horiz-adv-x="522" 
d="M492 690v-68l-324 -622h-83l318 618h-365v72h454z" />
    <glyph glyph-name="eight.lf" horiz-adv-x="592" 
d="M496.5 293.5q29.5 -45.5 29.5 -105.5q0 -59 -28.5 -104t-80.5 -69.5t-121 -24.5t-121 24.5t-80.5 69.5t-28.5 104q0 60 29.5 105.5t82.5 68.5q-42 24 -64.5 63.5t-22.5 91.5q0 83 55.5 133t149.5 50t149.5 -50t55.5 -133q0 -52 -22.5 -91.5t-64.5 -63.5
q53 -23 82.5 -68.5zM203 596.5q-35 -31.5 -35 -84.5t35 -85t93 -32t93 32t35 85t-35 84.5t-93 31.5t-93 -31.5zM406.5 98q41.5 36 41.5 97q0 59 -41.5 94.5t-110.5 35.5t-110.5 -35.5t-41.5 -94.5q0 -61 41.5 -97t110.5 -36t110.5 36z" />
    <glyph glyph-name="nine.lf" horiz-adv-x="556" 
d="M394 668.5q53 -31.5 84 -85.5t31 -119q0 -71 -29 -134t-108 -166l-128 -164h-89l198 255q-36 -14 -76 -14q-64 0 -118.5 30.5t-86 83t-31.5 114.5q0 63 31.5 116t85.5 84t119 31q64 0 117 -31.5zM354.5 334q35.5 20 56 54.5t20.5 76.5q0 45 -20.5 82t-56 59t-77.5 22
q-43 0 -79.5 -21t-57.5 -57.5t-21 -79.5t21 -78.5t57.5 -56.5t79.5 -21q42 0 77.5 20z" />
    <glyph glyph-name="zero.dnom" horiz-adv-x="350" 
d="M273 35.5q-34 -41.5 -99 -41.5q-64 0 -98 41.5t-34 120.5v67q0 79 34 120.5t98 41.5q65 0 99 -41.5t34 -120.5v-67q0 -79 -34 -120.5zM174 330q-73 0 -73 -109v-63q0 -53 18.5 -80.5t54.5 -27.5q75 0 75 108v63q0 109 -75 109z" />
    <glyph glyph-name="one.dnom" horiz-adv-x="351" 
d="M298 55v-55h-245v55h95v251l-95 -34v58l153 55v-330h92z" />
    <glyph glyph-name="two.dnom" horiz-adv-x="349" 
d="M302 55v-55h-258v17q0 34 15 59.5t36 43.5t55 42q44 31 65 53.5t21 54.5q0 29 -18.5 45t-50.5 16q-30 0 -48 -14.5t-26 -47.5l-58 15q14 49 48 76t84 27q57 0 93 -32.5t36 -84.5q0 -35 -15 -62t-37 -45t-57 -42q-32 -21 -48 -35t-25 -31h188z" />
    <glyph glyph-name="three.dnom" horiz-adv-x="350" 
d="M272.5 194.5q26.5 -32.5 26.5 -77.5q0 -55 -38 -89t-100 -34q-46 0 -79.5 21t-45.5 57l53 22q8 -21 26.5 -32.5t45.5 -11.5q36 0 57 17.5t21 49.5q0 33 -24 51.5t-66 18.5q-18 0 -27 -2v41l80 98h-149v56h229v-41l-82 -101q46 -11 72.5 -43.5z" />
    <glyph glyph-name="four.dnom" horiz-adv-x="350" 
d="M324 98h-56v-98h-59v98h-183v62l177 220h65v-227h56v-55zM209 153v157l-127 -157h127z" />
    <glyph glyph-name="five.dnom" horiz-adv-x="350" 
d="M261 213.5q39 -35.5 39 -88.5q0 -55 -39 -93t-99 -38q-38 0 -70.5 17t-49.5 46l50 29q21 -36 70 -36q35 0 56.5 20t21.5 54q0 31 -21 50.5t-56 19.5q-37 0 -67 -20l-34 16l17 190h204v-55h-150l-7 -81q20 5 37 5q59 0 98 -35.5z" />
    <glyph glyph-name="six.dnom" horiz-adv-x="350" 
d="M244 234q32 -17 50.5 -46t18.5 -64t-18.5 -65t-50.5 -47.5t-70 -17.5q-36 0 -67 18t-49.5 48t-18.5 66q0 40 16.5 75.5t62.5 91.5l69 87h67l-106 -132q12 3 26 3q38 0 70 -17zM229.5 70.5q22.5 21.5 22.5 52.5t-22.5 52t-54.5 21q-31 0 -53 -20.5t-22 -50.5
q0 -31 22 -53.5t53 -22.5q32 0 54.5 21.5z" />
    <glyph glyph-name="seven.dnom" horiz-adv-x="350" 
d="M302 380v-51l-180 -329h-65l176 324h-191v56h260z" />
    <glyph glyph-name="eight.dnom" horiz-adv-x="350" 
d="M294 161.5q15 -24.5 15 -55.5q0 -50 -36.5 -81t-97.5 -31t-97.5 30.5t-36.5 81.5q0 32 15 56t43 38q-43 28 -43 82q0 47 32 75t87 28t87.5 -28t32.5 -75q0 -27 -11.5 -48t-32.5 -34q28 -14 43 -38.5zM131 316q-16 -14 -16 -38t16 -38.5t44 -14.5t44 14.5t16 38.5t-16 38
t-44 14t-44 -14zM228.5 66q20.5 17 20.5 45t-20.5 44t-53.5 16t-53 -16t-20 -44t20 -45t53 -17t53.5 17z" />
    <glyph glyph-name="nine.dnom" horiz-adv-x="350" 
d="M243 367.5q31 -17.5 49.5 -48t18.5 -66.5q0 -39 -16.5 -74.5t-62.5 -92.5l-69 -86h-67l106 132q-13 -3 -27 -3q-38 0 -69.5 17t-50 46.5t-18.5 63.5q0 35 18.5 65t50 47t69.5 17q37 0 68 -17.5zM120.5 205q22.5 -21 54.5 -21q31 0 53 20.5t22 49.5q0 32 -22 54.5
t-53 22.5q-32 0 -54.5 -22t-22.5 -53q0 -30 22.5 -51z" />
    <glyph glyph-name="zero.numr" horiz-adv-x="350" 
d="M273 346.5q-34 -41.5 -99 -41.5q-64 0 -98 41.5t-34 120.5v67q0 79 34 120.5t98 41.5q65 0 99 -41.5t34 -120.5v-67q0 -79 -34 -120.5zM174 641q-73 0 -73 -109v-63q0 -53 18.5 -80.5t54.5 -27.5q75 0 75 108v63q0 109 -75 109z" />
    <glyph glyph-name="one.numr" horiz-adv-x="351" 
d="M298 367v-55h-245v55h95v251l-95 -34v58l153 55v-330h92z" />
    <glyph glyph-name="two.numr" horiz-adv-x="349" 
d="M302 366v-55h-258v17q0 34 15 59.5t36 43.5t55 42q44 31 65 53.5t21 54.5q0 29 -18.5 45t-50.5 16q-30 0 -48 -14.5t-26 -47.5l-58 15q14 49 48 76t84 27q57 0 93 -32.5t36 -84.5q0 -35 -15 -62t-37 -45t-57 -42q-32 -21 -48 -35t-25 -31h188z" />
    <glyph glyph-name="three.numr" horiz-adv-x="350" 
d="M272.5 506.5q26.5 -32.5 26.5 -77.5q0 -55 -38 -89t-100 -34q-46 0 -79.5 21t-45.5 57l53 22q8 -21 26.5 -32.5t45.5 -11.5q36 0 57 17.5t21 49.5q0 33 -24 51.5t-66 18.5q-18 0 -27 -2v41l80 98h-149v56h229v-41l-82 -101q46 -11 72.5 -43.5z" />
    <glyph glyph-name="four.numr" horiz-adv-x="350" 
d="M324 409h-56v-98h-59v98h-183v62l177 220h65v-227h56v-55zM209 464v157l-127 -157h127z" />
    <glyph glyph-name="five.numr" horiz-adv-x="350" 
d="M261 524.5q39 -35.5 39 -88.5q0 -55 -39 -93t-99 -38q-38 0 -70.5 17t-49.5 46l50 29q21 -36 70 -36q35 0 56.5 20t21.5 54q0 31 -21 50.5t-56 19.5q-37 0 -67 -20l-34 16l17 190h204v-55h-150l-7 -81q20 5 37 5q59 0 98 -35.5z" />
    <glyph glyph-name="six.numr" horiz-adv-x="350" 
d="M244 545q32 -17 50.5 -46t18.5 -64t-18.5 -65t-50.5 -47.5t-70 -17.5q-36 0 -67 18t-49.5 48t-18.5 66q0 40 16.5 75.5t62.5 91.5l69 87h67l-106 -132q12 3 26 3q38 0 70 -17zM229.5 381.5q22.5 21.5 22.5 52.5t-22.5 52t-54.5 21q-31 0 -53 -20.5t-22 -50.5
q0 -31 22 -53.5t53 -22.5q32 0 54.5 21.5z" />
    <glyph glyph-name="seven.numr" horiz-adv-x="350" 
d="M302 691v-51l-180 -329h-65l176 324h-191v56h260z" />
    <glyph glyph-name="eight.numr" horiz-adv-x="350" 
d="M294 472.5q15 -24.5 15 -55.5q0 -50 -36.5 -81t-97.5 -31t-97.5 30.5t-36.5 81.5q0 32 15 56t43 38q-43 28 -43 82q0 47 32 75t87 28t87.5 -28t32.5 -75q0 -27 -11.5 -48t-32.5 -34q28 -14 43 -38.5zM131 627q-16 -14 -16 -38t16 -38.5t44 -14.5t44 14.5t16 38.5t-16 38
t-44 14t-44 -14zM228.5 377q20.5 17 20.5 45t-20.5 44t-53.5 16t-53 -16t-20 -44t20 -45t53 -17t53.5 17z" />
    <glyph glyph-name="nine.numr" horiz-adv-x="350" 
d="M243 678.5q31 -17.5 49.5 -48t18.5 -66.5q0 -39 -16.5 -74.5t-62.5 -92.5l-69 -86h-67l106 132q-13 -3 -27 -3q-38 0 -69.5 17t-50 46.5t-18.5 63.5q0 35 18.5 65t50 47t69.5 17q37 0 68 -17.5zM120.5 516q22.5 -21 54.5 -21q31 0 53 20.5t22 49.5q0 32 -22 54.5
t-53 22.5q-32 0 -54.5 -22t-22.5 -53q0 -30 22.5 -51z" />
    <glyph glyph-name="periodcentered.loclCAT.case" 
d="M-173.5 364.5q-17.5 17.5 -17.5 45.5q0 27 17.5 44.5t44.5 17.5t44.5 -17.5t17.5 -44.5q0 -28 -17.5 -45.5t-44.5 -17.5t-44.5 17.5z" />
    <glyph glyph-name="periodcentered.loclCAT" horiz-adv-x="114" 
d="M12.5 291.5q-17.5 17.5 -17.5 45.5q0 27 17.5 44.5t44.5 17.5t44.5 -17.5t17.5 -44.5q0 -28 -17.5 -45.5t-44.5 -17.5t-44.5 17.5z" />
    <glyph glyph-name="caroncomb.alt" 
d="M-20 760l-75 -196h-58l53 196h80z" />
    <glyph glyph-name="uni0308.case" 
d="M-325 747.5q-14 14.5 -14 36.5q0 23 14 37t37 14q22 0 36.5 -14t14.5 -37q0 -22 -14.5 -36.5t-36.5 -14.5q-23 0 -37 14.5zM-118.5 747.5q-14.5 14.5 -14.5 36.5t14.5 36.5t36.5 14.5q23 0 37.5 -14.5t14.5 -36.5t-14.5 -36.5t-37.5 -14.5q-22 0 -36.5 14.5z" />
    <glyph glyph-name="uni0307.case" 
d="M-122.5 745.5q-15.5 15.5 -15.5 38.5q0 24 15.5 39t38.5 15q24 0 39 -15t15 -39q0 -23 -15 -38.5t-39 -15.5q-23 0 -38.5 15.5z" />
    <glyph glyph-name="gravecomb.case" 
d="M-115 727l-133 119h105l113 -119h-85z" />
    <glyph glyph-name="acutecomb.case" 
d="M-135 846h105l-133 -119h-85z" />
    <glyph glyph-name="uni030B.case" 
d="M-135 846h105l-133 -119h-85zM-315 846h105l-133 -119h-85z" />
    <glyph glyph-name="uni0302.case" 
d="M-118 727l-79 81l-79 -81h-88l116 119h101l117 -119h-88z" />
    <glyph glyph-name="uni030C.case" 
d="M-30 846l-117 -119h-101l-116 119h88l79 -81l79 81h88z" />
    <glyph glyph-name="uni0306.case" 
d="M-276 757q-40 35 -40 89h61q0 -28 22 -44t60 -16q37 0 59.5 16.5t22.5 43.5h61q0 -54 -40.5 -89t-102.5 -35q-63 0 -103 35z" />
    <glyph glyph-name="uni030A.case" 
d="M-208 698q-31 30 -31 71q0 42 31 72t74 30t73.5 -30t30.5 -72q0 -41 -30.5 -71t-73.5 -30t-74 30zM-94 731.5q17 15.5 17 37.5t-17 38t-40 16q-24 0 -40.5 -16t-16.5 -38t16.5 -37.5t40.5 -15.5q23 0 40 15.5z" />
    <glyph glyph-name="tildecomb.case" 
d="M-335 722h-59q0 57 29.5 91.5t76.5 34.5q25 0 43 -8t43 -25q19 -13 32.5 -19.5t29.5 -6.5q51 0 51 59h59q0 -57 -29.5 -91.5t-76.5 -34.5q-25 0 -43.5 8.5t-41.5 24.5q-21 14 -34 20t-29 6q-51 0 -51 -59z" />
    <glyph glyph-name="uni0304.case" 
d="M-30 818v-67h-278v67h278z" />
    <glyph glyph-name="uni0335.case" 
d="M-30 366v-67h-336v67h336z" />
    <glyph glyph-name="uni0308.narrow" 
d="M-268 643q-14 14 -14 36q0 21 14 35t36 14q21 0 35 -14t14 -35q0 -22 -14 -36t-35 -14q-22 0 -36 14zM-115.5 643q-13.5 14 -13.5 36q0 21 13.5 35t35.5 14t36 -14t14 -35q0 -22 -14 -36t-36 -14t-35.5 14z" />
    <glyph glyph-name="uni0302.narrow" 
d="M-100 587l-62 103l-63 -103h-70l92 153h81l92 -153h-70z" />
    <glyph glyph-name="uni0306.narrow" 
d="M-242.5 623.5q-33.5 40.5 -33.5 116.5h61q0 -47 16.5 -70t45.5 -23t45.5 23.5t16.5 69.5h61q0 -76 -34 -116.5t-89 -40.5q-56 0 -89.5 40.5z" />
    <glyph glyph-name="tildecomb.narrow" 
d="M-266 593h-55q0 56 23.5 90.5t61.5 34.5q19 0 34 -8.5t35 -25.5q16 -13 26 -19t21 -6q35 0 35 59h55q0 -56 -23.5 -90.5t-61.5 -34.5q-19 0 -34.5 8.5t-35.5 24.5q-15 13 -24.5 19t-20.5 6q-36 0 -36 -58z" />
    <glyph glyph-name="uni0304.narrow" 
d="M-30 691v-66h-231v66h231z" />
    <glyph glyph-name="caron.alt" horiz-adv-x="193" 
d="M163 760l-75 -196h-58l53 196h80z" />
    <glyph glyph-name="acute.case" horiz-adv-x="278" 
d="M143 846h105l-133 -119h-85z" />
    <glyph glyph-name="breve.case" horiz-adv-x="346" 
d="M70 757q-40 35 -40 89h61q0 -28 22 -44t60 -16q37 0 59.5 16.5t22.5 43.5h61q0 -54 -40.5 -89t-102.5 -35q-63 0 -103 35z" />
    <glyph glyph-name="caron.case" horiz-adv-x="394" 
d="M364 846l-117 -119h-101l-116 119h88l79 -81l79 81h88z" />
    <glyph glyph-name="circumflex.case" horiz-adv-x="394" 
d="M276 727l-79 81l-79 -81h-88l116 119h101l117 -119h-88z" />
    <glyph glyph-name="dieresis.case" horiz-adv-x="369" 
d="M44.5 747.5q-14.5 14.5 -14.5 36.5q0 23 14.5 37t36.5 14q23 0 37 -14t14 -37q0 -22 -14 -36.5t-37 -14.5q-22 0 -36.5 14.5zM250.5 747.5q-14.5 14.5 -14.5 36.5t14.5 36.5t36.5 14.5q23 0 37.5 -14.5t14.5 -36.5t-14.5 -36.5t-37.5 -14.5q-22 0 -36.5 14.5z" />
    <glyph glyph-name="dotaccent.case" horiz-adv-x="168" 
d="M45.5 745.5q-15.5 15.5 -15.5 38.5q0 24 15.5 39t38.5 15q24 0 39 -15t15 -39q0 -23 -15 -38.5t-39 -15.5q-23 0 -38.5 15.5z" />
    <glyph glyph-name="grave.case" horiz-adv-x="278" 
d="M163 727l-133 119h105l113 -119h-85z" />
    <glyph glyph-name="hungarumlaut.case" horiz-adv-x="278" 
d="M143 846h105l-133 -119h-85z" />
    <glyph glyph-name="macron.case" horiz-adv-x="338" 
d="M308 818v-67h-278v67h278z" />
    <glyph glyph-name="ring.case" horiz-adv-x="269" 
d="M61 698q-31 30 -31 71q0 42 31 72t74 30t73.5 -30t30.5 -72q0 -41 -30.5 -71t-73.5 -30t-74 30zM175 731.5q17 15.5 17 37.5t-17 38t-40 16q-24 0 -40.5 -16t-16.5 -38t16.5 -37.5t40.5 -15.5q23 0 40 15.5z" />
    <glyph glyph-name="tilde.case" horiz-adv-x="424" 
d="M89 722h-59q0 57 29.5 91.5t76.5 34.5q25 0 43 -8t43 -25q19 -13 32.5 -19.5t29.5 -6.5q51 0 51 59h59q0 -57 -29.5 -91.5t-76.5 -34.5q-25 0 -43.5 8.5t-41.5 24.5q-21 14 -33.5 20t-29.5 6q-51 0 -51 -59z" />
    </font>
</defs>
</svg>
