<?xml version="1.0" encoding="UTF-8"?>
<svg width="129px" height="16px" viewBox="0 0 129 16" version="1.1" xmlns="http://www.w3.org/2000/svg" xmlns:xlink="http://www.w3.org/1999/xlink">
    <!-- Generator: Sketch 51.3 (57544) - http://www.bohemiancoding.com/sketch -->
    <title>squiggle copy</title>
    <desc>Created with Sketch.</desc>
    <defs></defs>
    <g id="Page-1" stroke="none" stroke-width="1" fill="none" fill-rule="evenodd" stroke-linecap="round" stroke-linejoin="round">
        <g id="Desktop-HD" transform="translate(-764.000000, -1116.000000)" stroke="#233B97" stroke-width="2.5">
            <g id="squiggle-copy" transform="translate(766.000000, 1118.000000)">
                <path d="M0,7.73737374 C5.78383978,-1.15151515 12.3446133,-1.63636364 18.214779,6.36363636 C23.7396409,13.8787879 29.9551105,13.8787879 35.5662983,6.36363636 L36.0842541,5.63636364 C41.609116,-1.87878788 47.8245856,-1.87878788 53.4357735,5.63636364 L53.9537293,6.36363636 C59.4785912,13.8787879 65.6940608,13.8787879 71.3052486,6.36363636 L71.8232044,5.63636364 C77.3480663,-1.87878788 83.5635359,-1.87878788 89.1747238,5.63636364 L89.6926796,6.36363636 C95.2175414,13.8787879 101.433011,13.8787879 107.044199,6.36363636 L107.562155,5.71717172 C113.173343,-1.87878788 119.388812,-1.7979798 125,5.87878788" id="Shape"></path>
            </g>
        </g>
    </g>
</svg>